G04 #@! TF.GenerationSoftware,KiCad,Pcbnew,(5.1.8)-1*
G04 #@! TF.CreationDate,2021-06-12T10:53:30+02:00*
G04 #@! TF.ProjectId,BlueMacro,426c7565-4d61-4637-926f-2e6b69636164,rev?*
G04 #@! TF.SameCoordinates,Original*
G04 #@! TF.FileFunction,Copper,L1,Top*
G04 #@! TF.FilePolarity,Positive*
%FSLAX46Y46*%
G04 Gerber Fmt 4.6, Leading zero omitted, Abs format (unit mm)*
G04 Created by KiCad (PCBNEW (5.1.8)-1) date 2021-06-12 10:53:30*
%MOMM*%
%LPD*%
G01*
G04 APERTURE LIST*
G04 #@! TA.AperFunction,ComponentPad*
%ADD10R,0.650000X1.000000*%
G04 #@! TD*
G04 #@! TA.AperFunction,ComponentPad*
%ADD11R,1.000000X0.650000*%
G04 #@! TD*
G04 #@! TA.AperFunction,SMDPad,CuDef*
%ADD12R,0.650000X1.000000*%
G04 #@! TD*
G04 #@! TA.AperFunction,SMDPad,CuDef*
%ADD13R,1.000000X0.650000*%
G04 #@! TD*
G04 #@! TA.AperFunction,WasherPad*
%ADD14C,1.270000*%
G04 #@! TD*
G04 #@! TA.AperFunction,ComponentPad*
%ADD15C,1.270000*%
G04 #@! TD*
G04 #@! TA.AperFunction,ComponentPad*
%ADD16R,1.250000X1.250000*%
G04 #@! TD*
G04 #@! TA.AperFunction,SMDPad,CuDef*
%ADD17R,0.900000X1.200000*%
G04 #@! TD*
G04 #@! TA.AperFunction,ComponentPad*
%ADD18R,1.700000X1.700000*%
G04 #@! TD*
G04 #@! TA.AperFunction,ComponentPad*
%ADD19O,1.700000X1.700000*%
G04 #@! TD*
G04 #@! TA.AperFunction,ComponentPad*
%ADD20O,1.000000X1.600000*%
G04 #@! TD*
G04 #@! TA.AperFunction,ComponentPad*
%ADD21O,1.000000X2.100000*%
G04 #@! TD*
G04 #@! TA.AperFunction,SMDPad,CuDef*
%ADD22R,0.300000X1.450000*%
G04 #@! TD*
G04 #@! TA.AperFunction,SMDPad,CuDef*
%ADD23R,0.600000X1.450000*%
G04 #@! TD*
G04 #@! TA.AperFunction,SMDPad,CuDef*
%ADD24R,0.800000X0.900000*%
G04 #@! TD*
G04 #@! TA.AperFunction,SMDPad,CuDef*
%ADD25R,0.650000X1.060000*%
G04 #@! TD*
G04 #@! TA.AperFunction,SMDPad,CuDef*
%ADD26R,1.000000X1.800000*%
G04 #@! TD*
G04 #@! TA.AperFunction,ComponentPad*
%ADD27C,0.100000*%
G04 #@! TD*
G04 #@! TA.AperFunction,ViaPad*
%ADD28C,0.800000*%
G04 #@! TD*
G04 #@! TA.AperFunction,Conductor*
%ADD29C,0.250000*%
G04 #@! TD*
G04 #@! TA.AperFunction,Conductor*
%ADD30C,0.200000*%
G04 #@! TD*
G04 APERTURE END LIST*
D10*
X48283000Y-58607000D03*
X44473000Y-58607000D03*
X45743000Y-58607000D03*
X49553000Y-58607000D03*
X47013000Y-58607000D03*
X52093000Y-58607000D03*
X50823000Y-58607000D03*
D11*
X44219000Y-70037000D03*
X44219000Y-68767000D03*
X44219000Y-67497000D03*
X44219000Y-66227000D03*
X44219000Y-64957000D03*
X44219000Y-63687000D03*
X44219000Y-62417000D03*
D12*
X47650000Y-56896000D03*
X43840000Y-56896000D03*
X48920000Y-56896000D03*
X50190000Y-56896000D03*
X51460000Y-56896000D03*
X46380000Y-56896000D03*
X52730000Y-56896000D03*
X45110000Y-56896000D03*
D13*
X42141000Y-59115000D03*
X42141000Y-60385000D03*
X42141000Y-65465000D03*
X42141000Y-61655000D03*
X42141000Y-66735000D03*
X42141000Y-68005000D03*
X42141000Y-69275000D03*
X42141000Y-64195000D03*
X42141000Y-70545000D03*
X42141000Y-62925000D03*
X54379000Y-70545000D03*
X54379000Y-69275000D03*
X54379000Y-68005000D03*
X54379000Y-66735000D03*
X54379000Y-65465000D03*
X54379000Y-64195000D03*
X54379000Y-62925000D03*
X54379000Y-61655000D03*
X54379000Y-60385000D03*
X54379000Y-59115000D03*
D11*
X44219000Y-61147000D03*
D14*
X55880000Y-27940000D03*
X40640000Y-27940000D03*
X55880000Y-73660000D03*
X40640000Y-73660000D03*
D15*
X40640000Y-71120000D03*
X40640000Y-68580000D03*
X40640000Y-66040000D03*
X40640000Y-63500000D03*
X40640000Y-60960000D03*
X40640000Y-53340000D03*
X40640000Y-50800000D03*
X40640000Y-48260000D03*
X40640000Y-55880000D03*
X40640000Y-58420000D03*
D16*
X55880000Y-71120000D03*
D15*
X55880000Y-68580000D03*
X55880000Y-66040000D03*
X55880000Y-63500000D03*
X55880000Y-60960000D03*
X55880000Y-58420000D03*
X55880000Y-55880000D03*
X55880000Y-53340000D03*
X55880000Y-50800000D03*
X55880000Y-48260000D03*
X55880000Y-45720000D03*
X55880000Y-43180000D03*
X40640000Y-45720000D03*
X40640000Y-43180000D03*
X40640000Y-40640000D03*
X40640000Y-38100000D03*
X40640000Y-35560000D03*
X40640000Y-33020000D03*
X40640000Y-30480000D03*
X55880000Y-30480000D03*
X55880000Y-33020000D03*
X55880000Y-35560000D03*
X55880000Y-38100000D03*
X55880000Y-40640000D03*
D17*
X46610000Y-37084000D03*
X49910000Y-37084000D03*
D18*
X53340000Y-44450000D03*
D19*
X53340000Y-46990000D03*
D20*
X43940000Y-29270000D03*
X52580000Y-29270000D03*
D21*
X43940000Y-33450000D03*
X52580000Y-33450000D03*
D22*
X48510000Y-34365000D03*
X48010000Y-34365000D03*
X47510000Y-34365000D03*
X49010000Y-34365000D03*
X47010000Y-34365000D03*
X49510000Y-34365000D03*
X46510000Y-34365000D03*
X50010000Y-34365000D03*
D23*
X50710000Y-34365000D03*
X45810000Y-34365000D03*
X51485000Y-34365000D03*
X45035000Y-34365000D03*
G04 #@! TA.AperFunction,SMDPad,CuDef*
G36*
G01*
X42849500Y-55066250D02*
X42849500Y-54153750D01*
G75*
G02*
X43093250Y-53910000I243750J0D01*
G01*
X43580750Y-53910000D01*
G75*
G02*
X43824500Y-54153750I0J-243750D01*
G01*
X43824500Y-55066250D01*
G75*
G02*
X43580750Y-55310000I-243750J0D01*
G01*
X43093250Y-55310000D01*
G75*
G02*
X42849500Y-55066250I0J243750D01*
G01*
G37*
G04 #@! TD.AperFunction*
G04 #@! TA.AperFunction,SMDPad,CuDef*
G36*
G01*
X44724500Y-55066250D02*
X44724500Y-54153750D01*
G75*
G02*
X44968250Y-53910000I243750J0D01*
G01*
X45455750Y-53910000D01*
G75*
G02*
X45699500Y-54153750I0J-243750D01*
G01*
X45699500Y-55066250D01*
G75*
G02*
X45455750Y-55310000I-243750J0D01*
G01*
X44968250Y-55310000D01*
G75*
G02*
X44724500Y-55066250I0J243750D01*
G01*
G37*
G04 #@! TD.AperFunction*
D24*
X49210000Y-39132000D03*
X47310000Y-39132000D03*
X48260000Y-41132000D03*
D25*
X46850260Y-46398000D03*
X48750260Y-46398000D03*
X48750260Y-48598000D03*
X47800260Y-48598000D03*
X46850260Y-48598000D03*
X48702000Y-50505000D03*
X47752000Y-50505000D03*
X46802000Y-50505000D03*
X46802000Y-52705000D03*
X48702000Y-52705000D03*
D26*
X53594000Y-54356000D03*
X51094000Y-54356000D03*
G04 #@! TA.AperFunction,ComponentPad*
D27*
G36*
X39243000Y-60467817D02*
G01*
X38465183Y-59690000D01*
X39243000Y-58912183D01*
X40020817Y-59690000D01*
X39243000Y-60467817D01*
G37*
G04 #@! TD.AperFunction*
G04 #@! TA.AperFunction,ComponentPad*
G36*
X39243000Y-63007817D02*
G01*
X38465183Y-62230000D01*
X39243000Y-61452183D01*
X40020817Y-62230000D01*
X39243000Y-63007817D01*
G37*
G04 #@! TD.AperFunction*
G04 #@! TA.AperFunction,ComponentPad*
G36*
X39243000Y-65547817D02*
G01*
X38465183Y-64770000D01*
X39243000Y-63992183D01*
X40020817Y-64770000D01*
X39243000Y-65547817D01*
G37*
G04 #@! TD.AperFunction*
G04 #@! TA.AperFunction,ComponentPad*
G36*
X39243000Y-68087817D02*
G01*
X38465183Y-67310000D01*
X39243000Y-66532183D01*
X40020817Y-67310000D01*
X39243000Y-68087817D01*
G37*
G04 #@! TD.AperFunction*
D25*
X43246000Y-48598000D03*
X44196000Y-48598000D03*
X45146000Y-48598000D03*
X45146000Y-46398000D03*
X43246000Y-46398000D03*
G04 #@! TA.AperFunction,SMDPad,CuDef*
G36*
G01*
X53850250Y-50932500D02*
X53337750Y-50932500D01*
G75*
G02*
X53119000Y-50713750I0J218750D01*
G01*
X53119000Y-50276250D01*
G75*
G02*
X53337750Y-50057500I218750J0D01*
G01*
X53850250Y-50057500D01*
G75*
G02*
X54069000Y-50276250I0J-218750D01*
G01*
X54069000Y-50713750D01*
G75*
G02*
X53850250Y-50932500I-218750J0D01*
G01*
G37*
G04 #@! TD.AperFunction*
G04 #@! TA.AperFunction,SMDPad,CuDef*
G36*
G01*
X53850250Y-52507500D02*
X53337750Y-52507500D01*
G75*
G02*
X53119000Y-52288750I0J218750D01*
G01*
X53119000Y-51851250D01*
G75*
G02*
X53337750Y-51632500I218750J0D01*
G01*
X53850250Y-51632500D01*
G75*
G02*
X54069000Y-51851250I0J-218750D01*
G01*
X54069000Y-52288750D01*
G75*
G02*
X53850250Y-52507500I-218750J0D01*
G01*
G37*
G04 #@! TD.AperFunction*
G04 #@! TA.AperFunction,SMDPad,CuDef*
G36*
G01*
X52072250Y-52507500D02*
X51559750Y-52507500D01*
G75*
G02*
X51341000Y-52288750I0J218750D01*
G01*
X51341000Y-51851250D01*
G75*
G02*
X51559750Y-51632500I218750J0D01*
G01*
X52072250Y-51632500D01*
G75*
G02*
X52291000Y-51851250I0J-218750D01*
G01*
X52291000Y-52288750D01*
G75*
G02*
X52072250Y-52507500I-218750J0D01*
G01*
G37*
G04 #@! TD.AperFunction*
G04 #@! TA.AperFunction,SMDPad,CuDef*
G36*
G01*
X52072250Y-50932500D02*
X51559750Y-50932500D01*
G75*
G02*
X51341000Y-50713750I0J218750D01*
G01*
X51341000Y-50276250D01*
G75*
G02*
X51559750Y-50057500I218750J0D01*
G01*
X52072250Y-50057500D01*
G75*
G02*
X52291000Y-50276250I0J-218750D01*
G01*
X52291000Y-50713750D01*
G75*
G02*
X52072250Y-50932500I-218750J0D01*
G01*
G37*
G04 #@! TD.AperFunction*
G04 #@! TA.AperFunction,SMDPad,CuDef*
G36*
G01*
X50035750Y-50057500D02*
X50548250Y-50057500D01*
G75*
G02*
X50767000Y-50276250I0J-218750D01*
G01*
X50767000Y-50713750D01*
G75*
G02*
X50548250Y-50932500I-218750J0D01*
G01*
X50035750Y-50932500D01*
G75*
G02*
X49817000Y-50713750I0J218750D01*
G01*
X49817000Y-50276250D01*
G75*
G02*
X50035750Y-50057500I218750J0D01*
G01*
G37*
G04 #@! TD.AperFunction*
G04 #@! TA.AperFunction,SMDPad,CuDef*
G36*
G01*
X50035750Y-51632500D02*
X50548250Y-51632500D01*
G75*
G02*
X50767000Y-51851250I0J-218750D01*
G01*
X50767000Y-52288750D01*
G75*
G02*
X50548250Y-52507500I-218750J0D01*
G01*
X50035750Y-52507500D01*
G75*
G02*
X49817000Y-52288750I0J218750D01*
G01*
X49817000Y-51851250D01*
G75*
G02*
X50035750Y-51632500I218750J0D01*
G01*
G37*
G04 #@! TD.AperFunction*
G04 #@! TA.AperFunction,SMDPad,CuDef*
G36*
G01*
X50802250Y-45167000D02*
X50289750Y-45167000D01*
G75*
G02*
X50071000Y-44948250I0J218750D01*
G01*
X50071000Y-44510750D01*
G75*
G02*
X50289750Y-44292000I218750J0D01*
G01*
X50802250Y-44292000D01*
G75*
G02*
X51021000Y-44510750I0J-218750D01*
G01*
X51021000Y-44948250D01*
G75*
G02*
X50802250Y-45167000I-218750J0D01*
G01*
G37*
G04 #@! TD.AperFunction*
G04 #@! TA.AperFunction,SMDPad,CuDef*
G36*
G01*
X50802250Y-43592000D02*
X50289750Y-43592000D01*
G75*
G02*
X50071000Y-43373250I0J218750D01*
G01*
X50071000Y-42935750D01*
G75*
G02*
X50289750Y-42717000I218750J0D01*
G01*
X50802250Y-42717000D01*
G75*
G02*
X51021000Y-42935750I0J-218750D01*
G01*
X51021000Y-43373250D01*
G75*
G02*
X50802250Y-43592000I-218750J0D01*
G01*
G37*
G04 #@! TD.AperFunction*
G04 #@! TA.AperFunction,SMDPad,CuDef*
G36*
G01*
X47884500Y-54353750D02*
X47884500Y-54866250D01*
G75*
G02*
X47665750Y-55085000I-218750J0D01*
G01*
X47228250Y-55085000D01*
G75*
G02*
X47009500Y-54866250I0J218750D01*
G01*
X47009500Y-54353750D01*
G75*
G02*
X47228250Y-54135000I218750J0D01*
G01*
X47665750Y-54135000D01*
G75*
G02*
X47884500Y-54353750I0J-218750D01*
G01*
G37*
G04 #@! TD.AperFunction*
G04 #@! TA.AperFunction,SMDPad,CuDef*
G36*
G01*
X49459500Y-54353750D02*
X49459500Y-54866250D01*
G75*
G02*
X49240750Y-55085000I-218750J0D01*
G01*
X48803250Y-55085000D01*
G75*
G02*
X48584500Y-54866250I0J218750D01*
G01*
X48584500Y-54353750D01*
G75*
G02*
X48803250Y-54135000I218750J0D01*
G01*
X49240750Y-54135000D01*
G75*
G02*
X49459500Y-54353750I0J-218750D01*
G01*
G37*
G04 #@! TD.AperFunction*
G04 #@! TA.AperFunction,SMDPad,CuDef*
G36*
G01*
X47246250Y-43592000D02*
X46733750Y-43592000D01*
G75*
G02*
X46515000Y-43373250I0J218750D01*
G01*
X46515000Y-42935750D01*
G75*
G02*
X46733750Y-42717000I218750J0D01*
G01*
X47246250Y-42717000D01*
G75*
G02*
X47465000Y-42935750I0J-218750D01*
G01*
X47465000Y-43373250D01*
G75*
G02*
X47246250Y-43592000I-218750J0D01*
G01*
G37*
G04 #@! TD.AperFunction*
G04 #@! TA.AperFunction,SMDPad,CuDef*
G36*
G01*
X47246250Y-45167000D02*
X46733750Y-45167000D01*
G75*
G02*
X46515000Y-44948250I0J218750D01*
G01*
X46515000Y-44510750D01*
G75*
G02*
X46733750Y-44292000I218750J0D01*
G01*
X47246250Y-44292000D01*
G75*
G02*
X47465000Y-44510750I0J-218750D01*
G01*
X47465000Y-44948250D01*
G75*
G02*
X47246250Y-45167000I-218750J0D01*
G01*
G37*
G04 #@! TD.AperFunction*
G04 #@! TA.AperFunction,SMDPad,CuDef*
G36*
G01*
X45214250Y-41865000D02*
X44701750Y-41865000D01*
G75*
G02*
X44483000Y-41646250I0J218750D01*
G01*
X44483000Y-41208750D01*
G75*
G02*
X44701750Y-40990000I218750J0D01*
G01*
X45214250Y-40990000D01*
G75*
G02*
X45433000Y-41208750I0J-218750D01*
G01*
X45433000Y-41646250D01*
G75*
G02*
X45214250Y-41865000I-218750J0D01*
G01*
G37*
G04 #@! TD.AperFunction*
G04 #@! TA.AperFunction,SMDPad,CuDef*
G36*
G01*
X45214250Y-40290000D02*
X44701750Y-40290000D01*
G75*
G02*
X44483000Y-40071250I0J218750D01*
G01*
X44483000Y-39633750D01*
G75*
G02*
X44701750Y-39415000I218750J0D01*
G01*
X45214250Y-39415000D01*
G75*
G02*
X45433000Y-39633750I0J-218750D01*
G01*
X45433000Y-40071250D01*
G75*
G02*
X45214250Y-40290000I-218750J0D01*
G01*
G37*
G04 #@! TD.AperFunction*
G04 #@! TA.AperFunction,SMDPad,CuDef*
G36*
G01*
X51305750Y-39389500D02*
X51818250Y-39389500D01*
G75*
G02*
X52037000Y-39608250I0J-218750D01*
G01*
X52037000Y-40045750D01*
G75*
G02*
X51818250Y-40264500I-218750J0D01*
G01*
X51305750Y-40264500D01*
G75*
G02*
X51087000Y-40045750I0J218750D01*
G01*
X51087000Y-39608250D01*
G75*
G02*
X51305750Y-39389500I218750J0D01*
G01*
G37*
G04 #@! TD.AperFunction*
G04 #@! TA.AperFunction,SMDPad,CuDef*
G36*
G01*
X51305750Y-40964500D02*
X51818250Y-40964500D01*
G75*
G02*
X52037000Y-41183250I0J-218750D01*
G01*
X52037000Y-41620750D01*
G75*
G02*
X51818250Y-41839500I-218750J0D01*
G01*
X51305750Y-41839500D01*
G75*
G02*
X51087000Y-41620750I0J218750D01*
G01*
X51087000Y-41183250D01*
G75*
G02*
X51305750Y-40964500I218750J0D01*
G01*
G37*
G04 #@! TD.AperFunction*
G04 #@! TA.AperFunction,SMDPad,CuDef*
G36*
G01*
X42923750Y-42717000D02*
X43436250Y-42717000D01*
G75*
G02*
X43655000Y-42935750I0J-218750D01*
G01*
X43655000Y-43373250D01*
G75*
G02*
X43436250Y-43592000I-218750J0D01*
G01*
X42923750Y-43592000D01*
G75*
G02*
X42705000Y-43373250I0J218750D01*
G01*
X42705000Y-42935750D01*
G75*
G02*
X42923750Y-42717000I218750J0D01*
G01*
G37*
G04 #@! TD.AperFunction*
G04 #@! TA.AperFunction,SMDPad,CuDef*
G36*
G01*
X42923750Y-44292000D02*
X43436250Y-44292000D01*
G75*
G02*
X43655000Y-44510750I0J-218750D01*
G01*
X43655000Y-44948250D01*
G75*
G02*
X43436250Y-45167000I-218750J0D01*
G01*
X42923750Y-45167000D01*
G75*
G02*
X42705000Y-44948250I0J218750D01*
G01*
X42705000Y-44510750D01*
G75*
G02*
X42923750Y-44292000I218750J0D01*
G01*
G37*
G04 #@! TD.AperFunction*
G04 #@! TA.AperFunction,SMDPad,CuDef*
G36*
G01*
X45214250Y-43592000D02*
X44701750Y-43592000D01*
G75*
G02*
X44483000Y-43373250I0J218750D01*
G01*
X44483000Y-42935750D01*
G75*
G02*
X44701750Y-42717000I218750J0D01*
G01*
X45214250Y-42717000D01*
G75*
G02*
X45433000Y-42935750I0J-218750D01*
G01*
X45433000Y-43373250D01*
G75*
G02*
X45214250Y-43592000I-218750J0D01*
G01*
G37*
G04 #@! TD.AperFunction*
G04 #@! TA.AperFunction,SMDPad,CuDef*
G36*
G01*
X45214250Y-45167000D02*
X44701750Y-45167000D01*
G75*
G02*
X44483000Y-44948250I0J218750D01*
G01*
X44483000Y-44510750D01*
G75*
G02*
X44701750Y-44292000I218750J0D01*
G01*
X45214250Y-44292000D01*
G75*
G02*
X45433000Y-44510750I0J-218750D01*
G01*
X45433000Y-44948250D01*
G75*
G02*
X45214250Y-45167000I-218750J0D01*
G01*
G37*
G04 #@! TD.AperFunction*
G04 #@! TA.AperFunction,SMDPad,CuDef*
G36*
G01*
X48511750Y-42717000D02*
X49024250Y-42717000D01*
G75*
G02*
X49243000Y-42935750I0J-218750D01*
G01*
X49243000Y-43373250D01*
G75*
G02*
X49024250Y-43592000I-218750J0D01*
G01*
X48511750Y-43592000D01*
G75*
G02*
X48293000Y-43373250I0J218750D01*
G01*
X48293000Y-42935750D01*
G75*
G02*
X48511750Y-42717000I218750J0D01*
G01*
G37*
G04 #@! TD.AperFunction*
G04 #@! TA.AperFunction,SMDPad,CuDef*
G36*
G01*
X48511750Y-44292000D02*
X49024250Y-44292000D01*
G75*
G02*
X49243000Y-44510750I0J-218750D01*
G01*
X49243000Y-44948250D01*
G75*
G02*
X49024250Y-45167000I-218750J0D01*
G01*
X48511750Y-45167000D01*
G75*
G02*
X48293000Y-44948250I0J218750D01*
G01*
X48293000Y-44510750D01*
G75*
G02*
X48511750Y-44292000I218750J0D01*
G01*
G37*
G04 #@! TD.AperFunction*
G04 #@! TA.AperFunction,SMDPad,CuDef*
G36*
G01*
X50289750Y-47594000D02*
X50802250Y-47594000D01*
G75*
G02*
X51021000Y-47812750I0J-218750D01*
G01*
X51021000Y-48250250D01*
G75*
G02*
X50802250Y-48469000I-218750J0D01*
G01*
X50289750Y-48469000D01*
G75*
G02*
X50071000Y-48250250I0J218750D01*
G01*
X50071000Y-47812750D01*
G75*
G02*
X50289750Y-47594000I218750J0D01*
G01*
G37*
G04 #@! TD.AperFunction*
G04 #@! TA.AperFunction,SMDPad,CuDef*
G36*
G01*
X50289750Y-46019000D02*
X50802250Y-46019000D01*
G75*
G02*
X51021000Y-46237750I0J-218750D01*
G01*
X51021000Y-46675250D01*
G75*
G02*
X50802250Y-46894000I-218750J0D01*
G01*
X50289750Y-46894000D01*
G75*
G02*
X50071000Y-46675250I0J218750D01*
G01*
X50071000Y-46237750D01*
G75*
G02*
X50289750Y-46019000I218750J0D01*
G01*
G37*
G04 #@! TD.AperFunction*
G04 #@! TA.AperFunction,SMDPad,CuDef*
G36*
G01*
X44701750Y-36113000D02*
X45214250Y-36113000D01*
G75*
G02*
X45433000Y-36331750I0J-218750D01*
G01*
X45433000Y-36769250D01*
G75*
G02*
X45214250Y-36988000I-218750J0D01*
G01*
X44701750Y-36988000D01*
G75*
G02*
X44483000Y-36769250I0J218750D01*
G01*
X44483000Y-36331750D01*
G75*
G02*
X44701750Y-36113000I218750J0D01*
G01*
G37*
G04 #@! TD.AperFunction*
G04 #@! TA.AperFunction,SMDPad,CuDef*
G36*
G01*
X44701750Y-37688000D02*
X45214250Y-37688000D01*
G75*
G02*
X45433000Y-37906750I0J-218750D01*
G01*
X45433000Y-38344250D01*
G75*
G02*
X45214250Y-38563000I-218750J0D01*
G01*
X44701750Y-38563000D01*
G75*
G02*
X44483000Y-38344250I0J218750D01*
G01*
X44483000Y-37906750D01*
G75*
G02*
X44701750Y-37688000I218750J0D01*
G01*
G37*
G04 #@! TD.AperFunction*
G04 #@! TA.AperFunction,SMDPad,CuDef*
G36*
G01*
X51305750Y-37688000D02*
X51818250Y-37688000D01*
G75*
G02*
X52037000Y-37906750I0J-218750D01*
G01*
X52037000Y-38344250D01*
G75*
G02*
X51818250Y-38563000I-218750J0D01*
G01*
X51305750Y-38563000D01*
G75*
G02*
X51087000Y-38344250I0J218750D01*
G01*
X51087000Y-37906750D01*
G75*
G02*
X51305750Y-37688000I218750J0D01*
G01*
G37*
G04 #@! TD.AperFunction*
G04 #@! TA.AperFunction,SMDPad,CuDef*
G36*
G01*
X51305750Y-36113000D02*
X51818250Y-36113000D01*
G75*
G02*
X52037000Y-36331750I0J-218750D01*
G01*
X52037000Y-36769250D01*
G75*
G02*
X51818250Y-36988000I-218750J0D01*
G01*
X51305750Y-36988000D01*
G75*
G02*
X51087000Y-36769250I0J218750D01*
G01*
X51087000Y-36331750D01*
G75*
G02*
X51305750Y-36113000I218750J0D01*
G01*
G37*
G04 #@! TD.AperFunction*
D28*
X53340000Y-42418000D03*
X52203831Y-35488064D03*
X44316172Y-35488067D03*
X43942000Y-50546000D03*
X47371000Y-42037000D03*
X49657000Y-63754000D03*
X48338011Y-62357000D03*
X46101000Y-39522400D03*
X45510218Y-51246002D03*
X50673000Y-49149000D03*
X45835649Y-52973684D03*
X49657000Y-45593000D03*
X49403000Y-61631990D03*
X48387000Y-37211000D03*
X45966029Y-47482409D03*
X45755300Y-68160775D03*
X48768000Y-32766000D03*
X45666660Y-63121540D03*
X47726976Y-32628914D03*
X45719991Y-61848991D03*
X45247876Y-49774684D03*
X45574265Y-65386271D03*
X45758100Y-64297560D03*
X53085990Y-62357000D03*
X53086000Y-61341000D03*
X42545000Y-35560000D03*
X49403000Y-40640000D03*
X48768000Y-60706000D03*
X50747991Y-60161560D03*
X46956980Y-69377560D03*
D29*
X39370000Y-62230000D02*
X40640000Y-63500000D01*
X53340000Y-46990000D02*
X53339999Y-48192082D01*
X51485000Y-34790000D02*
X51485000Y-34365000D01*
X45035000Y-36473500D02*
X44958000Y-36550500D01*
X45035000Y-34365000D02*
X45035000Y-36473500D01*
X51485000Y-36473500D02*
X51562000Y-36550500D01*
X51485000Y-34365000D02*
X51485000Y-36473500D01*
X51816000Y-50495000D02*
X53594000Y-50495000D01*
X47475000Y-54190000D02*
X47475000Y-54610000D01*
X46380000Y-55677000D02*
X47447000Y-54610000D01*
X46380000Y-56896000D02*
X46380000Y-55677000D01*
X50292000Y-52019000D02*
X51816000Y-50495000D01*
X50292000Y-52070000D02*
X50292000Y-52019000D01*
X51562000Y-42138500D02*
X50546000Y-43154500D01*
X51562000Y-41402000D02*
X51562000Y-42138500D01*
X43180000Y-43154500D02*
X43180000Y-41427500D01*
X45758010Y-37350510D02*
X45419612Y-37012112D01*
X45758010Y-38569484D02*
X45758010Y-37350510D01*
X45439484Y-38888010D02*
X45758010Y-38569484D01*
X45419612Y-37012112D02*
X44958000Y-36550500D01*
X44677990Y-38888010D02*
X45439484Y-38888010D01*
X43980010Y-39585990D02*
X44677990Y-38888010D01*
X43980010Y-40627490D02*
X43980010Y-39585990D01*
X43180000Y-41427500D02*
X43980010Y-40627490D01*
X47752000Y-49657000D02*
X47752000Y-50505000D01*
D30*
X51485000Y-34769233D02*
X52203831Y-35488064D01*
X51485000Y-34365000D02*
X51485000Y-34769233D01*
X44336933Y-35488067D02*
X44316172Y-35488067D01*
X45035000Y-34365000D02*
X45035000Y-34790000D01*
X45035000Y-34790000D02*
X44336933Y-35488067D01*
X44196000Y-48598000D02*
X44196000Y-50292000D01*
X44196000Y-50292000D02*
X43942000Y-50546000D01*
X46990000Y-43154500D02*
X46990000Y-42418000D01*
X46990000Y-42418000D02*
X47371000Y-42037000D01*
D29*
X49657000Y-63754000D02*
X48338011Y-62435011D01*
X48338011Y-62435011D02*
X48338011Y-62357000D01*
X56134000Y-52070000D02*
X56815001Y-52751001D01*
X53594000Y-50495000D02*
X55169000Y-52070000D01*
X55169000Y-52070000D02*
X56134000Y-52070000D01*
X53342540Y-42415460D02*
X53340000Y-42418000D01*
X52880360Y-41427500D02*
X53342540Y-41889680D01*
X53342540Y-41889680D02*
X53342540Y-42415460D01*
X51587500Y-41427500D02*
X52880360Y-41427500D01*
X51562000Y-41402000D02*
X51587500Y-41427500D01*
D30*
X44507685Y-50546000D02*
X43942000Y-50546000D01*
X45613002Y-50546000D02*
X44507685Y-50546000D01*
X46039001Y-50120001D02*
X45613002Y-50546000D01*
X46039001Y-49866001D02*
X46039001Y-50120001D01*
X46248002Y-49657000D02*
X46039001Y-49866001D01*
X47752000Y-49657000D02*
X46248002Y-49657000D01*
D29*
X54204000Y-65465000D02*
X54379000Y-65465000D01*
X52493000Y-63754000D02*
X54204000Y-65465000D01*
X49657000Y-63754000D02*
X52493000Y-63754000D01*
X56514999Y-59054999D02*
X55880000Y-58420000D01*
X56845200Y-59385200D02*
X56514999Y-59054999D01*
X56845200Y-63918602D02*
X56845200Y-59385200D01*
X55993802Y-64770000D02*
X56845200Y-63918602D01*
X55372000Y-64770000D02*
X55993802Y-64770000D01*
X54677000Y-65465000D02*
X55372000Y-64770000D01*
X54379000Y-65465000D02*
X54677000Y-65465000D01*
X47447000Y-54135000D02*
X47447000Y-54610000D01*
X47520860Y-52446138D02*
X47520860Y-54061140D01*
X48143378Y-51823620D02*
X47520860Y-52446138D01*
X50045620Y-51823620D02*
X48143378Y-51823620D01*
X50292000Y-52070000D02*
X50045620Y-51823620D01*
X47520860Y-54061140D02*
X47447000Y-54135000D01*
X56860440Y-57439560D02*
X55880000Y-58420000D01*
X56860440Y-52796440D02*
X56860440Y-57439560D01*
X56815001Y-52751001D02*
X56860440Y-52796440D01*
X52298500Y-48031500D02*
X50546000Y-48031500D01*
X53340000Y-46990000D02*
X52298500Y-48031500D01*
X47752000Y-48641220D02*
X47752000Y-49657000D01*
X47795220Y-48598000D02*
X47752000Y-48641220D01*
X46528388Y-43616112D02*
X46990000Y-43154500D01*
X46202500Y-43942000D02*
X46528388Y-43616112D01*
X43967500Y-43942000D02*
X46202500Y-43942000D01*
X43180000Y-43154500D02*
X43967500Y-43942000D01*
X53340000Y-50241000D02*
X53594000Y-50495000D01*
X53340000Y-46990000D02*
X53340000Y-50241000D01*
D30*
X53086000Y-56540000D02*
X52730000Y-56896000D01*
D29*
X53340000Y-54610000D02*
X53594000Y-54356000D01*
X52730000Y-56896000D02*
X53340000Y-56286000D01*
X53340000Y-56286000D02*
X53340000Y-54610000D01*
X53594000Y-52070000D02*
X53594000Y-54356000D01*
D30*
X51460000Y-56896000D02*
X51460000Y-56721000D01*
D29*
X51460000Y-54722000D02*
X51094000Y-54356000D01*
X51460000Y-56896000D02*
X51460000Y-54722000D01*
X51094000Y-52792000D02*
X51816000Y-52070000D01*
X51094000Y-54356000D02*
X51094000Y-52792000D01*
X46610000Y-37084000D02*
X46610000Y-37212000D01*
X47310000Y-37912000D02*
X47310000Y-39132000D01*
X46610000Y-37212000D02*
X47310000Y-37912000D01*
X50282000Y-50505000D02*
X50292000Y-50495000D01*
X48702000Y-50505000D02*
X50282000Y-50505000D01*
D30*
X46802000Y-50505000D02*
X46277000Y-50505000D01*
X46277000Y-50505000D02*
X46254847Y-50505000D01*
X47310000Y-39132000D02*
X46491400Y-39132000D01*
X46491400Y-39132000D02*
X46101000Y-39522400D01*
D29*
X48702000Y-51285000D02*
X48702000Y-50505000D01*
X46890609Y-51373609D02*
X48613391Y-51373609D01*
X46802000Y-51285000D02*
X46890609Y-51373609D01*
X46802000Y-50505000D02*
X46802000Y-51285000D01*
X48613391Y-51373609D02*
X48702000Y-51285000D01*
D30*
X42721000Y-49328000D02*
X43246000Y-48803000D01*
X43246000Y-48803000D02*
X43246000Y-48598000D01*
X42721000Y-50361004D02*
X42721000Y-49328000D01*
X43605998Y-51246002D02*
X42721000Y-50361004D01*
X45510218Y-51246002D02*
X43605998Y-51246002D01*
X46251220Y-50505000D02*
X45510218Y-51246002D01*
X46277000Y-50505000D02*
X46251220Y-50505000D01*
X45510218Y-51246002D02*
X45510218Y-51246002D01*
D29*
X50825500Y-44450000D02*
X50546000Y-44729500D01*
X53340000Y-44450000D02*
X50825500Y-44450000D01*
X50343000Y-44729500D02*
X48768000Y-43154500D01*
X50546000Y-44729500D02*
X50343000Y-44729500D01*
X48768000Y-41640000D02*
X48260000Y-41132000D01*
X48768000Y-43154500D02*
X48768000Y-41640000D01*
D30*
X49296220Y-49149000D02*
X48745220Y-48598000D01*
X50673000Y-49149000D02*
X49296220Y-49149000D01*
X47650000Y-56896000D02*
X47650000Y-56721000D01*
D29*
X47650000Y-55982000D02*
X49022000Y-54610000D01*
X47650000Y-56896000D02*
X47650000Y-55982000D01*
X49022000Y-53025000D02*
X48702000Y-52705000D01*
X49022000Y-54610000D02*
X49022000Y-53025000D01*
X45212000Y-53597333D02*
X45435650Y-53373683D01*
X45212000Y-54610000D02*
X45212000Y-53597333D01*
X45435650Y-53373683D02*
X45835649Y-52973684D01*
X45110000Y-56896000D02*
X45110000Y-54712000D01*
X45110000Y-54712000D02*
X45212000Y-54610000D01*
D30*
X47650000Y-57071000D02*
X47650000Y-56896000D01*
X46994420Y-57726580D02*
X47650000Y-57071000D01*
X45788580Y-57726580D02*
X46994420Y-57726580D01*
X45110000Y-57048000D02*
X45788580Y-57726580D01*
X45110000Y-56896000D02*
X45110000Y-57048000D01*
X54204000Y-60385000D02*
X54379000Y-60385000D01*
D29*
X46990000Y-44729500D02*
X48768000Y-44729500D01*
X48819000Y-44729500D02*
X50546000Y-46456500D01*
X48768000Y-44729500D02*
X48819000Y-44729500D01*
D30*
X48768000Y-44729500D02*
X49631500Y-45593000D01*
X49631500Y-45593000D02*
X49657000Y-45593000D01*
X51727019Y-60385000D02*
X50480029Y-61631990D01*
X49968685Y-61631990D02*
X49403000Y-61631990D01*
X50480029Y-61631990D02*
X49968685Y-61631990D01*
X54379000Y-60385000D02*
X51727019Y-60385000D01*
D29*
X42046025Y-57912000D02*
X42966001Y-57912000D01*
X41538025Y-58420000D02*
X42046025Y-57912000D01*
X40640000Y-58420000D02*
X41538025Y-58420000D01*
D30*
X45810000Y-34365000D02*
X45810000Y-35015000D01*
D29*
X49910000Y-36140000D02*
X49910000Y-37084000D01*
X50710000Y-34365000D02*
X50710000Y-35340000D01*
X50710000Y-35340000D02*
X49910000Y-36140000D01*
X49210000Y-37084000D02*
X49910000Y-37084000D01*
X46538000Y-36068000D02*
X48194000Y-36068000D01*
X48194000Y-36068000D02*
X49210000Y-37084000D01*
X45810000Y-35340000D02*
X46538000Y-36068000D01*
X45810000Y-34365000D02*
X45810000Y-35340000D01*
X49860000Y-39132000D02*
X49210000Y-39132000D01*
X49910000Y-39082000D02*
X49860000Y-39132000D01*
X49910000Y-37084000D02*
X49910000Y-39082000D01*
X50867000Y-39132000D02*
X51562000Y-39827000D01*
X49210000Y-39132000D02*
X50867000Y-39132000D01*
X44958000Y-39852500D02*
X45454501Y-40349001D01*
X45454501Y-40349001D02*
X48042999Y-40349001D01*
X49210000Y-39182000D02*
X49210000Y-39132000D01*
X48042999Y-40349001D02*
X49210000Y-39182000D01*
X49910000Y-37084000D02*
X48514000Y-37084000D01*
X48514000Y-37084000D02*
X48387000Y-37211000D01*
X45876778Y-47571660D02*
X45966029Y-47482409D01*
X42471340Y-47571660D02*
X45876778Y-47571660D01*
X42037000Y-48006000D02*
X42471340Y-47571660D01*
X42037000Y-56982999D02*
X42037000Y-48006000D01*
X42966001Y-57912000D02*
X42037000Y-56982999D01*
X48745220Y-46398000D02*
X48702000Y-46398000D01*
X49586140Y-47238920D02*
X48745220Y-46398000D01*
X51391820Y-46324520D02*
X51391820Y-46934120D01*
X54314362Y-45760640D02*
X51955700Y-45760640D01*
X54610000Y-45465002D02*
X54314362Y-45760640D01*
X54610000Y-41453506D02*
X54610000Y-45465002D01*
X53771504Y-40615010D02*
X54610000Y-41453506D01*
X51391820Y-46934120D02*
X51087020Y-47238920D01*
X51955700Y-45760640D02*
X51391820Y-46324520D01*
X52350010Y-40615010D02*
X53771504Y-40615010D01*
X51087020Y-47238920D02*
X49586140Y-47238920D01*
X51562000Y-39827000D02*
X52350010Y-40615010D01*
X43004740Y-59651900D02*
X43004740Y-57950739D01*
X42271640Y-60385000D02*
X43004740Y-59651900D01*
X43004740Y-57950739D02*
X42966001Y-57912000D01*
X42141000Y-60385000D02*
X42271640Y-60385000D01*
X44958000Y-43154500D02*
X44958000Y-41427500D01*
X42141000Y-68005000D02*
X41966000Y-68005000D01*
D30*
X42841000Y-68005000D02*
X42977999Y-68141999D01*
X42141000Y-68005000D02*
X42841000Y-68005000D01*
X45189615Y-68160775D02*
X45755300Y-68160775D01*
X45170839Y-68141999D02*
X45189615Y-68160775D01*
X42977999Y-68141999D02*
X45170839Y-68141999D01*
X41850000Y-66735000D02*
X42141000Y-66735000D01*
X39370000Y-67310000D02*
X41275000Y-67310000D01*
X41275000Y-67310000D02*
X41850000Y-66735000D01*
X48510000Y-33440000D02*
X48510000Y-34365000D01*
X48510000Y-33151000D02*
X48510000Y-33440000D01*
X48629001Y-33031999D02*
X48510000Y-33151000D01*
X48629001Y-32766000D02*
X48629001Y-33031999D01*
X48629001Y-32766000D02*
X48768000Y-32766000D01*
X46976975Y-32988915D02*
X46976975Y-32268913D01*
X46976975Y-32268913D02*
X47396904Y-31848984D01*
X48629001Y-32373001D02*
X48629001Y-32766000D01*
X48104984Y-31848984D02*
X48629001Y-32373001D01*
X47396904Y-31848984D02*
X48104984Y-31848984D01*
X47510000Y-34365000D02*
X47510000Y-33521940D01*
X47510000Y-33521940D02*
X46976975Y-32988915D01*
X42277999Y-63061999D02*
X45607119Y-63061999D01*
X45607119Y-63061999D02*
X45666660Y-63121540D01*
X42141000Y-62925000D02*
X42277999Y-63061999D01*
X48362989Y-35642989D02*
X48657011Y-35642989D01*
X49010000Y-35290000D02*
X49010000Y-34365000D01*
X48010000Y-35290000D02*
X48362989Y-35642989D01*
X48657011Y-35642989D02*
X49010000Y-35290000D01*
X48010000Y-34365000D02*
X48010000Y-35290000D01*
X48010000Y-34365000D02*
X48010000Y-32911938D01*
X48010000Y-32911938D02*
X47726976Y-32628914D01*
X42841000Y-61655000D02*
X42958001Y-61772001D01*
X45643001Y-61772001D02*
X45719991Y-61848991D01*
X42958001Y-61772001D02*
X45643001Y-61772001D01*
X42141000Y-61655000D02*
X42841000Y-61655000D01*
X53594000Y-32512000D02*
X53594000Y-35087860D01*
X52832000Y-31750000D02*
X53594000Y-32512000D01*
X52385998Y-36295862D02*
X52385998Y-37301502D01*
X49510000Y-34365000D02*
X49510000Y-33440000D01*
X51200000Y-31750000D02*
X52832000Y-31750000D01*
X52023612Y-37663888D02*
X51562000Y-38125500D01*
X52385998Y-37301502D02*
X52023612Y-37663888D01*
X53594000Y-35087860D02*
X52385998Y-36295862D01*
X49510000Y-33440000D02*
X51200000Y-31750000D01*
X44496388Y-37663888D02*
X44958000Y-38125500D01*
X42926000Y-34654000D02*
X43495997Y-35223999D01*
X43495997Y-35223999D02*
X43495997Y-35657857D01*
X43495997Y-35657857D02*
X43955010Y-36116870D01*
X43955010Y-36116870D02*
X43955010Y-37122510D01*
X43955010Y-37122510D02*
X44496388Y-37663888D01*
X45720000Y-31750000D02*
X43688000Y-31750000D01*
X46510000Y-32540000D02*
X45720000Y-31750000D01*
X42926000Y-32512000D02*
X42926000Y-34654000D01*
X43688000Y-31750000D02*
X42926000Y-32512000D01*
X46510000Y-34365000D02*
X46510000Y-32540000D01*
D29*
X43840000Y-55113000D02*
X43337000Y-54610000D01*
X43840000Y-56896000D02*
X43840000Y-55113000D01*
X43641612Y-45191112D02*
X43180000Y-44729500D01*
X43960510Y-45510010D02*
X43641612Y-45191112D01*
X46600444Y-46398000D02*
X45712454Y-45510010D01*
X45712454Y-45510010D02*
X43960510Y-45510010D01*
X46845220Y-46398000D02*
X46600444Y-46398000D01*
D30*
X46845220Y-47824780D02*
X46845220Y-48598000D01*
X47625000Y-47045000D02*
X46845220Y-47824780D01*
X47406560Y-45501560D02*
X47625000Y-45720000D01*
X46305060Y-45501560D02*
X47406560Y-45501560D01*
X47625000Y-45720000D02*
X47625000Y-47045000D01*
X45533000Y-44729500D02*
X46305060Y-45501560D01*
X44958000Y-44729500D02*
X45533000Y-44729500D01*
D29*
X41977000Y-59115000D02*
X42141000Y-59115000D01*
X41783000Y-59309000D02*
X41977000Y-59115000D01*
X41402000Y-59309000D02*
X41783000Y-59309000D01*
X40640000Y-60960000D02*
X40640000Y-60071000D01*
X40640000Y-60071000D02*
X41402000Y-59309000D01*
D30*
X45146000Y-49672808D02*
X45247876Y-49774684D01*
X45146000Y-48598000D02*
X45146000Y-49672808D01*
X55305000Y-70545000D02*
X55880000Y-71120000D01*
X54379000Y-70545000D02*
X55305000Y-70545000D01*
X55305000Y-68005000D02*
X55880000Y-68580000D01*
X54379000Y-68005000D02*
X55305000Y-68005000D01*
X55185000Y-66735000D02*
X55880000Y-66040000D01*
X54379000Y-66735000D02*
X55185000Y-66735000D01*
X55185000Y-64195000D02*
X55880000Y-63500000D01*
X54379000Y-64195000D02*
X55185000Y-64195000D01*
X42841000Y-65465000D02*
X42958001Y-65582001D01*
X42141000Y-65465000D02*
X42841000Y-65465000D01*
X42958001Y-65582001D02*
X45378535Y-65582001D01*
X45378535Y-65582001D02*
X45574265Y-65386271D01*
D29*
X41716000Y-69275000D02*
X42141000Y-69275000D01*
X41529000Y-69088000D02*
X41716000Y-69275000D01*
X40640000Y-68580000D02*
X41148000Y-69088000D01*
X41148000Y-69088000D02*
X41529000Y-69088000D01*
D30*
X45723661Y-64331999D02*
X45758100Y-64297560D01*
X42141000Y-64195000D02*
X42841000Y-64195000D01*
X42841000Y-64195000D02*
X42977999Y-64331999D01*
X42977999Y-64331999D02*
X45723661Y-64331999D01*
D29*
X42074000Y-70612000D02*
X42141000Y-70545000D01*
X41656000Y-70612000D02*
X42074000Y-70612000D01*
X40640000Y-71120000D02*
X41148000Y-71120000D01*
X41148000Y-71120000D02*
X41656000Y-70612000D01*
X43246000Y-46193000D02*
X43246000Y-46398000D01*
X40640000Y-33020000D02*
X41600001Y-33980001D01*
X41600001Y-37639199D02*
X41600001Y-44547001D01*
X41438996Y-37478194D02*
X41600001Y-37639199D01*
X41600001Y-33980001D02*
X41600001Y-36828993D01*
X41600001Y-44547001D02*
X43246000Y-46193000D01*
X41600001Y-36828993D02*
X41438996Y-36989998D01*
X41438996Y-36989998D02*
X41438996Y-37478194D01*
D30*
X54379000Y-57381000D02*
X55880000Y-55880000D01*
X54379000Y-59115000D02*
X54379000Y-57381000D01*
X54379000Y-62925000D02*
X53653990Y-62925000D01*
X53485989Y-62756999D02*
X53085990Y-62357000D01*
X53653990Y-62925000D02*
X53485989Y-62756999D01*
X54379000Y-61655000D02*
X53400000Y-61655000D01*
X53400000Y-61655000D02*
X53086000Y-61341000D01*
X48920000Y-60554000D02*
X48768000Y-60706000D01*
X48920000Y-56896000D02*
X48920000Y-60554000D01*
X50347992Y-59761561D02*
X50747991Y-60161560D01*
X50190000Y-59603569D02*
X50347992Y-59761561D01*
X50190000Y-56896000D02*
X50190000Y-59603569D01*
D29*
X54379000Y-69275000D02*
X53960720Y-69275000D01*
X54379000Y-69275000D02*
X54108040Y-69275000D01*
D30*
X54379000Y-69275000D02*
X47059540Y-69275000D01*
X47059540Y-69275000D02*
X46956980Y-69377560D01*
M02*
