M48
; DRILL file {KiCad (5.1.8)-1} date 06/12/21 10:53:31
; FORMAT={-:-/ absolute / metric / decimal}
; #@! TF.CreationDate,2021-06-12T10:53:31+02:00
; #@! TF.GenerationSoftware,Kicad,Pcbnew,(5.1.8)-1
FMAT,2
METRIC
T1C0.400
T2C0.500
T3C0.600
T4C0.800
T5C0.825
T6C1.000
T7C0.650
T8C1.152
%
G90
G05
T1
X42.545Y-35.56
X43.942Y-50.546
X44.316Y-35.488
X45.248Y-49.775
X45.51Y-51.246
X45.574Y-65.386
X45.667Y-63.122
X45.72Y-61.849
X45.755Y-68.161
X45.758Y-64.298
X45.836Y-52.974
X45.966Y-47.482
X46.101Y-39.522
X46.957Y-69.378
X47.371Y-42.037
X47.727Y-32.629
X48.338Y-62.357
X48.387Y-37.211
X48.768Y-32.766
X48.768Y-60.706
X49.403Y-40.64
X49.403Y-61.632
X49.657Y-45.593
X49.657Y-63.754
X50.673Y-49.149
X50.748Y-60.162
X52.204Y-35.488
X53.086Y-62.357
X53.086Y-61.341
X53.34Y-42.418
T2
X44.219Y-61.147
X44.219Y-62.417
X44.219Y-63.687
X44.219Y-64.957
X44.219Y-66.227
X44.219Y-67.497
X44.219Y-68.767
X44.219Y-70.037
X44.473Y-58.607
X45.743Y-58.607
X47.013Y-58.607
X48.283Y-58.607
X49.553Y-58.607
X50.823Y-58.607
X52.093Y-58.607
T4
X39.243Y-67.31
X39.243Y-62.23
X39.243Y-59.69
X39.243Y-64.77
T5
X40.64Y-30.48
X40.64Y-33.02
X40.64Y-35.56
X40.64Y-38.1
X40.64Y-40.64
X40.64Y-43.18
X40.64Y-45.72
X40.64Y-48.26
X40.64Y-50.8
X40.64Y-53.34
X40.64Y-55.88
X40.64Y-58.42
X40.64Y-60.96
X40.64Y-63.5
X40.64Y-66.04
X40.64Y-68.58
X40.64Y-71.12
X55.88Y-30.48
X55.88Y-33.02
X55.88Y-35.56
X55.88Y-38.1
X55.88Y-40.64
X55.88Y-43.18
X55.88Y-45.72
X55.88Y-48.26
X55.88Y-50.8
X55.88Y-53.34
X55.88Y-55.88
X55.88Y-58.42
X55.88Y-60.96
X55.88Y-63.5
X55.88Y-66.04
X55.88Y-68.58
X55.88Y-71.12
T6
X53.34Y-44.45
X53.34Y-46.99
T7
X45.37Y-32.92
X51.15Y-32.92
T8
X40.64Y-27.94
X40.64Y-73.66
X55.88Y-27.94
X55.88Y-73.66
T3
G00X43.94Y-29.57
M15
G01X43.94Y-28.97
M16
G05
G00X43.94Y-34.0
M15
G01X43.94Y-32.9
M16
G05
G00X52.58Y-29.57
M15
G01X52.58Y-28.97
M16
G05
G00X52.58Y-34.0
M15
G01X52.58Y-32.9
M16
G05
T0
M30
