G04 #@! TF.GenerationSoftware,KiCad,Pcbnew,(5.1.8)-1*
G04 #@! TF.CreationDate,2021-06-12T10:53:30+02:00*
G04 #@! TF.ProjectId,BlueMacro,426c7565-4d61-4637-926f-2e6b69636164,rev?*
G04 #@! TF.SameCoordinates,Original*
G04 #@! TF.FileFunction,Soldermask,Top*
G04 #@! TF.FilePolarity,Negative*
%FSLAX46Y46*%
G04 Gerber Fmt 4.6, Leading zero omitted, Abs format (unit mm)*
G04 Created by KiCad (PCBNEW (5.1.8)-1) date 2021-06-12 10:53:30*
%MOMM*%
%LPD*%
G01*
G04 APERTURE LIST*
%ADD10C,1.670000*%
%ADD11O,2.100000X2.100000*%
%ADD12O,1.400000X2.000000*%
%ADD13O,1.400000X2.500000*%
%ADD14C,1.050000*%
G04 APERTURE END LIST*
G36*
G01*
X47758000Y-59107000D02*
X47758000Y-58107000D01*
G75*
G02*
X47958000Y-57907000I200000J0D01*
G01*
X48608000Y-57907000D01*
G75*
G02*
X48808000Y-58107000I0J-200000D01*
G01*
X48808000Y-59107000D01*
G75*
G02*
X48608000Y-59307000I-200000J0D01*
G01*
X47958000Y-59307000D01*
G75*
G02*
X47758000Y-59107000I0J200000D01*
G01*
G37*
G36*
G01*
X43948000Y-59107000D02*
X43948000Y-58107000D01*
G75*
G02*
X44148000Y-57907000I200000J0D01*
G01*
X44798000Y-57907000D01*
G75*
G02*
X44998000Y-58107000I0J-200000D01*
G01*
X44998000Y-59107000D01*
G75*
G02*
X44798000Y-59307000I-200000J0D01*
G01*
X44148000Y-59307000D01*
G75*
G02*
X43948000Y-59107000I0J200000D01*
G01*
G37*
G36*
G01*
X45218000Y-59107000D02*
X45218000Y-58107000D01*
G75*
G02*
X45418000Y-57907000I200000J0D01*
G01*
X46068000Y-57907000D01*
G75*
G02*
X46268000Y-58107000I0J-200000D01*
G01*
X46268000Y-59107000D01*
G75*
G02*
X46068000Y-59307000I-200000J0D01*
G01*
X45418000Y-59307000D01*
G75*
G02*
X45218000Y-59107000I0J200000D01*
G01*
G37*
G36*
G01*
X49028000Y-59107000D02*
X49028000Y-58107000D01*
G75*
G02*
X49228000Y-57907000I200000J0D01*
G01*
X49878000Y-57907000D01*
G75*
G02*
X50078000Y-58107000I0J-200000D01*
G01*
X50078000Y-59107000D01*
G75*
G02*
X49878000Y-59307000I-200000J0D01*
G01*
X49228000Y-59307000D01*
G75*
G02*
X49028000Y-59107000I0J200000D01*
G01*
G37*
G36*
G01*
X46488000Y-59107000D02*
X46488000Y-58107000D01*
G75*
G02*
X46688000Y-57907000I200000J0D01*
G01*
X47338000Y-57907000D01*
G75*
G02*
X47538000Y-58107000I0J-200000D01*
G01*
X47538000Y-59107000D01*
G75*
G02*
X47338000Y-59307000I-200000J0D01*
G01*
X46688000Y-59307000D01*
G75*
G02*
X46488000Y-59107000I0J200000D01*
G01*
G37*
G36*
G01*
X51568000Y-59107000D02*
X51568000Y-58107000D01*
G75*
G02*
X51768000Y-57907000I200000J0D01*
G01*
X52418000Y-57907000D01*
G75*
G02*
X52618000Y-58107000I0J-200000D01*
G01*
X52618000Y-59107000D01*
G75*
G02*
X52418000Y-59307000I-200000J0D01*
G01*
X51768000Y-59307000D01*
G75*
G02*
X51568000Y-59107000I0J200000D01*
G01*
G37*
G36*
G01*
X50298000Y-59107000D02*
X50298000Y-58107000D01*
G75*
G02*
X50498000Y-57907000I200000J0D01*
G01*
X51148000Y-57907000D01*
G75*
G02*
X51348000Y-58107000I0J-200000D01*
G01*
X51348000Y-59107000D01*
G75*
G02*
X51148000Y-59307000I-200000J0D01*
G01*
X50498000Y-59307000D01*
G75*
G02*
X50298000Y-59107000I0J200000D01*
G01*
G37*
G36*
G01*
X43719000Y-69512000D02*
X44719000Y-69512000D01*
G75*
G02*
X44919000Y-69712000I0J-200000D01*
G01*
X44919000Y-70362000D01*
G75*
G02*
X44719000Y-70562000I-200000J0D01*
G01*
X43719000Y-70562000D01*
G75*
G02*
X43519000Y-70362000I0J200000D01*
G01*
X43519000Y-69712000D01*
G75*
G02*
X43719000Y-69512000I200000J0D01*
G01*
G37*
G36*
G01*
X43719000Y-68242000D02*
X44719000Y-68242000D01*
G75*
G02*
X44919000Y-68442000I0J-200000D01*
G01*
X44919000Y-69092000D01*
G75*
G02*
X44719000Y-69292000I-200000J0D01*
G01*
X43719000Y-69292000D01*
G75*
G02*
X43519000Y-69092000I0J200000D01*
G01*
X43519000Y-68442000D01*
G75*
G02*
X43719000Y-68242000I200000J0D01*
G01*
G37*
G36*
G01*
X43719000Y-66972000D02*
X44719000Y-66972000D01*
G75*
G02*
X44919000Y-67172000I0J-200000D01*
G01*
X44919000Y-67822000D01*
G75*
G02*
X44719000Y-68022000I-200000J0D01*
G01*
X43719000Y-68022000D01*
G75*
G02*
X43519000Y-67822000I0J200000D01*
G01*
X43519000Y-67172000D01*
G75*
G02*
X43719000Y-66972000I200000J0D01*
G01*
G37*
G36*
G01*
X43719000Y-65702000D02*
X44719000Y-65702000D01*
G75*
G02*
X44919000Y-65902000I0J-200000D01*
G01*
X44919000Y-66552000D01*
G75*
G02*
X44719000Y-66752000I-200000J0D01*
G01*
X43719000Y-66752000D01*
G75*
G02*
X43519000Y-66552000I0J200000D01*
G01*
X43519000Y-65902000D01*
G75*
G02*
X43719000Y-65702000I200000J0D01*
G01*
G37*
G36*
G01*
X44719000Y-65482000D02*
X43719000Y-65482000D01*
G75*
G02*
X43519000Y-65282000I0J200000D01*
G01*
X43519000Y-64632000D01*
G75*
G02*
X43719000Y-64432000I200000J0D01*
G01*
X44719000Y-64432000D01*
G75*
G02*
X44919000Y-64632000I0J-200000D01*
G01*
X44919000Y-65282000D01*
G75*
G02*
X44719000Y-65482000I-200000J0D01*
G01*
G37*
G36*
G01*
X43719000Y-63162000D02*
X44719000Y-63162000D01*
G75*
G02*
X44919000Y-63362000I0J-200000D01*
G01*
X44919000Y-64012000D01*
G75*
G02*
X44719000Y-64212000I-200000J0D01*
G01*
X43719000Y-64212000D01*
G75*
G02*
X43519000Y-64012000I0J200000D01*
G01*
X43519000Y-63362000D01*
G75*
G02*
X43719000Y-63162000I200000J0D01*
G01*
G37*
G36*
G01*
X43719000Y-61892000D02*
X44719000Y-61892000D01*
G75*
G02*
X44919000Y-62092000I0J-200000D01*
G01*
X44919000Y-62742000D01*
G75*
G02*
X44719000Y-62942000I-200000J0D01*
G01*
X43719000Y-62942000D01*
G75*
G02*
X43519000Y-62742000I0J200000D01*
G01*
X43519000Y-62092000D01*
G75*
G02*
X43719000Y-61892000I200000J0D01*
G01*
G37*
G36*
G01*
X47125000Y-57396000D02*
X47125000Y-56396000D01*
G75*
G02*
X47325000Y-56196000I200000J0D01*
G01*
X47975000Y-56196000D01*
G75*
G02*
X48175000Y-56396000I0J-200000D01*
G01*
X48175000Y-57396000D01*
G75*
G02*
X47975000Y-57596000I-200000J0D01*
G01*
X47325000Y-57596000D01*
G75*
G02*
X47125000Y-57396000I0J200000D01*
G01*
G37*
G36*
G01*
X43315000Y-57396000D02*
X43315000Y-56396000D01*
G75*
G02*
X43515000Y-56196000I200000J0D01*
G01*
X44165000Y-56196000D01*
G75*
G02*
X44365000Y-56396000I0J-200000D01*
G01*
X44365000Y-57396000D01*
G75*
G02*
X44165000Y-57596000I-200000J0D01*
G01*
X43515000Y-57596000D01*
G75*
G02*
X43315000Y-57396000I0J200000D01*
G01*
G37*
G36*
G01*
X48395000Y-57396000D02*
X48395000Y-56396000D01*
G75*
G02*
X48595000Y-56196000I200000J0D01*
G01*
X49245000Y-56196000D01*
G75*
G02*
X49445000Y-56396000I0J-200000D01*
G01*
X49445000Y-57396000D01*
G75*
G02*
X49245000Y-57596000I-200000J0D01*
G01*
X48595000Y-57596000D01*
G75*
G02*
X48395000Y-57396000I0J200000D01*
G01*
G37*
G36*
G01*
X49665000Y-57396000D02*
X49665000Y-56396000D01*
G75*
G02*
X49865000Y-56196000I200000J0D01*
G01*
X50515000Y-56196000D01*
G75*
G02*
X50715000Y-56396000I0J-200000D01*
G01*
X50715000Y-57396000D01*
G75*
G02*
X50515000Y-57596000I-200000J0D01*
G01*
X49865000Y-57596000D01*
G75*
G02*
X49665000Y-57396000I0J200000D01*
G01*
G37*
G36*
G01*
X50935000Y-57396000D02*
X50935000Y-56396000D01*
G75*
G02*
X51135000Y-56196000I200000J0D01*
G01*
X51785000Y-56196000D01*
G75*
G02*
X51985000Y-56396000I0J-200000D01*
G01*
X51985000Y-57396000D01*
G75*
G02*
X51785000Y-57596000I-200000J0D01*
G01*
X51135000Y-57596000D01*
G75*
G02*
X50935000Y-57396000I0J200000D01*
G01*
G37*
G36*
G01*
X45855000Y-57396000D02*
X45855000Y-56396000D01*
G75*
G02*
X46055000Y-56196000I200000J0D01*
G01*
X46705000Y-56196000D01*
G75*
G02*
X46905000Y-56396000I0J-200000D01*
G01*
X46905000Y-57396000D01*
G75*
G02*
X46705000Y-57596000I-200000J0D01*
G01*
X46055000Y-57596000D01*
G75*
G02*
X45855000Y-57396000I0J200000D01*
G01*
G37*
G36*
G01*
X52205000Y-57396000D02*
X52205000Y-56396000D01*
G75*
G02*
X52405000Y-56196000I200000J0D01*
G01*
X53055000Y-56196000D01*
G75*
G02*
X53255000Y-56396000I0J-200000D01*
G01*
X53255000Y-57396000D01*
G75*
G02*
X53055000Y-57596000I-200000J0D01*
G01*
X52405000Y-57596000D01*
G75*
G02*
X52205000Y-57396000I0J200000D01*
G01*
G37*
G36*
G01*
X44585000Y-57396000D02*
X44585000Y-56396000D01*
G75*
G02*
X44785000Y-56196000I200000J0D01*
G01*
X45435000Y-56196000D01*
G75*
G02*
X45635000Y-56396000I0J-200000D01*
G01*
X45635000Y-57396000D01*
G75*
G02*
X45435000Y-57596000I-200000J0D01*
G01*
X44785000Y-57596000D01*
G75*
G02*
X44585000Y-57396000I0J200000D01*
G01*
G37*
G36*
G01*
X41641000Y-58590000D02*
X42641000Y-58590000D01*
G75*
G02*
X42841000Y-58790000I0J-200000D01*
G01*
X42841000Y-59440000D01*
G75*
G02*
X42641000Y-59640000I-200000J0D01*
G01*
X41641000Y-59640000D01*
G75*
G02*
X41441000Y-59440000I0J200000D01*
G01*
X41441000Y-58790000D01*
G75*
G02*
X41641000Y-58590000I200000J0D01*
G01*
G37*
G36*
G01*
X41641000Y-59860000D02*
X42641000Y-59860000D01*
G75*
G02*
X42841000Y-60060000I0J-200000D01*
G01*
X42841000Y-60710000D01*
G75*
G02*
X42641000Y-60910000I-200000J0D01*
G01*
X41641000Y-60910000D01*
G75*
G02*
X41441000Y-60710000I0J200000D01*
G01*
X41441000Y-60060000D01*
G75*
G02*
X41641000Y-59860000I200000J0D01*
G01*
G37*
G36*
G01*
X41641000Y-64940000D02*
X42641000Y-64940000D01*
G75*
G02*
X42841000Y-65140000I0J-200000D01*
G01*
X42841000Y-65790000D01*
G75*
G02*
X42641000Y-65990000I-200000J0D01*
G01*
X41641000Y-65990000D01*
G75*
G02*
X41441000Y-65790000I0J200000D01*
G01*
X41441000Y-65140000D01*
G75*
G02*
X41641000Y-64940000I200000J0D01*
G01*
G37*
G36*
G01*
X41641000Y-61130000D02*
X42641000Y-61130000D01*
G75*
G02*
X42841000Y-61330000I0J-200000D01*
G01*
X42841000Y-61980000D01*
G75*
G02*
X42641000Y-62180000I-200000J0D01*
G01*
X41641000Y-62180000D01*
G75*
G02*
X41441000Y-61980000I0J200000D01*
G01*
X41441000Y-61330000D01*
G75*
G02*
X41641000Y-61130000I200000J0D01*
G01*
G37*
G36*
G01*
X41641000Y-66210000D02*
X42641000Y-66210000D01*
G75*
G02*
X42841000Y-66410000I0J-200000D01*
G01*
X42841000Y-67060000D01*
G75*
G02*
X42641000Y-67260000I-200000J0D01*
G01*
X41641000Y-67260000D01*
G75*
G02*
X41441000Y-67060000I0J200000D01*
G01*
X41441000Y-66410000D01*
G75*
G02*
X41641000Y-66210000I200000J0D01*
G01*
G37*
G36*
G01*
X41641000Y-67480000D02*
X42641000Y-67480000D01*
G75*
G02*
X42841000Y-67680000I0J-200000D01*
G01*
X42841000Y-68330000D01*
G75*
G02*
X42641000Y-68530000I-200000J0D01*
G01*
X41641000Y-68530000D01*
G75*
G02*
X41441000Y-68330000I0J200000D01*
G01*
X41441000Y-67680000D01*
G75*
G02*
X41641000Y-67480000I200000J0D01*
G01*
G37*
G36*
G01*
X41641000Y-68750000D02*
X42641000Y-68750000D01*
G75*
G02*
X42841000Y-68950000I0J-200000D01*
G01*
X42841000Y-69600000D01*
G75*
G02*
X42641000Y-69800000I-200000J0D01*
G01*
X41641000Y-69800000D01*
G75*
G02*
X41441000Y-69600000I0J200000D01*
G01*
X41441000Y-68950000D01*
G75*
G02*
X41641000Y-68750000I200000J0D01*
G01*
G37*
G36*
G01*
X41641000Y-63670000D02*
X42641000Y-63670000D01*
G75*
G02*
X42841000Y-63870000I0J-200000D01*
G01*
X42841000Y-64520000D01*
G75*
G02*
X42641000Y-64720000I-200000J0D01*
G01*
X41641000Y-64720000D01*
G75*
G02*
X41441000Y-64520000I0J200000D01*
G01*
X41441000Y-63870000D01*
G75*
G02*
X41641000Y-63670000I200000J0D01*
G01*
G37*
G36*
G01*
X41641000Y-70020000D02*
X42641000Y-70020000D01*
G75*
G02*
X42841000Y-70220000I0J-200000D01*
G01*
X42841000Y-70870000D01*
G75*
G02*
X42641000Y-71070000I-200000J0D01*
G01*
X41641000Y-71070000D01*
G75*
G02*
X41441000Y-70870000I0J200000D01*
G01*
X41441000Y-70220000D01*
G75*
G02*
X41641000Y-70020000I200000J0D01*
G01*
G37*
G36*
G01*
X41641000Y-62400000D02*
X42641000Y-62400000D01*
G75*
G02*
X42841000Y-62600000I0J-200000D01*
G01*
X42841000Y-63250000D01*
G75*
G02*
X42641000Y-63450000I-200000J0D01*
G01*
X41641000Y-63450000D01*
G75*
G02*
X41441000Y-63250000I0J200000D01*
G01*
X41441000Y-62600000D01*
G75*
G02*
X41641000Y-62400000I200000J0D01*
G01*
G37*
G36*
G01*
X53879000Y-70020000D02*
X54879000Y-70020000D01*
G75*
G02*
X55079000Y-70220000I0J-200000D01*
G01*
X55079000Y-70870000D01*
G75*
G02*
X54879000Y-71070000I-200000J0D01*
G01*
X53879000Y-71070000D01*
G75*
G02*
X53679000Y-70870000I0J200000D01*
G01*
X53679000Y-70220000D01*
G75*
G02*
X53879000Y-70020000I200000J0D01*
G01*
G37*
G36*
G01*
X53879000Y-68750000D02*
X54879000Y-68750000D01*
G75*
G02*
X55079000Y-68950000I0J-200000D01*
G01*
X55079000Y-69600000D01*
G75*
G02*
X54879000Y-69800000I-200000J0D01*
G01*
X53879000Y-69800000D01*
G75*
G02*
X53679000Y-69600000I0J200000D01*
G01*
X53679000Y-68950000D01*
G75*
G02*
X53879000Y-68750000I200000J0D01*
G01*
G37*
G36*
G01*
X53879000Y-67480000D02*
X54879000Y-67480000D01*
G75*
G02*
X55079000Y-67680000I0J-200000D01*
G01*
X55079000Y-68330000D01*
G75*
G02*
X54879000Y-68530000I-200000J0D01*
G01*
X53879000Y-68530000D01*
G75*
G02*
X53679000Y-68330000I0J200000D01*
G01*
X53679000Y-67680000D01*
G75*
G02*
X53879000Y-67480000I200000J0D01*
G01*
G37*
G36*
G01*
X53879000Y-66210000D02*
X54879000Y-66210000D01*
G75*
G02*
X55079000Y-66410000I0J-200000D01*
G01*
X55079000Y-67060000D01*
G75*
G02*
X54879000Y-67260000I-200000J0D01*
G01*
X53879000Y-67260000D01*
G75*
G02*
X53679000Y-67060000I0J200000D01*
G01*
X53679000Y-66410000D01*
G75*
G02*
X53879000Y-66210000I200000J0D01*
G01*
G37*
G36*
G01*
X53879000Y-64940000D02*
X54879000Y-64940000D01*
G75*
G02*
X55079000Y-65140000I0J-200000D01*
G01*
X55079000Y-65790000D01*
G75*
G02*
X54879000Y-65990000I-200000J0D01*
G01*
X53879000Y-65990000D01*
G75*
G02*
X53679000Y-65790000I0J200000D01*
G01*
X53679000Y-65140000D01*
G75*
G02*
X53879000Y-64940000I200000J0D01*
G01*
G37*
G36*
G01*
X53879000Y-63670000D02*
X54879000Y-63670000D01*
G75*
G02*
X55079000Y-63870000I0J-200000D01*
G01*
X55079000Y-64520000D01*
G75*
G02*
X54879000Y-64720000I-200000J0D01*
G01*
X53879000Y-64720000D01*
G75*
G02*
X53679000Y-64520000I0J200000D01*
G01*
X53679000Y-63870000D01*
G75*
G02*
X53879000Y-63670000I200000J0D01*
G01*
G37*
G36*
G01*
X53879000Y-62400000D02*
X54879000Y-62400000D01*
G75*
G02*
X55079000Y-62600000I0J-200000D01*
G01*
X55079000Y-63250000D01*
G75*
G02*
X54879000Y-63450000I-200000J0D01*
G01*
X53879000Y-63450000D01*
G75*
G02*
X53679000Y-63250000I0J200000D01*
G01*
X53679000Y-62600000D01*
G75*
G02*
X53879000Y-62400000I200000J0D01*
G01*
G37*
G36*
G01*
X53879000Y-61130000D02*
X54879000Y-61130000D01*
G75*
G02*
X55079000Y-61330000I0J-200000D01*
G01*
X55079000Y-61980000D01*
G75*
G02*
X54879000Y-62180000I-200000J0D01*
G01*
X53879000Y-62180000D01*
G75*
G02*
X53679000Y-61980000I0J200000D01*
G01*
X53679000Y-61330000D01*
G75*
G02*
X53879000Y-61130000I200000J0D01*
G01*
G37*
G36*
G01*
X53879000Y-59860000D02*
X54879000Y-59860000D01*
G75*
G02*
X55079000Y-60060000I0J-200000D01*
G01*
X55079000Y-60710000D01*
G75*
G02*
X54879000Y-60910000I-200000J0D01*
G01*
X53879000Y-60910000D01*
G75*
G02*
X53679000Y-60710000I0J200000D01*
G01*
X53679000Y-60060000D01*
G75*
G02*
X53879000Y-59860000I200000J0D01*
G01*
G37*
G36*
G01*
X53879000Y-58590000D02*
X54879000Y-58590000D01*
G75*
G02*
X55079000Y-58790000I0J-200000D01*
G01*
X55079000Y-59440000D01*
G75*
G02*
X54879000Y-59640000I-200000J0D01*
G01*
X53879000Y-59640000D01*
G75*
G02*
X53679000Y-59440000I0J200000D01*
G01*
X53679000Y-58790000D01*
G75*
G02*
X53879000Y-58590000I200000J0D01*
G01*
G37*
G36*
G01*
X43719000Y-60622000D02*
X44719000Y-60622000D01*
G75*
G02*
X44919000Y-60822000I0J-200000D01*
G01*
X44919000Y-61472000D01*
G75*
G02*
X44719000Y-61672000I-200000J0D01*
G01*
X43719000Y-61672000D01*
G75*
G02*
X43519000Y-61472000I0J200000D01*
G01*
X43519000Y-60822000D01*
G75*
G02*
X43719000Y-60622000I200000J0D01*
G01*
G37*
D10*
X55880000Y-27940000D03*
X40640000Y-27940000D03*
X55880000Y-73660000D03*
X40640000Y-73660000D03*
X40640000Y-71120000D03*
X40640000Y-68580000D03*
X40640000Y-66040000D03*
X40640000Y-63500000D03*
X40640000Y-60960000D03*
X40640000Y-53340000D03*
X40640000Y-50800000D03*
X40640000Y-48260000D03*
X40640000Y-55880000D03*
X40640000Y-58420000D03*
G36*
G01*
X56505000Y-71945000D02*
X55255000Y-71945000D01*
G75*
G02*
X55055000Y-71745000I0J200000D01*
G01*
X55055000Y-70495000D01*
G75*
G02*
X55255000Y-70295000I200000J0D01*
G01*
X56505000Y-70295000D01*
G75*
G02*
X56705000Y-70495000I0J-200000D01*
G01*
X56705000Y-71745000D01*
G75*
G02*
X56505000Y-71945000I-200000J0D01*
G01*
G37*
X55880000Y-68580000D03*
X55880000Y-66040000D03*
X55880000Y-63500000D03*
X55880000Y-60960000D03*
X55880000Y-58420000D03*
X55880000Y-55880000D03*
X55880000Y-53340000D03*
X55880000Y-50800000D03*
X55880000Y-48260000D03*
X55880000Y-45720000D03*
X55880000Y-43180000D03*
X40640000Y-45720000D03*
X40640000Y-43180000D03*
X40640000Y-40640000D03*
X40640000Y-38100000D03*
X40640000Y-35560000D03*
X40640000Y-33020000D03*
X40640000Y-30480000D03*
X55880000Y-30480000D03*
X55880000Y-33020000D03*
X55880000Y-35560000D03*
X55880000Y-38100000D03*
X55880000Y-40640000D03*
G36*
G01*
X45960000Y-37684000D02*
X45960000Y-36484000D01*
G75*
G02*
X46160000Y-36284000I200000J0D01*
G01*
X47060000Y-36284000D01*
G75*
G02*
X47260000Y-36484000I0J-200000D01*
G01*
X47260000Y-37684000D01*
G75*
G02*
X47060000Y-37884000I-200000J0D01*
G01*
X46160000Y-37884000D01*
G75*
G02*
X45960000Y-37684000I0J200000D01*
G01*
G37*
G36*
G01*
X49260000Y-37684000D02*
X49260000Y-36484000D01*
G75*
G02*
X49460000Y-36284000I200000J0D01*
G01*
X50360000Y-36284000D01*
G75*
G02*
X50560000Y-36484000I0J-200000D01*
G01*
X50560000Y-37684000D01*
G75*
G02*
X50360000Y-37884000I-200000J0D01*
G01*
X49460000Y-37884000D01*
G75*
G02*
X49260000Y-37684000I0J200000D01*
G01*
G37*
G36*
G01*
X52290000Y-45300000D02*
X52290000Y-43600000D01*
G75*
G02*
X52490000Y-43400000I200000J0D01*
G01*
X54190000Y-43400000D01*
G75*
G02*
X54390000Y-43600000I0J-200000D01*
G01*
X54390000Y-45300000D01*
G75*
G02*
X54190000Y-45500000I-200000J0D01*
G01*
X52490000Y-45500000D01*
G75*
G02*
X52290000Y-45300000I0J200000D01*
G01*
G37*
D11*
X53340000Y-46990000D03*
D12*
X43940000Y-29270000D03*
X52580000Y-29270000D03*
D13*
X43940000Y-33450000D03*
X52580000Y-33450000D03*
D14*
X51150000Y-32920000D03*
X45370000Y-32920000D03*
G36*
G01*
X48860000Y-33640000D02*
X48860000Y-35090000D01*
G75*
G02*
X48660000Y-35290000I-200000J0D01*
G01*
X48360000Y-35290000D01*
G75*
G02*
X48160000Y-35090000I0J200000D01*
G01*
X48160000Y-33640000D01*
G75*
G02*
X48360000Y-33440000I200000J0D01*
G01*
X48660000Y-33440000D01*
G75*
G02*
X48860000Y-33640000I0J-200000D01*
G01*
G37*
G36*
G01*
X48360000Y-33640000D02*
X48360000Y-35090000D01*
G75*
G02*
X48160000Y-35290000I-200000J0D01*
G01*
X47860000Y-35290000D01*
G75*
G02*
X47660000Y-35090000I0J200000D01*
G01*
X47660000Y-33640000D01*
G75*
G02*
X47860000Y-33440000I200000J0D01*
G01*
X48160000Y-33440000D01*
G75*
G02*
X48360000Y-33640000I0J-200000D01*
G01*
G37*
G36*
G01*
X47860000Y-33640000D02*
X47860000Y-35090000D01*
G75*
G02*
X47660000Y-35290000I-200000J0D01*
G01*
X47360000Y-35290000D01*
G75*
G02*
X47160000Y-35090000I0J200000D01*
G01*
X47160000Y-33640000D01*
G75*
G02*
X47360000Y-33440000I200000J0D01*
G01*
X47660000Y-33440000D01*
G75*
G02*
X47860000Y-33640000I0J-200000D01*
G01*
G37*
G36*
G01*
X49360000Y-33640000D02*
X49360000Y-35090000D01*
G75*
G02*
X49160000Y-35290000I-200000J0D01*
G01*
X48860000Y-35290000D01*
G75*
G02*
X48660000Y-35090000I0J200000D01*
G01*
X48660000Y-33640000D01*
G75*
G02*
X48860000Y-33440000I200000J0D01*
G01*
X49160000Y-33440000D01*
G75*
G02*
X49360000Y-33640000I0J-200000D01*
G01*
G37*
G36*
G01*
X47360000Y-33640000D02*
X47360000Y-35090000D01*
G75*
G02*
X47160000Y-35290000I-200000J0D01*
G01*
X46860000Y-35290000D01*
G75*
G02*
X46660000Y-35090000I0J200000D01*
G01*
X46660000Y-33640000D01*
G75*
G02*
X46860000Y-33440000I200000J0D01*
G01*
X47160000Y-33440000D01*
G75*
G02*
X47360000Y-33640000I0J-200000D01*
G01*
G37*
G36*
G01*
X49860000Y-33640000D02*
X49860000Y-35090000D01*
G75*
G02*
X49660000Y-35290000I-200000J0D01*
G01*
X49360000Y-35290000D01*
G75*
G02*
X49160000Y-35090000I0J200000D01*
G01*
X49160000Y-33640000D01*
G75*
G02*
X49360000Y-33440000I200000J0D01*
G01*
X49660000Y-33440000D01*
G75*
G02*
X49860000Y-33640000I0J-200000D01*
G01*
G37*
G36*
G01*
X46860000Y-33640000D02*
X46860000Y-35090000D01*
G75*
G02*
X46660000Y-35290000I-200000J0D01*
G01*
X46360000Y-35290000D01*
G75*
G02*
X46160000Y-35090000I0J200000D01*
G01*
X46160000Y-33640000D01*
G75*
G02*
X46360000Y-33440000I200000J0D01*
G01*
X46660000Y-33440000D01*
G75*
G02*
X46860000Y-33640000I0J-200000D01*
G01*
G37*
G36*
G01*
X50360000Y-33640000D02*
X50360000Y-35090000D01*
G75*
G02*
X50160000Y-35290000I-200000J0D01*
G01*
X49860000Y-35290000D01*
G75*
G02*
X49660000Y-35090000I0J200000D01*
G01*
X49660000Y-33640000D01*
G75*
G02*
X49860000Y-33440000I200000J0D01*
G01*
X50160000Y-33440000D01*
G75*
G02*
X50360000Y-33640000I0J-200000D01*
G01*
G37*
G36*
G01*
X51210000Y-33640000D02*
X51210000Y-35090000D01*
G75*
G02*
X51010000Y-35290000I-200000J0D01*
G01*
X50410000Y-35290000D01*
G75*
G02*
X50210000Y-35090000I0J200000D01*
G01*
X50210000Y-33640000D01*
G75*
G02*
X50410000Y-33440000I200000J0D01*
G01*
X51010000Y-33440000D01*
G75*
G02*
X51210000Y-33640000I0J-200000D01*
G01*
G37*
G36*
G01*
X46310000Y-33640000D02*
X46310000Y-35090000D01*
G75*
G02*
X46110000Y-35290000I-200000J0D01*
G01*
X45510000Y-35290000D01*
G75*
G02*
X45310000Y-35090000I0J200000D01*
G01*
X45310000Y-33640000D01*
G75*
G02*
X45510000Y-33440000I200000J0D01*
G01*
X46110000Y-33440000D01*
G75*
G02*
X46310000Y-33640000I0J-200000D01*
G01*
G37*
G36*
G01*
X51985000Y-33640000D02*
X51985000Y-35090000D01*
G75*
G02*
X51785000Y-35290000I-200000J0D01*
G01*
X51185000Y-35290000D01*
G75*
G02*
X50985000Y-35090000I0J200000D01*
G01*
X50985000Y-33640000D01*
G75*
G02*
X51185000Y-33440000I200000J0D01*
G01*
X51785000Y-33440000D01*
G75*
G02*
X51985000Y-33640000I0J-200000D01*
G01*
G37*
G36*
G01*
X45535000Y-33640000D02*
X45535000Y-35090000D01*
G75*
G02*
X45335000Y-35290000I-200000J0D01*
G01*
X44735000Y-35290000D01*
G75*
G02*
X44535000Y-35090000I0J200000D01*
G01*
X44535000Y-33640000D01*
G75*
G02*
X44735000Y-33440000I200000J0D01*
G01*
X45335000Y-33440000D01*
G75*
G02*
X45535000Y-33640000I0J-200000D01*
G01*
G37*
G36*
G01*
X42649500Y-55166250D02*
X42649500Y-54053750D01*
G75*
G02*
X42993250Y-53710000I343750J0D01*
G01*
X43680750Y-53710000D01*
G75*
G02*
X44024500Y-54053750I0J-343750D01*
G01*
X44024500Y-55166250D01*
G75*
G02*
X43680750Y-55510000I-343750J0D01*
G01*
X42993250Y-55510000D01*
G75*
G02*
X42649500Y-55166250I0J343750D01*
G01*
G37*
G36*
G01*
X44524500Y-55166250D02*
X44524500Y-54053750D01*
G75*
G02*
X44868250Y-53710000I343750J0D01*
G01*
X45555750Y-53710000D01*
G75*
G02*
X45899500Y-54053750I0J-343750D01*
G01*
X45899500Y-55166250D01*
G75*
G02*
X45555750Y-55510000I-343750J0D01*
G01*
X44868250Y-55510000D01*
G75*
G02*
X44524500Y-55166250I0J343750D01*
G01*
G37*
G36*
G01*
X48810000Y-38482000D02*
X49610000Y-38482000D01*
G75*
G02*
X49810000Y-38682000I0J-200000D01*
G01*
X49810000Y-39582000D01*
G75*
G02*
X49610000Y-39782000I-200000J0D01*
G01*
X48810000Y-39782000D01*
G75*
G02*
X48610000Y-39582000I0J200000D01*
G01*
X48610000Y-38682000D01*
G75*
G02*
X48810000Y-38482000I200000J0D01*
G01*
G37*
G36*
G01*
X46910000Y-38482000D02*
X47710000Y-38482000D01*
G75*
G02*
X47910000Y-38682000I0J-200000D01*
G01*
X47910000Y-39582000D01*
G75*
G02*
X47710000Y-39782000I-200000J0D01*
G01*
X46910000Y-39782000D01*
G75*
G02*
X46710000Y-39582000I0J200000D01*
G01*
X46710000Y-38682000D01*
G75*
G02*
X46910000Y-38482000I200000J0D01*
G01*
G37*
G36*
G01*
X47860000Y-40482000D02*
X48660000Y-40482000D01*
G75*
G02*
X48860000Y-40682000I0J-200000D01*
G01*
X48860000Y-41582000D01*
G75*
G02*
X48660000Y-41782000I-200000J0D01*
G01*
X47860000Y-41782000D01*
G75*
G02*
X47660000Y-41582000I0J200000D01*
G01*
X47660000Y-40682000D01*
G75*
G02*
X47860000Y-40482000I200000J0D01*
G01*
G37*
G36*
G01*
X47175260Y-47128000D02*
X46525260Y-47128000D01*
G75*
G02*
X46325260Y-46928000I0J200000D01*
G01*
X46325260Y-45868000D01*
G75*
G02*
X46525260Y-45668000I200000J0D01*
G01*
X47175260Y-45668000D01*
G75*
G02*
X47375260Y-45868000I0J-200000D01*
G01*
X47375260Y-46928000D01*
G75*
G02*
X47175260Y-47128000I-200000J0D01*
G01*
G37*
G36*
G01*
X49075260Y-47128000D02*
X48425260Y-47128000D01*
G75*
G02*
X48225260Y-46928000I0J200000D01*
G01*
X48225260Y-45868000D01*
G75*
G02*
X48425260Y-45668000I200000J0D01*
G01*
X49075260Y-45668000D01*
G75*
G02*
X49275260Y-45868000I0J-200000D01*
G01*
X49275260Y-46928000D01*
G75*
G02*
X49075260Y-47128000I-200000J0D01*
G01*
G37*
G36*
G01*
X49075260Y-49328000D02*
X48425260Y-49328000D01*
G75*
G02*
X48225260Y-49128000I0J200000D01*
G01*
X48225260Y-48068000D01*
G75*
G02*
X48425260Y-47868000I200000J0D01*
G01*
X49075260Y-47868000D01*
G75*
G02*
X49275260Y-48068000I0J-200000D01*
G01*
X49275260Y-49128000D01*
G75*
G02*
X49075260Y-49328000I-200000J0D01*
G01*
G37*
G36*
G01*
X48125260Y-49328000D02*
X47475260Y-49328000D01*
G75*
G02*
X47275260Y-49128000I0J200000D01*
G01*
X47275260Y-48068000D01*
G75*
G02*
X47475260Y-47868000I200000J0D01*
G01*
X48125260Y-47868000D01*
G75*
G02*
X48325260Y-48068000I0J-200000D01*
G01*
X48325260Y-49128000D01*
G75*
G02*
X48125260Y-49328000I-200000J0D01*
G01*
G37*
G36*
G01*
X47175260Y-49328000D02*
X46525260Y-49328000D01*
G75*
G02*
X46325260Y-49128000I0J200000D01*
G01*
X46325260Y-48068000D01*
G75*
G02*
X46525260Y-47868000I200000J0D01*
G01*
X47175260Y-47868000D01*
G75*
G02*
X47375260Y-48068000I0J-200000D01*
G01*
X47375260Y-49128000D01*
G75*
G02*
X47175260Y-49328000I-200000J0D01*
G01*
G37*
G36*
G01*
X48377000Y-49775000D02*
X49027000Y-49775000D01*
G75*
G02*
X49227000Y-49975000I0J-200000D01*
G01*
X49227000Y-51035000D01*
G75*
G02*
X49027000Y-51235000I-200000J0D01*
G01*
X48377000Y-51235000D01*
G75*
G02*
X48177000Y-51035000I0J200000D01*
G01*
X48177000Y-49975000D01*
G75*
G02*
X48377000Y-49775000I200000J0D01*
G01*
G37*
G36*
G01*
X47427000Y-49775000D02*
X48077000Y-49775000D01*
G75*
G02*
X48277000Y-49975000I0J-200000D01*
G01*
X48277000Y-51035000D01*
G75*
G02*
X48077000Y-51235000I-200000J0D01*
G01*
X47427000Y-51235000D01*
G75*
G02*
X47227000Y-51035000I0J200000D01*
G01*
X47227000Y-49975000D01*
G75*
G02*
X47427000Y-49775000I200000J0D01*
G01*
G37*
G36*
G01*
X46477000Y-49775000D02*
X47127000Y-49775000D01*
G75*
G02*
X47327000Y-49975000I0J-200000D01*
G01*
X47327000Y-51035000D01*
G75*
G02*
X47127000Y-51235000I-200000J0D01*
G01*
X46477000Y-51235000D01*
G75*
G02*
X46277000Y-51035000I0J200000D01*
G01*
X46277000Y-49975000D01*
G75*
G02*
X46477000Y-49775000I200000J0D01*
G01*
G37*
G36*
G01*
X46477000Y-51975000D02*
X47127000Y-51975000D01*
G75*
G02*
X47327000Y-52175000I0J-200000D01*
G01*
X47327000Y-53235000D01*
G75*
G02*
X47127000Y-53435000I-200000J0D01*
G01*
X46477000Y-53435000D01*
G75*
G02*
X46277000Y-53235000I0J200000D01*
G01*
X46277000Y-52175000D01*
G75*
G02*
X46477000Y-51975000I200000J0D01*
G01*
G37*
G36*
G01*
X48377000Y-51975000D02*
X49027000Y-51975000D01*
G75*
G02*
X49227000Y-52175000I0J-200000D01*
G01*
X49227000Y-53235000D01*
G75*
G02*
X49027000Y-53435000I-200000J0D01*
G01*
X48377000Y-53435000D01*
G75*
G02*
X48177000Y-53235000I0J200000D01*
G01*
X48177000Y-52175000D01*
G75*
G02*
X48377000Y-51975000I200000J0D01*
G01*
G37*
G36*
G01*
X52894000Y-55256000D02*
X52894000Y-53456000D01*
G75*
G02*
X53094000Y-53256000I200000J0D01*
G01*
X54094000Y-53256000D01*
G75*
G02*
X54294000Y-53456000I0J-200000D01*
G01*
X54294000Y-55256000D01*
G75*
G02*
X54094000Y-55456000I-200000J0D01*
G01*
X53094000Y-55456000D01*
G75*
G02*
X52894000Y-55256000I0J200000D01*
G01*
G37*
G36*
G01*
X50394000Y-55256000D02*
X50394000Y-53456000D01*
G75*
G02*
X50594000Y-53256000I200000J0D01*
G01*
X51594000Y-53256000D01*
G75*
G02*
X51794000Y-53456000I0J-200000D01*
G01*
X51794000Y-55256000D01*
G75*
G02*
X51594000Y-55456000I-200000J0D01*
G01*
X50594000Y-55456000D01*
G75*
G02*
X50394000Y-55256000I0J200000D01*
G01*
G37*
G36*
G01*
X39101579Y-60609238D02*
X38323762Y-59831421D01*
G75*
G02*
X38323762Y-59548579I141421J141421D01*
G01*
X39101579Y-58770762D01*
G75*
G02*
X39384421Y-58770762I141421J-141421D01*
G01*
X40162238Y-59548579D01*
G75*
G02*
X40162238Y-59831421I-141421J-141421D01*
G01*
X39384421Y-60609238D01*
G75*
G02*
X39101579Y-60609238I-141421J141421D01*
G01*
G37*
G36*
G01*
X39101579Y-63149238D02*
X38323762Y-62371421D01*
G75*
G02*
X38323762Y-62088579I141421J141421D01*
G01*
X39101579Y-61310762D01*
G75*
G02*
X39384421Y-61310762I141421J-141421D01*
G01*
X40162238Y-62088579D01*
G75*
G02*
X40162238Y-62371421I-141421J-141421D01*
G01*
X39384421Y-63149238D01*
G75*
G02*
X39101579Y-63149238I-141421J141421D01*
G01*
G37*
G36*
G01*
X39101579Y-65689238D02*
X38323762Y-64911421D01*
G75*
G02*
X38323762Y-64628579I141421J141421D01*
G01*
X39101579Y-63850762D01*
G75*
G02*
X39384421Y-63850762I141421J-141421D01*
G01*
X40162238Y-64628579D01*
G75*
G02*
X40162238Y-64911421I-141421J-141421D01*
G01*
X39384421Y-65689238D01*
G75*
G02*
X39101579Y-65689238I-141421J141421D01*
G01*
G37*
G36*
G01*
X39101579Y-68229238D02*
X38323762Y-67451421D01*
G75*
G02*
X38323762Y-67168579I141421J141421D01*
G01*
X39101579Y-66390762D01*
G75*
G02*
X39384421Y-66390762I141421J-141421D01*
G01*
X40162238Y-67168579D01*
G75*
G02*
X40162238Y-67451421I-141421J-141421D01*
G01*
X39384421Y-68229238D01*
G75*
G02*
X39101579Y-68229238I-141421J141421D01*
G01*
G37*
G36*
G01*
X43571000Y-49328000D02*
X42921000Y-49328000D01*
G75*
G02*
X42721000Y-49128000I0J200000D01*
G01*
X42721000Y-48068000D01*
G75*
G02*
X42921000Y-47868000I200000J0D01*
G01*
X43571000Y-47868000D01*
G75*
G02*
X43771000Y-48068000I0J-200000D01*
G01*
X43771000Y-49128000D01*
G75*
G02*
X43571000Y-49328000I-200000J0D01*
G01*
G37*
G36*
G01*
X44521000Y-49328000D02*
X43871000Y-49328000D01*
G75*
G02*
X43671000Y-49128000I0J200000D01*
G01*
X43671000Y-48068000D01*
G75*
G02*
X43871000Y-47868000I200000J0D01*
G01*
X44521000Y-47868000D01*
G75*
G02*
X44721000Y-48068000I0J-200000D01*
G01*
X44721000Y-49128000D01*
G75*
G02*
X44521000Y-49328000I-200000J0D01*
G01*
G37*
G36*
G01*
X45471000Y-49328000D02*
X44821000Y-49328000D01*
G75*
G02*
X44621000Y-49128000I0J200000D01*
G01*
X44621000Y-48068000D01*
G75*
G02*
X44821000Y-47868000I200000J0D01*
G01*
X45471000Y-47868000D01*
G75*
G02*
X45671000Y-48068000I0J-200000D01*
G01*
X45671000Y-49128000D01*
G75*
G02*
X45471000Y-49328000I-200000J0D01*
G01*
G37*
G36*
G01*
X45471000Y-47128000D02*
X44821000Y-47128000D01*
G75*
G02*
X44621000Y-46928000I0J200000D01*
G01*
X44621000Y-45868000D01*
G75*
G02*
X44821000Y-45668000I200000J0D01*
G01*
X45471000Y-45668000D01*
G75*
G02*
X45671000Y-45868000I0J-200000D01*
G01*
X45671000Y-46928000D01*
G75*
G02*
X45471000Y-47128000I-200000J0D01*
G01*
G37*
G36*
G01*
X43571000Y-47128000D02*
X42921000Y-47128000D01*
G75*
G02*
X42721000Y-46928000I0J200000D01*
G01*
X42721000Y-45868000D01*
G75*
G02*
X42921000Y-45668000I200000J0D01*
G01*
X43571000Y-45668000D01*
G75*
G02*
X43771000Y-45868000I0J-200000D01*
G01*
X43771000Y-46928000D01*
G75*
G02*
X43571000Y-47128000I-200000J0D01*
G01*
G37*
G36*
G01*
X53950250Y-51132500D02*
X53237750Y-51132500D01*
G75*
G02*
X52919000Y-50813750I0J318750D01*
G01*
X52919000Y-50176250D01*
G75*
G02*
X53237750Y-49857500I318750J0D01*
G01*
X53950250Y-49857500D01*
G75*
G02*
X54269000Y-50176250I0J-318750D01*
G01*
X54269000Y-50813750D01*
G75*
G02*
X53950250Y-51132500I-318750J0D01*
G01*
G37*
G36*
G01*
X53950250Y-52707500D02*
X53237750Y-52707500D01*
G75*
G02*
X52919000Y-52388750I0J318750D01*
G01*
X52919000Y-51751250D01*
G75*
G02*
X53237750Y-51432500I318750J0D01*
G01*
X53950250Y-51432500D01*
G75*
G02*
X54269000Y-51751250I0J-318750D01*
G01*
X54269000Y-52388750D01*
G75*
G02*
X53950250Y-52707500I-318750J0D01*
G01*
G37*
G36*
G01*
X52172250Y-52707500D02*
X51459750Y-52707500D01*
G75*
G02*
X51141000Y-52388750I0J318750D01*
G01*
X51141000Y-51751250D01*
G75*
G02*
X51459750Y-51432500I318750J0D01*
G01*
X52172250Y-51432500D01*
G75*
G02*
X52491000Y-51751250I0J-318750D01*
G01*
X52491000Y-52388750D01*
G75*
G02*
X52172250Y-52707500I-318750J0D01*
G01*
G37*
G36*
G01*
X52172250Y-51132500D02*
X51459750Y-51132500D01*
G75*
G02*
X51141000Y-50813750I0J318750D01*
G01*
X51141000Y-50176250D01*
G75*
G02*
X51459750Y-49857500I318750J0D01*
G01*
X52172250Y-49857500D01*
G75*
G02*
X52491000Y-50176250I0J-318750D01*
G01*
X52491000Y-50813750D01*
G75*
G02*
X52172250Y-51132500I-318750J0D01*
G01*
G37*
G36*
G01*
X49935750Y-49857500D02*
X50648250Y-49857500D01*
G75*
G02*
X50967000Y-50176250I0J-318750D01*
G01*
X50967000Y-50813750D01*
G75*
G02*
X50648250Y-51132500I-318750J0D01*
G01*
X49935750Y-51132500D01*
G75*
G02*
X49617000Y-50813750I0J318750D01*
G01*
X49617000Y-50176250D01*
G75*
G02*
X49935750Y-49857500I318750J0D01*
G01*
G37*
G36*
G01*
X49935750Y-51432500D02*
X50648250Y-51432500D01*
G75*
G02*
X50967000Y-51751250I0J-318750D01*
G01*
X50967000Y-52388750D01*
G75*
G02*
X50648250Y-52707500I-318750J0D01*
G01*
X49935750Y-52707500D01*
G75*
G02*
X49617000Y-52388750I0J318750D01*
G01*
X49617000Y-51751250D01*
G75*
G02*
X49935750Y-51432500I318750J0D01*
G01*
G37*
G36*
G01*
X50902250Y-45367000D02*
X50189750Y-45367000D01*
G75*
G02*
X49871000Y-45048250I0J318750D01*
G01*
X49871000Y-44410750D01*
G75*
G02*
X50189750Y-44092000I318750J0D01*
G01*
X50902250Y-44092000D01*
G75*
G02*
X51221000Y-44410750I0J-318750D01*
G01*
X51221000Y-45048250D01*
G75*
G02*
X50902250Y-45367000I-318750J0D01*
G01*
G37*
G36*
G01*
X50902250Y-43792000D02*
X50189750Y-43792000D01*
G75*
G02*
X49871000Y-43473250I0J318750D01*
G01*
X49871000Y-42835750D01*
G75*
G02*
X50189750Y-42517000I318750J0D01*
G01*
X50902250Y-42517000D01*
G75*
G02*
X51221000Y-42835750I0J-318750D01*
G01*
X51221000Y-43473250D01*
G75*
G02*
X50902250Y-43792000I-318750J0D01*
G01*
G37*
G36*
G01*
X48084500Y-54253750D02*
X48084500Y-54966250D01*
G75*
G02*
X47765750Y-55285000I-318750J0D01*
G01*
X47128250Y-55285000D01*
G75*
G02*
X46809500Y-54966250I0J318750D01*
G01*
X46809500Y-54253750D01*
G75*
G02*
X47128250Y-53935000I318750J0D01*
G01*
X47765750Y-53935000D01*
G75*
G02*
X48084500Y-54253750I0J-318750D01*
G01*
G37*
G36*
G01*
X49659500Y-54253750D02*
X49659500Y-54966250D01*
G75*
G02*
X49340750Y-55285000I-318750J0D01*
G01*
X48703250Y-55285000D01*
G75*
G02*
X48384500Y-54966250I0J318750D01*
G01*
X48384500Y-54253750D01*
G75*
G02*
X48703250Y-53935000I318750J0D01*
G01*
X49340750Y-53935000D01*
G75*
G02*
X49659500Y-54253750I0J-318750D01*
G01*
G37*
G36*
G01*
X47346250Y-43792000D02*
X46633750Y-43792000D01*
G75*
G02*
X46315000Y-43473250I0J318750D01*
G01*
X46315000Y-42835750D01*
G75*
G02*
X46633750Y-42517000I318750J0D01*
G01*
X47346250Y-42517000D01*
G75*
G02*
X47665000Y-42835750I0J-318750D01*
G01*
X47665000Y-43473250D01*
G75*
G02*
X47346250Y-43792000I-318750J0D01*
G01*
G37*
G36*
G01*
X47346250Y-45367000D02*
X46633750Y-45367000D01*
G75*
G02*
X46315000Y-45048250I0J318750D01*
G01*
X46315000Y-44410750D01*
G75*
G02*
X46633750Y-44092000I318750J0D01*
G01*
X47346250Y-44092000D01*
G75*
G02*
X47665000Y-44410750I0J-318750D01*
G01*
X47665000Y-45048250D01*
G75*
G02*
X47346250Y-45367000I-318750J0D01*
G01*
G37*
G36*
G01*
X45314250Y-42065000D02*
X44601750Y-42065000D01*
G75*
G02*
X44283000Y-41746250I0J318750D01*
G01*
X44283000Y-41108750D01*
G75*
G02*
X44601750Y-40790000I318750J0D01*
G01*
X45314250Y-40790000D01*
G75*
G02*
X45633000Y-41108750I0J-318750D01*
G01*
X45633000Y-41746250D01*
G75*
G02*
X45314250Y-42065000I-318750J0D01*
G01*
G37*
G36*
G01*
X45314250Y-40490000D02*
X44601750Y-40490000D01*
G75*
G02*
X44283000Y-40171250I0J318750D01*
G01*
X44283000Y-39533750D01*
G75*
G02*
X44601750Y-39215000I318750J0D01*
G01*
X45314250Y-39215000D01*
G75*
G02*
X45633000Y-39533750I0J-318750D01*
G01*
X45633000Y-40171250D01*
G75*
G02*
X45314250Y-40490000I-318750J0D01*
G01*
G37*
G36*
G01*
X51205750Y-39189500D02*
X51918250Y-39189500D01*
G75*
G02*
X52237000Y-39508250I0J-318750D01*
G01*
X52237000Y-40145750D01*
G75*
G02*
X51918250Y-40464500I-318750J0D01*
G01*
X51205750Y-40464500D01*
G75*
G02*
X50887000Y-40145750I0J318750D01*
G01*
X50887000Y-39508250D01*
G75*
G02*
X51205750Y-39189500I318750J0D01*
G01*
G37*
G36*
G01*
X51205750Y-40764500D02*
X51918250Y-40764500D01*
G75*
G02*
X52237000Y-41083250I0J-318750D01*
G01*
X52237000Y-41720750D01*
G75*
G02*
X51918250Y-42039500I-318750J0D01*
G01*
X51205750Y-42039500D01*
G75*
G02*
X50887000Y-41720750I0J318750D01*
G01*
X50887000Y-41083250D01*
G75*
G02*
X51205750Y-40764500I318750J0D01*
G01*
G37*
G36*
G01*
X42823750Y-42517000D02*
X43536250Y-42517000D01*
G75*
G02*
X43855000Y-42835750I0J-318750D01*
G01*
X43855000Y-43473250D01*
G75*
G02*
X43536250Y-43792000I-318750J0D01*
G01*
X42823750Y-43792000D01*
G75*
G02*
X42505000Y-43473250I0J318750D01*
G01*
X42505000Y-42835750D01*
G75*
G02*
X42823750Y-42517000I318750J0D01*
G01*
G37*
G36*
G01*
X42823750Y-44092000D02*
X43536250Y-44092000D01*
G75*
G02*
X43855000Y-44410750I0J-318750D01*
G01*
X43855000Y-45048250D01*
G75*
G02*
X43536250Y-45367000I-318750J0D01*
G01*
X42823750Y-45367000D01*
G75*
G02*
X42505000Y-45048250I0J318750D01*
G01*
X42505000Y-44410750D01*
G75*
G02*
X42823750Y-44092000I318750J0D01*
G01*
G37*
G36*
G01*
X45314250Y-43792000D02*
X44601750Y-43792000D01*
G75*
G02*
X44283000Y-43473250I0J318750D01*
G01*
X44283000Y-42835750D01*
G75*
G02*
X44601750Y-42517000I318750J0D01*
G01*
X45314250Y-42517000D01*
G75*
G02*
X45633000Y-42835750I0J-318750D01*
G01*
X45633000Y-43473250D01*
G75*
G02*
X45314250Y-43792000I-318750J0D01*
G01*
G37*
G36*
G01*
X45314250Y-45367000D02*
X44601750Y-45367000D01*
G75*
G02*
X44283000Y-45048250I0J318750D01*
G01*
X44283000Y-44410750D01*
G75*
G02*
X44601750Y-44092000I318750J0D01*
G01*
X45314250Y-44092000D01*
G75*
G02*
X45633000Y-44410750I0J-318750D01*
G01*
X45633000Y-45048250D01*
G75*
G02*
X45314250Y-45367000I-318750J0D01*
G01*
G37*
G36*
G01*
X48411750Y-42517000D02*
X49124250Y-42517000D01*
G75*
G02*
X49443000Y-42835750I0J-318750D01*
G01*
X49443000Y-43473250D01*
G75*
G02*
X49124250Y-43792000I-318750J0D01*
G01*
X48411750Y-43792000D01*
G75*
G02*
X48093000Y-43473250I0J318750D01*
G01*
X48093000Y-42835750D01*
G75*
G02*
X48411750Y-42517000I318750J0D01*
G01*
G37*
G36*
G01*
X48411750Y-44092000D02*
X49124250Y-44092000D01*
G75*
G02*
X49443000Y-44410750I0J-318750D01*
G01*
X49443000Y-45048250D01*
G75*
G02*
X49124250Y-45367000I-318750J0D01*
G01*
X48411750Y-45367000D01*
G75*
G02*
X48093000Y-45048250I0J318750D01*
G01*
X48093000Y-44410750D01*
G75*
G02*
X48411750Y-44092000I318750J0D01*
G01*
G37*
G36*
G01*
X50189750Y-47394000D02*
X50902250Y-47394000D01*
G75*
G02*
X51221000Y-47712750I0J-318750D01*
G01*
X51221000Y-48350250D01*
G75*
G02*
X50902250Y-48669000I-318750J0D01*
G01*
X50189750Y-48669000D01*
G75*
G02*
X49871000Y-48350250I0J318750D01*
G01*
X49871000Y-47712750D01*
G75*
G02*
X50189750Y-47394000I318750J0D01*
G01*
G37*
G36*
G01*
X50189750Y-45819000D02*
X50902250Y-45819000D01*
G75*
G02*
X51221000Y-46137750I0J-318750D01*
G01*
X51221000Y-46775250D01*
G75*
G02*
X50902250Y-47094000I-318750J0D01*
G01*
X50189750Y-47094000D01*
G75*
G02*
X49871000Y-46775250I0J318750D01*
G01*
X49871000Y-46137750D01*
G75*
G02*
X50189750Y-45819000I318750J0D01*
G01*
G37*
G36*
G01*
X44601750Y-35913000D02*
X45314250Y-35913000D01*
G75*
G02*
X45633000Y-36231750I0J-318750D01*
G01*
X45633000Y-36869250D01*
G75*
G02*
X45314250Y-37188000I-318750J0D01*
G01*
X44601750Y-37188000D01*
G75*
G02*
X44283000Y-36869250I0J318750D01*
G01*
X44283000Y-36231750D01*
G75*
G02*
X44601750Y-35913000I318750J0D01*
G01*
G37*
G36*
G01*
X44601750Y-37488000D02*
X45314250Y-37488000D01*
G75*
G02*
X45633000Y-37806750I0J-318750D01*
G01*
X45633000Y-38444250D01*
G75*
G02*
X45314250Y-38763000I-318750J0D01*
G01*
X44601750Y-38763000D01*
G75*
G02*
X44283000Y-38444250I0J318750D01*
G01*
X44283000Y-37806750D01*
G75*
G02*
X44601750Y-37488000I318750J0D01*
G01*
G37*
G36*
G01*
X51205750Y-37488000D02*
X51918250Y-37488000D01*
G75*
G02*
X52237000Y-37806750I0J-318750D01*
G01*
X52237000Y-38444250D01*
G75*
G02*
X51918250Y-38763000I-318750J0D01*
G01*
X51205750Y-38763000D01*
G75*
G02*
X50887000Y-38444250I0J318750D01*
G01*
X50887000Y-37806750D01*
G75*
G02*
X51205750Y-37488000I318750J0D01*
G01*
G37*
G36*
G01*
X51205750Y-35913000D02*
X51918250Y-35913000D01*
G75*
G02*
X52237000Y-36231750I0J-318750D01*
G01*
X52237000Y-36869250D01*
G75*
G02*
X51918250Y-37188000I-318750J0D01*
G01*
X51205750Y-37188000D01*
G75*
G02*
X50887000Y-36869250I0J318750D01*
G01*
X50887000Y-36231750D01*
G75*
G02*
X51205750Y-35913000I318750J0D01*
G01*
G37*
M02*
