G04 #@! TF.GenerationSoftware,KiCad,Pcbnew,(5.1.8)-1*
G04 #@! TF.CreationDate,2021-06-12T10:53:30+02:00*
G04 #@! TF.ProjectId,BlueMacro,426c7565-4d61-4637-926f-2e6b69636164,rev?*
G04 #@! TF.SameCoordinates,Original*
G04 #@! TF.FileFunction,Copper,L3,Inr*
G04 #@! TF.FilePolarity,Positive*
%FSLAX46Y46*%
G04 Gerber Fmt 4.6, Leading zero omitted, Abs format (unit mm)*
G04 Created by KiCad (PCBNEW (5.1.8)-1) date 2021-06-12 10:53:30*
%MOMM*%
%LPD*%
G01*
G04 APERTURE LIST*
G04 #@! TA.AperFunction,ComponentPad*
%ADD10R,0.650000X1.000000*%
G04 #@! TD*
G04 #@! TA.AperFunction,ComponentPad*
%ADD11R,1.000000X0.650000*%
G04 #@! TD*
G04 #@! TA.AperFunction,WasherPad*
%ADD12C,1.270000*%
G04 #@! TD*
G04 #@! TA.AperFunction,ComponentPad*
%ADD13C,1.270000*%
G04 #@! TD*
G04 #@! TA.AperFunction,ComponentPad*
%ADD14R,1.250000X1.250000*%
G04 #@! TD*
G04 #@! TA.AperFunction,ComponentPad*
%ADD15R,1.700000X1.700000*%
G04 #@! TD*
G04 #@! TA.AperFunction,ComponentPad*
%ADD16O,1.700000X1.700000*%
G04 #@! TD*
G04 #@! TA.AperFunction,ComponentPad*
%ADD17O,1.000000X1.600000*%
G04 #@! TD*
G04 #@! TA.AperFunction,ComponentPad*
%ADD18O,1.000000X2.100000*%
G04 #@! TD*
G04 #@! TA.AperFunction,ComponentPad*
%ADD19C,0.100000*%
G04 #@! TD*
G04 #@! TA.AperFunction,ViaPad*
%ADD20C,0.800000*%
G04 #@! TD*
G04 #@! TA.AperFunction,Conductor*
%ADD21C,0.200000*%
G04 #@! TD*
G04 #@! TA.AperFunction,Conductor*
%ADD22C,0.250000*%
G04 #@! TD*
G04 APERTURE END LIST*
D10*
X48283000Y-58607000D03*
X44473000Y-58607000D03*
X45743000Y-58607000D03*
X49553000Y-58607000D03*
X47013000Y-58607000D03*
X52093000Y-58607000D03*
X50823000Y-58607000D03*
D11*
X44219000Y-70037000D03*
X44219000Y-68767000D03*
X44219000Y-67497000D03*
X44219000Y-66227000D03*
X44219000Y-64957000D03*
X44219000Y-63687000D03*
X44219000Y-62417000D03*
X44219000Y-61147000D03*
D12*
X55880000Y-27940000D03*
X40640000Y-27940000D03*
X55880000Y-73660000D03*
X40640000Y-73660000D03*
D13*
X40640000Y-71120000D03*
X40640000Y-68580000D03*
X40640000Y-66040000D03*
X40640000Y-63500000D03*
X40640000Y-60960000D03*
X40640000Y-53340000D03*
X40640000Y-50800000D03*
X40640000Y-48260000D03*
X40640000Y-55880000D03*
X40640000Y-58420000D03*
D14*
X55880000Y-71120000D03*
D13*
X55880000Y-68580000D03*
X55880000Y-66040000D03*
X55880000Y-63500000D03*
X55880000Y-60960000D03*
X55880000Y-58420000D03*
X55880000Y-55880000D03*
X55880000Y-53340000D03*
X55880000Y-50800000D03*
X55880000Y-48260000D03*
X55880000Y-45720000D03*
X55880000Y-43180000D03*
X40640000Y-45720000D03*
X40640000Y-43180000D03*
X40640000Y-40640000D03*
X40640000Y-38100000D03*
X40640000Y-35560000D03*
X40640000Y-33020000D03*
X40640000Y-30480000D03*
X55880000Y-30480000D03*
X55880000Y-33020000D03*
X55880000Y-35560000D03*
X55880000Y-38100000D03*
X55880000Y-40640000D03*
D15*
X53340000Y-44450000D03*
D16*
X53340000Y-46990000D03*
D17*
X43940000Y-29270000D03*
X52580000Y-29270000D03*
D18*
X43940000Y-33450000D03*
X52580000Y-33450000D03*
G04 #@! TA.AperFunction,ComponentPad*
D19*
G36*
X39243000Y-60467817D02*
G01*
X38465183Y-59690000D01*
X39243000Y-58912183D01*
X40020817Y-59690000D01*
X39243000Y-60467817D01*
G37*
G04 #@! TD.AperFunction*
G04 #@! TA.AperFunction,ComponentPad*
G36*
X39243000Y-63007817D02*
G01*
X38465183Y-62230000D01*
X39243000Y-61452183D01*
X40020817Y-62230000D01*
X39243000Y-63007817D01*
G37*
G04 #@! TD.AperFunction*
G04 #@! TA.AperFunction,ComponentPad*
G36*
X39243000Y-65547817D02*
G01*
X38465183Y-64770000D01*
X39243000Y-63992183D01*
X40020817Y-64770000D01*
X39243000Y-65547817D01*
G37*
G04 #@! TD.AperFunction*
G04 #@! TA.AperFunction,ComponentPad*
G36*
X39243000Y-68087817D02*
G01*
X38465183Y-67310000D01*
X39243000Y-66532183D01*
X40020817Y-67310000D01*
X39243000Y-68087817D01*
G37*
G04 #@! TD.AperFunction*
D20*
X53340000Y-42418000D03*
X52203831Y-35488064D03*
X44316172Y-35488067D03*
X43942000Y-50546000D03*
X47371000Y-42037000D03*
X49657000Y-63754000D03*
X48338011Y-62357000D03*
X46101000Y-39522400D03*
X45510218Y-51246002D03*
X50673000Y-49149000D03*
X45835649Y-52973684D03*
X49657000Y-45593000D03*
X49403000Y-61631990D03*
X48387000Y-37211000D03*
X45966029Y-47482409D03*
X45755300Y-68160775D03*
X48768000Y-32766000D03*
X45666660Y-63121540D03*
X47726976Y-32628914D03*
X45719991Y-61848991D03*
X45247876Y-49774684D03*
X45574265Y-65386271D03*
X45758100Y-64297560D03*
X53085990Y-62357000D03*
X53086000Y-61341000D03*
X42545000Y-35560000D03*
X49403000Y-40640000D03*
X48768000Y-60706000D03*
X50747991Y-60161560D03*
X46956980Y-69377560D03*
D21*
X49468001Y-61001304D02*
X49403000Y-61066305D01*
X48927999Y-46322001D02*
X48927999Y-59347001D01*
X48927999Y-59347001D02*
X49468001Y-59887003D01*
X49657000Y-45593000D02*
X48927999Y-46322001D01*
X49468001Y-59887003D02*
X49468001Y-61001304D01*
X49403000Y-61066305D02*
X49403000Y-61631990D01*
X54737000Y-35560000D02*
X55880000Y-35560000D01*
X51448001Y-38848999D02*
X54737000Y-35560000D01*
X51448001Y-63507999D02*
X51448001Y-38848999D01*
X44219000Y-70037000D02*
X44919000Y-70037000D01*
X44919000Y-70037000D02*
X51448001Y-63507999D01*
X47117000Y-64409221D02*
X46139950Y-65386271D01*
X45098001Y-59327003D02*
X47117000Y-61346002D01*
X45098001Y-53791701D02*
X45098001Y-59327003D01*
X42841988Y-40301988D02*
X42841988Y-51535688D01*
X42841988Y-51535688D02*
X45098001Y-53791701D01*
X46139950Y-65386271D02*
X45574265Y-65386271D01*
X40640000Y-38100000D02*
X42841988Y-40301988D01*
X47117000Y-61346002D02*
X47117000Y-64409221D01*
X40640000Y-43180000D02*
X42441977Y-44981977D01*
X42441977Y-44981977D02*
X42441977Y-51701377D01*
X46716989Y-61809987D02*
X46716989Y-63338671D01*
X42441977Y-51701377D02*
X43815000Y-53074400D01*
X45522997Y-61021999D02*
X45929001Y-61021999D01*
X45929001Y-61021999D02*
X46716989Y-61809987D01*
X46716989Y-63338671D02*
X45758100Y-64297560D01*
X43815000Y-53074400D02*
X43815000Y-59314002D01*
X43815000Y-59314002D02*
X45522997Y-61021999D01*
D22*
X45743000Y-58607000D02*
X45743000Y-54230951D01*
D21*
X45743000Y-54230951D02*
X45743000Y-53871000D01*
X45743000Y-53871000D02*
X43241999Y-51369999D01*
X43241999Y-47925674D02*
X44069000Y-47098673D01*
X43241999Y-51369999D02*
X43241999Y-47925674D01*
D22*
X44069000Y-40189002D02*
X41529000Y-37649002D01*
X44069000Y-47098673D02*
X44069000Y-40189002D01*
X41529000Y-37649002D02*
X41529000Y-36449000D01*
X41274999Y-31114999D02*
X40640000Y-30480000D01*
X41529000Y-36449000D02*
X41692998Y-36285002D01*
X41692998Y-36285002D02*
X41692998Y-31532998D01*
X41692998Y-31532998D02*
X41274999Y-31114999D01*
D21*
X42291000Y-53349025D02*
X42291000Y-61934000D01*
X40640000Y-51698025D02*
X42291000Y-53349025D01*
X42291000Y-61934000D02*
X44044000Y-63687000D01*
X44044000Y-63687000D02*
X44219000Y-63687000D01*
X40640000Y-50800000D02*
X40640000Y-51698025D01*
X42691011Y-53081811D02*
X41641955Y-52032755D01*
X44219000Y-62417000D02*
X44044000Y-62417000D01*
X44044000Y-62417000D02*
X42691011Y-61064011D01*
X42691011Y-61064011D02*
X42691011Y-53081811D01*
X41274999Y-48894999D02*
X40640000Y-48260000D01*
X41641955Y-49261955D02*
X41274999Y-48894999D01*
X41641955Y-52032755D02*
X41641955Y-49261955D01*
X42041966Y-47121966D02*
X42041966Y-51867066D01*
X43091022Y-52916122D02*
X43091022Y-59494022D01*
X44219000Y-60622000D02*
X44219000Y-61147000D01*
X43091022Y-59494022D02*
X44219000Y-60622000D01*
X40640000Y-45720000D02*
X42041966Y-47121966D01*
X42041966Y-51867066D02*
X43091022Y-52916122D01*
X42545000Y-35560000D02*
X43180000Y-36195000D01*
X44958000Y-36195000D02*
X49003001Y-40240001D01*
X43180000Y-36195000D02*
X44958000Y-36195000D01*
X49003001Y-40240001D02*
X49403000Y-40640000D01*
M02*
