G04 #@! TF.GenerationSoftware,KiCad,Pcbnew,(5.1.8)-1*
G04 #@! TF.CreationDate,2021-04-29T12:11:41+02:00*
G04 #@! TF.ProjectId,BlueMacro,426c7565-4d61-4637-926f-2e6b69636164,rev?*
G04 #@! TF.SameCoordinates,Original*
G04 #@! TF.FileFunction,Copper,L4,Bot*
G04 #@! TF.FilePolarity,Positive*
%FSLAX46Y46*%
G04 Gerber Fmt 4.6, Leading zero omitted, Abs format (unit mm)*
G04 Created by KiCad (PCBNEW (5.1.8)-1) date 2021-04-29 12:11:41*
%MOMM*%
%LPD*%
G01*
G04 APERTURE LIST*
G04 #@! TA.AperFunction,WasherPad*
%ADD10C,1.270000*%
G04 #@! TD*
G04 #@! TA.AperFunction,ComponentPad*
%ADD11C,1.270000*%
G04 #@! TD*
G04 #@! TA.AperFunction,ComponentPad*
%ADD12R,1.250000X1.250000*%
G04 #@! TD*
G04 #@! TA.AperFunction,ComponentPad*
%ADD13R,1.700000X1.700000*%
G04 #@! TD*
G04 #@! TA.AperFunction,ComponentPad*
%ADD14O,1.700000X1.700000*%
G04 #@! TD*
G04 #@! TA.AperFunction,ComponentPad*
%ADD15O,1.000000X1.600000*%
G04 #@! TD*
G04 #@! TA.AperFunction,ComponentPad*
%ADD16O,1.000000X2.100000*%
G04 #@! TD*
G04 #@! TA.AperFunction,ComponentPad*
%ADD17R,0.650000X1.000000*%
G04 #@! TD*
G04 #@! TA.AperFunction,ComponentPad*
%ADD18R,1.000000X0.650000*%
G04 #@! TD*
G04 #@! TA.AperFunction,ComponentPad*
%ADD19C,0.100000*%
G04 #@! TD*
G04 #@! TA.AperFunction,ViaPad*
%ADD20C,0.800000*%
G04 #@! TD*
G04 #@! TA.AperFunction,Conductor*
%ADD21C,0.200000*%
G04 #@! TD*
G04 #@! TA.AperFunction,Conductor*
%ADD22C,0.250000*%
G04 #@! TD*
G04 #@! TA.AperFunction,Conductor*
%ADD23C,0.254000*%
G04 #@! TD*
G04 #@! TA.AperFunction,Conductor*
%ADD24C,0.100000*%
G04 #@! TD*
G04 APERTURE END LIST*
D10*
X55880000Y-27940000D03*
X40640000Y-27940000D03*
X55880000Y-73660000D03*
X40640000Y-73660000D03*
D11*
X40640000Y-71120000D03*
X40640000Y-68580000D03*
X40640000Y-66040000D03*
X40640000Y-63500000D03*
X40640000Y-60960000D03*
X40640000Y-53340000D03*
X40640000Y-50800000D03*
X40640000Y-48260000D03*
X40640000Y-55880000D03*
X40640000Y-58420000D03*
D12*
X55880000Y-71120000D03*
D11*
X55880000Y-68580000D03*
X55880000Y-66040000D03*
X55880000Y-63500000D03*
X55880000Y-60960000D03*
X55880000Y-58420000D03*
X55880000Y-55880000D03*
X55880000Y-53340000D03*
X55880000Y-50800000D03*
X55880000Y-48260000D03*
X55880000Y-45720000D03*
X55880000Y-43180000D03*
X40640000Y-45720000D03*
X40640000Y-43180000D03*
X40640000Y-40640000D03*
X40640000Y-38100000D03*
X40640000Y-35560000D03*
X40640000Y-33020000D03*
X40640000Y-30480000D03*
X55880000Y-30480000D03*
X55880000Y-33020000D03*
X55880000Y-35560000D03*
X55880000Y-38100000D03*
X55880000Y-40640000D03*
D13*
X53340000Y-44450000D03*
D14*
X53340000Y-46990000D03*
D15*
X43940000Y-29270000D03*
X52580000Y-29270000D03*
D16*
X43940000Y-33450000D03*
X52580000Y-33450000D03*
D17*
X48283000Y-58607000D03*
X44473000Y-58607000D03*
X45743000Y-58607000D03*
X49553000Y-58607000D03*
X47013000Y-58607000D03*
X52093000Y-58607000D03*
X50823000Y-58607000D03*
D18*
X44219000Y-70037000D03*
X44219000Y-68767000D03*
X44219000Y-67497000D03*
X44219000Y-66227000D03*
X44219000Y-64957000D03*
X44219000Y-63687000D03*
X44219000Y-62417000D03*
X44219000Y-61147000D03*
G04 #@! TA.AperFunction,ComponentPad*
D19*
G36*
X39243000Y-60467817D02*
G01*
X38465183Y-59690000D01*
X39243000Y-58912183D01*
X40020817Y-59690000D01*
X39243000Y-60467817D01*
G37*
G04 #@! TD.AperFunction*
G04 #@! TA.AperFunction,ComponentPad*
G36*
X39243000Y-63007817D02*
G01*
X38465183Y-62230000D01*
X39243000Y-61452183D01*
X40020817Y-62230000D01*
X39243000Y-63007817D01*
G37*
G04 #@! TD.AperFunction*
G04 #@! TA.AperFunction,ComponentPad*
G36*
X39243000Y-65547817D02*
G01*
X38465183Y-64770000D01*
X39243000Y-63992183D01*
X40020817Y-64770000D01*
X39243000Y-65547817D01*
G37*
G04 #@! TD.AperFunction*
G04 #@! TA.AperFunction,ComponentPad*
G36*
X39243000Y-68087817D02*
G01*
X38465183Y-67310000D01*
X39243000Y-66532183D01*
X40020817Y-67310000D01*
X39243000Y-68087817D01*
G37*
G04 #@! TD.AperFunction*
D20*
X53340000Y-42418000D03*
X52203831Y-35488064D03*
X44316172Y-35488067D03*
X43942000Y-50546000D03*
X47371000Y-42037000D03*
X49657000Y-63754000D03*
X48338011Y-62357000D03*
X46101000Y-39522400D03*
X45510218Y-51246002D03*
X50673000Y-49149000D03*
X45835649Y-52973684D03*
X49657000Y-45593000D03*
X49403000Y-61631990D03*
X48387000Y-37211000D03*
X45966029Y-47482409D03*
X45755300Y-68160775D03*
X48768000Y-32766000D03*
X45666660Y-63121540D03*
X47726976Y-32628914D03*
X45719991Y-61848991D03*
X45247876Y-49774684D03*
X45574265Y-65386271D03*
X45713968Y-64253428D03*
X53085990Y-62357000D03*
X53086000Y-61341000D03*
X42545000Y-35560000D03*
X49403000Y-40640000D03*
X48768000Y-60706000D03*
X50747991Y-60161560D03*
X46956980Y-69377560D03*
D21*
X41274999Y-62865001D02*
X40640000Y-63500000D01*
X41274999Y-61980001D02*
X41274999Y-62865001D01*
X44473000Y-58782000D02*
X41274999Y-61980001D01*
X44473000Y-58607000D02*
X44473000Y-58782000D01*
X44473000Y-58607000D02*
X44473000Y-58432000D01*
X47285002Y-55619998D02*
X47285002Y-52414000D01*
X44473000Y-58432000D02*
X47285002Y-55619998D01*
D22*
X55880000Y-58420000D02*
X54356000Y-58420000D01*
X40513000Y-63500000D02*
X39243000Y-62230000D01*
X40640000Y-63500000D02*
X40513000Y-63500000D01*
X42077640Y-63500000D02*
X40640000Y-63500000D01*
D21*
X46745498Y-50014349D02*
X46745498Y-47066941D01*
X46745498Y-47066941D02*
X46101000Y-46422443D01*
X46101000Y-46422443D02*
X46101000Y-39522400D01*
X45575836Y-51184011D02*
X46745498Y-50014349D01*
X40640000Y-66040000D02*
X41452001Y-66852001D01*
X41452001Y-66852001D02*
X45161999Y-66852001D01*
X50628001Y-62422001D02*
X53213000Y-59837002D01*
X49591999Y-62422001D02*
X50628001Y-62422001D01*
X45161999Y-66852001D02*
X49591999Y-62422001D01*
X53213000Y-59837002D02*
X53213000Y-48819002D01*
X52883002Y-49149000D02*
X50673000Y-49149000D01*
X53213000Y-48819002D02*
X52883002Y-49149000D01*
X53594000Y-44450000D02*
X53340000Y-44450000D01*
X53975000Y-44831000D02*
X53594000Y-44450000D01*
X53975000Y-45641260D02*
X53975000Y-44831000D01*
X54627780Y-46294040D02*
X53975000Y-45641260D01*
X54627780Y-47406560D02*
X54627780Y-46294040D01*
X53215338Y-48819002D02*
X54627780Y-47406560D01*
X53213000Y-48819002D02*
X53215338Y-48819002D01*
D22*
X45435650Y-53373683D02*
X45835649Y-52973684D01*
X45763656Y-53045677D02*
X45835649Y-52973684D01*
X40132000Y-54610000D02*
X44199333Y-54610000D01*
X39243000Y-59690000D02*
X39243000Y-55499000D01*
X39243000Y-55499000D02*
X40132000Y-54610000D01*
X44199333Y-54610000D02*
X45435650Y-53373683D01*
D21*
X40553099Y-67418001D02*
X42755001Y-67418001D01*
X42755001Y-67418001D02*
X43463329Y-68126329D01*
X45189615Y-68160775D02*
X45755300Y-68160775D01*
X39243000Y-66107902D02*
X40553099Y-67418001D01*
X43463329Y-68126329D02*
X45155169Y-68126329D01*
X39243000Y-64770000D02*
X39243000Y-66107902D01*
X45155169Y-68126329D02*
X45189615Y-68160775D01*
X52580000Y-30270000D02*
X52580000Y-33450000D01*
X52580000Y-29270000D02*
X52580000Y-30270000D01*
X43940000Y-30270000D02*
X43940000Y-33450000D01*
X43940000Y-29270000D02*
X43940000Y-30270000D01*
X43940000Y-29270000D02*
X51880000Y-29270000D01*
X51880000Y-29270000D02*
X52580000Y-29270000D01*
D23*
X54483000Y-70993000D02*
X44790806Y-70993000D01*
X44843482Y-70987812D01*
X44963180Y-70951502D01*
X45073494Y-70892537D01*
X45170185Y-70813185D01*
X45249537Y-70716494D01*
X45308502Y-70606180D01*
X45344812Y-70486482D01*
X45357072Y-70362000D01*
X45357072Y-69712000D01*
X45344812Y-69587518D01*
X45308502Y-69467820D01*
X45273320Y-69402000D01*
X45308502Y-69336180D01*
X45344812Y-69216482D01*
X45354792Y-69115155D01*
X45453402Y-69156001D01*
X45653361Y-69195775D01*
X45857239Y-69195775D01*
X45941184Y-69179078D01*
X45921980Y-69275621D01*
X45921980Y-69479499D01*
X45961754Y-69679458D01*
X46039775Y-69867816D01*
X46153043Y-70037334D01*
X46297206Y-70181497D01*
X46466724Y-70294765D01*
X46655082Y-70372786D01*
X46855041Y-70412560D01*
X47058919Y-70412560D01*
X47258878Y-70372786D01*
X47447236Y-70294765D01*
X47616754Y-70181497D01*
X47760917Y-70037334D01*
X47874185Y-69867816D01*
X47952206Y-69679458D01*
X47991980Y-69479499D01*
X47991980Y-69275621D01*
X47952206Y-69075662D01*
X47874185Y-68887304D01*
X47760917Y-68717786D01*
X47616754Y-68573623D01*
X47447236Y-68460355D01*
X47258878Y-68382334D01*
X47058919Y-68342560D01*
X46855041Y-68342560D01*
X46771096Y-68359257D01*
X46790300Y-68262714D01*
X46790300Y-68058836D01*
X46750526Y-67858877D01*
X46672505Y-67670519D01*
X46559237Y-67501001D01*
X46415074Y-67356838D01*
X46245556Y-67243570D01*
X46057198Y-67165549D01*
X45915986Y-67137460D01*
X49896446Y-63157001D01*
X50591896Y-63157001D01*
X50628001Y-63160557D01*
X50664106Y-63157001D01*
X50772086Y-63146366D01*
X50910634Y-63104338D01*
X51038321Y-63036088D01*
X51150239Y-62944239D01*
X51173260Y-62916189D01*
X52130658Y-61958791D01*
X52090764Y-62055102D01*
X52050990Y-62255061D01*
X52050990Y-62458939D01*
X52090764Y-62658898D01*
X52168785Y-62847256D01*
X52282053Y-63016774D01*
X52426216Y-63160937D01*
X52595734Y-63274205D01*
X52784092Y-63352226D01*
X52984051Y-63392000D01*
X53187929Y-63392000D01*
X53387888Y-63352226D01*
X53576246Y-63274205D01*
X53745764Y-63160937D01*
X53889927Y-63016774D01*
X54003195Y-62847256D01*
X54081216Y-62658898D01*
X54120990Y-62458939D01*
X54120990Y-62255061D01*
X54081216Y-62055102D01*
X54003195Y-61866744D01*
X53991344Y-61849007D01*
X54003205Y-61831256D01*
X54081226Y-61642898D01*
X54121000Y-61442939D01*
X54121000Y-61239061D01*
X54081226Y-61039102D01*
X54003205Y-60850744D01*
X53889937Y-60681226D01*
X53745774Y-60537063D01*
X53629846Y-60459603D01*
X53707197Y-60382252D01*
X53735237Y-60359240D01*
X53758250Y-60331199D01*
X53758253Y-60331196D01*
X53827087Y-60247322D01*
X53895337Y-60119636D01*
X53937365Y-59981087D01*
X53951556Y-59837002D01*
X53948000Y-59800897D01*
X53948000Y-49125786D01*
X54483000Y-48590787D01*
X54483000Y-70993000D01*
G04 #@! TA.AperFunction,Conductor*
D24*
G36*
X54483000Y-70993000D02*
G01*
X44790806Y-70993000D01*
X44843482Y-70987812D01*
X44963180Y-70951502D01*
X45073494Y-70892537D01*
X45170185Y-70813185D01*
X45249537Y-70716494D01*
X45308502Y-70606180D01*
X45344812Y-70486482D01*
X45357072Y-70362000D01*
X45357072Y-69712000D01*
X45344812Y-69587518D01*
X45308502Y-69467820D01*
X45273320Y-69402000D01*
X45308502Y-69336180D01*
X45344812Y-69216482D01*
X45354792Y-69115155D01*
X45453402Y-69156001D01*
X45653361Y-69195775D01*
X45857239Y-69195775D01*
X45941184Y-69179078D01*
X45921980Y-69275621D01*
X45921980Y-69479499D01*
X45961754Y-69679458D01*
X46039775Y-69867816D01*
X46153043Y-70037334D01*
X46297206Y-70181497D01*
X46466724Y-70294765D01*
X46655082Y-70372786D01*
X46855041Y-70412560D01*
X47058919Y-70412560D01*
X47258878Y-70372786D01*
X47447236Y-70294765D01*
X47616754Y-70181497D01*
X47760917Y-70037334D01*
X47874185Y-69867816D01*
X47952206Y-69679458D01*
X47991980Y-69479499D01*
X47991980Y-69275621D01*
X47952206Y-69075662D01*
X47874185Y-68887304D01*
X47760917Y-68717786D01*
X47616754Y-68573623D01*
X47447236Y-68460355D01*
X47258878Y-68382334D01*
X47058919Y-68342560D01*
X46855041Y-68342560D01*
X46771096Y-68359257D01*
X46790300Y-68262714D01*
X46790300Y-68058836D01*
X46750526Y-67858877D01*
X46672505Y-67670519D01*
X46559237Y-67501001D01*
X46415074Y-67356838D01*
X46245556Y-67243570D01*
X46057198Y-67165549D01*
X45915986Y-67137460D01*
X49896446Y-63157001D01*
X50591896Y-63157001D01*
X50628001Y-63160557D01*
X50664106Y-63157001D01*
X50772086Y-63146366D01*
X50910634Y-63104338D01*
X51038321Y-63036088D01*
X51150239Y-62944239D01*
X51173260Y-62916189D01*
X52130658Y-61958791D01*
X52090764Y-62055102D01*
X52050990Y-62255061D01*
X52050990Y-62458939D01*
X52090764Y-62658898D01*
X52168785Y-62847256D01*
X52282053Y-63016774D01*
X52426216Y-63160937D01*
X52595734Y-63274205D01*
X52784092Y-63352226D01*
X52984051Y-63392000D01*
X53187929Y-63392000D01*
X53387888Y-63352226D01*
X53576246Y-63274205D01*
X53745764Y-63160937D01*
X53889927Y-63016774D01*
X54003195Y-62847256D01*
X54081216Y-62658898D01*
X54120990Y-62458939D01*
X54120990Y-62255061D01*
X54081216Y-62055102D01*
X54003195Y-61866744D01*
X53991344Y-61849007D01*
X54003205Y-61831256D01*
X54081226Y-61642898D01*
X54121000Y-61442939D01*
X54121000Y-61239061D01*
X54081226Y-61039102D01*
X54003205Y-60850744D01*
X53889937Y-60681226D01*
X53745774Y-60537063D01*
X53629846Y-60459603D01*
X53707197Y-60382252D01*
X53735237Y-60359240D01*
X53758250Y-60331199D01*
X53758253Y-60331196D01*
X53827087Y-60247322D01*
X53895337Y-60119636D01*
X53937365Y-59981087D01*
X53951556Y-59837002D01*
X53948000Y-59800897D01*
X53948000Y-49125786D01*
X54483000Y-48590787D01*
X54483000Y-70993000D01*
G37*
G04 #@! TD.AperFunction*
D23*
X54483000Y-43036593D02*
X54434180Y-43010498D01*
X54314482Y-42974188D01*
X54190000Y-42961928D01*
X52490000Y-42961928D01*
X52365518Y-42974188D01*
X52245820Y-43010498D01*
X52135506Y-43069463D01*
X52038815Y-43148815D01*
X51959463Y-43245506D01*
X51900498Y-43355820D01*
X51864188Y-43475518D01*
X51851928Y-43600000D01*
X51851928Y-45300000D01*
X51864188Y-45424482D01*
X51900498Y-45544180D01*
X51959463Y-45654494D01*
X52038815Y-45751185D01*
X52135506Y-45830537D01*
X52245820Y-45889502D01*
X52326466Y-45913966D01*
X52242412Y-45989731D01*
X52068359Y-46223080D01*
X51943175Y-46485901D01*
X51898524Y-46633110D01*
X52019845Y-46863000D01*
X53213000Y-46863000D01*
X53213000Y-46843000D01*
X53467000Y-46843000D01*
X53467000Y-46863000D01*
X53487000Y-46863000D01*
X53487000Y-47117000D01*
X53467000Y-47117000D01*
X53467000Y-47137000D01*
X53213000Y-47137000D01*
X53213000Y-47117000D01*
X52019845Y-47117000D01*
X51898524Y-47346890D01*
X51943175Y-47494099D01*
X52068359Y-47756920D01*
X52242412Y-47990269D01*
X52458645Y-48185178D01*
X52676056Y-48314683D01*
X52667741Y-48324815D01*
X52578556Y-48414000D01*
X51401711Y-48414000D01*
X51332774Y-48345063D01*
X51163256Y-48231795D01*
X50974898Y-48153774D01*
X50774939Y-48114000D01*
X50571061Y-48114000D01*
X50371102Y-48153774D01*
X50182744Y-48231795D01*
X50013226Y-48345063D01*
X49869063Y-48489226D01*
X49755795Y-48658744D01*
X49677774Y-48847102D01*
X49638000Y-49047061D01*
X49638000Y-49250939D01*
X49677774Y-49450898D01*
X49755795Y-49639256D01*
X49869063Y-49808774D01*
X50013226Y-49952937D01*
X50182744Y-50066205D01*
X50371102Y-50144226D01*
X50571061Y-50184000D01*
X50774939Y-50184000D01*
X50974898Y-50144226D01*
X51163256Y-50066205D01*
X51332774Y-49952937D01*
X51401711Y-49884000D01*
X52478001Y-49884000D01*
X52478000Y-57474837D01*
X52418000Y-57468928D01*
X51768000Y-57468928D01*
X51643518Y-57481188D01*
X51523820Y-57517498D01*
X51458000Y-57552680D01*
X51392180Y-57517498D01*
X51272482Y-57481188D01*
X51148000Y-57468928D01*
X50498000Y-57468928D01*
X50373518Y-57481188D01*
X50253820Y-57517498D01*
X50188000Y-57552680D01*
X50122180Y-57517498D01*
X50002482Y-57481188D01*
X49878000Y-57468928D01*
X49228000Y-57468928D01*
X49103518Y-57481188D01*
X48983820Y-57517498D01*
X48918000Y-57552680D01*
X48852180Y-57517498D01*
X48732482Y-57481188D01*
X48608000Y-57468928D01*
X47958000Y-57468928D01*
X47833518Y-57481188D01*
X47713820Y-57517498D01*
X47648000Y-57552680D01*
X47582180Y-57517498D01*
X47462482Y-57481188D01*
X47338000Y-57468928D01*
X46688000Y-57468928D01*
X46563518Y-57481188D01*
X46443820Y-57517498D01*
X46378000Y-57552680D01*
X46312180Y-57517498D01*
X46192482Y-57481188D01*
X46068000Y-57468928D01*
X45418000Y-57468928D01*
X45293518Y-57481188D01*
X45173820Y-57517498D01*
X45108000Y-57552680D01*
X45042180Y-57517498D01*
X44922482Y-57481188D01*
X44798000Y-57468928D01*
X44758750Y-57472000D01*
X44600000Y-57630750D01*
X44600000Y-58480000D01*
X44620000Y-58480000D01*
X44620000Y-58734000D01*
X44600000Y-58734000D01*
X44600000Y-59583250D01*
X44758750Y-59742000D01*
X44798000Y-59745072D01*
X44922482Y-59732812D01*
X45042180Y-59696502D01*
X45108000Y-59661320D01*
X45173820Y-59696502D01*
X45293518Y-59732812D01*
X45418000Y-59745072D01*
X46068000Y-59745072D01*
X46192482Y-59732812D01*
X46312180Y-59696502D01*
X46378000Y-59661320D01*
X46443820Y-59696502D01*
X46563518Y-59732812D01*
X46688000Y-59745072D01*
X47338000Y-59745072D01*
X47462482Y-59732812D01*
X47582180Y-59696502D01*
X47648000Y-59661320D01*
X47713820Y-59696502D01*
X47833518Y-59732812D01*
X47958000Y-59745072D01*
X48383300Y-59745072D01*
X48277744Y-59788795D01*
X48108226Y-59902063D01*
X47964063Y-60046226D01*
X47850795Y-60215744D01*
X47772774Y-60404102D01*
X47733000Y-60604061D01*
X47733000Y-60807939D01*
X47772774Y-61007898D01*
X47850795Y-61196256D01*
X47964063Y-61365774D01*
X48108226Y-61509937D01*
X48277744Y-61623205D01*
X48368000Y-61660591D01*
X48368000Y-61733929D01*
X48407774Y-61933888D01*
X48485795Y-62122246D01*
X48599063Y-62291764D01*
X48640926Y-62333627D01*
X46748968Y-64225586D01*
X46748968Y-64151489D01*
X46709194Y-63951530D01*
X46631173Y-63763172D01*
X46556946Y-63652083D01*
X46583865Y-63611796D01*
X46661886Y-63423438D01*
X46701660Y-63223479D01*
X46701660Y-63019601D01*
X46661886Y-62819642D01*
X46583865Y-62631284D01*
X46510783Y-62521910D01*
X46523928Y-62508765D01*
X46637196Y-62339247D01*
X46715217Y-62150889D01*
X46754991Y-61950930D01*
X46754991Y-61747052D01*
X46715217Y-61547093D01*
X46637196Y-61358735D01*
X46523928Y-61189217D01*
X46379765Y-61045054D01*
X46210247Y-60931786D01*
X46021889Y-60853765D01*
X45821930Y-60813991D01*
X45618052Y-60813991D01*
X45418093Y-60853765D01*
X45357072Y-60879041D01*
X45357072Y-60822000D01*
X45344812Y-60697518D01*
X45308502Y-60577820D01*
X45249537Y-60467506D01*
X45170185Y-60370815D01*
X45073494Y-60291463D01*
X44963180Y-60232498D01*
X44843482Y-60196188D01*
X44719000Y-60183928D01*
X43719000Y-60183928D01*
X43594518Y-60196188D01*
X43474820Y-60232498D01*
X43364506Y-60291463D01*
X43267815Y-60370815D01*
X43188463Y-60467506D01*
X43129498Y-60577820D01*
X43093188Y-60697518D01*
X43080928Y-60822000D01*
X43080928Y-61472000D01*
X43093188Y-61596482D01*
X43129498Y-61716180D01*
X43164680Y-61782000D01*
X43129498Y-61847820D01*
X43093188Y-61967518D01*
X43080928Y-62092000D01*
X43080928Y-62742000D01*
X43093188Y-62866482D01*
X43129498Y-62986180D01*
X43164680Y-63052000D01*
X43129498Y-63117820D01*
X43093188Y-63237518D01*
X43080928Y-63362000D01*
X43080928Y-64012000D01*
X43093188Y-64136482D01*
X43129498Y-64256180D01*
X43164680Y-64322000D01*
X43129498Y-64387820D01*
X43093188Y-64507518D01*
X43080928Y-64632000D01*
X43080928Y-65282000D01*
X43093188Y-65406482D01*
X43129498Y-65526180D01*
X43164680Y-65592000D01*
X43129498Y-65657820D01*
X43093188Y-65777518D01*
X43080928Y-65902000D01*
X43080928Y-66117001D01*
X42037000Y-66117001D01*
X42037000Y-59107000D01*
X43509928Y-59107000D01*
X43522188Y-59231482D01*
X43558498Y-59351180D01*
X43617463Y-59461494D01*
X43696815Y-59558185D01*
X43793506Y-59637537D01*
X43903820Y-59696502D01*
X44023518Y-59732812D01*
X44148000Y-59745072D01*
X44187250Y-59742000D01*
X44346000Y-59583250D01*
X44346000Y-58734000D01*
X43671750Y-58734000D01*
X43513000Y-58892750D01*
X43509928Y-59107000D01*
X42037000Y-59107000D01*
X42037000Y-58107000D01*
X43509928Y-58107000D01*
X43513000Y-58321250D01*
X43671750Y-58480000D01*
X44346000Y-58480000D01*
X44346000Y-57630750D01*
X44187250Y-57472000D01*
X44148000Y-57468928D01*
X44023518Y-57481188D01*
X43903820Y-57517498D01*
X43793506Y-57576463D01*
X43696815Y-57655815D01*
X43617463Y-57752506D01*
X43558498Y-57862820D01*
X43522188Y-57982518D01*
X43509928Y-58107000D01*
X42037000Y-58107000D01*
X42037000Y-55370000D01*
X44162011Y-55370000D01*
X44199333Y-55373676D01*
X44236655Y-55370000D01*
X44236666Y-55370000D01*
X44348319Y-55359003D01*
X44491580Y-55315546D01*
X44623609Y-55244974D01*
X44739334Y-55150001D01*
X44763137Y-55120997D01*
X45875451Y-54008684D01*
X45937588Y-54008684D01*
X46137547Y-53968910D01*
X46325905Y-53890889D01*
X46495423Y-53777621D01*
X46639586Y-53633458D01*
X46752854Y-53463940D01*
X46830875Y-53275582D01*
X46870649Y-53075623D01*
X46870649Y-52871745D01*
X46830875Y-52671786D01*
X46752854Y-52483428D01*
X46639586Y-52313910D01*
X46495423Y-52169747D01*
X46325905Y-52056479D01*
X46211034Y-52008897D01*
X46314155Y-51905776D01*
X46427423Y-51736258D01*
X46505444Y-51547900D01*
X46545218Y-51347941D01*
X46545218Y-51254075D01*
X47239695Y-50559599D01*
X47267735Y-50536587D01*
X47290748Y-50508546D01*
X47290751Y-50508543D01*
X47345308Y-50442065D01*
X47359585Y-50424669D01*
X47427835Y-50296982D01*
X47469863Y-50158434D01*
X47480498Y-50050454D01*
X47480498Y-50050453D01*
X47484054Y-50014349D01*
X47480498Y-49978244D01*
X47480498Y-47103046D01*
X47484054Y-47066941D01*
X47469863Y-46922856D01*
X47444514Y-46839293D01*
X47427835Y-46784308D01*
X47359585Y-46656621D01*
X47267736Y-46544703D01*
X47239691Y-46521687D01*
X46836000Y-46117997D01*
X46836000Y-45491061D01*
X48622000Y-45491061D01*
X48622000Y-45694939D01*
X48661774Y-45894898D01*
X48739795Y-46083256D01*
X48853063Y-46252774D01*
X48997226Y-46396937D01*
X49166744Y-46510205D01*
X49355102Y-46588226D01*
X49555061Y-46628000D01*
X49758939Y-46628000D01*
X49958898Y-46588226D01*
X50147256Y-46510205D01*
X50316774Y-46396937D01*
X50460937Y-46252774D01*
X50574205Y-46083256D01*
X50652226Y-45894898D01*
X50692000Y-45694939D01*
X50692000Y-45491061D01*
X50652226Y-45291102D01*
X50574205Y-45102744D01*
X50460937Y-44933226D01*
X50316774Y-44789063D01*
X50147256Y-44675795D01*
X49958898Y-44597774D01*
X49758939Y-44558000D01*
X49555061Y-44558000D01*
X49355102Y-44597774D01*
X49166744Y-44675795D01*
X48997226Y-44789063D01*
X48853063Y-44933226D01*
X48739795Y-45102744D01*
X48661774Y-45291102D01*
X48622000Y-45491061D01*
X46836000Y-45491061D01*
X46836000Y-40538061D01*
X48368000Y-40538061D01*
X48368000Y-40741939D01*
X48407774Y-40941898D01*
X48485795Y-41130256D01*
X48599063Y-41299774D01*
X48743226Y-41443937D01*
X48912744Y-41557205D01*
X49101102Y-41635226D01*
X49301061Y-41675000D01*
X49504939Y-41675000D01*
X49704898Y-41635226D01*
X49893256Y-41557205D01*
X50062774Y-41443937D01*
X50206937Y-41299774D01*
X50320205Y-41130256D01*
X50398226Y-40941898D01*
X50438000Y-40741939D01*
X50438000Y-40538061D01*
X50398226Y-40338102D01*
X50320205Y-40149744D01*
X50206937Y-39980226D01*
X50062774Y-39836063D01*
X49893256Y-39722795D01*
X49704898Y-39644774D01*
X49504939Y-39605000D01*
X49301061Y-39605000D01*
X49101102Y-39644774D01*
X48912744Y-39722795D01*
X48743226Y-39836063D01*
X48599063Y-39980226D01*
X48485795Y-40149744D01*
X48407774Y-40338102D01*
X48368000Y-40538061D01*
X46836000Y-40538061D01*
X46836000Y-40251111D01*
X46904937Y-40182174D01*
X47018205Y-40012656D01*
X47096226Y-39824298D01*
X47136000Y-39624339D01*
X47136000Y-39420461D01*
X47096226Y-39220502D01*
X47018205Y-39032144D01*
X46904937Y-38862626D01*
X46760774Y-38718463D01*
X46591256Y-38605195D01*
X46402898Y-38527174D01*
X46202939Y-38487400D01*
X45999061Y-38487400D01*
X45799102Y-38527174D01*
X45610744Y-38605195D01*
X45441226Y-38718463D01*
X45297063Y-38862626D01*
X45183795Y-39032144D01*
X45105774Y-39220502D01*
X45066000Y-39420461D01*
X45066000Y-39624339D01*
X45105774Y-39824298D01*
X45183795Y-40012656D01*
X45297063Y-40182174D01*
X45366001Y-40251112D01*
X45366000Y-46386338D01*
X45362444Y-46422443D01*
X45376505Y-46565204D01*
X45376635Y-46566527D01*
X45393009Y-46620505D01*
X45306255Y-46678472D01*
X45162092Y-46822635D01*
X45048824Y-46992153D01*
X44970803Y-47180511D01*
X44931029Y-47380470D01*
X44931029Y-47584348D01*
X44970803Y-47784307D01*
X45048824Y-47972665D01*
X45162092Y-48142183D01*
X45306255Y-48286346D01*
X45475773Y-48399614D01*
X45664131Y-48477635D01*
X45864090Y-48517409D01*
X46010499Y-48517409D01*
X46010498Y-49073595D01*
X45907650Y-48970747D01*
X45738132Y-48857479D01*
X45549774Y-48779458D01*
X45349815Y-48739684D01*
X45145937Y-48739684D01*
X44945978Y-48779458D01*
X44757620Y-48857479D01*
X44588102Y-48970747D01*
X44443939Y-49114910D01*
X44330671Y-49284428D01*
X44252650Y-49472786D01*
X44212876Y-49672745D01*
X44212876Y-49876623D01*
X44252650Y-50076582D01*
X44330671Y-50264940D01*
X44443939Y-50434458D01*
X44588102Y-50578621D01*
X44673318Y-50635560D01*
X44593013Y-50755746D01*
X44514992Y-50944104D01*
X44475218Y-51144063D01*
X44475218Y-51347941D01*
X44514992Y-51547900D01*
X44593013Y-51736258D01*
X44706281Y-51905776D01*
X44850444Y-52049939D01*
X45019962Y-52163207D01*
X45134833Y-52210789D01*
X45031712Y-52313910D01*
X44918444Y-52483428D01*
X44840423Y-52671786D01*
X44800649Y-52871745D01*
X44800649Y-52933882D01*
X43884532Y-53850000D01*
X42037000Y-53850000D01*
X42037000Y-37109061D01*
X47352000Y-37109061D01*
X47352000Y-37312939D01*
X47391774Y-37512898D01*
X47469795Y-37701256D01*
X47583063Y-37870774D01*
X47727226Y-38014937D01*
X47896744Y-38128205D01*
X48085102Y-38206226D01*
X48285061Y-38246000D01*
X48488939Y-38246000D01*
X48688898Y-38206226D01*
X48877256Y-38128205D01*
X49046774Y-38014937D01*
X49190937Y-37870774D01*
X49304205Y-37701256D01*
X49382226Y-37512898D01*
X49422000Y-37312939D01*
X49422000Y-37109061D01*
X49382226Y-36909102D01*
X49304205Y-36720744D01*
X49190937Y-36551226D01*
X49046774Y-36407063D01*
X48877256Y-36293795D01*
X48688898Y-36215774D01*
X48488939Y-36176000D01*
X48285061Y-36176000D01*
X48085102Y-36215774D01*
X47896744Y-36293795D01*
X47727226Y-36407063D01*
X47583063Y-36551226D01*
X47469795Y-36720744D01*
X47391774Y-36909102D01*
X47352000Y-37109061D01*
X42037000Y-37109061D01*
X42037000Y-36465349D01*
X42054744Y-36477205D01*
X42243102Y-36555226D01*
X42443061Y-36595000D01*
X42646939Y-36595000D01*
X42846898Y-36555226D01*
X43035256Y-36477205D01*
X43204774Y-36363937D01*
X43348937Y-36219774D01*
X43462205Y-36050256D01*
X43540226Y-35861898D01*
X43580000Y-35661939D01*
X43580000Y-35458061D01*
X43540226Y-35258102D01*
X43462205Y-35069744D01*
X43422533Y-35010370D01*
X43503553Y-35053676D01*
X43717501Y-35118577D01*
X43940000Y-35140491D01*
X44162498Y-35118577D01*
X44376446Y-35053676D01*
X44573623Y-34948284D01*
X44746449Y-34806449D01*
X44888284Y-34633623D01*
X44993676Y-34436447D01*
X45058577Y-34222499D01*
X45075000Y-34055752D01*
X45075000Y-33836904D01*
X45089978Y-33843108D01*
X45275448Y-33880000D01*
X45464552Y-33880000D01*
X45650022Y-33843108D01*
X45824731Y-33770741D01*
X45981964Y-33665681D01*
X46115681Y-33531964D01*
X46220741Y-33374731D01*
X46293108Y-33200022D01*
X46330000Y-33014552D01*
X46330000Y-32825448D01*
X46293108Y-32639978D01*
X46246301Y-32526975D01*
X46691976Y-32526975D01*
X46691976Y-32730853D01*
X46731750Y-32930812D01*
X46809771Y-33119170D01*
X46923039Y-33288688D01*
X47067202Y-33432851D01*
X47236720Y-33546119D01*
X47425078Y-33624140D01*
X47625037Y-33663914D01*
X47828915Y-33663914D01*
X48028874Y-33624140D01*
X48127936Y-33583107D01*
X48277744Y-33683205D01*
X48466102Y-33761226D01*
X48666061Y-33801000D01*
X48869939Y-33801000D01*
X49069898Y-33761226D01*
X49258256Y-33683205D01*
X49427774Y-33569937D01*
X49571937Y-33425774D01*
X49685205Y-33256256D01*
X49763226Y-33067898D01*
X49803000Y-32867939D01*
X49803000Y-32664061D01*
X49763226Y-32464102D01*
X49685205Y-32275744D01*
X49571937Y-32106226D01*
X49427774Y-31962063D01*
X49258256Y-31848795D01*
X49069898Y-31770774D01*
X48869939Y-31731000D01*
X48666061Y-31731000D01*
X48466102Y-31770774D01*
X48367040Y-31811807D01*
X48217232Y-31711709D01*
X48028874Y-31633688D01*
X47828915Y-31593914D01*
X47625037Y-31593914D01*
X47425078Y-31633688D01*
X47236720Y-31711709D01*
X47067202Y-31824977D01*
X46923039Y-31969140D01*
X46809771Y-32138658D01*
X46731750Y-32327016D01*
X46691976Y-32526975D01*
X46246301Y-32526975D01*
X46220741Y-32465269D01*
X46115681Y-32308036D01*
X45981964Y-32174319D01*
X45824731Y-32069259D01*
X45650022Y-31996892D01*
X45464552Y-31960000D01*
X45275448Y-31960000D01*
X45089978Y-31996892D01*
X44915269Y-32069259D01*
X44793362Y-32150715D01*
X44746449Y-32093551D01*
X44675000Y-32034914D01*
X44675000Y-30435086D01*
X44746449Y-30376449D01*
X44888284Y-30203623D01*
X44993676Y-30006447D01*
X44994115Y-30005000D01*
X51525885Y-30005000D01*
X51526324Y-30006446D01*
X51631716Y-30203623D01*
X51773551Y-30376449D01*
X51845000Y-30435086D01*
X51845001Y-32034915D01*
X51773552Y-32093551D01*
X51726638Y-32150715D01*
X51604731Y-32069259D01*
X51430022Y-31996892D01*
X51244552Y-31960000D01*
X51055448Y-31960000D01*
X50869978Y-31996892D01*
X50695269Y-32069259D01*
X50538036Y-32174319D01*
X50404319Y-32308036D01*
X50299259Y-32465269D01*
X50226892Y-32639978D01*
X50190000Y-32825448D01*
X50190000Y-33014552D01*
X50226892Y-33200022D01*
X50299259Y-33374731D01*
X50404319Y-33531964D01*
X50538036Y-33665681D01*
X50695269Y-33770741D01*
X50869978Y-33843108D01*
X51055448Y-33880000D01*
X51244552Y-33880000D01*
X51430022Y-33843108D01*
X51445000Y-33836904D01*
X51445000Y-34055751D01*
X51461423Y-34222498D01*
X51526324Y-34436446D01*
X51631716Y-34633623D01*
X51773551Y-34806449D01*
X51946377Y-34948284D01*
X52143553Y-35053676D01*
X52357501Y-35118577D01*
X52580000Y-35140491D01*
X52802498Y-35118577D01*
X53016446Y-35053676D01*
X53213623Y-34948284D01*
X53386449Y-34806449D01*
X53528284Y-34633623D01*
X53633676Y-34436447D01*
X53698577Y-34222499D01*
X53715000Y-34055752D01*
X53715000Y-32844248D01*
X53698577Y-32677501D01*
X53633676Y-32463553D01*
X53528284Y-32266377D01*
X53386449Y-32093551D01*
X53315000Y-32034914D01*
X53315000Y-30435086D01*
X53386449Y-30376449D01*
X53528284Y-30203623D01*
X53633676Y-30006447D01*
X53698577Y-29792499D01*
X53715000Y-29625752D01*
X53715000Y-28914249D01*
X53698577Y-28747502D01*
X53633676Y-28533554D01*
X53528284Y-28336377D01*
X53386449Y-28163551D01*
X53213623Y-28021716D01*
X53016447Y-27916324D01*
X52802499Y-27851423D01*
X52580000Y-27829509D01*
X52357502Y-27851423D01*
X52143554Y-27916324D01*
X51946378Y-28021716D01*
X51773552Y-28163551D01*
X51631717Y-28336377D01*
X51526324Y-28533553D01*
X51525885Y-28535000D01*
X44994115Y-28535000D01*
X44993676Y-28533554D01*
X44888284Y-28336377D01*
X44746449Y-28163551D01*
X44573623Y-28021716D01*
X44376447Y-27916324D01*
X44162499Y-27851423D01*
X43940000Y-27829509D01*
X43717502Y-27851423D01*
X43503554Y-27916324D01*
X43306378Y-28021716D01*
X43133552Y-28163551D01*
X42991717Y-28336377D01*
X42886324Y-28533553D01*
X42821423Y-28747501D01*
X42805000Y-28914248D01*
X42805000Y-29625751D01*
X42821423Y-29792498D01*
X42886324Y-30006446D01*
X42991716Y-30203623D01*
X43133551Y-30376449D01*
X43205000Y-30435086D01*
X43205001Y-32034915D01*
X43133552Y-32093551D01*
X42991717Y-32266377D01*
X42886324Y-32463553D01*
X42821423Y-32677501D01*
X42805000Y-32844248D01*
X42805000Y-34055751D01*
X42821423Y-34222498D01*
X42886324Y-34436446D01*
X42985632Y-34622240D01*
X42846898Y-34564774D01*
X42646939Y-34525000D01*
X42443061Y-34525000D01*
X42243102Y-34564774D01*
X42054744Y-34642795D01*
X42037000Y-34654651D01*
X42037000Y-27380000D01*
X54483000Y-27380000D01*
X54483000Y-43036593D01*
G04 #@! TA.AperFunction,Conductor*
D24*
G36*
X54483000Y-43036593D02*
G01*
X54434180Y-43010498D01*
X54314482Y-42974188D01*
X54190000Y-42961928D01*
X52490000Y-42961928D01*
X52365518Y-42974188D01*
X52245820Y-43010498D01*
X52135506Y-43069463D01*
X52038815Y-43148815D01*
X51959463Y-43245506D01*
X51900498Y-43355820D01*
X51864188Y-43475518D01*
X51851928Y-43600000D01*
X51851928Y-45300000D01*
X51864188Y-45424482D01*
X51900498Y-45544180D01*
X51959463Y-45654494D01*
X52038815Y-45751185D01*
X52135506Y-45830537D01*
X52245820Y-45889502D01*
X52326466Y-45913966D01*
X52242412Y-45989731D01*
X52068359Y-46223080D01*
X51943175Y-46485901D01*
X51898524Y-46633110D01*
X52019845Y-46863000D01*
X53213000Y-46863000D01*
X53213000Y-46843000D01*
X53467000Y-46843000D01*
X53467000Y-46863000D01*
X53487000Y-46863000D01*
X53487000Y-47117000D01*
X53467000Y-47117000D01*
X53467000Y-47137000D01*
X53213000Y-47137000D01*
X53213000Y-47117000D01*
X52019845Y-47117000D01*
X51898524Y-47346890D01*
X51943175Y-47494099D01*
X52068359Y-47756920D01*
X52242412Y-47990269D01*
X52458645Y-48185178D01*
X52676056Y-48314683D01*
X52667741Y-48324815D01*
X52578556Y-48414000D01*
X51401711Y-48414000D01*
X51332774Y-48345063D01*
X51163256Y-48231795D01*
X50974898Y-48153774D01*
X50774939Y-48114000D01*
X50571061Y-48114000D01*
X50371102Y-48153774D01*
X50182744Y-48231795D01*
X50013226Y-48345063D01*
X49869063Y-48489226D01*
X49755795Y-48658744D01*
X49677774Y-48847102D01*
X49638000Y-49047061D01*
X49638000Y-49250939D01*
X49677774Y-49450898D01*
X49755795Y-49639256D01*
X49869063Y-49808774D01*
X50013226Y-49952937D01*
X50182744Y-50066205D01*
X50371102Y-50144226D01*
X50571061Y-50184000D01*
X50774939Y-50184000D01*
X50974898Y-50144226D01*
X51163256Y-50066205D01*
X51332774Y-49952937D01*
X51401711Y-49884000D01*
X52478001Y-49884000D01*
X52478000Y-57474837D01*
X52418000Y-57468928D01*
X51768000Y-57468928D01*
X51643518Y-57481188D01*
X51523820Y-57517498D01*
X51458000Y-57552680D01*
X51392180Y-57517498D01*
X51272482Y-57481188D01*
X51148000Y-57468928D01*
X50498000Y-57468928D01*
X50373518Y-57481188D01*
X50253820Y-57517498D01*
X50188000Y-57552680D01*
X50122180Y-57517498D01*
X50002482Y-57481188D01*
X49878000Y-57468928D01*
X49228000Y-57468928D01*
X49103518Y-57481188D01*
X48983820Y-57517498D01*
X48918000Y-57552680D01*
X48852180Y-57517498D01*
X48732482Y-57481188D01*
X48608000Y-57468928D01*
X47958000Y-57468928D01*
X47833518Y-57481188D01*
X47713820Y-57517498D01*
X47648000Y-57552680D01*
X47582180Y-57517498D01*
X47462482Y-57481188D01*
X47338000Y-57468928D01*
X46688000Y-57468928D01*
X46563518Y-57481188D01*
X46443820Y-57517498D01*
X46378000Y-57552680D01*
X46312180Y-57517498D01*
X46192482Y-57481188D01*
X46068000Y-57468928D01*
X45418000Y-57468928D01*
X45293518Y-57481188D01*
X45173820Y-57517498D01*
X45108000Y-57552680D01*
X45042180Y-57517498D01*
X44922482Y-57481188D01*
X44798000Y-57468928D01*
X44758750Y-57472000D01*
X44600000Y-57630750D01*
X44600000Y-58480000D01*
X44620000Y-58480000D01*
X44620000Y-58734000D01*
X44600000Y-58734000D01*
X44600000Y-59583250D01*
X44758750Y-59742000D01*
X44798000Y-59745072D01*
X44922482Y-59732812D01*
X45042180Y-59696502D01*
X45108000Y-59661320D01*
X45173820Y-59696502D01*
X45293518Y-59732812D01*
X45418000Y-59745072D01*
X46068000Y-59745072D01*
X46192482Y-59732812D01*
X46312180Y-59696502D01*
X46378000Y-59661320D01*
X46443820Y-59696502D01*
X46563518Y-59732812D01*
X46688000Y-59745072D01*
X47338000Y-59745072D01*
X47462482Y-59732812D01*
X47582180Y-59696502D01*
X47648000Y-59661320D01*
X47713820Y-59696502D01*
X47833518Y-59732812D01*
X47958000Y-59745072D01*
X48383300Y-59745072D01*
X48277744Y-59788795D01*
X48108226Y-59902063D01*
X47964063Y-60046226D01*
X47850795Y-60215744D01*
X47772774Y-60404102D01*
X47733000Y-60604061D01*
X47733000Y-60807939D01*
X47772774Y-61007898D01*
X47850795Y-61196256D01*
X47964063Y-61365774D01*
X48108226Y-61509937D01*
X48277744Y-61623205D01*
X48368000Y-61660591D01*
X48368000Y-61733929D01*
X48407774Y-61933888D01*
X48485795Y-62122246D01*
X48599063Y-62291764D01*
X48640926Y-62333627D01*
X46748968Y-64225586D01*
X46748968Y-64151489D01*
X46709194Y-63951530D01*
X46631173Y-63763172D01*
X46556946Y-63652083D01*
X46583865Y-63611796D01*
X46661886Y-63423438D01*
X46701660Y-63223479D01*
X46701660Y-63019601D01*
X46661886Y-62819642D01*
X46583865Y-62631284D01*
X46510783Y-62521910D01*
X46523928Y-62508765D01*
X46637196Y-62339247D01*
X46715217Y-62150889D01*
X46754991Y-61950930D01*
X46754991Y-61747052D01*
X46715217Y-61547093D01*
X46637196Y-61358735D01*
X46523928Y-61189217D01*
X46379765Y-61045054D01*
X46210247Y-60931786D01*
X46021889Y-60853765D01*
X45821930Y-60813991D01*
X45618052Y-60813991D01*
X45418093Y-60853765D01*
X45357072Y-60879041D01*
X45357072Y-60822000D01*
X45344812Y-60697518D01*
X45308502Y-60577820D01*
X45249537Y-60467506D01*
X45170185Y-60370815D01*
X45073494Y-60291463D01*
X44963180Y-60232498D01*
X44843482Y-60196188D01*
X44719000Y-60183928D01*
X43719000Y-60183928D01*
X43594518Y-60196188D01*
X43474820Y-60232498D01*
X43364506Y-60291463D01*
X43267815Y-60370815D01*
X43188463Y-60467506D01*
X43129498Y-60577820D01*
X43093188Y-60697518D01*
X43080928Y-60822000D01*
X43080928Y-61472000D01*
X43093188Y-61596482D01*
X43129498Y-61716180D01*
X43164680Y-61782000D01*
X43129498Y-61847820D01*
X43093188Y-61967518D01*
X43080928Y-62092000D01*
X43080928Y-62742000D01*
X43093188Y-62866482D01*
X43129498Y-62986180D01*
X43164680Y-63052000D01*
X43129498Y-63117820D01*
X43093188Y-63237518D01*
X43080928Y-63362000D01*
X43080928Y-64012000D01*
X43093188Y-64136482D01*
X43129498Y-64256180D01*
X43164680Y-64322000D01*
X43129498Y-64387820D01*
X43093188Y-64507518D01*
X43080928Y-64632000D01*
X43080928Y-65282000D01*
X43093188Y-65406482D01*
X43129498Y-65526180D01*
X43164680Y-65592000D01*
X43129498Y-65657820D01*
X43093188Y-65777518D01*
X43080928Y-65902000D01*
X43080928Y-66117001D01*
X42037000Y-66117001D01*
X42037000Y-59107000D01*
X43509928Y-59107000D01*
X43522188Y-59231482D01*
X43558498Y-59351180D01*
X43617463Y-59461494D01*
X43696815Y-59558185D01*
X43793506Y-59637537D01*
X43903820Y-59696502D01*
X44023518Y-59732812D01*
X44148000Y-59745072D01*
X44187250Y-59742000D01*
X44346000Y-59583250D01*
X44346000Y-58734000D01*
X43671750Y-58734000D01*
X43513000Y-58892750D01*
X43509928Y-59107000D01*
X42037000Y-59107000D01*
X42037000Y-58107000D01*
X43509928Y-58107000D01*
X43513000Y-58321250D01*
X43671750Y-58480000D01*
X44346000Y-58480000D01*
X44346000Y-57630750D01*
X44187250Y-57472000D01*
X44148000Y-57468928D01*
X44023518Y-57481188D01*
X43903820Y-57517498D01*
X43793506Y-57576463D01*
X43696815Y-57655815D01*
X43617463Y-57752506D01*
X43558498Y-57862820D01*
X43522188Y-57982518D01*
X43509928Y-58107000D01*
X42037000Y-58107000D01*
X42037000Y-55370000D01*
X44162011Y-55370000D01*
X44199333Y-55373676D01*
X44236655Y-55370000D01*
X44236666Y-55370000D01*
X44348319Y-55359003D01*
X44491580Y-55315546D01*
X44623609Y-55244974D01*
X44739334Y-55150001D01*
X44763137Y-55120997D01*
X45875451Y-54008684D01*
X45937588Y-54008684D01*
X46137547Y-53968910D01*
X46325905Y-53890889D01*
X46495423Y-53777621D01*
X46639586Y-53633458D01*
X46752854Y-53463940D01*
X46830875Y-53275582D01*
X46870649Y-53075623D01*
X46870649Y-52871745D01*
X46830875Y-52671786D01*
X46752854Y-52483428D01*
X46639586Y-52313910D01*
X46495423Y-52169747D01*
X46325905Y-52056479D01*
X46211034Y-52008897D01*
X46314155Y-51905776D01*
X46427423Y-51736258D01*
X46505444Y-51547900D01*
X46545218Y-51347941D01*
X46545218Y-51254075D01*
X47239695Y-50559599D01*
X47267735Y-50536587D01*
X47290748Y-50508546D01*
X47290751Y-50508543D01*
X47345308Y-50442065D01*
X47359585Y-50424669D01*
X47427835Y-50296982D01*
X47469863Y-50158434D01*
X47480498Y-50050454D01*
X47480498Y-50050453D01*
X47484054Y-50014349D01*
X47480498Y-49978244D01*
X47480498Y-47103046D01*
X47484054Y-47066941D01*
X47469863Y-46922856D01*
X47444514Y-46839293D01*
X47427835Y-46784308D01*
X47359585Y-46656621D01*
X47267736Y-46544703D01*
X47239691Y-46521687D01*
X46836000Y-46117997D01*
X46836000Y-45491061D01*
X48622000Y-45491061D01*
X48622000Y-45694939D01*
X48661774Y-45894898D01*
X48739795Y-46083256D01*
X48853063Y-46252774D01*
X48997226Y-46396937D01*
X49166744Y-46510205D01*
X49355102Y-46588226D01*
X49555061Y-46628000D01*
X49758939Y-46628000D01*
X49958898Y-46588226D01*
X50147256Y-46510205D01*
X50316774Y-46396937D01*
X50460937Y-46252774D01*
X50574205Y-46083256D01*
X50652226Y-45894898D01*
X50692000Y-45694939D01*
X50692000Y-45491061D01*
X50652226Y-45291102D01*
X50574205Y-45102744D01*
X50460937Y-44933226D01*
X50316774Y-44789063D01*
X50147256Y-44675795D01*
X49958898Y-44597774D01*
X49758939Y-44558000D01*
X49555061Y-44558000D01*
X49355102Y-44597774D01*
X49166744Y-44675795D01*
X48997226Y-44789063D01*
X48853063Y-44933226D01*
X48739795Y-45102744D01*
X48661774Y-45291102D01*
X48622000Y-45491061D01*
X46836000Y-45491061D01*
X46836000Y-40538061D01*
X48368000Y-40538061D01*
X48368000Y-40741939D01*
X48407774Y-40941898D01*
X48485795Y-41130256D01*
X48599063Y-41299774D01*
X48743226Y-41443937D01*
X48912744Y-41557205D01*
X49101102Y-41635226D01*
X49301061Y-41675000D01*
X49504939Y-41675000D01*
X49704898Y-41635226D01*
X49893256Y-41557205D01*
X50062774Y-41443937D01*
X50206937Y-41299774D01*
X50320205Y-41130256D01*
X50398226Y-40941898D01*
X50438000Y-40741939D01*
X50438000Y-40538061D01*
X50398226Y-40338102D01*
X50320205Y-40149744D01*
X50206937Y-39980226D01*
X50062774Y-39836063D01*
X49893256Y-39722795D01*
X49704898Y-39644774D01*
X49504939Y-39605000D01*
X49301061Y-39605000D01*
X49101102Y-39644774D01*
X48912744Y-39722795D01*
X48743226Y-39836063D01*
X48599063Y-39980226D01*
X48485795Y-40149744D01*
X48407774Y-40338102D01*
X48368000Y-40538061D01*
X46836000Y-40538061D01*
X46836000Y-40251111D01*
X46904937Y-40182174D01*
X47018205Y-40012656D01*
X47096226Y-39824298D01*
X47136000Y-39624339D01*
X47136000Y-39420461D01*
X47096226Y-39220502D01*
X47018205Y-39032144D01*
X46904937Y-38862626D01*
X46760774Y-38718463D01*
X46591256Y-38605195D01*
X46402898Y-38527174D01*
X46202939Y-38487400D01*
X45999061Y-38487400D01*
X45799102Y-38527174D01*
X45610744Y-38605195D01*
X45441226Y-38718463D01*
X45297063Y-38862626D01*
X45183795Y-39032144D01*
X45105774Y-39220502D01*
X45066000Y-39420461D01*
X45066000Y-39624339D01*
X45105774Y-39824298D01*
X45183795Y-40012656D01*
X45297063Y-40182174D01*
X45366001Y-40251112D01*
X45366000Y-46386338D01*
X45362444Y-46422443D01*
X45376505Y-46565204D01*
X45376635Y-46566527D01*
X45393009Y-46620505D01*
X45306255Y-46678472D01*
X45162092Y-46822635D01*
X45048824Y-46992153D01*
X44970803Y-47180511D01*
X44931029Y-47380470D01*
X44931029Y-47584348D01*
X44970803Y-47784307D01*
X45048824Y-47972665D01*
X45162092Y-48142183D01*
X45306255Y-48286346D01*
X45475773Y-48399614D01*
X45664131Y-48477635D01*
X45864090Y-48517409D01*
X46010499Y-48517409D01*
X46010498Y-49073595D01*
X45907650Y-48970747D01*
X45738132Y-48857479D01*
X45549774Y-48779458D01*
X45349815Y-48739684D01*
X45145937Y-48739684D01*
X44945978Y-48779458D01*
X44757620Y-48857479D01*
X44588102Y-48970747D01*
X44443939Y-49114910D01*
X44330671Y-49284428D01*
X44252650Y-49472786D01*
X44212876Y-49672745D01*
X44212876Y-49876623D01*
X44252650Y-50076582D01*
X44330671Y-50264940D01*
X44443939Y-50434458D01*
X44588102Y-50578621D01*
X44673318Y-50635560D01*
X44593013Y-50755746D01*
X44514992Y-50944104D01*
X44475218Y-51144063D01*
X44475218Y-51347941D01*
X44514992Y-51547900D01*
X44593013Y-51736258D01*
X44706281Y-51905776D01*
X44850444Y-52049939D01*
X45019962Y-52163207D01*
X45134833Y-52210789D01*
X45031712Y-52313910D01*
X44918444Y-52483428D01*
X44840423Y-52671786D01*
X44800649Y-52871745D01*
X44800649Y-52933882D01*
X43884532Y-53850000D01*
X42037000Y-53850000D01*
X42037000Y-37109061D01*
X47352000Y-37109061D01*
X47352000Y-37312939D01*
X47391774Y-37512898D01*
X47469795Y-37701256D01*
X47583063Y-37870774D01*
X47727226Y-38014937D01*
X47896744Y-38128205D01*
X48085102Y-38206226D01*
X48285061Y-38246000D01*
X48488939Y-38246000D01*
X48688898Y-38206226D01*
X48877256Y-38128205D01*
X49046774Y-38014937D01*
X49190937Y-37870774D01*
X49304205Y-37701256D01*
X49382226Y-37512898D01*
X49422000Y-37312939D01*
X49422000Y-37109061D01*
X49382226Y-36909102D01*
X49304205Y-36720744D01*
X49190937Y-36551226D01*
X49046774Y-36407063D01*
X48877256Y-36293795D01*
X48688898Y-36215774D01*
X48488939Y-36176000D01*
X48285061Y-36176000D01*
X48085102Y-36215774D01*
X47896744Y-36293795D01*
X47727226Y-36407063D01*
X47583063Y-36551226D01*
X47469795Y-36720744D01*
X47391774Y-36909102D01*
X47352000Y-37109061D01*
X42037000Y-37109061D01*
X42037000Y-36465349D01*
X42054744Y-36477205D01*
X42243102Y-36555226D01*
X42443061Y-36595000D01*
X42646939Y-36595000D01*
X42846898Y-36555226D01*
X43035256Y-36477205D01*
X43204774Y-36363937D01*
X43348937Y-36219774D01*
X43462205Y-36050256D01*
X43540226Y-35861898D01*
X43580000Y-35661939D01*
X43580000Y-35458061D01*
X43540226Y-35258102D01*
X43462205Y-35069744D01*
X43422533Y-35010370D01*
X43503553Y-35053676D01*
X43717501Y-35118577D01*
X43940000Y-35140491D01*
X44162498Y-35118577D01*
X44376446Y-35053676D01*
X44573623Y-34948284D01*
X44746449Y-34806449D01*
X44888284Y-34633623D01*
X44993676Y-34436447D01*
X45058577Y-34222499D01*
X45075000Y-34055752D01*
X45075000Y-33836904D01*
X45089978Y-33843108D01*
X45275448Y-33880000D01*
X45464552Y-33880000D01*
X45650022Y-33843108D01*
X45824731Y-33770741D01*
X45981964Y-33665681D01*
X46115681Y-33531964D01*
X46220741Y-33374731D01*
X46293108Y-33200022D01*
X46330000Y-33014552D01*
X46330000Y-32825448D01*
X46293108Y-32639978D01*
X46246301Y-32526975D01*
X46691976Y-32526975D01*
X46691976Y-32730853D01*
X46731750Y-32930812D01*
X46809771Y-33119170D01*
X46923039Y-33288688D01*
X47067202Y-33432851D01*
X47236720Y-33546119D01*
X47425078Y-33624140D01*
X47625037Y-33663914D01*
X47828915Y-33663914D01*
X48028874Y-33624140D01*
X48127936Y-33583107D01*
X48277744Y-33683205D01*
X48466102Y-33761226D01*
X48666061Y-33801000D01*
X48869939Y-33801000D01*
X49069898Y-33761226D01*
X49258256Y-33683205D01*
X49427774Y-33569937D01*
X49571937Y-33425774D01*
X49685205Y-33256256D01*
X49763226Y-33067898D01*
X49803000Y-32867939D01*
X49803000Y-32664061D01*
X49763226Y-32464102D01*
X49685205Y-32275744D01*
X49571937Y-32106226D01*
X49427774Y-31962063D01*
X49258256Y-31848795D01*
X49069898Y-31770774D01*
X48869939Y-31731000D01*
X48666061Y-31731000D01*
X48466102Y-31770774D01*
X48367040Y-31811807D01*
X48217232Y-31711709D01*
X48028874Y-31633688D01*
X47828915Y-31593914D01*
X47625037Y-31593914D01*
X47425078Y-31633688D01*
X47236720Y-31711709D01*
X47067202Y-31824977D01*
X46923039Y-31969140D01*
X46809771Y-32138658D01*
X46731750Y-32327016D01*
X46691976Y-32526975D01*
X46246301Y-32526975D01*
X46220741Y-32465269D01*
X46115681Y-32308036D01*
X45981964Y-32174319D01*
X45824731Y-32069259D01*
X45650022Y-31996892D01*
X45464552Y-31960000D01*
X45275448Y-31960000D01*
X45089978Y-31996892D01*
X44915269Y-32069259D01*
X44793362Y-32150715D01*
X44746449Y-32093551D01*
X44675000Y-32034914D01*
X44675000Y-30435086D01*
X44746449Y-30376449D01*
X44888284Y-30203623D01*
X44993676Y-30006447D01*
X44994115Y-30005000D01*
X51525885Y-30005000D01*
X51526324Y-30006446D01*
X51631716Y-30203623D01*
X51773551Y-30376449D01*
X51845000Y-30435086D01*
X51845001Y-32034915D01*
X51773552Y-32093551D01*
X51726638Y-32150715D01*
X51604731Y-32069259D01*
X51430022Y-31996892D01*
X51244552Y-31960000D01*
X51055448Y-31960000D01*
X50869978Y-31996892D01*
X50695269Y-32069259D01*
X50538036Y-32174319D01*
X50404319Y-32308036D01*
X50299259Y-32465269D01*
X50226892Y-32639978D01*
X50190000Y-32825448D01*
X50190000Y-33014552D01*
X50226892Y-33200022D01*
X50299259Y-33374731D01*
X50404319Y-33531964D01*
X50538036Y-33665681D01*
X50695269Y-33770741D01*
X50869978Y-33843108D01*
X51055448Y-33880000D01*
X51244552Y-33880000D01*
X51430022Y-33843108D01*
X51445000Y-33836904D01*
X51445000Y-34055751D01*
X51461423Y-34222498D01*
X51526324Y-34436446D01*
X51631716Y-34633623D01*
X51773551Y-34806449D01*
X51946377Y-34948284D01*
X52143553Y-35053676D01*
X52357501Y-35118577D01*
X52580000Y-35140491D01*
X52802498Y-35118577D01*
X53016446Y-35053676D01*
X53213623Y-34948284D01*
X53386449Y-34806449D01*
X53528284Y-34633623D01*
X53633676Y-34436447D01*
X53698577Y-34222499D01*
X53715000Y-34055752D01*
X53715000Y-32844248D01*
X53698577Y-32677501D01*
X53633676Y-32463553D01*
X53528284Y-32266377D01*
X53386449Y-32093551D01*
X53315000Y-32034914D01*
X53315000Y-30435086D01*
X53386449Y-30376449D01*
X53528284Y-30203623D01*
X53633676Y-30006447D01*
X53698577Y-29792499D01*
X53715000Y-29625752D01*
X53715000Y-28914249D01*
X53698577Y-28747502D01*
X53633676Y-28533554D01*
X53528284Y-28336377D01*
X53386449Y-28163551D01*
X53213623Y-28021716D01*
X53016447Y-27916324D01*
X52802499Y-27851423D01*
X52580000Y-27829509D01*
X52357502Y-27851423D01*
X52143554Y-27916324D01*
X51946378Y-28021716D01*
X51773552Y-28163551D01*
X51631717Y-28336377D01*
X51526324Y-28533553D01*
X51525885Y-28535000D01*
X44994115Y-28535000D01*
X44993676Y-28533554D01*
X44888284Y-28336377D01*
X44746449Y-28163551D01*
X44573623Y-28021716D01*
X44376447Y-27916324D01*
X44162499Y-27851423D01*
X43940000Y-27829509D01*
X43717502Y-27851423D01*
X43503554Y-27916324D01*
X43306378Y-28021716D01*
X43133552Y-28163551D01*
X42991717Y-28336377D01*
X42886324Y-28533553D01*
X42821423Y-28747501D01*
X42805000Y-28914248D01*
X42805000Y-29625751D01*
X42821423Y-29792498D01*
X42886324Y-30006446D01*
X42991716Y-30203623D01*
X43133551Y-30376449D01*
X43205000Y-30435086D01*
X43205001Y-32034915D01*
X43133552Y-32093551D01*
X42991717Y-32266377D01*
X42886324Y-32463553D01*
X42821423Y-32677501D01*
X42805000Y-32844248D01*
X42805000Y-34055751D01*
X42821423Y-34222498D01*
X42886324Y-34436446D01*
X42985632Y-34622240D01*
X42846898Y-34564774D01*
X42646939Y-34525000D01*
X42443061Y-34525000D01*
X42243102Y-34564774D01*
X42054744Y-34642795D01*
X42037000Y-34654651D01*
X42037000Y-27380000D01*
X54483000Y-27380000D01*
X54483000Y-43036593D01*
G37*
G04 #@! TD.AperFunction*
M02*
