G04 #@! TF.GenerationSoftware,KiCad,Pcbnew,(5.1.8)-1*
G04 #@! TF.CreationDate,2021-04-26T09:33:21+02:00*
G04 #@! TF.ProjectId,BlueMacro,426c7565-4d61-4637-926f-2e6b69636164,rev?*
G04 #@! TF.SameCoordinates,Original*
G04 #@! TF.FileFunction,Copper,L2,Inr*
G04 #@! TF.FilePolarity,Positive*
%FSLAX46Y46*%
G04 Gerber Fmt 4.6, Leading zero omitted, Abs format (unit mm)*
G04 Created by KiCad (PCBNEW (5.1.8)-1) date 2021-04-26 09:33:21*
%MOMM*%
%LPD*%
G01*
G04 APERTURE LIST*
G04 #@! TA.AperFunction,WasherPad*
%ADD10C,1.270000*%
G04 #@! TD*
G04 #@! TA.AperFunction,ComponentPad*
%ADD11C,1.270000*%
G04 #@! TD*
G04 #@! TA.AperFunction,ComponentPad*
%ADD12R,1.250000X1.250000*%
G04 #@! TD*
G04 #@! TA.AperFunction,ComponentPad*
%ADD13R,1.700000X1.700000*%
G04 #@! TD*
G04 #@! TA.AperFunction,ComponentPad*
%ADD14O,1.700000X1.700000*%
G04 #@! TD*
G04 #@! TA.AperFunction,ComponentPad*
%ADD15O,1.000000X1.600000*%
G04 #@! TD*
G04 #@! TA.AperFunction,ComponentPad*
%ADD16O,1.000000X2.100000*%
G04 #@! TD*
G04 #@! TA.AperFunction,ComponentPad*
%ADD17R,0.650000X1.000000*%
G04 #@! TD*
G04 #@! TA.AperFunction,ComponentPad*
%ADD18R,1.000000X0.650000*%
G04 #@! TD*
G04 #@! TA.AperFunction,ComponentPad*
%ADD19C,0.100000*%
G04 #@! TD*
G04 #@! TA.AperFunction,ViaPad*
%ADD20C,0.800000*%
G04 #@! TD*
G04 #@! TA.AperFunction,Conductor*
%ADD21C,0.250000*%
G04 #@! TD*
G04 #@! TA.AperFunction,Conductor*
%ADD22C,0.200000*%
G04 #@! TD*
G04 APERTURE END LIST*
D10*
X55880000Y-27940000D03*
X40640000Y-27940000D03*
X55880000Y-73660000D03*
X40640000Y-73660000D03*
D11*
X40640000Y-71120000D03*
X40640000Y-68580000D03*
X40640000Y-66040000D03*
X40640000Y-63500000D03*
X40640000Y-60960000D03*
X40640000Y-53340000D03*
X40640000Y-50800000D03*
X40640000Y-48260000D03*
X40640000Y-55880000D03*
X40640000Y-58420000D03*
D12*
X55880000Y-71120000D03*
D11*
X55880000Y-68580000D03*
X55880000Y-66040000D03*
X55880000Y-63500000D03*
X55880000Y-60960000D03*
X55880000Y-58420000D03*
X55880000Y-55880000D03*
X55880000Y-53340000D03*
X55880000Y-50800000D03*
X55880000Y-48260000D03*
X55880000Y-45720000D03*
X55880000Y-43180000D03*
X40640000Y-45720000D03*
X40640000Y-43180000D03*
X40640000Y-40640000D03*
X40640000Y-38100000D03*
X40640000Y-35560000D03*
X40640000Y-33020000D03*
X40640000Y-30480000D03*
X55880000Y-30480000D03*
X55880000Y-33020000D03*
X55880000Y-35560000D03*
X55880000Y-38100000D03*
X55880000Y-40640000D03*
D13*
X53340000Y-44450000D03*
D14*
X53340000Y-46990000D03*
D15*
X43940000Y-29270000D03*
X52580000Y-29270000D03*
D16*
X43940000Y-33450000D03*
X52580000Y-33450000D03*
D17*
X48283000Y-58607000D03*
X44473000Y-58607000D03*
X45743000Y-58607000D03*
X49553000Y-58607000D03*
X47013000Y-58607000D03*
X52093000Y-58607000D03*
X50823000Y-58607000D03*
D18*
X44219000Y-70037000D03*
X44219000Y-68767000D03*
X44219000Y-67497000D03*
X44219000Y-66227000D03*
X44219000Y-64957000D03*
X44219000Y-63687000D03*
X44219000Y-62417000D03*
X44219000Y-61147000D03*
G04 #@! TA.AperFunction,ComponentPad*
D19*
G36*
X39243000Y-60467817D02*
G01*
X38465183Y-59690000D01*
X39243000Y-58912183D01*
X40020817Y-59690000D01*
X39243000Y-60467817D01*
G37*
G04 #@! TD.AperFunction*
G04 #@! TA.AperFunction,ComponentPad*
G36*
X39243000Y-63007817D02*
G01*
X38465183Y-62230000D01*
X39243000Y-61452183D01*
X40020817Y-62230000D01*
X39243000Y-63007817D01*
G37*
G04 #@! TD.AperFunction*
G04 #@! TA.AperFunction,ComponentPad*
G36*
X39243000Y-65547817D02*
G01*
X38465183Y-64770000D01*
X39243000Y-63992183D01*
X40020817Y-64770000D01*
X39243000Y-65547817D01*
G37*
G04 #@! TD.AperFunction*
G04 #@! TA.AperFunction,ComponentPad*
G36*
X39243000Y-68087817D02*
G01*
X38465183Y-67310000D01*
X39243000Y-66532183D01*
X40020817Y-67310000D01*
X39243000Y-68087817D01*
G37*
G04 #@! TD.AperFunction*
D20*
X53340000Y-42418000D03*
X52203831Y-35488064D03*
X44316172Y-35488067D03*
X43942000Y-50546000D03*
X47371000Y-42037000D03*
X49657000Y-63754000D03*
X48338011Y-62357000D03*
X46101000Y-39522400D03*
X50673000Y-49149000D03*
X45835649Y-52973684D03*
X49657000Y-45593000D03*
X49403000Y-61631990D03*
X48387000Y-37211000D03*
X45966029Y-47482409D03*
X45755300Y-68160775D03*
X48768000Y-32766000D03*
X45666660Y-63121540D03*
X47726976Y-32628914D03*
X45719991Y-61848991D03*
X45247876Y-49774684D03*
X45574265Y-65386271D03*
X45758100Y-64297560D03*
X53085990Y-62357000D03*
X53086000Y-61341000D03*
X42545000Y-35560000D03*
X49403000Y-40640000D03*
X48768000Y-60706000D03*
X50747991Y-60161560D03*
X46956980Y-69377560D03*
D21*
X48387000Y-37211000D02*
X48387000Y-38273842D01*
X45966029Y-40694813D02*
X45966029Y-47482409D01*
X48387000Y-38273842D02*
X45966029Y-40694813D01*
D22*
X43776311Y-59836011D02*
X44850012Y-59836011D01*
X48768000Y-32766000D02*
X48768000Y-33331685D01*
X48768000Y-33331685D02*
X43241999Y-38857686D01*
X43241999Y-38857686D02*
X43241999Y-59301699D01*
X43241999Y-59301699D02*
X43776311Y-59836011D01*
X46503821Y-62245961D02*
X45666660Y-63083122D01*
X45666660Y-63083122D02*
X45666660Y-63121540D01*
X46503821Y-61489820D02*
X46503821Y-62245961D01*
X44850012Y-59836011D02*
X46503821Y-61489820D01*
X42812578Y-50003009D02*
X42791988Y-50023599D01*
X42812578Y-38246548D02*
X42812578Y-50003009D01*
X42791988Y-50023599D02*
X42791988Y-54360588D01*
X42837022Y-54405622D02*
X42837022Y-59550222D01*
X42791988Y-54360588D02*
X42837022Y-54405622D01*
X47726976Y-33332150D02*
X42812578Y-38246548D01*
X42837022Y-59550222D02*
X43572822Y-60286022D01*
X43572822Y-60286022D02*
X44722707Y-60286022D01*
X45719991Y-61283306D02*
X45719991Y-61848991D01*
X44722707Y-60286022D02*
X45719991Y-61283306D01*
X47726976Y-32628914D02*
X47726976Y-33332150D01*
X55880000Y-61858025D02*
X55880000Y-60960000D01*
X54483000Y-63430700D02*
X55880000Y-62033700D01*
X54483000Y-69215000D02*
X54483000Y-63430700D01*
X41694100Y-69253100D02*
X43406060Y-70965060D01*
X41694100Y-69245480D02*
X41694100Y-69253100D01*
X41575001Y-69126381D02*
X41694100Y-69245480D01*
X55880000Y-62033700D02*
X55880000Y-61858025D01*
X43406060Y-70965060D02*
X52732940Y-70965060D01*
X41575001Y-61895001D02*
X41575001Y-69126381D01*
X52732940Y-70965060D02*
X54483000Y-69215000D01*
X40640000Y-60960000D02*
X41575001Y-61895001D01*
X44219000Y-66227000D02*
X44044000Y-66227000D01*
X46903832Y-62411650D02*
X46903832Y-61254832D01*
X44219000Y-66227000D02*
X45723500Y-66227000D01*
X45085000Y-59436000D02*
X43942000Y-59436000D01*
X43789600Y-51798645D02*
X45247876Y-50340369D01*
X43789600Y-59283600D02*
X43789600Y-51798645D01*
X46574941Y-65375559D02*
X46574941Y-62740541D01*
X45723500Y-66227000D02*
X46574941Y-65375559D01*
X46574941Y-62740541D02*
X46903832Y-62411650D01*
X45247876Y-50340369D02*
X45247876Y-49774684D01*
X46903832Y-61254832D02*
X45085000Y-59436000D01*
X43942000Y-59436000D02*
X43789600Y-59283600D01*
X43271440Y-64009440D02*
X44219000Y-64957000D01*
X43271440Y-60550340D02*
X43271440Y-64009440D01*
X42437011Y-59715911D02*
X43271440Y-60550340D01*
X42437011Y-54571311D02*
X42437011Y-59715911D01*
X42391977Y-54526277D02*
X42437011Y-54571311D01*
X42391977Y-42391977D02*
X42391977Y-54526277D01*
X40640000Y-40640000D02*
X42391977Y-42391977D01*
X55880000Y-53340000D02*
X54864000Y-54356000D01*
X54864000Y-60578990D02*
X53485989Y-61957001D01*
X53485989Y-61957001D02*
X53085990Y-62357000D01*
X54864000Y-54356000D02*
X54864000Y-60578990D01*
X55880000Y-50800000D02*
X54463990Y-52216010D01*
X53086000Y-58801000D02*
X53086000Y-60775315D01*
X53086000Y-60775315D02*
X53086000Y-61341000D01*
X54463990Y-57423010D02*
X53086000Y-58801000D01*
X54463990Y-52216010D02*
X54463990Y-57423010D01*
X42545000Y-35560000D02*
X40640000Y-35560000D01*
X48283000Y-58607000D02*
X48283000Y-42833685D01*
X48283000Y-42833685D02*
X49403000Y-41713685D01*
X49403000Y-41205685D02*
X49403000Y-40640000D01*
X49403000Y-41713685D02*
X49403000Y-41205685D01*
X49084636Y-57232638D02*
X49084636Y-55797690D01*
X49084636Y-55797690D02*
X49553000Y-55329326D01*
X49553000Y-58607000D02*
X49553000Y-57701002D01*
X54981975Y-40640000D02*
X55880000Y-40640000D01*
X50842973Y-46025291D02*
X50842973Y-43206327D01*
X49553000Y-47315264D02*
X50842973Y-46025291D01*
X50842973Y-43206327D02*
X53409300Y-40640000D01*
X53409300Y-40640000D02*
X54981975Y-40640000D01*
X49553000Y-57701002D02*
X49084636Y-57232638D01*
X49553000Y-55329326D02*
X49553000Y-47315264D01*
X47013000Y-57907000D02*
X47013000Y-58607000D01*
X48071001Y-40828999D02*
X48071001Y-42373001D01*
X55880000Y-33020000D02*
X48071001Y-40828999D01*
X48071001Y-42373001D02*
X47526001Y-42918001D01*
X47526001Y-42918001D02*
X47526001Y-55266297D01*
X47526001Y-55266297D02*
X47013000Y-55779298D01*
X47013000Y-55779298D02*
X47013000Y-57907000D01*
X53975000Y-50165000D02*
X55880000Y-48260000D01*
X53975000Y-57250000D02*
X53975000Y-50165000D01*
X52618000Y-58607000D02*
X53975000Y-57250000D01*
X52093000Y-58607000D02*
X52618000Y-58607000D01*
X53467000Y-55263000D02*
X50823000Y-57907000D01*
X53467000Y-50107302D02*
X53467000Y-55263000D01*
X54944999Y-48629303D02*
X53467000Y-50107302D01*
X50823000Y-57907000D02*
X50823000Y-58607000D01*
X55880000Y-45720000D02*
X54944999Y-46655001D01*
X54944999Y-46655001D02*
X54944999Y-48629303D01*
X48768000Y-60140315D02*
X48768000Y-60706000D01*
X48927999Y-59980316D02*
X48768000Y-60140315D01*
X48684625Y-57533246D02*
X48927999Y-57776620D01*
X48927999Y-55388627D02*
X48684625Y-55632001D01*
X54766922Y-39213078D02*
X53868897Y-39213078D01*
X55880000Y-38100000D02*
X54766922Y-39213078D01*
X48927999Y-57776620D02*
X48927999Y-59980316D01*
X53868897Y-39213078D02*
X50442962Y-42639013D01*
X48684625Y-55632001D02*
X48684625Y-57533246D01*
X50442962Y-42639013D02*
X50442962Y-45859602D01*
X50442962Y-45859602D02*
X48927999Y-47374565D01*
X48927999Y-47374565D02*
X48927999Y-55388627D01*
X50197999Y-57971610D02*
X50197999Y-59611568D01*
X50033388Y-57806999D02*
X50197999Y-57971610D01*
X50033388Y-49545390D02*
X50033388Y-57806999D01*
X50197999Y-59611568D02*
X50747991Y-60161560D01*
X49972999Y-49485001D02*
X50033388Y-49545390D01*
X49972999Y-48812999D02*
X49972999Y-49485001D01*
X51622960Y-47163038D02*
X49972999Y-48812999D01*
X51622960Y-43830240D02*
X51622960Y-47163038D01*
X52273200Y-43180000D02*
X51622960Y-43830240D01*
X55880000Y-43180000D02*
X52273200Y-43180000D01*
X45533000Y-67497000D02*
X44219000Y-67497000D01*
X46368001Y-59327003D02*
X47303843Y-60262845D01*
X47303843Y-65726157D02*
X45533000Y-67497000D01*
X46368001Y-55485999D02*
X46368001Y-59327003D01*
X47303843Y-60262845D02*
X47303843Y-65726157D01*
X46745498Y-55108502D02*
X46368001Y-55485999D01*
X46609000Y-46388944D02*
X46745498Y-46525442D01*
X46609000Y-41127998D02*
X46609000Y-46388944D01*
X46745498Y-46525442D02*
X46745498Y-55108502D01*
X49591999Y-33085001D02*
X49591999Y-38144999D01*
X49591999Y-38144999D02*
X46609000Y-41127998D01*
X52197000Y-30480000D02*
X49591999Y-33085001D01*
X55880000Y-30480000D02*
X52197000Y-30480000D01*
X42037000Y-54737000D02*
X40640000Y-53340000D01*
X42037000Y-59916954D02*
X42037000Y-54737000D01*
X42839640Y-60719594D02*
X42037000Y-59916954D01*
X42839640Y-67660520D02*
X42839640Y-60719594D01*
X43946120Y-68767000D02*
X42839640Y-67660520D01*
X44219000Y-68767000D02*
X43946120Y-68767000D01*
X41636990Y-60082643D02*
X42439630Y-60885283D01*
X42439630Y-68352632D02*
X43479798Y-69392800D01*
X40640000Y-55880000D02*
X41636990Y-56876990D01*
X41636990Y-56876990D02*
X41636990Y-60082643D01*
X46941740Y-69392800D02*
X46956980Y-69377560D01*
X42439630Y-60885283D02*
X42439630Y-68352632D01*
X43479798Y-69392800D02*
X46941740Y-69392800D01*
M02*
