G04 #@! TF.GenerationSoftware,KiCad,Pcbnew,(5.1.8)-1*
G04 #@! TF.CreationDate,2021-04-26T09:33:22+02:00*
G04 #@! TF.ProjectId,BlueMacro,426c7565-4d61-4637-926f-2e6b69636164,rev?*
G04 #@! TF.SameCoordinates,Original*
G04 #@! TF.FileFunction,Soldermask,Bot*
G04 #@! TF.FilePolarity,Negative*
%FSLAX46Y46*%
G04 Gerber Fmt 4.6, Leading zero omitted, Abs format (unit mm)*
G04 Created by KiCad (PCBNEW (5.1.8)-1) date 2021-04-26 09:33:22*
%MOMM*%
%LPD*%
G01*
G04 APERTURE LIST*
%ADD10C,1.670000*%
%ADD11O,2.100000X2.100000*%
%ADD12O,1.400000X2.000000*%
%ADD13O,1.400000X2.500000*%
%ADD14C,1.050000*%
G04 APERTURE END LIST*
D10*
X55880000Y-27940000D03*
X40640000Y-27940000D03*
X55880000Y-73660000D03*
X40640000Y-73660000D03*
X40640000Y-71120000D03*
X40640000Y-68580000D03*
X40640000Y-66040000D03*
X40640000Y-63500000D03*
X40640000Y-60960000D03*
X40640000Y-53340000D03*
X40640000Y-50800000D03*
X40640000Y-48260000D03*
X40640000Y-55880000D03*
X40640000Y-58420000D03*
G36*
G01*
X56505000Y-71945000D02*
X55255000Y-71945000D01*
G75*
G02*
X55055000Y-71745000I0J200000D01*
G01*
X55055000Y-70495000D01*
G75*
G02*
X55255000Y-70295000I200000J0D01*
G01*
X56505000Y-70295000D01*
G75*
G02*
X56705000Y-70495000I0J-200000D01*
G01*
X56705000Y-71745000D01*
G75*
G02*
X56505000Y-71945000I-200000J0D01*
G01*
G37*
X55880000Y-68580000D03*
X55880000Y-66040000D03*
X55880000Y-63500000D03*
X55880000Y-60960000D03*
X55880000Y-58420000D03*
X55880000Y-55880000D03*
X55880000Y-53340000D03*
X55880000Y-50800000D03*
X55880000Y-48260000D03*
X55880000Y-45720000D03*
X55880000Y-43180000D03*
X40640000Y-45720000D03*
X40640000Y-43180000D03*
X40640000Y-40640000D03*
X40640000Y-38100000D03*
X40640000Y-35560000D03*
X40640000Y-33020000D03*
X40640000Y-30480000D03*
X55880000Y-30480000D03*
X55880000Y-33020000D03*
X55880000Y-35560000D03*
X55880000Y-38100000D03*
X55880000Y-40640000D03*
G36*
G01*
X52290000Y-45300000D02*
X52290000Y-43600000D01*
G75*
G02*
X52490000Y-43400000I200000J0D01*
G01*
X54190000Y-43400000D01*
G75*
G02*
X54390000Y-43600000I0J-200000D01*
G01*
X54390000Y-45300000D01*
G75*
G02*
X54190000Y-45500000I-200000J0D01*
G01*
X52490000Y-45500000D01*
G75*
G02*
X52290000Y-45300000I0J200000D01*
G01*
G37*
D11*
X53340000Y-46990000D03*
D12*
X43940000Y-29270000D03*
X52580000Y-29270000D03*
D13*
X43940000Y-33450000D03*
X52580000Y-33450000D03*
D14*
X51150000Y-32920000D03*
X45370000Y-32920000D03*
G36*
G01*
X47758000Y-59107000D02*
X47758000Y-58107000D01*
G75*
G02*
X47958000Y-57907000I200000J0D01*
G01*
X48608000Y-57907000D01*
G75*
G02*
X48808000Y-58107000I0J-200000D01*
G01*
X48808000Y-59107000D01*
G75*
G02*
X48608000Y-59307000I-200000J0D01*
G01*
X47958000Y-59307000D01*
G75*
G02*
X47758000Y-59107000I0J200000D01*
G01*
G37*
G36*
G01*
X43948000Y-59107000D02*
X43948000Y-58107000D01*
G75*
G02*
X44148000Y-57907000I200000J0D01*
G01*
X44798000Y-57907000D01*
G75*
G02*
X44998000Y-58107000I0J-200000D01*
G01*
X44998000Y-59107000D01*
G75*
G02*
X44798000Y-59307000I-200000J0D01*
G01*
X44148000Y-59307000D01*
G75*
G02*
X43948000Y-59107000I0J200000D01*
G01*
G37*
G36*
G01*
X45218000Y-59107000D02*
X45218000Y-58107000D01*
G75*
G02*
X45418000Y-57907000I200000J0D01*
G01*
X46068000Y-57907000D01*
G75*
G02*
X46268000Y-58107000I0J-200000D01*
G01*
X46268000Y-59107000D01*
G75*
G02*
X46068000Y-59307000I-200000J0D01*
G01*
X45418000Y-59307000D01*
G75*
G02*
X45218000Y-59107000I0J200000D01*
G01*
G37*
G36*
G01*
X49028000Y-59107000D02*
X49028000Y-58107000D01*
G75*
G02*
X49228000Y-57907000I200000J0D01*
G01*
X49878000Y-57907000D01*
G75*
G02*
X50078000Y-58107000I0J-200000D01*
G01*
X50078000Y-59107000D01*
G75*
G02*
X49878000Y-59307000I-200000J0D01*
G01*
X49228000Y-59307000D01*
G75*
G02*
X49028000Y-59107000I0J200000D01*
G01*
G37*
G36*
G01*
X46488000Y-59107000D02*
X46488000Y-58107000D01*
G75*
G02*
X46688000Y-57907000I200000J0D01*
G01*
X47338000Y-57907000D01*
G75*
G02*
X47538000Y-58107000I0J-200000D01*
G01*
X47538000Y-59107000D01*
G75*
G02*
X47338000Y-59307000I-200000J0D01*
G01*
X46688000Y-59307000D01*
G75*
G02*
X46488000Y-59107000I0J200000D01*
G01*
G37*
G36*
G01*
X51568000Y-59107000D02*
X51568000Y-58107000D01*
G75*
G02*
X51768000Y-57907000I200000J0D01*
G01*
X52418000Y-57907000D01*
G75*
G02*
X52618000Y-58107000I0J-200000D01*
G01*
X52618000Y-59107000D01*
G75*
G02*
X52418000Y-59307000I-200000J0D01*
G01*
X51768000Y-59307000D01*
G75*
G02*
X51568000Y-59107000I0J200000D01*
G01*
G37*
G36*
G01*
X50298000Y-59107000D02*
X50298000Y-58107000D01*
G75*
G02*
X50498000Y-57907000I200000J0D01*
G01*
X51148000Y-57907000D01*
G75*
G02*
X51348000Y-58107000I0J-200000D01*
G01*
X51348000Y-59107000D01*
G75*
G02*
X51148000Y-59307000I-200000J0D01*
G01*
X50498000Y-59307000D01*
G75*
G02*
X50298000Y-59107000I0J200000D01*
G01*
G37*
G36*
G01*
X43719000Y-69512000D02*
X44719000Y-69512000D01*
G75*
G02*
X44919000Y-69712000I0J-200000D01*
G01*
X44919000Y-70362000D01*
G75*
G02*
X44719000Y-70562000I-200000J0D01*
G01*
X43719000Y-70562000D01*
G75*
G02*
X43519000Y-70362000I0J200000D01*
G01*
X43519000Y-69712000D01*
G75*
G02*
X43719000Y-69512000I200000J0D01*
G01*
G37*
G36*
G01*
X43719000Y-68242000D02*
X44719000Y-68242000D01*
G75*
G02*
X44919000Y-68442000I0J-200000D01*
G01*
X44919000Y-69092000D01*
G75*
G02*
X44719000Y-69292000I-200000J0D01*
G01*
X43719000Y-69292000D01*
G75*
G02*
X43519000Y-69092000I0J200000D01*
G01*
X43519000Y-68442000D01*
G75*
G02*
X43719000Y-68242000I200000J0D01*
G01*
G37*
G36*
G01*
X43719000Y-66972000D02*
X44719000Y-66972000D01*
G75*
G02*
X44919000Y-67172000I0J-200000D01*
G01*
X44919000Y-67822000D01*
G75*
G02*
X44719000Y-68022000I-200000J0D01*
G01*
X43719000Y-68022000D01*
G75*
G02*
X43519000Y-67822000I0J200000D01*
G01*
X43519000Y-67172000D01*
G75*
G02*
X43719000Y-66972000I200000J0D01*
G01*
G37*
G36*
G01*
X43719000Y-65702000D02*
X44719000Y-65702000D01*
G75*
G02*
X44919000Y-65902000I0J-200000D01*
G01*
X44919000Y-66552000D01*
G75*
G02*
X44719000Y-66752000I-200000J0D01*
G01*
X43719000Y-66752000D01*
G75*
G02*
X43519000Y-66552000I0J200000D01*
G01*
X43519000Y-65902000D01*
G75*
G02*
X43719000Y-65702000I200000J0D01*
G01*
G37*
G36*
G01*
X43719000Y-64432000D02*
X44719000Y-64432000D01*
G75*
G02*
X44919000Y-64632000I0J-200000D01*
G01*
X44919000Y-65282000D01*
G75*
G02*
X44719000Y-65482000I-200000J0D01*
G01*
X43719000Y-65482000D01*
G75*
G02*
X43519000Y-65282000I0J200000D01*
G01*
X43519000Y-64632000D01*
G75*
G02*
X43719000Y-64432000I200000J0D01*
G01*
G37*
G36*
G01*
X43719000Y-63162000D02*
X44719000Y-63162000D01*
G75*
G02*
X44919000Y-63362000I0J-200000D01*
G01*
X44919000Y-64012000D01*
G75*
G02*
X44719000Y-64212000I-200000J0D01*
G01*
X43719000Y-64212000D01*
G75*
G02*
X43519000Y-64012000I0J200000D01*
G01*
X43519000Y-63362000D01*
G75*
G02*
X43719000Y-63162000I200000J0D01*
G01*
G37*
G36*
G01*
X43719000Y-61892000D02*
X44719000Y-61892000D01*
G75*
G02*
X44919000Y-62092000I0J-200000D01*
G01*
X44919000Y-62742000D01*
G75*
G02*
X44719000Y-62942000I-200000J0D01*
G01*
X43719000Y-62942000D01*
G75*
G02*
X43519000Y-62742000I0J200000D01*
G01*
X43519000Y-62092000D01*
G75*
G02*
X43719000Y-61892000I200000J0D01*
G01*
G37*
G36*
G01*
X43719000Y-60622000D02*
X44719000Y-60622000D01*
G75*
G02*
X44919000Y-60822000I0J-200000D01*
G01*
X44919000Y-61472000D01*
G75*
G02*
X44719000Y-61672000I-200000J0D01*
G01*
X43719000Y-61672000D01*
G75*
G02*
X43519000Y-61472000I0J200000D01*
G01*
X43519000Y-60822000D01*
G75*
G02*
X43719000Y-60622000I200000J0D01*
G01*
G37*
G36*
G01*
X39101579Y-60609238D02*
X38323762Y-59831421D01*
G75*
G02*
X38323762Y-59548579I141421J141421D01*
G01*
X39101579Y-58770762D01*
G75*
G02*
X39384421Y-58770762I141421J-141421D01*
G01*
X40162238Y-59548579D01*
G75*
G02*
X40162238Y-59831421I-141421J-141421D01*
G01*
X39384421Y-60609238D01*
G75*
G02*
X39101579Y-60609238I-141421J141421D01*
G01*
G37*
G36*
G01*
X39101579Y-63149238D02*
X38323762Y-62371421D01*
G75*
G02*
X38323762Y-62088579I141421J141421D01*
G01*
X39101579Y-61310762D01*
G75*
G02*
X39384421Y-61310762I141421J-141421D01*
G01*
X40162238Y-62088579D01*
G75*
G02*
X40162238Y-62371421I-141421J-141421D01*
G01*
X39384421Y-63149238D01*
G75*
G02*
X39101579Y-63149238I-141421J141421D01*
G01*
G37*
G36*
G01*
X39101579Y-65689238D02*
X38323762Y-64911421D01*
G75*
G02*
X38323762Y-64628579I141421J141421D01*
G01*
X39101579Y-63850762D01*
G75*
G02*
X39384421Y-63850762I141421J-141421D01*
G01*
X40162238Y-64628579D01*
G75*
G02*
X40162238Y-64911421I-141421J-141421D01*
G01*
X39384421Y-65689238D01*
G75*
G02*
X39101579Y-65689238I-141421J141421D01*
G01*
G37*
G36*
G01*
X39101579Y-68229238D02*
X38323762Y-67451421D01*
G75*
G02*
X38323762Y-67168579I141421J141421D01*
G01*
X39101579Y-66390762D01*
G75*
G02*
X39384421Y-66390762I141421J-141421D01*
G01*
X40162238Y-67168579D01*
G75*
G02*
X40162238Y-67451421I-141421J-141421D01*
G01*
X39384421Y-68229238D01*
G75*
G02*
X39101579Y-68229238I-141421J141421D01*
G01*
G37*
M02*
