M48
; DRILL file {KiCad (5.1.8)-1} date 04/26/21 09:48:00
; FORMAT={-:-/ absolute / inch / decimal}
; #@! TF.CreationDate,2021-04-26T09:48:00+02:00
; #@! TF.GenerationSoftware,Kicad,Pcbnew,(5.1.8)-1
; #@! TF.FileFunction,Plated,1,4,PTH
FMAT,2
INCH
T1C0.0157
T2C0.0197
T3C0.0236
T4C0.0315
T5C0.0325
T6C0.0394
%
G90
G05
T1
X1.675Y-1.4
X1.73Y-1.99
X1.7447Y-1.3972
X1.7814Y-1.9596
X1.7943Y-2.5743
X1.7979Y-2.4851
X1.8Y-2.435
X1.8014Y-2.6835
X1.8015Y-2.5314
X1.8046Y-2.0856
X1.8097Y-1.8694
X1.815Y-1.556
X1.8487Y-2.7314
X1.865Y-1.655
X1.879Y-1.2846
X1.9031Y-2.455
X1.905Y-1.465
X1.92Y-1.29
X1.92Y-2.39
X1.945Y-1.6
X1.945Y-2.4265
X1.955Y-1.795
X1.955Y-2.51
X1.995Y-1.935
X1.998Y-2.3686
X2.0553Y-1.3972
X2.09Y-2.455
X2.09Y-2.415
X2.1Y-1.67
T2
X1.7409Y-2.4074
X1.7409Y-2.4574
X1.7409Y-2.5074
X1.7409Y-2.5574
X1.7409Y-2.6074
X1.7409Y-2.6574
X1.7409Y-2.7074
X1.7409Y-2.7574
X1.7509Y-2.3074
X1.8009Y-2.3074
X1.8509Y-2.3074
X1.9009Y-2.3074
X1.9509Y-2.3074
X2.0009Y-2.3074
X2.0509Y-2.3074
T4
X1.545Y-2.55
X1.545Y-2.45
X1.545Y-2.65
X1.545Y-2.35
T5
X1.6Y-1.2
X1.6Y-1.3
X1.6Y-1.4
X1.6Y-1.5
X1.6Y-1.6
X1.6Y-1.7
X1.6Y-1.8
X1.6Y-1.9
X1.6Y-2.0
X1.6Y-2.1
X1.6Y-2.2
X1.6Y-2.3
X1.6Y-2.4
X1.6Y-2.5
X1.6Y-2.6
X1.6Y-2.7
X1.6Y-2.8
X2.2Y-1.2
X2.2Y-1.3
X2.2Y-1.4
X2.2Y-1.5
X2.2Y-1.6
X2.2Y-1.7
X2.2Y-1.8
X2.2Y-1.9
X2.2Y-2.0
X2.2Y-2.1
X2.2Y-2.2
X2.2Y-2.3
X2.2Y-2.4
X2.2Y-2.5
X2.2Y-2.6
X2.2Y-2.7
X2.2Y-2.8
T6
X2.1Y-1.75
X2.1Y-1.85
T3
G00X1.7299Y-1.1642
M15
G01X1.7299Y-1.1406
M16
G05
G00X1.7299Y-1.3386
M15
G01X1.7299Y-1.2953
M16
G05
G00X2.0701Y-1.1642
M15
G01X2.0701Y-1.1406
M16
G05
G00X2.0701Y-1.3386
M15
G01X2.0701Y-1.2953
M16
G05
T0
M30
