G04 #@! TF.GenerationSoftware,KiCad,Pcbnew,(5.1.8)-1*
G04 #@! TF.CreationDate,2021-05-06T10:09:08+02:00*
G04 #@! TF.ProjectId,discipline-pcb,64697363-6970-46c6-996e-652d7063622e,rev?*
G04 #@! TF.SameCoordinates,Original*
G04 #@! TF.FileFunction,Legend,Bot*
G04 #@! TF.FilePolarity,Positive*
%FSLAX46Y46*%
G04 Gerber Fmt 4.6, Leading zero omitted, Abs format (unit mm)*
G04 Created by KiCad (PCBNEW (5.1.8)-1) date 2021-05-06 10:09:08*
%MOMM*%
%LPD*%
G01*
G04 APERTURE LIST*
%ADD10C,0.150000*%
G04 APERTURE END LIST*
D10*
X206825792Y-183696360D02*
X206825792Y-184410646D01*
X206778173Y-184553503D01*
X206682935Y-184648741D01*
X206540078Y-184696360D01*
X206444840Y-184696360D01*
X207778173Y-184696360D02*
X207301982Y-184696360D01*
X207301982Y-183696360D01*
X208682935Y-184601122D02*
X208635316Y-184648741D01*
X208492459Y-184696360D01*
X208397220Y-184696360D01*
X208254363Y-184648741D01*
X208159125Y-184553503D01*
X208111506Y-184458265D01*
X208063887Y-184267789D01*
X208063887Y-184124932D01*
X208111506Y-183934456D01*
X208159125Y-183839218D01*
X208254363Y-183743980D01*
X208397220Y-183696360D01*
X208492459Y-183696360D01*
X208635316Y-183743980D01*
X208682935Y-183791599D01*
X209397220Y-183696360D02*
X209397220Y-184410646D01*
X209349601Y-184553503D01*
X209254363Y-184648741D01*
X209111506Y-184696360D01*
X209016268Y-184696360D01*
X210349601Y-184696360D02*
X209873411Y-184696360D01*
X209873411Y-183696360D01*
X211254363Y-184601122D02*
X211206744Y-184648741D01*
X211063887Y-184696360D01*
X210968649Y-184696360D01*
X210825792Y-184648741D01*
X210730554Y-184553503D01*
X210682935Y-184458265D01*
X210635316Y-184267789D01*
X210635316Y-184124932D01*
X210682935Y-183934456D01*
X210730554Y-183839218D01*
X210825792Y-183743980D01*
X210968649Y-183696360D01*
X211063887Y-183696360D01*
X211206744Y-183743980D01*
X211254363Y-183791599D01*
X211968649Y-183696360D02*
X211968649Y-184410646D01*
X211921030Y-184553503D01*
X211825792Y-184648741D01*
X211682935Y-184696360D01*
X211587697Y-184696360D01*
X212921030Y-184696360D02*
X212444840Y-184696360D01*
X212444840Y-183696360D01*
X213825792Y-184601122D02*
X213778173Y-184648741D01*
X213635316Y-184696360D01*
X213540078Y-184696360D01*
X213397220Y-184648741D01*
X213301982Y-184553503D01*
X213254363Y-184458265D01*
X213206744Y-184267789D01*
X213206744Y-184124932D01*
X213254363Y-183934456D01*
X213301982Y-183839218D01*
X213397220Y-183743980D01*
X213540078Y-183696360D01*
X213635316Y-183696360D01*
X213778173Y-183743980D01*
X213825792Y-183791599D01*
X214540078Y-183696360D02*
X214540078Y-184410646D01*
X214492459Y-184553503D01*
X214397220Y-184648741D01*
X214254363Y-184696360D01*
X214159125Y-184696360D01*
X215492459Y-184696360D02*
X215016268Y-184696360D01*
X215016268Y-183696360D01*
X216397220Y-184601122D02*
X216349601Y-184648741D01*
X216206744Y-184696360D01*
X216111506Y-184696360D01*
X215968649Y-184648741D01*
X215873411Y-184553503D01*
X215825792Y-184458265D01*
X215778173Y-184267789D01*
X215778173Y-184124932D01*
X215825792Y-183934456D01*
X215873411Y-183839218D01*
X215968649Y-183743980D01*
X216111506Y-183696360D01*
X216206744Y-183696360D01*
X216349601Y-183743980D01*
X216397220Y-183791599D01*
M02*
