G04 #@! TF.GenerationSoftware,KiCad,Pcbnew,(5.1.8)-1*
G04 #@! TF.CreationDate,2021-06-05T10:08:53+02:00*
G04 #@! TF.ProjectId,discipline-pcb,64697363-6970-46c6-996e-652d7063622e,rev?*
G04 #@! TF.SameCoordinates,Original*
G04 #@! TF.FileFunction,Legend,Bot*
G04 #@! TF.FilePolarity,Positive*
%FSLAX46Y46*%
G04 Gerber Fmt 4.6, Leading zero omitted, Abs format (unit mm)*
G04 Created by KiCad (PCBNEW (5.1.8)-1) date 2021-06-05 10:08:53*
%MOMM*%
%LPD*%
G01*
G04 APERTURE LIST*
%ADD10C,0.150000*%
G04 APERTURE END LIST*
D10*
X148500952Y-170962380D02*
X148500952Y-171676666D01*
X148453333Y-171819523D01*
X148358095Y-171914761D01*
X148215238Y-171962380D01*
X148120000Y-171962380D01*
X149453333Y-171962380D02*
X148977142Y-171962380D01*
X148977142Y-170962380D01*
X150358095Y-171867142D02*
X150310476Y-171914761D01*
X150167619Y-171962380D01*
X150072380Y-171962380D01*
X149929523Y-171914761D01*
X149834285Y-171819523D01*
X149786666Y-171724285D01*
X149739047Y-171533809D01*
X149739047Y-171390952D01*
X149786666Y-171200476D01*
X149834285Y-171105238D01*
X149929523Y-171010000D01*
X150072380Y-170962380D01*
X150167619Y-170962380D01*
X150310476Y-171010000D01*
X150358095Y-171057619D01*
X151072380Y-170962380D02*
X151072380Y-171676666D01*
X151024761Y-171819523D01*
X150929523Y-171914761D01*
X150786666Y-171962380D01*
X150691428Y-171962380D01*
X152024761Y-171962380D02*
X151548571Y-171962380D01*
X151548571Y-170962380D01*
X152929523Y-171867142D02*
X152881904Y-171914761D01*
X152739047Y-171962380D01*
X152643809Y-171962380D01*
X152500952Y-171914761D01*
X152405714Y-171819523D01*
X152358095Y-171724285D01*
X152310476Y-171533809D01*
X152310476Y-171390952D01*
X152358095Y-171200476D01*
X152405714Y-171105238D01*
X152500952Y-171010000D01*
X152643809Y-170962380D01*
X152739047Y-170962380D01*
X152881904Y-171010000D01*
X152929523Y-171057619D01*
X153643809Y-170962380D02*
X153643809Y-171676666D01*
X153596190Y-171819523D01*
X153500952Y-171914761D01*
X153358095Y-171962380D01*
X153262857Y-171962380D01*
X154596190Y-171962380D02*
X154120000Y-171962380D01*
X154120000Y-170962380D01*
X155500952Y-171867142D02*
X155453333Y-171914761D01*
X155310476Y-171962380D01*
X155215238Y-171962380D01*
X155072380Y-171914761D01*
X154977142Y-171819523D01*
X154929523Y-171724285D01*
X154881904Y-171533809D01*
X154881904Y-171390952D01*
X154929523Y-171200476D01*
X154977142Y-171105238D01*
X155072380Y-171010000D01*
X155215238Y-170962380D01*
X155310476Y-170962380D01*
X155453333Y-171010000D01*
X155500952Y-171057619D01*
X156215238Y-170962380D02*
X156215238Y-171676666D01*
X156167619Y-171819523D01*
X156072380Y-171914761D01*
X155929523Y-171962380D01*
X155834285Y-171962380D01*
X157167619Y-171962380D02*
X156691428Y-171962380D01*
X156691428Y-170962380D01*
X158072380Y-171867142D02*
X158024761Y-171914761D01*
X157881904Y-171962380D01*
X157786666Y-171962380D01*
X157643809Y-171914761D01*
X157548571Y-171819523D01*
X157500952Y-171724285D01*
X157453333Y-171533809D01*
X157453333Y-171390952D01*
X157500952Y-171200476D01*
X157548571Y-171105238D01*
X157643809Y-171010000D01*
X157786666Y-170962380D01*
X157881904Y-170962380D01*
X158024761Y-171010000D01*
X158072380Y-171057619D01*
M02*
