G04 #@! TF.GenerationSoftware,KiCad,Pcbnew,(5.1.8)-1*
G04 #@! TF.CreationDate,2021-04-27T09:48:36+02:00*
G04 #@! TF.ProjectId,crispy-keyboard,63726973-7079-42d6-9b65-79626f617264,rev?*
G04 #@! TF.SameCoordinates,Original*
G04 #@! TF.FileFunction,Legend,Bot*
G04 #@! TF.FilePolarity,Positive*
%FSLAX46Y46*%
G04 Gerber Fmt 4.6, Leading zero omitted, Abs format (unit mm)*
G04 Created by KiCad (PCBNEW (5.1.8)-1) date 2021-04-27 09:48:36*
%MOMM*%
%LPD*%
G01*
G04 APERTURE LIST*
%ADD10C,0.300000*%
%ADD11C,0.120000*%
%ADD12C,0.150000*%
G04 APERTURE END LIST*
D10*
X194216568Y-170641271D02*
X194216568Y-171712700D01*
X194145140Y-171926985D01*
X194002282Y-172069842D01*
X193787997Y-172141271D01*
X193645140Y-172141271D01*
X195645140Y-172141271D02*
X194930854Y-172141271D01*
X194930854Y-170641271D01*
X197002282Y-171998414D02*
X196930854Y-172069842D01*
X196716568Y-172141271D01*
X196573711Y-172141271D01*
X196359425Y-172069842D01*
X196216568Y-171926985D01*
X196145140Y-171784128D01*
X196073711Y-171498414D01*
X196073711Y-171284128D01*
X196145140Y-170998414D01*
X196216568Y-170855557D01*
X196359425Y-170712700D01*
X196573711Y-170641271D01*
X196716568Y-170641271D01*
X196930854Y-170712700D01*
X197002282Y-170784128D01*
X198073711Y-170641271D02*
X198073711Y-171712700D01*
X198002282Y-171926985D01*
X197859425Y-172069842D01*
X197645140Y-172141271D01*
X197502282Y-172141271D01*
X199502282Y-172141271D02*
X198787997Y-172141271D01*
X198787997Y-170641271D01*
X200859425Y-171998414D02*
X200787997Y-172069842D01*
X200573711Y-172141271D01*
X200430854Y-172141271D01*
X200216568Y-172069842D01*
X200073711Y-171926985D01*
X200002282Y-171784128D01*
X199930854Y-171498414D01*
X199930854Y-171284128D01*
X200002282Y-170998414D01*
X200073711Y-170855557D01*
X200216568Y-170712700D01*
X200430854Y-170641271D01*
X200573711Y-170641271D01*
X200787997Y-170712700D01*
X200859425Y-170784128D01*
X201930854Y-170641271D02*
X201930854Y-171712700D01*
X201859425Y-171926985D01*
X201716568Y-172069842D01*
X201502282Y-172141271D01*
X201359425Y-172141271D01*
X203359425Y-172141271D02*
X202645140Y-172141271D01*
X202645140Y-170641271D01*
X204716568Y-171998414D02*
X204645140Y-172069842D01*
X204430854Y-172141271D01*
X204287997Y-172141271D01*
X204073711Y-172069842D01*
X203930854Y-171926985D01*
X203859425Y-171784128D01*
X203787997Y-171498414D01*
X203787997Y-171284128D01*
X203859425Y-170998414D01*
X203930854Y-170855557D01*
X204073711Y-170712700D01*
X204287997Y-170641271D01*
X204430854Y-170641271D01*
X204645140Y-170712700D01*
X204716568Y-170784128D01*
X205787997Y-170641271D02*
X205787997Y-171712700D01*
X205716568Y-171926985D01*
X205573711Y-172069842D01*
X205359425Y-172141271D01*
X205216568Y-172141271D01*
X207216568Y-172141271D02*
X206502282Y-172141271D01*
X206502282Y-170641271D01*
X208573711Y-171998414D02*
X208502282Y-172069842D01*
X208287997Y-172141271D01*
X208145140Y-172141271D01*
X207930854Y-172069842D01*
X207787997Y-171926985D01*
X207716568Y-171784128D01*
X207645140Y-171498414D01*
X207645140Y-171284128D01*
X207716568Y-170998414D01*
X207787997Y-170855557D01*
X207930854Y-170712700D01*
X208145140Y-170641271D01*
X208287997Y-170641271D01*
X208502282Y-170712700D01*
X208573711Y-170784128D01*
D11*
X331042320Y-77182020D02*
X331042320Y-75852020D01*
X329712320Y-77182020D02*
X331042320Y-77182020D01*
X328442320Y-77182020D02*
X328442320Y-74522020D01*
X328442320Y-74522020D02*
X325842320Y-74522020D01*
X328442320Y-77182020D02*
X325842320Y-77182020D01*
X325842320Y-77182020D02*
X325842320Y-74522020D01*
X334391760Y-75076560D02*
X335391760Y-75076560D01*
X334391760Y-74076560D02*
X334391760Y-75076560D01*
X336273874Y-69766560D02*
X336831760Y-69766560D01*
X336273874Y-70386560D02*
X336831760Y-70386560D01*
X342651760Y-69766560D02*
X338451760Y-69766560D01*
X342651760Y-70386560D02*
X342651760Y-69766560D01*
X338451760Y-70386560D02*
X342651760Y-70386560D01*
X336831760Y-71076560D02*
X338451760Y-71076560D01*
X336273874Y-71766560D02*
X336831760Y-71766560D01*
X336273874Y-72386560D02*
X336831760Y-72386560D01*
X342651760Y-71766560D02*
X338451760Y-71766560D01*
X342651760Y-72386560D02*
X342651760Y-71766560D01*
X338451760Y-72386560D02*
X342651760Y-72386560D01*
X336831760Y-73076560D02*
X338451760Y-73076560D01*
X336326760Y-73766560D02*
X336831760Y-73766560D01*
X336326760Y-74386560D02*
X336831760Y-74386560D01*
X338451760Y-73846560D02*
X342651760Y-73846560D01*
X338451760Y-73966560D02*
X342651760Y-73966560D01*
X338451760Y-74086560D02*
X342651760Y-74086560D01*
X338451760Y-74206560D02*
X342651760Y-74206560D01*
X338451760Y-74326560D02*
X342651760Y-74326560D01*
X342651760Y-73766560D02*
X338451760Y-73766560D01*
X342651760Y-74386560D02*
X342651760Y-73766560D01*
X338451760Y-74386560D02*
X342651760Y-74386560D01*
X338451760Y-75136560D02*
X336831760Y-75136560D01*
X338451760Y-69016560D02*
X338451760Y-75136560D01*
X336831760Y-69016560D02*
X338451760Y-69016560D01*
X336831760Y-75136560D02*
X336831760Y-69016560D01*
D12*
X332589939Y-76185353D02*
X331875653Y-76185353D01*
X331732796Y-76232972D01*
X331637558Y-76328210D01*
X331589939Y-76471067D01*
X331589939Y-76566305D01*
X332494700Y-75756781D02*
X332542320Y-75709162D01*
X332589939Y-75613924D01*
X332589939Y-75375829D01*
X332542320Y-75280591D01*
X332494700Y-75232972D01*
X332399462Y-75185353D01*
X332304224Y-75185353D01*
X332161367Y-75232972D01*
X331589939Y-75804400D01*
X331589939Y-75185353D01*
X332078815Y-73516762D02*
X332126434Y-73564381D01*
X332269291Y-73612000D01*
X332364529Y-73612000D01*
X332507386Y-73564381D01*
X332602624Y-73469143D01*
X332650243Y-73373905D01*
X332697862Y-73183429D01*
X332697862Y-73040572D01*
X332650243Y-72850096D01*
X332602624Y-72754858D01*
X332507386Y-72659620D01*
X332364529Y-72612000D01*
X332269291Y-72612000D01*
X332126434Y-72659620D01*
X332078815Y-72707239D01*
X331507386Y-73612000D02*
X331602624Y-73564381D01*
X331650243Y-73516762D01*
X331697862Y-73421524D01*
X331697862Y-73135810D01*
X331650243Y-73040572D01*
X331602624Y-72992953D01*
X331507386Y-72945334D01*
X331364529Y-72945334D01*
X331269291Y-72992953D01*
X331221672Y-73040572D01*
X331174053Y-73135810D01*
X331174053Y-73421524D01*
X331221672Y-73516762D01*
X331269291Y-73564381D01*
X331364529Y-73612000D01*
X331507386Y-73612000D01*
X330745481Y-72945334D02*
X330745481Y-73612000D01*
X330745481Y-73040572D02*
X330697862Y-72992953D01*
X330602624Y-72945334D01*
X330459767Y-72945334D01*
X330364529Y-72992953D01*
X330316910Y-73088191D01*
X330316910Y-73612000D01*
X329840720Y-72945334D02*
X329840720Y-73612000D01*
X329840720Y-73040572D02*
X329793100Y-72992953D01*
X329697862Y-72945334D01*
X329555005Y-72945334D01*
X329459767Y-72992953D01*
X329412148Y-73088191D01*
X329412148Y-73612000D01*
X329174053Y-73707239D02*
X328412148Y-73707239D01*
X327983577Y-72612000D02*
X327888339Y-72612000D01*
X327793100Y-72659620D01*
X327745481Y-72707239D01*
X327697862Y-72802477D01*
X327650243Y-72992953D01*
X327650243Y-73231048D01*
X327697862Y-73421524D01*
X327745481Y-73516762D01*
X327793100Y-73564381D01*
X327888339Y-73612000D01*
X327983577Y-73612000D01*
X328078815Y-73564381D01*
X328126434Y-73516762D01*
X328174053Y-73421524D01*
X328221672Y-73231048D01*
X328221672Y-72992953D01*
X328174053Y-72802477D01*
X328126434Y-72707239D01*
X328078815Y-72659620D01*
X327983577Y-72612000D01*
X326697862Y-73612000D02*
X327269291Y-73612000D01*
X326983577Y-73612000D02*
X326983577Y-72612000D01*
X327078815Y-72754858D01*
X327174053Y-72850096D01*
X327269291Y-72897715D01*
X326364529Y-73612000D02*
X325840720Y-72945334D01*
X326364529Y-72945334D02*
X325840720Y-73612000D01*
X325269291Y-72612000D02*
X325174053Y-72612000D01*
X325078815Y-72659620D01*
X325031196Y-72707239D01*
X324983577Y-72802477D01*
X324935958Y-72992953D01*
X324935958Y-73231048D01*
X324983577Y-73421524D01*
X325031196Y-73516762D01*
X325078815Y-73564381D01*
X325174053Y-73612000D01*
X325269291Y-73612000D01*
X325364529Y-73564381D01*
X325412148Y-73516762D01*
X325459767Y-73421524D01*
X325507386Y-73231048D01*
X325507386Y-72992953D01*
X325459767Y-72802477D01*
X325412148Y-72707239D01*
X325364529Y-72659620D01*
X325269291Y-72612000D01*
X324555005Y-72707239D02*
X324507386Y-72659620D01*
X324412148Y-72612000D01*
X324174053Y-72612000D01*
X324078815Y-72659620D01*
X324031196Y-72707239D01*
X323983577Y-72802477D01*
X323983577Y-72897715D01*
X324031196Y-73040572D01*
X324602624Y-73612000D01*
X323983577Y-73612000D01*
X338825093Y-75528940D02*
X338825093Y-76243226D01*
X338872712Y-76386083D01*
X338967950Y-76481321D01*
X339110807Y-76528940D01*
X339206045Y-76528940D01*
X337825093Y-76528940D02*
X338396521Y-76528940D01*
X338110807Y-76528940D02*
X338110807Y-75528940D01*
X338206045Y-75671798D01*
X338301283Y-75767036D01*
X338396521Y-75814655D01*
X345277474Y-68433702D02*
X345325093Y-68481321D01*
X345467950Y-68528940D01*
X345563188Y-68528940D01*
X345706045Y-68481321D01*
X345801283Y-68386083D01*
X345848902Y-68290845D01*
X345896521Y-68100369D01*
X345896521Y-67957512D01*
X345848902Y-67767036D01*
X345801283Y-67671798D01*
X345706045Y-67576560D01*
X345563188Y-67528940D01*
X345467950Y-67528940D01*
X345325093Y-67576560D01*
X345277474Y-67624179D01*
X344706045Y-68528940D02*
X344801283Y-68481321D01*
X344848902Y-68433702D01*
X344896521Y-68338464D01*
X344896521Y-68052750D01*
X344848902Y-67957512D01*
X344801283Y-67909893D01*
X344706045Y-67862274D01*
X344563188Y-67862274D01*
X344467950Y-67909893D01*
X344420331Y-67957512D01*
X344372712Y-68052750D01*
X344372712Y-68338464D01*
X344420331Y-68433702D01*
X344467950Y-68481321D01*
X344563188Y-68528940D01*
X344706045Y-68528940D01*
X343944140Y-67862274D02*
X343944140Y-68528940D01*
X343944140Y-67957512D02*
X343896521Y-67909893D01*
X343801283Y-67862274D01*
X343658426Y-67862274D01*
X343563188Y-67909893D01*
X343515569Y-68005131D01*
X343515569Y-68528940D01*
X343039379Y-67862274D02*
X343039379Y-68528940D01*
X343039379Y-67957512D02*
X342991760Y-67909893D01*
X342896521Y-67862274D01*
X342753664Y-67862274D01*
X342658426Y-67909893D01*
X342610807Y-68005131D01*
X342610807Y-68528940D01*
X342372712Y-68624179D02*
X341610807Y-68624179D01*
X341182236Y-67528940D02*
X341086998Y-67528940D01*
X340991760Y-67576560D01*
X340944140Y-67624179D01*
X340896521Y-67719417D01*
X340848902Y-67909893D01*
X340848902Y-68147988D01*
X340896521Y-68338464D01*
X340944140Y-68433702D01*
X340991760Y-68481321D01*
X341086998Y-68528940D01*
X341182236Y-68528940D01*
X341277474Y-68481321D01*
X341325093Y-68433702D01*
X341372712Y-68338464D01*
X341420331Y-68147988D01*
X341420331Y-67909893D01*
X341372712Y-67719417D01*
X341325093Y-67624179D01*
X341277474Y-67576560D01*
X341182236Y-67528940D01*
X339896521Y-68528940D02*
X340467950Y-68528940D01*
X340182236Y-68528940D02*
X340182236Y-67528940D01*
X340277474Y-67671798D01*
X340372712Y-67767036D01*
X340467950Y-67814655D01*
X339563188Y-68528940D02*
X339039379Y-67862274D01*
X339563188Y-67862274D02*
X339039379Y-68528940D01*
X338467950Y-67528940D02*
X338372712Y-67528940D01*
X338277474Y-67576560D01*
X338229855Y-67624179D01*
X338182236Y-67719417D01*
X338134617Y-67909893D01*
X338134617Y-68147988D01*
X338182236Y-68338464D01*
X338229855Y-68433702D01*
X338277474Y-68481321D01*
X338372712Y-68528940D01*
X338467950Y-68528940D01*
X338563188Y-68481321D01*
X338610807Y-68433702D01*
X338658426Y-68338464D01*
X338706045Y-68147988D01*
X338706045Y-67909893D01*
X338658426Y-67719417D01*
X338610807Y-67624179D01*
X338563188Y-67576560D01*
X338467950Y-67528940D01*
X337801283Y-67528940D02*
X337182236Y-67528940D01*
X337515569Y-67909893D01*
X337372712Y-67909893D01*
X337277474Y-67957512D01*
X337229855Y-68005131D01*
X337182236Y-68100369D01*
X337182236Y-68338464D01*
X337229855Y-68433702D01*
X337277474Y-68481321D01*
X337372712Y-68528940D01*
X337658426Y-68528940D01*
X337753664Y-68481321D01*
X337801283Y-68433702D01*
X336991760Y-68624179D02*
X336229855Y-68624179D01*
X335658426Y-68005131D02*
X335991760Y-68005131D01*
X335991760Y-68528940D02*
X335991760Y-67528940D01*
X335515569Y-67528940D01*
X334753664Y-68481321D02*
X334848902Y-68528940D01*
X335039379Y-68528940D01*
X335134617Y-68481321D01*
X335182236Y-68386083D01*
X335182236Y-68005131D01*
X335134617Y-67909893D01*
X335039379Y-67862274D01*
X334848902Y-67862274D01*
X334753664Y-67909893D01*
X334706045Y-68005131D01*
X334706045Y-68100369D01*
X335182236Y-68195607D01*
X334277474Y-68528940D02*
X334277474Y-67862274D01*
X334277474Y-67957512D02*
X334229855Y-67909893D01*
X334134617Y-67862274D01*
X333991760Y-67862274D01*
X333896521Y-67909893D01*
X333848902Y-68005131D01*
X333848902Y-68528940D01*
X333848902Y-68005131D02*
X333801283Y-67909893D01*
X333706045Y-67862274D01*
X333563188Y-67862274D01*
X333467950Y-67909893D01*
X333420331Y-68005131D01*
X333420331Y-68528940D01*
X332515569Y-68528940D02*
X332515569Y-68005131D01*
X332563188Y-67909893D01*
X332658426Y-67862274D01*
X332848902Y-67862274D01*
X332944140Y-67909893D01*
X332515569Y-68481321D02*
X332610807Y-68528940D01*
X332848902Y-68528940D01*
X332944140Y-68481321D01*
X332991760Y-68386083D01*
X332991760Y-68290845D01*
X332944140Y-68195607D01*
X332848902Y-68147988D01*
X332610807Y-68147988D01*
X332515569Y-68100369D01*
X331896521Y-68528940D02*
X331991760Y-68481321D01*
X332039379Y-68386083D01*
X332039379Y-67528940D01*
X331134617Y-68481321D02*
X331229855Y-68528940D01*
X331420331Y-68528940D01*
X331515569Y-68481321D01*
X331563188Y-68386083D01*
X331563188Y-68005131D01*
X331515569Y-67909893D01*
X331420331Y-67862274D01*
X331229855Y-67862274D01*
X331134617Y-67909893D01*
X331086998Y-68005131D01*
X331086998Y-68100369D01*
X331563188Y-68195607D01*
X308813586Y-64673686D02*
X308580253Y-65373686D01*
X308346920Y-64673686D01*
X308113586Y-65373686D02*
X308113586Y-64907020D01*
X308113586Y-64673686D02*
X308146920Y-64707020D01*
X308113586Y-64740353D01*
X308080253Y-64707020D01*
X308113586Y-64673686D01*
X308113586Y-64740353D01*
X307780253Y-64907020D02*
X307780253Y-65373686D01*
X307780253Y-64973686D02*
X307746920Y-64940353D01*
X307680253Y-64907020D01*
X307580253Y-64907020D01*
X307513586Y-64940353D01*
X307480253Y-65007020D01*
X307480253Y-65373686D01*
X311157553Y-64618120D02*
X311224220Y-64584786D01*
X311324220Y-64584786D01*
X311424220Y-64618120D01*
X311490886Y-64684786D01*
X311524220Y-64751453D01*
X311557553Y-64884786D01*
X311557553Y-64984786D01*
X311524220Y-65118120D01*
X311490886Y-65184786D01*
X311424220Y-65251453D01*
X311324220Y-65284786D01*
X311257553Y-65284786D01*
X311157553Y-65251453D01*
X311124220Y-65218120D01*
X311124220Y-64984786D01*
X311257553Y-64984786D01*
X310824220Y-65284786D02*
X310824220Y-64584786D01*
X310424220Y-65284786D01*
X310424220Y-64584786D01*
X310090886Y-65284786D02*
X310090886Y-64584786D01*
X309924220Y-64584786D01*
X309824220Y-64618120D01*
X309757553Y-64684786D01*
X309724220Y-64751453D01*
X309690886Y-64884786D01*
X309690886Y-64984786D01*
X309724220Y-65118120D01*
X309757553Y-65184786D01*
X309824220Y-65251453D01*
X309924220Y-65284786D01*
X310090886Y-65284786D01*
X313529773Y-77425986D02*
X313763106Y-77092653D01*
X313929773Y-77425986D02*
X313929773Y-76725986D01*
X313663106Y-76725986D01*
X313596440Y-76759320D01*
X313563106Y-76792653D01*
X313529773Y-76859320D01*
X313529773Y-76959320D01*
X313563106Y-77025986D01*
X313596440Y-77059320D01*
X313663106Y-77092653D01*
X313929773Y-77092653D01*
X313263106Y-77392653D02*
X313163106Y-77425986D01*
X312996440Y-77425986D01*
X312929773Y-77392653D01*
X312896440Y-77359320D01*
X312863106Y-77292653D01*
X312863106Y-77225986D01*
X312896440Y-77159320D01*
X312929773Y-77125986D01*
X312996440Y-77092653D01*
X313129773Y-77059320D01*
X313196440Y-77025986D01*
X313229773Y-76992653D01*
X313263106Y-76925986D01*
X313263106Y-76859320D01*
X313229773Y-76792653D01*
X313196440Y-76759320D01*
X313129773Y-76725986D01*
X312963106Y-76725986D01*
X312863106Y-76759320D01*
X312663106Y-76725986D02*
X312263106Y-76725986D01*
X312463106Y-77425986D02*
X312463106Y-76725986D01*
X315827393Y-64559386D02*
X316160726Y-64559386D01*
X316194060Y-64892720D01*
X316160726Y-64859386D01*
X316094060Y-64826053D01*
X315927393Y-64826053D01*
X315860726Y-64859386D01*
X315827393Y-64892720D01*
X315794060Y-64959386D01*
X315794060Y-65126053D01*
X315827393Y-65192720D01*
X315860726Y-65226053D01*
X315927393Y-65259386D01*
X316094060Y-65259386D01*
X316160726Y-65226053D01*
X316194060Y-65192720D01*
X315594060Y-64559386D02*
X315360726Y-65259386D01*
X315127393Y-64559386D01*
X316219773Y-76759320D02*
X316286440Y-76725986D01*
X316386440Y-76725986D01*
X316486440Y-76759320D01*
X316553106Y-76825986D01*
X316586440Y-76892653D01*
X316619773Y-77025986D01*
X316619773Y-77125986D01*
X316586440Y-77259320D01*
X316553106Y-77325986D01*
X316486440Y-77392653D01*
X316386440Y-77425986D01*
X316319773Y-77425986D01*
X316219773Y-77392653D01*
X316186440Y-77359320D01*
X316186440Y-77125986D01*
X316319773Y-77125986D01*
X315886440Y-77425986D02*
X315886440Y-76725986D01*
X315486440Y-77425986D01*
X315486440Y-76725986D01*
X315153106Y-77425986D02*
X315153106Y-76725986D01*
X314986440Y-76725986D01*
X314886440Y-76759320D01*
X314819773Y-76825986D01*
X314786440Y-76892653D01*
X314753106Y-77025986D01*
X314753106Y-77125986D01*
X314786440Y-77259320D01*
X314819773Y-77325986D01*
X314886440Y-77392653D01*
X314986440Y-77425986D01*
X315153106Y-77425986D01*
X312818986Y-64562553D02*
X312585653Y-64895886D01*
X312418986Y-64562553D02*
X312418986Y-65262553D01*
X312685653Y-65262553D01*
X312752320Y-65229220D01*
X312785653Y-65195886D01*
X312818986Y-65129220D01*
X312818986Y-65029220D01*
X312785653Y-64962553D01*
X312752320Y-64929220D01*
X312685653Y-64895886D01*
X312418986Y-64895886D01*
X313085653Y-64595886D02*
X313185653Y-64562553D01*
X313352320Y-64562553D01*
X313418986Y-64595886D01*
X313452320Y-64629220D01*
X313485653Y-64695886D01*
X313485653Y-64762553D01*
X313452320Y-64829220D01*
X313418986Y-64862553D01*
X313352320Y-64895886D01*
X313218986Y-64929220D01*
X313152320Y-64962553D01*
X313118986Y-64995886D01*
X313085653Y-65062553D01*
X313085653Y-65129220D01*
X313118986Y-65195886D01*
X313152320Y-65229220D01*
X313218986Y-65262553D01*
X313385653Y-65262553D01*
X313485653Y-65229220D01*
X313685653Y-65262553D02*
X314085653Y-65262553D01*
X313885653Y-64562553D02*
X313885653Y-65262553D01*
X341960726Y-64561926D02*
X341527393Y-64561926D01*
X341760726Y-64828593D01*
X341660726Y-64828593D01*
X341594060Y-64861926D01*
X341560726Y-64895260D01*
X341527393Y-64961926D01*
X341527393Y-65128593D01*
X341560726Y-65195260D01*
X341594060Y-65228593D01*
X341660726Y-65261926D01*
X341860726Y-65261926D01*
X341927393Y-65228593D01*
X341960726Y-65195260D01*
X341327393Y-64561926D02*
X341094060Y-65261926D01*
X340860726Y-64561926D01*
X340694060Y-64561926D02*
X340260726Y-64561926D01*
X340494060Y-64828593D01*
X340394060Y-64828593D01*
X340327393Y-64861926D01*
X340294060Y-64895260D01*
X340260726Y-64961926D01*
X340260726Y-65128593D01*
X340294060Y-65195260D01*
X340327393Y-65228593D01*
X340394060Y-65261926D01*
X340594060Y-65261926D01*
X340660726Y-65228593D01*
X340694060Y-65195260D01*
M02*
