G04 #@! TF.GenerationSoftware,KiCad,Pcbnew,(5.1.8)-1*
G04 #@! TF.CreationDate,2021-04-28T11:34:23+02:00*
G04 #@! TF.ProjectId,crispy-keyboard,63726973-7079-42d6-9b65-79626f617264,rev?*
G04 #@! TF.SameCoordinates,Original*
G04 #@! TF.FileFunction,Legend,Bot*
G04 #@! TF.FilePolarity,Positive*
%FSLAX46Y46*%
G04 Gerber Fmt 4.6, Leading zero omitted, Abs format (unit mm)*
G04 Created by KiCad (PCBNEW (5.1.8)-1) date 2021-04-28 11:34:23*
%MOMM*%
%LPD*%
G01*
G04 APERTURE LIST*
%ADD10C,0.100000*%
%ADD11C,0.300000*%
%ADD12C,0.150000*%
%ADD13C,0.120000*%
G04 APERTURE END LIST*
D10*
X333908680Y-71356277D02*
X333937251Y-71299134D01*
X333937251Y-71213420D01*
X333908680Y-71127705D01*
X333851537Y-71070562D01*
X333794394Y-71041991D01*
X333680108Y-71013420D01*
X333594394Y-71013420D01*
X333480108Y-71041991D01*
X333422965Y-71070562D01*
X333365822Y-71127705D01*
X333337251Y-71213420D01*
X333337251Y-71270562D01*
X333365822Y-71356277D01*
X333394394Y-71384848D01*
X333594394Y-71384848D01*
X333594394Y-71270562D01*
X333337251Y-71641991D02*
X333937251Y-71641991D01*
X333337251Y-71984848D01*
X333937251Y-71984848D01*
X333337251Y-72270562D02*
X333937251Y-72270562D01*
X333937251Y-72413420D01*
X333908680Y-72499134D01*
X333851537Y-72556277D01*
X333794394Y-72584848D01*
X333680108Y-72613420D01*
X333594394Y-72613420D01*
X333480108Y-72584848D01*
X333422965Y-72556277D01*
X333365822Y-72499134D01*
X333337251Y-72413420D01*
X333337251Y-72270562D01*
X333937251Y-73812414D02*
X333937251Y-73526700D01*
X333651537Y-73498128D01*
X333680108Y-73526700D01*
X333708680Y-73583842D01*
X333708680Y-73726700D01*
X333680108Y-73783842D01*
X333651537Y-73812414D01*
X333594394Y-73840985D01*
X333451537Y-73840985D01*
X333394394Y-73812414D01*
X333365822Y-73783842D01*
X333337251Y-73726700D01*
X333337251Y-73583842D01*
X333365822Y-73526700D01*
X333394394Y-73498128D01*
X333937251Y-74012414D02*
X333337251Y-74212414D01*
X333937251Y-74412414D01*
X333337251Y-75069491D02*
X333937251Y-75069491D01*
X333937251Y-75212348D01*
X333908680Y-75298062D01*
X333851537Y-75355205D01*
X333794394Y-75383777D01*
X333680108Y-75412348D01*
X333594394Y-75412348D01*
X333480108Y-75383777D01*
X333422965Y-75355205D01*
X333365822Y-75298062D01*
X333337251Y-75212348D01*
X333337251Y-75069491D01*
X333337251Y-75926634D02*
X333651537Y-75926634D01*
X333708680Y-75898062D01*
X333737251Y-75840920D01*
X333737251Y-75726634D01*
X333708680Y-75669491D01*
X333365822Y-75926634D02*
X333337251Y-75869491D01*
X333337251Y-75726634D01*
X333365822Y-75669491D01*
X333422965Y-75640920D01*
X333480108Y-75640920D01*
X333537251Y-75669491D01*
X333565822Y-75726634D01*
X333565822Y-75869491D01*
X333594394Y-75926634D01*
X333737251Y-76126634D02*
X333737251Y-76355205D01*
X333937251Y-76212348D02*
X333422965Y-76212348D01*
X333365822Y-76240920D01*
X333337251Y-76298062D01*
X333337251Y-76355205D01*
X333337251Y-76812348D02*
X333651537Y-76812348D01*
X333708680Y-76783777D01*
X333737251Y-76726634D01*
X333737251Y-76612348D01*
X333708680Y-76555205D01*
X333365822Y-76812348D02*
X333337251Y-76755205D01*
X333337251Y-76612348D01*
X333365822Y-76555205D01*
X333422965Y-76526634D01*
X333480108Y-76526634D01*
X333537251Y-76555205D01*
X333565822Y-76612348D01*
X333565822Y-76755205D01*
X333594394Y-76812348D01*
D11*
X194216568Y-170641271D02*
X194216568Y-171712700D01*
X194145140Y-171926985D01*
X194002282Y-172069842D01*
X193787997Y-172141271D01*
X193645140Y-172141271D01*
X195645140Y-172141271D02*
X194930854Y-172141271D01*
X194930854Y-170641271D01*
X197002282Y-171998414D02*
X196930854Y-172069842D01*
X196716568Y-172141271D01*
X196573711Y-172141271D01*
X196359425Y-172069842D01*
X196216568Y-171926985D01*
X196145140Y-171784128D01*
X196073711Y-171498414D01*
X196073711Y-171284128D01*
X196145140Y-170998414D01*
X196216568Y-170855557D01*
X196359425Y-170712700D01*
X196573711Y-170641271D01*
X196716568Y-170641271D01*
X196930854Y-170712700D01*
X197002282Y-170784128D01*
X198073711Y-170641271D02*
X198073711Y-171712700D01*
X198002282Y-171926985D01*
X197859425Y-172069842D01*
X197645140Y-172141271D01*
X197502282Y-172141271D01*
X199502282Y-172141271D02*
X198787997Y-172141271D01*
X198787997Y-170641271D01*
X200859425Y-171998414D02*
X200787997Y-172069842D01*
X200573711Y-172141271D01*
X200430854Y-172141271D01*
X200216568Y-172069842D01*
X200073711Y-171926985D01*
X200002282Y-171784128D01*
X199930854Y-171498414D01*
X199930854Y-171284128D01*
X200002282Y-170998414D01*
X200073711Y-170855557D01*
X200216568Y-170712700D01*
X200430854Y-170641271D01*
X200573711Y-170641271D01*
X200787997Y-170712700D01*
X200859425Y-170784128D01*
X201930854Y-170641271D02*
X201930854Y-171712700D01*
X201859425Y-171926985D01*
X201716568Y-172069842D01*
X201502282Y-172141271D01*
X201359425Y-172141271D01*
X203359425Y-172141271D02*
X202645140Y-172141271D01*
X202645140Y-170641271D01*
X204716568Y-171998414D02*
X204645140Y-172069842D01*
X204430854Y-172141271D01*
X204287997Y-172141271D01*
X204073711Y-172069842D01*
X203930854Y-171926985D01*
X203859425Y-171784128D01*
X203787997Y-171498414D01*
X203787997Y-171284128D01*
X203859425Y-170998414D01*
X203930854Y-170855557D01*
X204073711Y-170712700D01*
X204287997Y-170641271D01*
X204430854Y-170641271D01*
X204645140Y-170712700D01*
X204716568Y-170784128D01*
X205787997Y-170641271D02*
X205787997Y-171712700D01*
X205716568Y-171926985D01*
X205573711Y-172069842D01*
X205359425Y-172141271D01*
X205216568Y-172141271D01*
X207216568Y-172141271D02*
X206502282Y-172141271D01*
X206502282Y-170641271D01*
X208573711Y-171998414D02*
X208502282Y-172069842D01*
X208287997Y-172141271D01*
X208145140Y-172141271D01*
X207930854Y-172069842D01*
X207787997Y-171926985D01*
X207716568Y-171784128D01*
X207645140Y-171498414D01*
X207645140Y-171284128D01*
X207716568Y-170998414D01*
X207787997Y-170855557D01*
X207930854Y-170712700D01*
X208145140Y-170641271D01*
X208287997Y-170641271D01*
X208502282Y-170712700D01*
X208573711Y-170784128D01*
D10*
G36*
X313637200Y-62199820D02*
G01*
X322277200Y-62199820D01*
X322277200Y-61199820D01*
X313637200Y-61199820D01*
X313637200Y-62199820D01*
G37*
D12*
X318737200Y-72329820D02*
X318737200Y-71329820D01*
X317177200Y-72329820D02*
X317177200Y-71329820D01*
X318716177Y-72441442D02*
X318737200Y-72329820D01*
X318679164Y-72548828D02*
X318716177Y-72441442D01*
X318626949Y-72649700D02*
X318679164Y-72548828D01*
X318560636Y-72741918D02*
X318626949Y-72649700D01*
X318481634Y-72823528D02*
X318560636Y-72741918D01*
X318391616Y-72892798D02*
X318481634Y-72823528D01*
X318292493Y-72948260D02*
X318391616Y-72892798D01*
X318186365Y-72988738D02*
X318292493Y-72948260D01*
X318075484Y-73013374D02*
X318186365Y-72988738D01*
X317962200Y-73021644D02*
X318075484Y-73013374D01*
X317848916Y-73013374D02*
X317962200Y-73021644D01*
X317738035Y-72988738D02*
X317848916Y-73013374D01*
X317631907Y-72948260D02*
X317738035Y-72988738D01*
X317532784Y-72892798D02*
X317631907Y-72948260D01*
X317442766Y-72823528D02*
X317532784Y-72892798D01*
X317363764Y-72741918D02*
X317442766Y-72823528D01*
X317297451Y-72649700D02*
X317363764Y-72741918D01*
X317245236Y-72548828D02*
X317297451Y-72649700D01*
X317208223Y-72441442D02*
X317245236Y-72548828D01*
X317187200Y-72329820D02*
X317208223Y-72441442D01*
X327607200Y-61169820D02*
X308307200Y-61169820D01*
X327607200Y-71329820D02*
X327607200Y-61169820D01*
X308307200Y-71329820D02*
X327607200Y-71329820D01*
X308307200Y-61169820D02*
X308307200Y-71329820D01*
D13*
X325931220Y-79066700D02*
X325931220Y-76406700D01*
X328531220Y-79066700D02*
X325931220Y-79066700D01*
X328531220Y-76406700D02*
X325931220Y-76406700D01*
X328531220Y-79066700D02*
X328531220Y-76406700D01*
X329801220Y-79066700D02*
X331131220Y-79066700D01*
X331131220Y-79066700D02*
X331131220Y-77736700D01*
X336976540Y-76904400D02*
X336976540Y-70784400D01*
X336976540Y-70784400D02*
X338596540Y-70784400D01*
X338596540Y-70784400D02*
X338596540Y-76904400D01*
X338596540Y-76904400D02*
X336976540Y-76904400D01*
X338596540Y-76154400D02*
X342796540Y-76154400D01*
X342796540Y-76154400D02*
X342796540Y-75534400D01*
X342796540Y-75534400D02*
X338596540Y-75534400D01*
X338596540Y-76094400D02*
X342796540Y-76094400D01*
X338596540Y-75974400D02*
X342796540Y-75974400D01*
X338596540Y-75854400D02*
X342796540Y-75854400D01*
X338596540Y-75734400D02*
X342796540Y-75734400D01*
X338596540Y-75614400D02*
X342796540Y-75614400D01*
X336471540Y-76154400D02*
X336976540Y-76154400D01*
X336471540Y-75534400D02*
X336976540Y-75534400D01*
X336976540Y-74844400D02*
X338596540Y-74844400D01*
X338596540Y-74154400D02*
X342796540Y-74154400D01*
X342796540Y-74154400D02*
X342796540Y-73534400D01*
X342796540Y-73534400D02*
X338596540Y-73534400D01*
X336418654Y-74154400D02*
X336976540Y-74154400D01*
X336418654Y-73534400D02*
X336976540Y-73534400D01*
X336976540Y-72844400D02*
X338596540Y-72844400D01*
X338596540Y-72154400D02*
X342796540Y-72154400D01*
X342796540Y-72154400D02*
X342796540Y-71534400D01*
X342796540Y-71534400D02*
X338596540Y-71534400D01*
X336418654Y-72154400D02*
X336976540Y-72154400D01*
X336418654Y-71534400D02*
X336976540Y-71534400D01*
X334536540Y-75844400D02*
X334536540Y-76844400D01*
X334536540Y-76844400D02*
X335536540Y-76844400D01*
D12*
X312214223Y-74314581D02*
X312071366Y-74362200D01*
X311833271Y-74362200D01*
X311738033Y-74314581D01*
X311690414Y-74266962D01*
X311642795Y-74171724D01*
X311642795Y-74076486D01*
X311690414Y-73981248D01*
X311738033Y-73933629D01*
X311833271Y-73886010D01*
X312023747Y-73838391D01*
X312118985Y-73790772D01*
X312166604Y-73743153D01*
X312214223Y-73647915D01*
X312214223Y-73552677D01*
X312166604Y-73457439D01*
X312118985Y-73409820D01*
X312023747Y-73362200D01*
X311785652Y-73362200D01*
X311642795Y-73409820D01*
X311309461Y-73362200D02*
X311071366Y-74362200D01*
X310880890Y-73647915D01*
X310690414Y-74362200D01*
X310452319Y-73362200D01*
X309928509Y-73790772D02*
X310023747Y-73743153D01*
X310071366Y-73695534D01*
X310118985Y-73600296D01*
X310118985Y-73552677D01*
X310071366Y-73457439D01*
X310023747Y-73409820D01*
X309928509Y-73362200D01*
X309738033Y-73362200D01*
X309642795Y-73409820D01*
X309595176Y-73457439D01*
X309547557Y-73552677D01*
X309547557Y-73600296D01*
X309595176Y-73695534D01*
X309642795Y-73743153D01*
X309738033Y-73790772D01*
X309928509Y-73790772D01*
X310023747Y-73838391D01*
X310071366Y-73886010D01*
X310118985Y-73981248D01*
X310118985Y-74171724D01*
X310071366Y-74266962D01*
X310023747Y-74314581D01*
X309928509Y-74362200D01*
X309738033Y-74362200D01*
X309642795Y-74314581D01*
X309595176Y-74266962D01*
X309547557Y-74171724D01*
X309547557Y-73981248D01*
X309595176Y-73886010D01*
X309642795Y-73838391D01*
X309738033Y-73790772D01*
X308642795Y-73362200D02*
X309118985Y-73362200D01*
X309166604Y-73838391D01*
X309118985Y-73790772D01*
X309023747Y-73743153D01*
X308785652Y-73743153D01*
X308690414Y-73790772D01*
X308642795Y-73838391D01*
X308595176Y-73933629D01*
X308595176Y-74171724D01*
X308642795Y-74266962D01*
X308690414Y-74314581D01*
X308785652Y-74362200D01*
X309023747Y-74362200D01*
X309118985Y-74314581D01*
X309166604Y-74266962D01*
X318803866Y-64509105D02*
X318622438Y-64569581D01*
X318561961Y-64630058D01*
X318501485Y-64751010D01*
X318501485Y-64932439D01*
X318561961Y-65053391D01*
X318622438Y-65113867D01*
X318743390Y-65174343D01*
X319227200Y-65174343D01*
X319227200Y-63904343D01*
X318803866Y-63904343D01*
X318682914Y-63964820D01*
X318622438Y-64025296D01*
X318561961Y-64146248D01*
X318561961Y-64267200D01*
X318622438Y-64388153D01*
X318682914Y-64448629D01*
X318803866Y-64509105D01*
X319227200Y-64509105D01*
X317412914Y-65174343D02*
X317412914Y-64509105D01*
X317473390Y-64388153D01*
X317594342Y-64327677D01*
X317836247Y-64327677D01*
X317957200Y-64388153D01*
X317412914Y-65113867D02*
X317533866Y-65174343D01*
X317836247Y-65174343D01*
X317957200Y-65113867D01*
X318017676Y-64992915D01*
X318017676Y-64871962D01*
X317957200Y-64751010D01*
X317836247Y-64690534D01*
X317533866Y-64690534D01*
X317412914Y-64630058D01*
X316989580Y-64327677D02*
X316505771Y-64327677D01*
X316808152Y-63904343D02*
X316808152Y-64992915D01*
X316747676Y-65113867D01*
X316626723Y-65174343D01*
X316505771Y-65174343D01*
X330501048Y-74972871D02*
X330358191Y-75020490D01*
X330310572Y-75068109D01*
X330262953Y-75163347D01*
X330262953Y-75306204D01*
X330310572Y-75401442D01*
X330358191Y-75449061D01*
X330453429Y-75496680D01*
X330834381Y-75496680D01*
X330834381Y-74496680D01*
X330501048Y-74496680D01*
X330405810Y-74544300D01*
X330358191Y-74591919D01*
X330310572Y-74687157D01*
X330310572Y-74782395D01*
X330358191Y-74877633D01*
X330405810Y-74925252D01*
X330501048Y-74972871D01*
X330834381Y-74972871D01*
X329405810Y-75496680D02*
X329405810Y-74972871D01*
X329453429Y-74877633D01*
X329548667Y-74830014D01*
X329739143Y-74830014D01*
X329834381Y-74877633D01*
X329405810Y-75449061D02*
X329501048Y-75496680D01*
X329739143Y-75496680D01*
X329834381Y-75449061D01*
X329882000Y-75353823D01*
X329882000Y-75258585D01*
X329834381Y-75163347D01*
X329739143Y-75115728D01*
X329501048Y-75115728D01*
X329405810Y-75068109D01*
X329072477Y-74830014D02*
X328691524Y-74830014D01*
X328929620Y-74496680D02*
X328929620Y-75353823D01*
X328882000Y-75449061D01*
X328786762Y-75496680D01*
X328691524Y-75496680D01*
X328501048Y-74830014D02*
X328120096Y-74830014D01*
X328358191Y-74496680D02*
X328358191Y-75353823D01*
X328310572Y-75449061D01*
X328215334Y-75496680D01*
X328120096Y-75496680D01*
X327405810Y-75449061D02*
X327501048Y-75496680D01*
X327691524Y-75496680D01*
X327786762Y-75449061D01*
X327834381Y-75353823D01*
X327834381Y-74972871D01*
X327786762Y-74877633D01*
X327691524Y-74830014D01*
X327501048Y-74830014D01*
X327405810Y-74877633D01*
X327358191Y-74972871D01*
X327358191Y-75068109D01*
X327834381Y-75163347D01*
X326929620Y-75496680D02*
X326929620Y-74830014D01*
X326929620Y-75020490D02*
X326882000Y-74925252D01*
X326834381Y-74877633D01*
X326739143Y-74830014D01*
X326643905Y-74830014D01*
X326405810Y-74830014D02*
X326167715Y-75496680D01*
X325929620Y-74830014D02*
X326167715Y-75496680D01*
X326262953Y-75734776D01*
X326310572Y-75782395D01*
X326405810Y-75830014D01*
X341469873Y-70296780D02*
X341803206Y-69820590D01*
X342041301Y-70296780D02*
X342041301Y-69296780D01*
X341660349Y-69296780D01*
X341565111Y-69344400D01*
X341517492Y-69392019D01*
X341469873Y-69487257D01*
X341469873Y-69630114D01*
X341517492Y-69725352D01*
X341565111Y-69772971D01*
X341660349Y-69820590D01*
X342041301Y-69820590D01*
X340517492Y-69344400D02*
X340612730Y-69296780D01*
X340755587Y-69296780D01*
X340898444Y-69344400D01*
X340993682Y-69439638D01*
X341041301Y-69534876D01*
X341088920Y-69725352D01*
X341088920Y-69868209D01*
X341041301Y-70058685D01*
X340993682Y-70153923D01*
X340898444Y-70249161D01*
X340755587Y-70296780D01*
X340660349Y-70296780D01*
X340517492Y-70249161D01*
X340469873Y-70201542D01*
X340469873Y-69868209D01*
X340660349Y-69868209D01*
X339707968Y-69772971D02*
X339565111Y-69820590D01*
X339517492Y-69868209D01*
X339469873Y-69963447D01*
X339469873Y-70106304D01*
X339517492Y-70201542D01*
X339565111Y-70249161D01*
X339660349Y-70296780D01*
X340041301Y-70296780D01*
X340041301Y-69296780D01*
X339707968Y-69296780D01*
X339612730Y-69344400D01*
X339565111Y-69392019D01*
X339517492Y-69487257D01*
X339517492Y-69582495D01*
X339565111Y-69677733D01*
X339612730Y-69725352D01*
X339707968Y-69772971D01*
X340041301Y-69772971D01*
X338327016Y-70249161D02*
X338184159Y-70296780D01*
X337946063Y-70296780D01*
X337850825Y-70249161D01*
X337803206Y-70201542D01*
X337755587Y-70106304D01*
X337755587Y-70011066D01*
X337803206Y-69915828D01*
X337850825Y-69868209D01*
X337946063Y-69820590D01*
X338136540Y-69772971D01*
X338231778Y-69725352D01*
X338279397Y-69677733D01*
X338327016Y-69582495D01*
X338327016Y-69487257D01*
X338279397Y-69392019D01*
X338231778Y-69344400D01*
X338136540Y-69296780D01*
X337898444Y-69296780D01*
X337755587Y-69344400D01*
X337469873Y-69630114D02*
X337088920Y-69630114D01*
X337327016Y-69296780D02*
X337327016Y-70153923D01*
X337279397Y-70249161D01*
X337184159Y-70296780D01*
X337088920Y-70296780D01*
X336755587Y-70296780D02*
X336755587Y-69630114D01*
X336755587Y-69820590D02*
X336707968Y-69725352D01*
X336660349Y-69677733D01*
X336565111Y-69630114D01*
X336469873Y-69630114D01*
X336136540Y-70296780D02*
X336136540Y-69630114D01*
X336136540Y-69296780D02*
X336184159Y-69344400D01*
X336136540Y-69392019D01*
X336088920Y-69344400D01*
X336136540Y-69296780D01*
X336136540Y-69392019D01*
X335660349Y-69630114D02*
X335660349Y-70630114D01*
X335660349Y-69677733D02*
X335565111Y-69630114D01*
X335374635Y-69630114D01*
X335279397Y-69677733D01*
X335231778Y-69725352D01*
X335184159Y-69820590D01*
X335184159Y-70106304D01*
X335231778Y-70201542D01*
X335279397Y-70249161D01*
X335374635Y-70296780D01*
X335565111Y-70296780D01*
X335660349Y-70249161D01*
X308958366Y-66441526D02*
X308725033Y-67141526D01*
X308491700Y-66441526D01*
X308258366Y-67141526D02*
X308258366Y-66674860D01*
X308258366Y-66441526D02*
X308291700Y-66474860D01*
X308258366Y-66508193D01*
X308225033Y-66474860D01*
X308258366Y-66441526D01*
X308258366Y-66508193D01*
X307925033Y-66674860D02*
X307925033Y-67141526D01*
X307925033Y-66741526D02*
X307891700Y-66708193D01*
X307825033Y-66674860D01*
X307725033Y-66674860D01*
X307658366Y-66708193D01*
X307625033Y-66774860D01*
X307625033Y-67141526D01*
X311302333Y-66385960D02*
X311369000Y-66352626D01*
X311469000Y-66352626D01*
X311569000Y-66385960D01*
X311635666Y-66452626D01*
X311669000Y-66519293D01*
X311702333Y-66652626D01*
X311702333Y-66752626D01*
X311669000Y-66885960D01*
X311635666Y-66952626D01*
X311569000Y-67019293D01*
X311469000Y-67052626D01*
X311402333Y-67052626D01*
X311302333Y-67019293D01*
X311269000Y-66985960D01*
X311269000Y-66752626D01*
X311402333Y-66752626D01*
X310969000Y-67052626D02*
X310969000Y-66352626D01*
X310569000Y-67052626D01*
X310569000Y-66352626D01*
X310235666Y-67052626D02*
X310235666Y-66352626D01*
X310069000Y-66352626D01*
X309969000Y-66385960D01*
X309902333Y-66452626D01*
X309869000Y-66519293D01*
X309835666Y-66652626D01*
X309835666Y-66752626D01*
X309869000Y-66885960D01*
X309902333Y-66952626D01*
X309969000Y-67019293D01*
X310069000Y-67052626D01*
X310235666Y-67052626D01*
X313674553Y-79193826D02*
X313907886Y-78860493D01*
X314074553Y-79193826D02*
X314074553Y-78493826D01*
X313807886Y-78493826D01*
X313741220Y-78527160D01*
X313707886Y-78560493D01*
X313674553Y-78627160D01*
X313674553Y-78727160D01*
X313707886Y-78793826D01*
X313741220Y-78827160D01*
X313807886Y-78860493D01*
X314074553Y-78860493D01*
X313407886Y-79160493D02*
X313307886Y-79193826D01*
X313141220Y-79193826D01*
X313074553Y-79160493D01*
X313041220Y-79127160D01*
X313007886Y-79060493D01*
X313007886Y-78993826D01*
X313041220Y-78927160D01*
X313074553Y-78893826D01*
X313141220Y-78860493D01*
X313274553Y-78827160D01*
X313341220Y-78793826D01*
X313374553Y-78760493D01*
X313407886Y-78693826D01*
X313407886Y-78627160D01*
X313374553Y-78560493D01*
X313341220Y-78527160D01*
X313274553Y-78493826D01*
X313107886Y-78493826D01*
X313007886Y-78527160D01*
X312807886Y-78493826D02*
X312407886Y-78493826D01*
X312607886Y-79193826D02*
X312607886Y-78493826D01*
X315972173Y-66327226D02*
X316305506Y-66327226D01*
X316338840Y-66660560D01*
X316305506Y-66627226D01*
X316238840Y-66593893D01*
X316072173Y-66593893D01*
X316005506Y-66627226D01*
X315972173Y-66660560D01*
X315938840Y-66727226D01*
X315938840Y-66893893D01*
X315972173Y-66960560D01*
X316005506Y-66993893D01*
X316072173Y-67027226D01*
X316238840Y-67027226D01*
X316305506Y-66993893D01*
X316338840Y-66960560D01*
X315738840Y-66327226D02*
X315505506Y-67027226D01*
X315272173Y-66327226D01*
X316364553Y-78527160D02*
X316431220Y-78493826D01*
X316531220Y-78493826D01*
X316631220Y-78527160D01*
X316697886Y-78593826D01*
X316731220Y-78660493D01*
X316764553Y-78793826D01*
X316764553Y-78893826D01*
X316731220Y-79027160D01*
X316697886Y-79093826D01*
X316631220Y-79160493D01*
X316531220Y-79193826D01*
X316464553Y-79193826D01*
X316364553Y-79160493D01*
X316331220Y-79127160D01*
X316331220Y-78893826D01*
X316464553Y-78893826D01*
X316031220Y-79193826D02*
X316031220Y-78493826D01*
X315631220Y-79193826D01*
X315631220Y-78493826D01*
X315297886Y-79193826D02*
X315297886Y-78493826D01*
X315131220Y-78493826D01*
X315031220Y-78527160D01*
X314964553Y-78593826D01*
X314931220Y-78660493D01*
X314897886Y-78793826D01*
X314897886Y-78893826D01*
X314931220Y-79027160D01*
X314964553Y-79093826D01*
X315031220Y-79160493D01*
X315131220Y-79193826D01*
X315297886Y-79193826D01*
X312963766Y-66330393D02*
X312730433Y-66663726D01*
X312563766Y-66330393D02*
X312563766Y-67030393D01*
X312830433Y-67030393D01*
X312897100Y-66997060D01*
X312930433Y-66963726D01*
X312963766Y-66897060D01*
X312963766Y-66797060D01*
X312930433Y-66730393D01*
X312897100Y-66697060D01*
X312830433Y-66663726D01*
X312563766Y-66663726D01*
X313230433Y-66363726D02*
X313330433Y-66330393D01*
X313497100Y-66330393D01*
X313563766Y-66363726D01*
X313597100Y-66397060D01*
X313630433Y-66463726D01*
X313630433Y-66530393D01*
X313597100Y-66597060D01*
X313563766Y-66630393D01*
X313497100Y-66663726D01*
X313363766Y-66697060D01*
X313297100Y-66730393D01*
X313263766Y-66763726D01*
X313230433Y-66830393D01*
X313230433Y-66897060D01*
X313263766Y-66963726D01*
X313297100Y-66997060D01*
X313363766Y-67030393D01*
X313530433Y-67030393D01*
X313630433Y-66997060D01*
X313830433Y-67030393D02*
X314230433Y-67030393D01*
X314030433Y-66330393D02*
X314030433Y-67030393D01*
X342105506Y-66329766D02*
X341672173Y-66329766D01*
X341905506Y-66596433D01*
X341805506Y-66596433D01*
X341738840Y-66629766D01*
X341705506Y-66663100D01*
X341672173Y-66729766D01*
X341672173Y-66896433D01*
X341705506Y-66963100D01*
X341738840Y-66996433D01*
X341805506Y-67029766D01*
X342005506Y-67029766D01*
X342072173Y-66996433D01*
X342105506Y-66963100D01*
X341472173Y-66329766D02*
X341238840Y-67029766D01*
X341005506Y-66329766D01*
X340838840Y-66329766D02*
X340405506Y-66329766D01*
X340638840Y-66596433D01*
X340538840Y-66596433D01*
X340472173Y-66629766D01*
X340438840Y-66663100D01*
X340405506Y-66729766D01*
X340405506Y-66896433D01*
X340438840Y-66963100D01*
X340472173Y-66996433D01*
X340538840Y-67029766D01*
X340738840Y-67029766D01*
X340805506Y-66996433D01*
X340838840Y-66963100D01*
M02*
