G04 #@! TF.GenerationSoftware,KiCad,Pcbnew,(5.1.8)-1*
G04 #@! TF.CreationDate,2021-04-28T11:34:23+02:00*
G04 #@! TF.ProjectId,crispy-keyboard,63726973-7079-42d6-9b65-79626f617264,rev?*
G04 #@! TF.SameCoordinates,Original*
G04 #@! TF.FileFunction,Legend,Top*
G04 #@! TF.FilePolarity,Positive*
%FSLAX46Y46*%
G04 Gerber Fmt 4.6, Leading zero omitted, Abs format (unit mm)*
G04 Created by KiCad (PCBNEW (5.1.8)-1) date 2021-04-28 11:34:23*
%MOMM*%
%LPD*%
G01*
G04 APERTURE LIST*
%ADD10C,0.300000*%
%ADD11C,0.100000*%
%ADD12C,0.120000*%
%ADD13C,0.150000*%
%ADD14C,0.203200*%
G04 APERTURE END LIST*
D10*
X138196320Y-171714160D02*
X164581840Y-171737020D01*
X139743180Y-164726620D02*
X163131500Y-164726620D01*
X139836974Y-167312882D02*
X140979831Y-167312882D01*
X143694117Y-167741454D02*
X143622688Y-167812882D01*
X143408402Y-167884311D01*
X143265545Y-167884311D01*
X143051260Y-167812882D01*
X142908402Y-167670025D01*
X142836974Y-167527168D01*
X142765545Y-167241454D01*
X142765545Y-167027168D01*
X142836974Y-166741454D01*
X142908402Y-166598597D01*
X143051260Y-166455740D01*
X143265545Y-166384311D01*
X143408402Y-166384311D01*
X143622688Y-166455740D01*
X143694117Y-166527168D01*
X144336974Y-167884311D02*
X144336974Y-166884311D01*
X144336974Y-167170025D02*
X144408402Y-167027168D01*
X144479831Y-166955740D01*
X144622688Y-166884311D01*
X144765545Y-166884311D01*
X145265545Y-167884311D02*
X145265545Y-166884311D01*
X145265545Y-166384311D02*
X145194117Y-166455740D01*
X145265545Y-166527168D01*
X145336974Y-166455740D01*
X145265545Y-166384311D01*
X145265545Y-166527168D01*
X145908402Y-167812882D02*
X146051260Y-167884311D01*
X146336974Y-167884311D01*
X146479831Y-167812882D01*
X146551260Y-167670025D01*
X146551260Y-167598597D01*
X146479831Y-167455740D01*
X146336974Y-167384311D01*
X146122688Y-167384311D01*
X145979831Y-167312882D01*
X145908402Y-167170025D01*
X145908402Y-167098597D01*
X145979831Y-166955740D01*
X146122688Y-166884311D01*
X146336974Y-166884311D01*
X146479831Y-166955740D01*
X147194117Y-166884311D02*
X147194117Y-168384311D01*
X147194117Y-166955740D02*
X147336974Y-166884311D01*
X147622688Y-166884311D01*
X147765545Y-166955740D01*
X147836974Y-167027168D01*
X147908402Y-167170025D01*
X147908402Y-167598597D01*
X147836974Y-167741454D01*
X147765545Y-167812882D01*
X147622688Y-167884311D01*
X147336974Y-167884311D01*
X147194117Y-167812882D01*
X148408402Y-166884311D02*
X148765545Y-167884311D01*
X149122688Y-166884311D02*
X148765545Y-167884311D01*
X148622688Y-168241454D01*
X148551260Y-168312882D01*
X148408402Y-168384311D01*
X150836974Y-167884311D02*
X150836974Y-166384311D01*
X151694117Y-167884311D02*
X151051260Y-167027168D01*
X151694117Y-166384311D02*
X150836974Y-167241454D01*
X152908402Y-167812882D02*
X152765545Y-167884311D01*
X152479831Y-167884311D01*
X152336974Y-167812882D01*
X152265545Y-167670025D01*
X152265545Y-167098597D01*
X152336974Y-166955740D01*
X152479831Y-166884311D01*
X152765545Y-166884311D01*
X152908402Y-166955740D01*
X152979831Y-167098597D01*
X152979831Y-167241454D01*
X152265545Y-167384311D01*
X153479831Y-166884311D02*
X153836974Y-167884311D01*
X154194117Y-166884311D02*
X153836974Y-167884311D01*
X153694117Y-168241454D01*
X153622688Y-168312882D01*
X153479831Y-168384311D01*
X154765545Y-167884311D02*
X154765545Y-166384311D01*
X154765545Y-166955740D02*
X154908402Y-166884311D01*
X155194117Y-166884311D01*
X155336974Y-166955740D01*
X155408402Y-167027168D01*
X155479831Y-167170025D01*
X155479831Y-167598597D01*
X155408402Y-167741454D01*
X155336974Y-167812882D01*
X155194117Y-167884311D01*
X154908402Y-167884311D01*
X154765545Y-167812882D01*
X156336974Y-167884311D02*
X156194117Y-167812882D01*
X156122688Y-167741454D01*
X156051260Y-167598597D01*
X156051260Y-167170025D01*
X156122688Y-167027168D01*
X156194117Y-166955740D01*
X156336974Y-166884311D01*
X156551260Y-166884311D01*
X156694117Y-166955740D01*
X156765545Y-167027168D01*
X156836974Y-167170025D01*
X156836974Y-167598597D01*
X156765545Y-167741454D01*
X156694117Y-167812882D01*
X156551260Y-167884311D01*
X156336974Y-167884311D01*
X158122688Y-167884311D02*
X158122688Y-167098597D01*
X158051260Y-166955740D01*
X157908402Y-166884311D01*
X157622688Y-166884311D01*
X157479831Y-166955740D01*
X158122688Y-167812882D02*
X157979831Y-167884311D01*
X157622688Y-167884311D01*
X157479831Y-167812882D01*
X157408402Y-167670025D01*
X157408402Y-167527168D01*
X157479831Y-167384311D01*
X157622688Y-167312882D01*
X157979831Y-167312882D01*
X158122688Y-167241454D01*
X158836974Y-167884311D02*
X158836974Y-166884311D01*
X158836974Y-167170025D02*
X158908402Y-167027168D01*
X158979831Y-166955740D01*
X159122688Y-166884311D01*
X159265545Y-166884311D01*
X160408402Y-167884311D02*
X160408402Y-166384311D01*
X160408402Y-167812882D02*
X160265545Y-167884311D01*
X159979831Y-167884311D01*
X159836974Y-167812882D01*
X159765545Y-167741454D01*
X159694117Y-167598597D01*
X159694117Y-167170025D01*
X159765545Y-167027168D01*
X159836974Y-166955740D01*
X159979831Y-166884311D01*
X160265545Y-166884311D01*
X160408402Y-166955740D01*
X162265545Y-167312882D02*
X163408402Y-167312882D01*
X139086974Y-170434311D02*
X139086974Y-168934311D01*
X139801260Y-169434311D02*
X139801260Y-170434311D01*
X139801260Y-169577168D02*
X139872688Y-169505740D01*
X140015545Y-169434311D01*
X140229831Y-169434311D01*
X140372688Y-169505740D01*
X140444117Y-169648597D01*
X140444117Y-170434311D01*
X141086974Y-170362882D02*
X141229831Y-170434311D01*
X141515545Y-170434311D01*
X141658402Y-170362882D01*
X141729831Y-170220025D01*
X141729831Y-170148597D01*
X141658402Y-170005740D01*
X141515545Y-169934311D01*
X141301260Y-169934311D01*
X141158402Y-169862882D01*
X141086974Y-169720025D01*
X141086974Y-169648597D01*
X141158402Y-169505740D01*
X141301260Y-169434311D01*
X141515545Y-169434311D01*
X141658402Y-169505740D01*
X142372688Y-169434311D02*
X142372688Y-170934311D01*
X142372688Y-169505740D02*
X142515545Y-169434311D01*
X142801260Y-169434311D01*
X142944117Y-169505740D01*
X143015545Y-169577168D01*
X143086974Y-169720025D01*
X143086974Y-170148597D01*
X143015545Y-170291454D01*
X142944117Y-170362882D01*
X142801260Y-170434311D01*
X142515545Y-170434311D01*
X142372688Y-170362882D01*
X143729831Y-170434311D02*
X143729831Y-169434311D01*
X143729831Y-168934311D02*
X143658402Y-169005740D01*
X143729831Y-169077168D01*
X143801260Y-169005740D01*
X143729831Y-168934311D01*
X143729831Y-169077168D01*
X144444117Y-170434311D02*
X144444117Y-169434311D01*
X144444117Y-169720025D02*
X144515545Y-169577168D01*
X144586974Y-169505740D01*
X144729831Y-169434311D01*
X144872688Y-169434311D01*
X145944117Y-170362882D02*
X145801260Y-170434311D01*
X145515545Y-170434311D01*
X145372688Y-170362882D01*
X145301260Y-170220025D01*
X145301260Y-169648597D01*
X145372688Y-169505740D01*
X145515545Y-169434311D01*
X145801260Y-169434311D01*
X145944117Y-169505740D01*
X146015545Y-169648597D01*
X146015545Y-169791454D01*
X145301260Y-169934311D01*
X147301260Y-170434311D02*
X147301260Y-168934311D01*
X147301260Y-170362882D02*
X147158402Y-170434311D01*
X146872688Y-170434311D01*
X146729831Y-170362882D01*
X146658402Y-170291454D01*
X146586974Y-170148597D01*
X146586974Y-169720025D01*
X146658402Y-169577168D01*
X146729831Y-169505740D01*
X146872688Y-169434311D01*
X147158402Y-169434311D01*
X147301260Y-169505740D01*
X149158402Y-170434311D02*
X149158402Y-168934311D01*
X149158402Y-169505740D02*
X149301260Y-169434311D01*
X149586974Y-169434311D01*
X149729831Y-169505740D01*
X149801260Y-169577168D01*
X149872688Y-169720025D01*
X149872688Y-170148597D01*
X149801260Y-170291454D01*
X149729831Y-170362882D01*
X149586974Y-170434311D01*
X149301260Y-170434311D01*
X149158402Y-170362882D01*
X150372688Y-169434311D02*
X150729831Y-170434311D01*
X151086974Y-169434311D02*
X150729831Y-170434311D01*
X150586974Y-170791454D01*
X150515545Y-170862882D01*
X150372688Y-170934311D01*
X152801260Y-170434311D02*
X152801260Y-168934311D01*
X153158402Y-168934311D01*
X153372688Y-169005740D01*
X153515545Y-169148597D01*
X153586974Y-169291454D01*
X153658402Y-169577168D01*
X153658402Y-169791454D01*
X153586974Y-170077168D01*
X153515545Y-170220025D01*
X153372688Y-170362882D01*
X153158402Y-170434311D01*
X152801260Y-170434311D01*
X154301260Y-170434311D02*
X154301260Y-169434311D01*
X154301260Y-168934311D02*
X154229831Y-169005740D01*
X154301260Y-169077168D01*
X154372688Y-169005740D01*
X154301260Y-168934311D01*
X154301260Y-169077168D01*
X154944117Y-170362882D02*
X155086974Y-170434311D01*
X155372688Y-170434311D01*
X155515545Y-170362882D01*
X155586974Y-170220025D01*
X155586974Y-170148597D01*
X155515545Y-170005740D01*
X155372688Y-169934311D01*
X155158402Y-169934311D01*
X155015545Y-169862882D01*
X154944117Y-169720025D01*
X154944117Y-169648597D01*
X155015545Y-169505740D01*
X155158402Y-169434311D01*
X155372688Y-169434311D01*
X155515545Y-169505740D01*
X156872688Y-170362882D02*
X156729831Y-170434311D01*
X156444117Y-170434311D01*
X156301260Y-170362882D01*
X156229831Y-170291454D01*
X156158402Y-170148597D01*
X156158402Y-169720025D01*
X156229831Y-169577168D01*
X156301260Y-169505740D01*
X156444117Y-169434311D01*
X156729831Y-169434311D01*
X156872688Y-169505740D01*
X157515545Y-170434311D02*
X157515545Y-169434311D01*
X157515545Y-168934311D02*
X157444117Y-169005740D01*
X157515545Y-169077168D01*
X157586974Y-169005740D01*
X157515545Y-168934311D01*
X157515545Y-169077168D01*
X158229831Y-169434311D02*
X158229831Y-170934311D01*
X158229831Y-169505740D02*
X158372688Y-169434311D01*
X158658402Y-169434311D01*
X158801260Y-169505740D01*
X158872688Y-169577168D01*
X158944117Y-169720025D01*
X158944117Y-170148597D01*
X158872688Y-170291454D01*
X158801260Y-170362882D01*
X158658402Y-170434311D01*
X158372688Y-170434311D01*
X158229831Y-170362882D01*
X159801260Y-170434311D02*
X159658402Y-170362882D01*
X159586974Y-170220025D01*
X159586974Y-168934311D01*
X160372688Y-170434311D02*
X160372688Y-169434311D01*
X160372688Y-168934311D02*
X160301260Y-169005740D01*
X160372688Y-169077168D01*
X160444117Y-169005740D01*
X160372688Y-168934311D01*
X160372688Y-169077168D01*
X161086974Y-169434311D02*
X161086974Y-170434311D01*
X161086974Y-169577168D02*
X161158402Y-169505740D01*
X161301260Y-169434311D01*
X161515545Y-169434311D01*
X161658402Y-169505740D01*
X161729831Y-169648597D01*
X161729831Y-170434311D01*
X163015545Y-170362882D02*
X162872688Y-170434311D01*
X162586974Y-170434311D01*
X162444117Y-170362882D01*
X162372688Y-170220025D01*
X162372688Y-169648597D01*
X162444117Y-169505740D01*
X162586974Y-169434311D01*
X162872688Y-169434311D01*
X163015545Y-169505740D01*
X163086974Y-169648597D01*
X163086974Y-169791454D01*
X162372688Y-169934311D01*
D11*
X95678750Y-146908780D02*
X95678750Y-145908780D01*
X96107321Y-146861161D02*
X96250178Y-146908780D01*
X96488273Y-146908780D01*
X96583511Y-146861161D01*
X96631130Y-146813542D01*
X96678750Y-146718304D01*
X96678750Y-146623066D01*
X96631130Y-146527828D01*
X96583511Y-146480209D01*
X96488273Y-146432590D01*
X96297797Y-146384971D01*
X96202559Y-146337352D01*
X96154940Y-146289733D01*
X96107321Y-146194495D01*
X96107321Y-146099257D01*
X96154940Y-146004019D01*
X96202559Y-145956400D01*
X96297797Y-145908780D01*
X96535892Y-145908780D01*
X96678750Y-145956400D01*
X97297797Y-145908780D02*
X97488273Y-145908780D01*
X97583511Y-145956400D01*
X97678750Y-146051638D01*
X97726369Y-146242114D01*
X97726369Y-146575447D01*
X97678750Y-146765923D01*
X97583511Y-146861161D01*
X97488273Y-146908780D01*
X97297797Y-146908780D01*
X97202559Y-146861161D01*
X97107321Y-146765923D01*
X97059702Y-146575447D01*
X97059702Y-146242114D01*
X97107321Y-146051638D01*
X97202559Y-145956400D01*
X97297797Y-145908780D01*
X305101857Y-130500380D02*
X304530428Y-130500380D01*
X304816142Y-130500380D02*
X304816142Y-129500380D01*
X304720904Y-129643238D01*
X304625666Y-129738476D01*
X304530428Y-129786095D01*
X305530428Y-129500380D02*
X305530428Y-130309904D01*
X305578047Y-130405142D01*
X305625666Y-130452761D01*
X305720904Y-130500380D01*
X305911380Y-130500380D01*
X306006619Y-130452761D01*
X306054238Y-130405142D01*
X306101857Y-130309904D01*
X306101857Y-129500380D01*
X307339952Y-130500380D02*
X307339952Y-129500380D01*
X307768523Y-130452761D02*
X307911380Y-130500380D01*
X308149476Y-130500380D01*
X308244714Y-130452761D01*
X308292333Y-130405142D01*
X308339952Y-130309904D01*
X308339952Y-130214666D01*
X308292333Y-130119428D01*
X308244714Y-130071809D01*
X308149476Y-130024190D01*
X307959000Y-129976571D01*
X307863761Y-129928952D01*
X307816142Y-129881333D01*
X307768523Y-129786095D01*
X307768523Y-129690857D01*
X307816142Y-129595619D01*
X307863761Y-129548000D01*
X307959000Y-129500380D01*
X308197095Y-129500380D01*
X308339952Y-129548000D01*
X308959000Y-129500380D02*
X309149476Y-129500380D01*
X309244714Y-129548000D01*
X309339952Y-129643238D01*
X309387571Y-129833714D01*
X309387571Y-130167047D01*
X309339952Y-130357523D01*
X309244714Y-130452761D01*
X309149476Y-130500380D01*
X308959000Y-130500380D01*
X308863761Y-130452761D01*
X308768523Y-130357523D01*
X308720904Y-130167047D01*
X308720904Y-129833714D01*
X308768523Y-129643238D01*
X308863761Y-129548000D01*
X308959000Y-129500380D01*
X325722123Y-120924580D02*
X325722123Y-119924580D01*
X326150695Y-120876961D02*
X326293552Y-120924580D01*
X326531647Y-120924580D01*
X326626885Y-120876961D01*
X326674504Y-120829342D01*
X326722123Y-120734104D01*
X326722123Y-120638866D01*
X326674504Y-120543628D01*
X326626885Y-120496009D01*
X326531647Y-120448390D01*
X326341171Y-120400771D01*
X326245933Y-120353152D01*
X326198314Y-120305533D01*
X326150695Y-120210295D01*
X326150695Y-120115057D01*
X326198314Y-120019819D01*
X326245933Y-119972200D01*
X326341171Y-119924580D01*
X326579266Y-119924580D01*
X326722123Y-119972200D01*
X327341171Y-119924580D02*
X327531647Y-119924580D01*
X327626885Y-119972200D01*
X327722123Y-120067438D01*
X327769742Y-120257914D01*
X327769742Y-120591247D01*
X327722123Y-120781723D01*
X327626885Y-120876961D01*
X327531647Y-120924580D01*
X327341171Y-120924580D01*
X327245933Y-120876961D01*
X327150695Y-120781723D01*
X327103076Y-120591247D01*
X327103076Y-120257914D01*
X327150695Y-120067438D01*
X327245933Y-119972200D01*
X327341171Y-119924580D01*
X328960219Y-120400771D02*
X329293552Y-120400771D01*
X329436409Y-120924580D02*
X328960219Y-120924580D01*
X328960219Y-119924580D01*
X329436409Y-119924580D01*
X329864980Y-120924580D02*
X329864980Y-119924580D01*
X330436409Y-120924580D01*
X330436409Y-119924580D01*
X330769742Y-119924580D02*
X331341171Y-119924580D01*
X331055457Y-120924580D02*
X331055457Y-119924580D01*
X331674504Y-120400771D02*
X332007838Y-120400771D01*
X332150695Y-120924580D02*
X331674504Y-120924580D01*
X331674504Y-119924580D01*
X332150695Y-119924580D01*
X333150695Y-120924580D02*
X332817361Y-120448390D01*
X332579266Y-120924580D02*
X332579266Y-119924580D01*
X332960219Y-119924580D01*
X333055457Y-119972200D01*
X333103076Y-120019819D01*
X333150695Y-120115057D01*
X333150695Y-120257914D01*
X333103076Y-120353152D01*
X333055457Y-120400771D01*
X332960219Y-120448390D01*
X332579266Y-120448390D01*
X316533733Y-130214666D02*
X317009923Y-130214666D01*
X316438495Y-130500380D02*
X316771828Y-129500380D01*
X317105161Y-130500380D01*
X317438495Y-130500380D02*
X317438495Y-129500380D01*
X318009923Y-130500380D01*
X318009923Y-129500380D01*
X318438495Y-130452761D02*
X318581352Y-130500380D01*
X318819447Y-130500380D01*
X318914685Y-130452761D01*
X318962304Y-130405142D01*
X319009923Y-130309904D01*
X319009923Y-130214666D01*
X318962304Y-130119428D01*
X318914685Y-130071809D01*
X318819447Y-130024190D01*
X318628971Y-129976571D01*
X318533733Y-129928952D01*
X318486114Y-129881333D01*
X318438495Y-129786095D01*
X318438495Y-129690857D01*
X318486114Y-129595619D01*
X318533733Y-129548000D01*
X318628971Y-129500380D01*
X318867066Y-129500380D01*
X319009923Y-129548000D01*
X319438495Y-130500380D02*
X319438495Y-129500380D01*
X320676590Y-129976571D02*
X321009923Y-129976571D01*
X321152780Y-130500380D02*
X320676590Y-130500380D01*
X320676590Y-129500380D01*
X321152780Y-129500380D01*
X321581352Y-130500380D02*
X321581352Y-129500380D01*
X322152780Y-130500380D01*
X322152780Y-129500380D01*
X322486114Y-129500380D02*
X323057542Y-129500380D01*
X322771828Y-130500380D02*
X322771828Y-129500380D01*
X323390876Y-129976571D02*
X323724209Y-129976571D01*
X323867066Y-130500380D02*
X323390876Y-130500380D01*
X323390876Y-129500380D01*
X323867066Y-129500380D01*
X324867066Y-130500380D02*
X324533733Y-130024190D01*
X324295638Y-130500380D02*
X324295638Y-129500380D01*
X324676590Y-129500380D01*
X324771828Y-129548000D01*
X324819447Y-129595619D01*
X324867066Y-129690857D01*
X324867066Y-129833714D01*
X324819447Y-129928952D01*
X324771828Y-129976571D01*
X324676590Y-130024190D01*
X324295638Y-130024190D01*
X86915654Y-155544780D02*
X86344226Y-155544780D01*
X86629940Y-155544780D02*
X86629940Y-154544780D01*
X86534702Y-154687638D01*
X86439464Y-154782876D01*
X86344226Y-154830495D01*
X87344226Y-154544780D02*
X87344226Y-155354304D01*
X87391845Y-155449542D01*
X87439464Y-155497161D01*
X87534702Y-155544780D01*
X87725178Y-155544780D01*
X87820416Y-155497161D01*
X87868035Y-155449542D01*
X87915654Y-155354304D01*
X87915654Y-154544780D01*
X86153750Y-157144780D02*
X86153750Y-156144780D01*
X86582321Y-157097161D02*
X86725178Y-157144780D01*
X86963273Y-157144780D01*
X87058511Y-157097161D01*
X87106130Y-157049542D01*
X87153750Y-156954304D01*
X87153750Y-156859066D01*
X87106130Y-156763828D01*
X87058511Y-156716209D01*
X86963273Y-156668590D01*
X86772797Y-156620971D01*
X86677559Y-156573352D01*
X86629940Y-156525733D01*
X86582321Y-156430495D01*
X86582321Y-156335257D01*
X86629940Y-156240019D01*
X86677559Y-156192400D01*
X86772797Y-156144780D01*
X87010892Y-156144780D01*
X87153750Y-156192400D01*
X87772797Y-156144780D02*
X87963273Y-156144780D01*
X88058511Y-156192400D01*
X88153750Y-156287638D01*
X88201369Y-156478114D01*
X88201369Y-156811447D01*
X88153750Y-157001923D01*
X88058511Y-157097161D01*
X87963273Y-157144780D01*
X87772797Y-157144780D01*
X87677559Y-157097161D01*
X87582321Y-157001923D01*
X87534702Y-156811447D01*
X87534702Y-156478114D01*
X87582321Y-156287638D01*
X87677559Y-156192400D01*
X87772797Y-156144780D01*
X73285600Y-154640019D02*
X73333219Y-154592400D01*
X73428457Y-154544780D01*
X73666552Y-154544780D01*
X73761790Y-154592400D01*
X73809409Y-154640019D01*
X73857028Y-154735257D01*
X73857028Y-154830495D01*
X73809409Y-154973352D01*
X73237980Y-155544780D01*
X73857028Y-155544780D01*
X74285600Y-155449542D02*
X74333219Y-155497161D01*
X74285600Y-155544780D01*
X74237980Y-155497161D01*
X74285600Y-155449542D01*
X74285600Y-155544780D01*
X74714171Y-154640019D02*
X74761790Y-154592400D01*
X74857028Y-154544780D01*
X75095123Y-154544780D01*
X75190361Y-154592400D01*
X75237980Y-154640019D01*
X75285600Y-154735257D01*
X75285600Y-154830495D01*
X75237980Y-154973352D01*
X74666552Y-155544780D01*
X75285600Y-155544780D01*
X76190361Y-154544780D02*
X75714171Y-154544780D01*
X75666552Y-155020971D01*
X75714171Y-154973352D01*
X75809409Y-154925733D01*
X76047504Y-154925733D01*
X76142742Y-154973352D01*
X76190361Y-155020971D01*
X76237980Y-155116209D01*
X76237980Y-155354304D01*
X76190361Y-155449542D01*
X76142742Y-155497161D01*
X76047504Y-155544780D01*
X75809409Y-155544780D01*
X75714171Y-155497161D01*
X75666552Y-155449542D01*
X76666552Y-154544780D02*
X76666552Y-155354304D01*
X76714171Y-155449542D01*
X76761790Y-155497161D01*
X76857028Y-155544780D01*
X77047504Y-155544780D01*
X77142742Y-155497161D01*
X77190361Y-155449542D01*
X77237980Y-155354304D01*
X77237980Y-154544780D01*
X73809409Y-156859066D02*
X74285600Y-156859066D01*
X73714171Y-157144780D02*
X74047504Y-156144780D01*
X74380838Y-157144780D01*
X74714171Y-157144780D02*
X74714171Y-156144780D01*
X75285600Y-157144780D01*
X75285600Y-156144780D01*
X75714171Y-157097161D02*
X75857028Y-157144780D01*
X76095123Y-157144780D01*
X76190361Y-157097161D01*
X76237980Y-157049542D01*
X76285600Y-156954304D01*
X76285600Y-156859066D01*
X76237980Y-156763828D01*
X76190361Y-156716209D01*
X76095123Y-156668590D01*
X75904647Y-156620971D01*
X75809409Y-156573352D01*
X75761790Y-156525733D01*
X75714171Y-156430495D01*
X75714171Y-156335257D01*
X75761790Y-156240019D01*
X75809409Y-156192400D01*
X75904647Y-156144780D01*
X76142742Y-156144780D01*
X76285600Y-156192400D01*
X76714171Y-157144780D02*
X76714171Y-156144780D01*
X64293928Y-155544780D02*
X63722500Y-155544780D01*
X64008214Y-155544780D02*
X64008214Y-154544780D01*
X63912976Y-154687638D01*
X63817738Y-154782876D01*
X63722500Y-154830495D01*
X64722500Y-155449542D02*
X64770119Y-155497161D01*
X64722500Y-155544780D01*
X64674880Y-155497161D01*
X64722500Y-155449542D01*
X64722500Y-155544780D01*
X65151071Y-154640019D02*
X65198690Y-154592400D01*
X65293928Y-154544780D01*
X65532023Y-154544780D01*
X65627261Y-154592400D01*
X65674880Y-154640019D01*
X65722500Y-154735257D01*
X65722500Y-154830495D01*
X65674880Y-154973352D01*
X65103452Y-155544780D01*
X65722500Y-155544780D01*
X66627261Y-154544780D02*
X66151071Y-154544780D01*
X66103452Y-155020971D01*
X66151071Y-154973352D01*
X66246309Y-154925733D01*
X66484404Y-154925733D01*
X66579642Y-154973352D01*
X66627261Y-155020971D01*
X66674880Y-155116209D01*
X66674880Y-155354304D01*
X66627261Y-155449542D01*
X66579642Y-155497161D01*
X66484404Y-155544780D01*
X66246309Y-155544780D01*
X66151071Y-155497161D01*
X66103452Y-155449542D01*
X67103452Y-154544780D02*
X67103452Y-155354304D01*
X67151071Y-155449542D01*
X67198690Y-155497161D01*
X67293928Y-155544780D01*
X67484404Y-155544780D01*
X67579642Y-155497161D01*
X67627261Y-155449542D01*
X67674880Y-155354304D01*
X67674880Y-154544780D01*
X64722500Y-157144780D02*
X64722500Y-156144780D01*
X65151071Y-157097161D02*
X65293928Y-157144780D01*
X65532023Y-157144780D01*
X65627261Y-157097161D01*
X65674880Y-157049542D01*
X65722500Y-156954304D01*
X65722500Y-156859066D01*
X65674880Y-156763828D01*
X65627261Y-156716209D01*
X65532023Y-156668590D01*
X65341547Y-156620971D01*
X65246309Y-156573352D01*
X65198690Y-156525733D01*
X65151071Y-156430495D01*
X65151071Y-156335257D01*
X65198690Y-156240019D01*
X65246309Y-156192400D01*
X65341547Y-156144780D01*
X65579642Y-156144780D01*
X65722500Y-156192400D01*
X66341547Y-156144780D02*
X66532023Y-156144780D01*
X66627261Y-156192400D01*
X66722500Y-156287638D01*
X66770119Y-156478114D01*
X66770119Y-156811447D01*
X66722500Y-157001923D01*
X66627261Y-157097161D01*
X66532023Y-157144780D01*
X66341547Y-157144780D01*
X66246309Y-157097161D01*
X66151071Y-157001923D01*
X66103452Y-156811447D01*
X66103452Y-156478114D01*
X66151071Y-156287638D01*
X66246309Y-156192400D01*
X66341547Y-156144780D01*
X291851210Y-174478614D02*
X291279782Y-174478614D01*
X291565496Y-174478614D02*
X291565496Y-173478614D01*
X291470258Y-173621472D01*
X291375020Y-173716710D01*
X291279782Y-173764329D01*
X292279782Y-173478614D02*
X292279782Y-174288138D01*
X292327401Y-174383376D01*
X292375020Y-174430995D01*
X292470258Y-174478614D01*
X292660734Y-174478614D01*
X292755972Y-174430995D01*
X292803591Y-174383376D01*
X292851210Y-174288138D01*
X292851210Y-173478614D01*
X272760892Y-174478614D02*
X272189464Y-174478614D01*
X272475178Y-174478614D02*
X272475178Y-173478614D01*
X272379940Y-173621472D01*
X272284702Y-173716710D01*
X272189464Y-173764329D01*
X273189464Y-173478614D02*
X273189464Y-174288138D01*
X273237083Y-174383376D01*
X273284702Y-174430995D01*
X273379940Y-174478614D01*
X273570416Y-174478614D01*
X273665654Y-174430995D01*
X273713273Y-174383376D01*
X273760892Y-174288138D01*
X273760892Y-173478614D01*
X253350650Y-174478614D02*
X252779222Y-174478614D01*
X253064936Y-174478614D02*
X253064936Y-173478614D01*
X252969698Y-173621472D01*
X252874460Y-173716710D01*
X252779222Y-173764329D01*
X253779222Y-173478614D02*
X253779222Y-174288138D01*
X253826841Y-174383376D01*
X253874460Y-174430995D01*
X253969698Y-174478614D01*
X254160174Y-174478614D01*
X254255412Y-174430995D01*
X254303031Y-174383376D01*
X254350650Y-174288138D01*
X254350650Y-173478614D01*
X286110604Y-174478614D02*
X285539175Y-174478614D01*
X285824889Y-174478614D02*
X285824889Y-173478614D01*
X285729651Y-173621472D01*
X285634413Y-173716710D01*
X285539175Y-173764329D01*
X286539175Y-174383376D02*
X286586794Y-174430995D01*
X286539175Y-174478614D01*
X286491556Y-174430995D01*
X286539175Y-174383376D01*
X286539175Y-174478614D01*
X287491556Y-173478614D02*
X287015365Y-173478614D01*
X286967746Y-173954805D01*
X287015365Y-173907186D01*
X287110604Y-173859567D01*
X287348699Y-173859567D01*
X287443937Y-173907186D01*
X287491556Y-173954805D01*
X287539175Y-174050043D01*
X287539175Y-174288138D01*
X287491556Y-174383376D01*
X287443937Y-174430995D01*
X287348699Y-174478614D01*
X287110604Y-174478614D01*
X287015365Y-174430995D01*
X286967746Y-174383376D01*
X287967746Y-173478614D02*
X287967746Y-174288138D01*
X288015365Y-174383376D01*
X288062985Y-174430995D01*
X288158223Y-174478614D01*
X288348699Y-174478614D01*
X288443937Y-174430995D01*
X288491556Y-174383376D01*
X288539175Y-174288138D01*
X288539175Y-173478614D01*
X257623200Y-174478614D02*
X257051771Y-174478614D01*
X257337485Y-174478614D02*
X257337485Y-173478614D01*
X257242247Y-173621472D01*
X257147009Y-173716710D01*
X257051771Y-173764329D01*
X258051771Y-174383376D02*
X258099390Y-174430995D01*
X258051771Y-174478614D01*
X258004152Y-174430995D01*
X258051771Y-174383376D01*
X258051771Y-174478614D01*
X259004152Y-173478614D02*
X258527961Y-173478614D01*
X258480342Y-173954805D01*
X258527961Y-173907186D01*
X258623200Y-173859567D01*
X258861295Y-173859567D01*
X258956533Y-173907186D01*
X259004152Y-173954805D01*
X259051771Y-174050043D01*
X259051771Y-174288138D01*
X259004152Y-174383376D01*
X258956533Y-174430995D01*
X258861295Y-174478614D01*
X258623200Y-174478614D01*
X258527961Y-174430995D01*
X258480342Y-174383376D01*
X259480342Y-173478614D02*
X259480342Y-174288138D01*
X259527961Y-174383376D01*
X259575581Y-174430995D01*
X259670819Y-174478614D01*
X259861295Y-174478614D01*
X259956533Y-174430995D01*
X260004152Y-174383376D01*
X260051771Y-174288138D01*
X260051771Y-173478614D01*
X95980958Y-174478614D02*
X95409529Y-174478614D01*
X95695243Y-174478614D02*
X95695243Y-173478614D01*
X95600005Y-173621472D01*
X95504767Y-173716710D01*
X95409529Y-173764329D01*
X96409529Y-174383376D02*
X96457148Y-174430995D01*
X96409529Y-174478614D01*
X96361910Y-174430995D01*
X96409529Y-174383376D01*
X96409529Y-174478614D01*
X97361910Y-173478614D02*
X96885719Y-173478614D01*
X96838100Y-173954805D01*
X96885719Y-173907186D01*
X96980958Y-173859567D01*
X97219053Y-173859567D01*
X97314291Y-173907186D01*
X97361910Y-173954805D01*
X97409529Y-174050043D01*
X97409529Y-174288138D01*
X97361910Y-174383376D01*
X97314291Y-174430995D01*
X97219053Y-174478614D01*
X96980958Y-174478614D01*
X96885719Y-174430995D01*
X96838100Y-174383376D01*
X97838100Y-173478614D02*
X97838100Y-174288138D01*
X97885719Y-174383376D01*
X97933339Y-174430995D01*
X98028577Y-174478614D01*
X98219053Y-174478614D01*
X98314291Y-174430995D01*
X98361910Y-174383376D01*
X98409529Y-174288138D01*
X98409529Y-173478614D01*
X67634738Y-174478614D02*
X67063309Y-174478614D01*
X67349023Y-174478614D02*
X67349023Y-173478614D01*
X67253785Y-173621472D01*
X67158547Y-173716710D01*
X67063309Y-173764329D01*
X68063309Y-174383376D02*
X68110928Y-174430995D01*
X68063309Y-174478614D01*
X68015690Y-174430995D01*
X68063309Y-174383376D01*
X68063309Y-174478614D01*
X69015690Y-173478614D02*
X68539499Y-173478614D01*
X68491880Y-173954805D01*
X68539499Y-173907186D01*
X68634738Y-173859567D01*
X68872833Y-173859567D01*
X68968071Y-173907186D01*
X69015690Y-173954805D01*
X69063309Y-174050043D01*
X69063309Y-174288138D01*
X69015690Y-174383376D01*
X68968071Y-174430995D01*
X68872833Y-174478614D01*
X68634738Y-174478614D01*
X68539499Y-174430995D01*
X68491880Y-174383376D01*
X69491880Y-173478614D02*
X69491880Y-174288138D01*
X69539499Y-174383376D01*
X69587119Y-174430995D01*
X69682357Y-174478614D01*
X69872833Y-174478614D01*
X69968071Y-174430995D01*
X70015690Y-174383376D01*
X70063309Y-174288138D01*
X70063309Y-173478614D01*
X112040062Y-174478614D02*
X111468634Y-174478614D01*
X111754348Y-174478614D02*
X111754348Y-173478614D01*
X111659110Y-173621472D01*
X111563872Y-173716710D01*
X111468634Y-173764329D01*
X112468634Y-174383376D02*
X112516253Y-174430995D01*
X112468634Y-174478614D01*
X112421014Y-174430995D01*
X112468634Y-174383376D01*
X112468634Y-174478614D01*
X112897205Y-173573853D02*
X112944824Y-173526234D01*
X113040062Y-173478614D01*
X113278157Y-173478614D01*
X113373395Y-173526234D01*
X113421014Y-173573853D01*
X113468634Y-173669091D01*
X113468634Y-173764329D01*
X113421014Y-173907186D01*
X112849586Y-174478614D01*
X113468634Y-174478614D01*
X114373395Y-173478614D02*
X113897205Y-173478614D01*
X113849586Y-173954805D01*
X113897205Y-173907186D01*
X113992443Y-173859567D01*
X114230538Y-173859567D01*
X114325776Y-173907186D01*
X114373395Y-173954805D01*
X114421014Y-174050043D01*
X114421014Y-174288138D01*
X114373395Y-174383376D01*
X114325776Y-174430995D01*
X114230538Y-174478614D01*
X113992443Y-174478614D01*
X113897205Y-174430995D01*
X113849586Y-174383376D01*
X114849586Y-173478614D02*
X114849586Y-174288138D01*
X114897205Y-174383376D01*
X114944824Y-174430995D01*
X115040062Y-174478614D01*
X115230538Y-174478614D01*
X115325776Y-174430995D01*
X115373395Y-174383376D01*
X115421014Y-174288138D01*
X115421014Y-173478614D01*
X87893282Y-174478614D02*
X87321854Y-174478614D01*
X87607568Y-174478614D02*
X87607568Y-173478614D01*
X87512330Y-173621472D01*
X87417092Y-173716710D01*
X87321854Y-173764329D01*
X88321854Y-174383376D02*
X88369473Y-174430995D01*
X88321854Y-174478614D01*
X88274234Y-174430995D01*
X88321854Y-174383376D01*
X88321854Y-174478614D01*
X88750425Y-173573853D02*
X88798044Y-173526234D01*
X88893282Y-173478614D01*
X89131377Y-173478614D01*
X89226615Y-173526234D01*
X89274234Y-173573853D01*
X89321854Y-173669091D01*
X89321854Y-173764329D01*
X89274234Y-173907186D01*
X88702806Y-174478614D01*
X89321854Y-174478614D01*
X90226615Y-173478614D02*
X89750425Y-173478614D01*
X89702806Y-173954805D01*
X89750425Y-173907186D01*
X89845663Y-173859567D01*
X90083758Y-173859567D01*
X90178996Y-173907186D01*
X90226615Y-173954805D01*
X90274234Y-174050043D01*
X90274234Y-174288138D01*
X90226615Y-174383376D01*
X90178996Y-174430995D01*
X90083758Y-174478614D01*
X89845663Y-174478614D01*
X89750425Y-174430995D01*
X89702806Y-174383376D01*
X90702806Y-173478614D02*
X90702806Y-174288138D01*
X90750425Y-174383376D01*
X90798044Y-174430995D01*
X90893282Y-174478614D01*
X91083758Y-174478614D01*
X91178996Y-174430995D01*
X91226615Y-174383376D01*
X91274234Y-174288138D01*
X91274234Y-173478614D01*
X62224205Y-174478614D02*
X61652777Y-174478614D01*
X61938491Y-174478614D02*
X61938491Y-173478614D01*
X61843253Y-173621472D01*
X61748015Y-173716710D01*
X61652777Y-173764329D01*
X62652777Y-174383376D02*
X62700396Y-174430995D01*
X62652777Y-174478614D01*
X62605157Y-174430995D01*
X62652777Y-174383376D01*
X62652777Y-174478614D01*
X63081348Y-173573853D02*
X63128967Y-173526234D01*
X63224205Y-173478614D01*
X63462300Y-173478614D01*
X63557538Y-173526234D01*
X63605157Y-173573853D01*
X63652777Y-173669091D01*
X63652777Y-173764329D01*
X63605157Y-173907186D01*
X63033729Y-174478614D01*
X63652777Y-174478614D01*
X64557538Y-173478614D02*
X64081348Y-173478614D01*
X64033729Y-173954805D01*
X64081348Y-173907186D01*
X64176586Y-173859567D01*
X64414681Y-173859567D01*
X64509919Y-173907186D01*
X64557538Y-173954805D01*
X64605157Y-174050043D01*
X64605157Y-174288138D01*
X64557538Y-174383376D01*
X64509919Y-174430995D01*
X64414681Y-174478614D01*
X64176586Y-174478614D01*
X64081348Y-174430995D01*
X64033729Y-174383376D01*
X65033729Y-173478614D02*
X65033729Y-174288138D01*
X65081348Y-174383376D01*
X65128967Y-174430995D01*
X65224205Y-174478614D01*
X65414681Y-174478614D01*
X65509919Y-174430995D01*
X65557538Y-174383376D01*
X65605157Y-174288138D01*
X65605157Y-173478614D01*
D12*
X290776880Y-62500220D02*
X290776880Y-62656220D01*
X290776880Y-64816220D02*
X290776880Y-64972220D01*
X294009215Y-62657612D02*
G75*
G03*
X290776880Y-62500704I-1672335J-1078608D01*
G01*
X294009215Y-64814828D02*
G75*
G02*
X290776880Y-64971736I-1672335J1078608D01*
G01*
X293378010Y-62656383D02*
G75*
G03*
X291295919Y-62656220I-1041130J-1079837D01*
G01*
X293378010Y-64816057D02*
G75*
G02*
X291295919Y-64816220I-1041130J1079837D01*
G01*
X284276880Y-62500220D02*
X284276880Y-62656220D01*
X284276880Y-64816220D02*
X284276880Y-64972220D01*
X287509215Y-62657612D02*
G75*
G03*
X284276880Y-62500704I-1672335J-1078608D01*
G01*
X287509215Y-64814828D02*
G75*
G02*
X284276880Y-64971736I-1672335J1078608D01*
G01*
X286878010Y-62656383D02*
G75*
G03*
X284795919Y-62656220I-1041130J-1079837D01*
G01*
X286878010Y-64816057D02*
G75*
G02*
X284795919Y-64816220I-1041130J1079837D01*
G01*
D13*
X31782880Y-86852200D02*
X34632880Y-86852200D01*
X36932880Y-86852200D02*
X39632880Y-86852200D01*
X41932880Y-86852200D02*
X44782880Y-86852200D01*
X44782880Y-100752200D02*
X44782880Y-96677200D01*
X44782880Y-90927200D02*
X44782880Y-86852200D01*
X31782880Y-100752200D02*
X34632880Y-100752200D01*
X36932880Y-100752200D02*
X37172880Y-100752200D01*
X39472880Y-100752200D02*
X39712880Y-100752200D01*
X42012880Y-100752200D02*
X44782880Y-100752200D01*
X31782880Y-100752200D02*
X31782880Y-96677200D01*
X31782880Y-90927200D02*
X31782880Y-86852200D01*
D12*
X57359960Y-114325820D02*
X56279960Y-114325820D01*
X57359960Y-113275820D02*
X56279960Y-113275820D01*
X56829960Y-114215820D02*
X57359960Y-113305820D01*
X56819960Y-114225820D02*
X56279960Y-113275820D01*
X57829960Y-115355820D02*
X55829960Y-115355820D01*
X56819960Y-115615820D02*
X56819960Y-114335820D01*
X56819960Y-112155820D02*
X56819960Y-113275820D01*
X57829960Y-112365820D02*
X55839960Y-112365820D01*
X55829960Y-115355820D02*
X55839960Y-112365820D01*
X57829960Y-115345820D02*
X57829960Y-112375820D01*
X68752280Y-136269440D02*
X68752280Y-136425440D01*
X68752280Y-138585440D02*
X68752280Y-138741440D01*
X71984615Y-136426832D02*
G75*
G03*
X68752280Y-136269924I-1672335J-1078608D01*
G01*
X71984615Y-138584048D02*
G75*
G02*
X68752280Y-138740956I-1672335J1078608D01*
G01*
X71353410Y-136425603D02*
G75*
G03*
X69271319Y-136425440I-1041130J-1079837D01*
G01*
X71353410Y-138585277D02*
G75*
G02*
X69271319Y-138585440I-1041130J1079837D01*
G01*
X63905960Y-138577820D02*
X63905960Y-138733820D01*
X63905960Y-136261820D02*
X63905960Y-136417820D01*
X67138295Y-136419212D02*
G75*
G03*
X63905960Y-136262304I-1672335J-1078608D01*
G01*
X67138295Y-138576428D02*
G75*
G02*
X63905960Y-138733336I-1672335J1078608D01*
G01*
X66507090Y-136417983D02*
G75*
G03*
X64424999Y-136417820I-1041130J-1079837D01*
G01*
X66507090Y-138577657D02*
G75*
G02*
X64424999Y-138577820I-1041130J1079837D01*
G01*
X270813900Y-68487800D02*
X275313900Y-68487800D01*
X269563900Y-64487800D02*
X269563900Y-65987800D01*
X275313900Y-61987800D02*
X270813900Y-61987800D01*
X276563900Y-65987800D02*
X276563900Y-64487800D01*
X277764140Y-72181960D02*
X277764140Y-76021960D01*
X275924140Y-72181960D02*
X275924140Y-76021960D01*
X270271760Y-72184500D02*
X270271760Y-76024500D01*
X268431760Y-72184500D02*
X268431760Y-76024500D01*
X272181760Y-76024500D02*
X272181760Y-72184500D01*
X274021760Y-76024500D02*
X274021760Y-72184500D01*
X56235860Y-138305120D02*
X56235860Y-142145120D01*
X54395860Y-138305120D02*
X54395860Y-142145120D01*
X38438320Y-69021960D02*
X38438320Y-71991960D01*
X40438320Y-69011960D02*
X40428320Y-72001960D01*
X38438320Y-72001960D02*
X40428320Y-72001960D01*
X39448320Y-72211960D02*
X39448320Y-71091960D01*
X39448320Y-68751960D02*
X39448320Y-70031960D01*
X38438320Y-69011960D02*
X40438320Y-69011960D01*
X39448320Y-70141960D02*
X39988320Y-71091960D01*
X39438320Y-70151960D02*
X38908320Y-71061960D01*
X38908320Y-71091960D02*
X39988320Y-71091960D01*
X38908320Y-70041960D02*
X39988320Y-70041960D01*
X48003960Y-73980040D02*
X48003960Y-76950040D01*
X50003960Y-73970040D02*
X49993960Y-76960040D01*
X48003960Y-76960040D02*
X49993960Y-76960040D01*
X49013960Y-77170040D02*
X49013960Y-76050040D01*
X49013960Y-73710040D02*
X49013960Y-74990040D01*
X48003960Y-73970040D02*
X50003960Y-73970040D01*
X49013960Y-75100040D02*
X49553960Y-76050040D01*
X49003960Y-75110040D02*
X48473960Y-76020040D01*
X48473960Y-76050040D02*
X49553960Y-76050040D01*
X48473960Y-75000040D02*
X49553960Y-75000040D01*
X41664120Y-70693280D02*
X41664120Y-73663280D01*
X43664120Y-70683280D02*
X43654120Y-73673280D01*
X41664120Y-73673280D02*
X43654120Y-73673280D01*
X42674120Y-73883280D02*
X42674120Y-72763280D01*
X42674120Y-70423280D02*
X42674120Y-71703280D01*
X41664120Y-70683280D02*
X43664120Y-70683280D01*
X42674120Y-71813280D02*
X43214120Y-72763280D01*
X42664120Y-71823280D02*
X42134120Y-72733280D01*
X42134120Y-72763280D02*
X43214120Y-72763280D01*
X42134120Y-71713280D02*
X43214120Y-71713280D01*
X44864520Y-72364600D02*
X44864520Y-75334600D01*
X46864520Y-72354600D02*
X46854520Y-75344600D01*
X44864520Y-75344600D02*
X46854520Y-75344600D01*
X45874520Y-75554600D02*
X45874520Y-74434600D01*
X45874520Y-72094600D02*
X45874520Y-73374600D01*
X44864520Y-72354600D02*
X46864520Y-72354600D01*
X45874520Y-73484600D02*
X46414520Y-74434600D01*
X45864520Y-73494600D02*
X45334520Y-74404600D01*
X45334520Y-74434600D02*
X46414520Y-74434600D01*
X45334520Y-73384600D02*
X46414520Y-73384600D01*
X96148750Y-150324400D02*
X97228750Y-150324400D01*
X96148750Y-151374400D02*
X97228750Y-151374400D01*
X96678750Y-150434400D02*
X96148750Y-151344400D01*
X96688750Y-150424400D02*
X97228750Y-151374400D01*
X95678750Y-149294400D02*
X97678750Y-149294400D01*
X96688750Y-149034400D02*
X96688750Y-150314400D01*
X96688750Y-152494400D02*
X96688750Y-151374400D01*
X95678750Y-152284400D02*
X97668750Y-152284400D01*
X97678750Y-149294400D02*
X97668750Y-152284400D01*
X95678750Y-149304400D02*
X95678750Y-152274400D01*
X51570284Y-70065612D02*
X52650284Y-70065612D01*
X51570284Y-71115612D02*
X52650284Y-71115612D01*
X52100284Y-70175612D02*
X51570284Y-71085612D01*
X52110284Y-70165612D02*
X52650284Y-71115612D01*
X51100284Y-69035612D02*
X53100284Y-69035612D01*
X52110284Y-68775612D02*
X52110284Y-70055612D01*
X52110284Y-72235612D02*
X52110284Y-71115612D01*
X51100284Y-72025612D02*
X53090284Y-72025612D01*
X53100284Y-69035612D02*
X53090284Y-72025612D01*
X51100284Y-69045612D02*
X51100284Y-72015612D01*
X61078673Y-75026199D02*
X62158673Y-75026199D01*
X61078673Y-76076199D02*
X62158673Y-76076199D01*
X61608673Y-75136199D02*
X61078673Y-76046199D01*
X61618673Y-75126199D02*
X62158673Y-76076199D01*
X60608673Y-73996199D02*
X62608673Y-73996199D01*
X61618673Y-73736199D02*
X61618673Y-75016199D01*
X61618673Y-77196199D02*
X61618673Y-76076199D01*
X60608673Y-76986199D02*
X62598673Y-76986199D01*
X62608673Y-73996199D02*
X62598673Y-76986199D01*
X60608673Y-74006199D02*
X60608673Y-76976199D01*
X73756525Y-75026199D02*
X74836525Y-75026199D01*
X73756525Y-76076199D02*
X74836525Y-76076199D01*
X74286525Y-75136199D02*
X73756525Y-76046199D01*
X74296525Y-75126199D02*
X74836525Y-76076199D01*
X73286525Y-73996199D02*
X75286525Y-73996199D01*
X74296525Y-73736199D02*
X74296525Y-75016199D01*
X74296525Y-77196199D02*
X74296525Y-76076199D01*
X73286525Y-76986199D02*
X75276525Y-76986199D01*
X75286525Y-73996199D02*
X75276525Y-76986199D01*
X73286525Y-74006199D02*
X73286525Y-76976199D01*
X76925988Y-70065612D02*
X78005988Y-70065612D01*
X76925988Y-71115612D02*
X78005988Y-71115612D01*
X77455988Y-70175612D02*
X76925988Y-71085612D01*
X77465988Y-70165612D02*
X78005988Y-71115612D01*
X76455988Y-69035612D02*
X78455988Y-69035612D01*
X77465988Y-68775612D02*
X77465988Y-70055612D01*
X77465988Y-72235612D02*
X77465988Y-71115612D01*
X76455988Y-72025612D02*
X78445988Y-72025612D01*
X78455988Y-69035612D02*
X78445988Y-72025612D01*
X76455988Y-69045612D02*
X76455988Y-72015612D01*
X89603840Y-70065612D02*
X90683840Y-70065612D01*
X89603840Y-71115612D02*
X90683840Y-71115612D01*
X90133840Y-70175612D02*
X89603840Y-71085612D01*
X90143840Y-70165612D02*
X90683840Y-71115612D01*
X89133840Y-69035612D02*
X91133840Y-69035612D01*
X90143840Y-68775612D02*
X90143840Y-70055612D01*
X90143840Y-72235612D02*
X90143840Y-71115612D01*
X89133840Y-72025612D02*
X91123840Y-72025612D01*
X91133840Y-69035612D02*
X91123840Y-72025612D01*
X89133840Y-69045612D02*
X89133840Y-72015612D01*
X102281692Y-70065612D02*
X103361692Y-70065612D01*
X102281692Y-71115612D02*
X103361692Y-71115612D01*
X102811692Y-70175612D02*
X102281692Y-71085612D01*
X102821692Y-70165612D02*
X103361692Y-71115612D01*
X101811692Y-69035612D02*
X103811692Y-69035612D01*
X102821692Y-68775612D02*
X102821692Y-70055612D01*
X102821692Y-72235612D02*
X102821692Y-71115612D01*
X101811692Y-72025612D02*
X103801692Y-72025612D01*
X103811692Y-69035612D02*
X103801692Y-72025612D01*
X101811692Y-69045612D02*
X101811692Y-72015612D01*
X114959544Y-70065612D02*
X116039544Y-70065612D01*
X114959544Y-71115612D02*
X116039544Y-71115612D01*
X115489544Y-70175612D02*
X114959544Y-71085612D01*
X115499544Y-70165612D02*
X116039544Y-71115612D01*
X114489544Y-69035612D02*
X116489544Y-69035612D01*
X115499544Y-68775612D02*
X115499544Y-70055612D01*
X115499544Y-72235612D02*
X115499544Y-71115612D01*
X114489544Y-72025612D02*
X116479544Y-72025612D01*
X116489544Y-69035612D02*
X116479544Y-72025612D01*
X114489544Y-69045612D02*
X114489544Y-72015612D01*
X127637396Y-70065612D02*
X128717396Y-70065612D01*
X127637396Y-71115612D02*
X128717396Y-71115612D01*
X128167396Y-70175612D02*
X127637396Y-71085612D01*
X128177396Y-70165612D02*
X128717396Y-71115612D01*
X127167396Y-69035612D02*
X129167396Y-69035612D01*
X128177396Y-68775612D02*
X128177396Y-70055612D01*
X128177396Y-72235612D02*
X128177396Y-71115612D01*
X127167396Y-72025612D02*
X129157396Y-72025612D01*
X129167396Y-69035612D02*
X129157396Y-72025612D01*
X127167396Y-69045612D02*
X127167396Y-72015612D01*
X140315248Y-70065612D02*
X141395248Y-70065612D01*
X140315248Y-71115612D02*
X141395248Y-71115612D01*
X140845248Y-70175612D02*
X140315248Y-71085612D01*
X140855248Y-70165612D02*
X141395248Y-71115612D01*
X139845248Y-69035612D02*
X141845248Y-69035612D01*
X140855248Y-68775612D02*
X140855248Y-70055612D01*
X140855248Y-72235612D02*
X140855248Y-71115612D01*
X139845248Y-72025612D02*
X141835248Y-72025612D01*
X141845248Y-69035612D02*
X141835248Y-72025612D01*
X139845248Y-69045612D02*
X139845248Y-72015612D01*
X152993100Y-70065612D02*
X154073100Y-70065612D01*
X152993100Y-71115612D02*
X154073100Y-71115612D01*
X153523100Y-70175612D02*
X152993100Y-71085612D01*
X153533100Y-70165612D02*
X154073100Y-71115612D01*
X152523100Y-69035612D02*
X154523100Y-69035612D01*
X153533100Y-68775612D02*
X153533100Y-70055612D01*
X153533100Y-72235612D02*
X153533100Y-71115612D01*
X152523100Y-72025612D02*
X154513100Y-72025612D01*
X154523100Y-69035612D02*
X154513100Y-72025612D01*
X152523100Y-69045612D02*
X152523100Y-72015612D01*
X165670952Y-70065612D02*
X166750952Y-70065612D01*
X165670952Y-71115612D02*
X166750952Y-71115612D01*
X166200952Y-70175612D02*
X165670952Y-71085612D01*
X166210952Y-70165612D02*
X166750952Y-71115612D01*
X165200952Y-69035612D02*
X167200952Y-69035612D01*
X166210952Y-68775612D02*
X166210952Y-70055612D01*
X166210952Y-72235612D02*
X166210952Y-71115612D01*
X165200952Y-72025612D02*
X167190952Y-72025612D01*
X167200952Y-69035612D02*
X167190952Y-72025612D01*
X165200952Y-69045612D02*
X165200952Y-72015612D01*
X178348804Y-70065612D02*
X179428804Y-70065612D01*
X178348804Y-71115612D02*
X179428804Y-71115612D01*
X178878804Y-70175612D02*
X178348804Y-71085612D01*
X178888804Y-70165612D02*
X179428804Y-71115612D01*
X177878804Y-69035612D02*
X179878804Y-69035612D01*
X178888804Y-68775612D02*
X178888804Y-70055612D01*
X178888804Y-72235612D02*
X178888804Y-71115612D01*
X177878804Y-72025612D02*
X179868804Y-72025612D01*
X179878804Y-69035612D02*
X179868804Y-72025612D01*
X177878804Y-69045612D02*
X177878804Y-72015612D01*
X191026656Y-70065612D02*
X192106656Y-70065612D01*
X191026656Y-71115612D02*
X192106656Y-71115612D01*
X191556656Y-70175612D02*
X191026656Y-71085612D01*
X191566656Y-70165612D02*
X192106656Y-71115612D01*
X190556656Y-69035612D02*
X192556656Y-69035612D01*
X191566656Y-68775612D02*
X191566656Y-70055612D01*
X191566656Y-72235612D02*
X191566656Y-71115612D01*
X190556656Y-72025612D02*
X192546656Y-72025612D01*
X192556656Y-69035612D02*
X192546656Y-72025612D01*
X190556656Y-69045612D02*
X190556656Y-72015612D01*
X203704508Y-70065612D02*
X204784508Y-70065612D01*
X203704508Y-71115612D02*
X204784508Y-71115612D01*
X204234508Y-70175612D02*
X203704508Y-71085612D01*
X204244508Y-70165612D02*
X204784508Y-71115612D01*
X203234508Y-69035612D02*
X205234508Y-69035612D01*
X204244508Y-68775612D02*
X204244508Y-70055612D01*
X204244508Y-72235612D02*
X204244508Y-71115612D01*
X203234508Y-72025612D02*
X205224508Y-72025612D01*
X205234508Y-69035612D02*
X205224508Y-72025612D01*
X203234508Y-69045612D02*
X203234508Y-72015612D01*
X216312376Y-70065612D02*
X217392376Y-70065612D01*
X216312376Y-71115612D02*
X217392376Y-71115612D01*
X216842376Y-70175612D02*
X216312376Y-71085612D01*
X216852376Y-70165612D02*
X217392376Y-71115612D01*
X215842376Y-69035612D02*
X217842376Y-69035612D01*
X216852376Y-68775612D02*
X216852376Y-70055612D01*
X216852376Y-72235612D02*
X216852376Y-71115612D01*
X215842376Y-72025612D02*
X217832376Y-72025612D01*
X217842376Y-69035612D02*
X217832376Y-72025612D01*
X215842376Y-69045612D02*
X215842376Y-72015612D01*
X263511929Y-75026199D02*
X264591929Y-75026199D01*
X263511929Y-76076199D02*
X264591929Y-76076199D01*
X264041929Y-75136199D02*
X263511929Y-76046199D01*
X264051929Y-75126199D02*
X264591929Y-76076199D01*
X263041929Y-73996199D02*
X265041929Y-73996199D01*
X264051929Y-73736199D02*
X264051929Y-75016199D01*
X264051929Y-77196199D02*
X264051929Y-76076199D01*
X263041929Y-76986199D02*
X265031929Y-76986199D01*
X265041929Y-73996199D02*
X265031929Y-76986199D01*
X263041929Y-74006199D02*
X263041929Y-76976199D01*
X54739747Y-71719141D02*
X55819747Y-71719141D01*
X54739747Y-72769141D02*
X55819747Y-72769141D01*
X55269747Y-71829141D02*
X54739747Y-72739141D01*
X55279747Y-71819141D02*
X55819747Y-72769141D01*
X54269747Y-70689141D02*
X56269747Y-70689141D01*
X55279747Y-70429141D02*
X55279747Y-71709141D01*
X55279747Y-73889141D02*
X55279747Y-72769141D01*
X54269747Y-73679141D02*
X56259747Y-73679141D01*
X56269747Y-70689141D02*
X56259747Y-73679141D01*
X54269747Y-70699141D02*
X54269747Y-73669141D01*
X70587062Y-73372670D02*
X71667062Y-73372670D01*
X70587062Y-74422670D02*
X71667062Y-74422670D01*
X71117062Y-73482670D02*
X70587062Y-74392670D01*
X71127062Y-73472670D02*
X71667062Y-74422670D01*
X70117062Y-72342670D02*
X72117062Y-72342670D01*
X71127062Y-72082670D02*
X71127062Y-73362670D01*
X71127062Y-75542670D02*
X71127062Y-74422670D01*
X70117062Y-75332670D02*
X72107062Y-75332670D01*
X72117062Y-72342670D02*
X72107062Y-75332670D01*
X70117062Y-72352670D02*
X70117062Y-75322670D01*
X80095451Y-71719141D02*
X81175451Y-71719141D01*
X80095451Y-72769141D02*
X81175451Y-72769141D01*
X80625451Y-71829141D02*
X80095451Y-72739141D01*
X80635451Y-71819141D02*
X81175451Y-72769141D01*
X79625451Y-70689141D02*
X81625451Y-70689141D01*
X80635451Y-70429141D02*
X80635451Y-71709141D01*
X80635451Y-73889141D02*
X80635451Y-72769141D01*
X79625451Y-73679141D02*
X81615451Y-73679141D01*
X81625451Y-70689141D02*
X81615451Y-73679141D01*
X79625451Y-70699141D02*
X79625451Y-73669141D01*
X92773303Y-71719141D02*
X93853303Y-71719141D01*
X92773303Y-72769141D02*
X93853303Y-72769141D01*
X93303303Y-71829141D02*
X92773303Y-72739141D01*
X93313303Y-71819141D02*
X93853303Y-72769141D01*
X92303303Y-70689141D02*
X94303303Y-70689141D01*
X93313303Y-70429141D02*
X93313303Y-71709141D01*
X93313303Y-73889141D02*
X93313303Y-72769141D01*
X92303303Y-73679141D02*
X94293303Y-73679141D01*
X94303303Y-70689141D02*
X94293303Y-73679141D01*
X92303303Y-70699141D02*
X92303303Y-73669141D01*
X105451155Y-71719141D02*
X106531155Y-71719141D01*
X105451155Y-72769141D02*
X106531155Y-72769141D01*
X105981155Y-71829141D02*
X105451155Y-72739141D01*
X105991155Y-71819141D02*
X106531155Y-72769141D01*
X104981155Y-70689141D02*
X106981155Y-70689141D01*
X105991155Y-70429141D02*
X105991155Y-71709141D01*
X105991155Y-73889141D02*
X105991155Y-72769141D01*
X104981155Y-73679141D02*
X106971155Y-73679141D01*
X106981155Y-70689141D02*
X106971155Y-73679141D01*
X104981155Y-70699141D02*
X104981155Y-73669141D01*
X118129007Y-71719141D02*
X119209007Y-71719141D01*
X118129007Y-72769141D02*
X119209007Y-72769141D01*
X118659007Y-71829141D02*
X118129007Y-72739141D01*
X118669007Y-71819141D02*
X119209007Y-72769141D01*
X117659007Y-70689141D02*
X119659007Y-70689141D01*
X118669007Y-70429141D02*
X118669007Y-71709141D01*
X118669007Y-73889141D02*
X118669007Y-72769141D01*
X117659007Y-73679141D02*
X119649007Y-73679141D01*
X119659007Y-70689141D02*
X119649007Y-73679141D01*
X117659007Y-70699141D02*
X117659007Y-73669141D01*
X130806859Y-71719141D02*
X131886859Y-71719141D01*
X130806859Y-72769141D02*
X131886859Y-72769141D01*
X131336859Y-71829141D02*
X130806859Y-72739141D01*
X131346859Y-71819141D02*
X131886859Y-72769141D01*
X130336859Y-70689141D02*
X132336859Y-70689141D01*
X131346859Y-70429141D02*
X131346859Y-71709141D01*
X131346859Y-73889141D02*
X131346859Y-72769141D01*
X130336859Y-73679141D02*
X132326859Y-73679141D01*
X132336859Y-70689141D02*
X132326859Y-73679141D01*
X130336859Y-70699141D02*
X130336859Y-73669141D01*
X143484711Y-71719141D02*
X144564711Y-71719141D01*
X143484711Y-72769141D02*
X144564711Y-72769141D01*
X144014711Y-71829141D02*
X143484711Y-72739141D01*
X144024711Y-71819141D02*
X144564711Y-72769141D01*
X143014711Y-70689141D02*
X145014711Y-70689141D01*
X144024711Y-70429141D02*
X144024711Y-71709141D01*
X144024711Y-73889141D02*
X144024711Y-72769141D01*
X143014711Y-73679141D02*
X145004711Y-73679141D01*
X145014711Y-70689141D02*
X145004711Y-73679141D01*
X143014711Y-70699141D02*
X143014711Y-73669141D01*
X156162563Y-71719141D02*
X157242563Y-71719141D01*
X156162563Y-72769141D02*
X157242563Y-72769141D01*
X156692563Y-71829141D02*
X156162563Y-72739141D01*
X156702563Y-71819141D02*
X157242563Y-72769141D01*
X155692563Y-70689141D02*
X157692563Y-70689141D01*
X156702563Y-70429141D02*
X156702563Y-71709141D01*
X156702563Y-73889141D02*
X156702563Y-72769141D01*
X155692563Y-73679141D02*
X157682563Y-73679141D01*
X157692563Y-70689141D02*
X157682563Y-73679141D01*
X155692563Y-70699141D02*
X155692563Y-73669141D01*
X168840415Y-71719141D02*
X169920415Y-71719141D01*
X168840415Y-72769141D02*
X169920415Y-72769141D01*
X169370415Y-71829141D02*
X168840415Y-72739141D01*
X169380415Y-71819141D02*
X169920415Y-72769141D01*
X168370415Y-70689141D02*
X170370415Y-70689141D01*
X169380415Y-70429141D02*
X169380415Y-71709141D01*
X169380415Y-73889141D02*
X169380415Y-72769141D01*
X168370415Y-73679141D02*
X170360415Y-73679141D01*
X170370415Y-70689141D02*
X170360415Y-73679141D01*
X168370415Y-70699141D02*
X168370415Y-73669141D01*
X181518267Y-71719141D02*
X182598267Y-71719141D01*
X181518267Y-72769141D02*
X182598267Y-72769141D01*
X182048267Y-71829141D02*
X181518267Y-72739141D01*
X182058267Y-71819141D02*
X182598267Y-72769141D01*
X181048267Y-70689141D02*
X183048267Y-70689141D01*
X182058267Y-70429141D02*
X182058267Y-71709141D01*
X182058267Y-73889141D02*
X182058267Y-72769141D01*
X181048267Y-73679141D02*
X183038267Y-73679141D01*
X183048267Y-70689141D02*
X183038267Y-73679141D01*
X181048267Y-70699141D02*
X181048267Y-73669141D01*
X194196119Y-71719141D02*
X195276119Y-71719141D01*
X194196119Y-72769141D02*
X195276119Y-72769141D01*
X194726119Y-71829141D02*
X194196119Y-72739141D01*
X194736119Y-71819141D02*
X195276119Y-72769141D01*
X193726119Y-70689141D02*
X195726119Y-70689141D01*
X194736119Y-70429141D02*
X194736119Y-71709141D01*
X194736119Y-73889141D02*
X194736119Y-72769141D01*
X193726119Y-73679141D02*
X195716119Y-73679141D01*
X195726119Y-70689141D02*
X195716119Y-73679141D01*
X193726119Y-70699141D02*
X193726119Y-73669141D01*
X206856475Y-71719141D02*
X207936475Y-71719141D01*
X206856475Y-72769141D02*
X207936475Y-72769141D01*
X207386475Y-71829141D02*
X206856475Y-72739141D01*
X207396475Y-71819141D02*
X207936475Y-72769141D01*
X206386475Y-70689141D02*
X208386475Y-70689141D01*
X207396475Y-70429141D02*
X207396475Y-71709141D01*
X207396475Y-73889141D02*
X207396475Y-72769141D01*
X206386475Y-73679141D02*
X208376475Y-73679141D01*
X208386475Y-70689141D02*
X208376475Y-73679141D01*
X206386475Y-70699141D02*
X206386475Y-73669141D01*
X219463149Y-71719141D02*
X220543149Y-71719141D01*
X219463149Y-72769141D02*
X220543149Y-72769141D01*
X219993149Y-71829141D02*
X219463149Y-72739141D01*
X220003149Y-71819141D02*
X220543149Y-72769141D01*
X218993149Y-70689141D02*
X220993149Y-70689141D01*
X220003149Y-70429141D02*
X220003149Y-71709141D01*
X220003149Y-73889141D02*
X220003149Y-72769141D01*
X218993149Y-73679141D02*
X220983149Y-73679141D01*
X220993149Y-70689141D02*
X220983149Y-73679141D01*
X218993149Y-70699141D02*
X218993149Y-73669141D01*
X260423205Y-73372670D02*
X261503205Y-73372670D01*
X260423205Y-74422670D02*
X261503205Y-74422670D01*
X260953205Y-73482670D02*
X260423205Y-74392670D01*
X260963205Y-73472670D02*
X261503205Y-74422670D01*
X259953205Y-72342670D02*
X261953205Y-72342670D01*
X260963205Y-72082670D02*
X260963205Y-73362670D01*
X260963205Y-75542670D02*
X260963205Y-74422670D01*
X259953205Y-75332670D02*
X261943205Y-75332670D01*
X261953205Y-72342670D02*
X261943205Y-75332670D01*
X259953205Y-72352670D02*
X259953205Y-75322670D01*
X57909210Y-73372670D02*
X58989210Y-73372670D01*
X57909210Y-74422670D02*
X58989210Y-74422670D01*
X58439210Y-73482670D02*
X57909210Y-74392670D01*
X58449210Y-73472670D02*
X58989210Y-74422670D01*
X57439210Y-72342670D02*
X59439210Y-72342670D01*
X58449210Y-72082670D02*
X58449210Y-73362670D01*
X58449210Y-75542670D02*
X58449210Y-74422670D01*
X57439210Y-75332670D02*
X59429210Y-75332670D01*
X59439210Y-72342670D02*
X59429210Y-75332670D01*
X57439210Y-72352670D02*
X57439210Y-75322670D01*
X67417599Y-71719141D02*
X68497599Y-71719141D01*
X67417599Y-72769141D02*
X68497599Y-72769141D01*
X67947599Y-71829141D02*
X67417599Y-72739141D01*
X67957599Y-71819141D02*
X68497599Y-72769141D01*
X66947599Y-70689141D02*
X68947599Y-70689141D01*
X67957599Y-70429141D02*
X67957599Y-71709141D01*
X67957599Y-73889141D02*
X67957599Y-72769141D01*
X66947599Y-73679141D02*
X68937599Y-73679141D01*
X68947599Y-70689141D02*
X68937599Y-73679141D01*
X66947599Y-70699141D02*
X66947599Y-73669141D01*
X83264914Y-73372670D02*
X84344914Y-73372670D01*
X83264914Y-74422670D02*
X84344914Y-74422670D01*
X83794914Y-73482670D02*
X83264914Y-74392670D01*
X83804914Y-73472670D02*
X84344914Y-74422670D01*
X82794914Y-72342670D02*
X84794914Y-72342670D01*
X83804914Y-72082670D02*
X83804914Y-73362670D01*
X83804914Y-75542670D02*
X83804914Y-74422670D01*
X82794914Y-75332670D02*
X84784914Y-75332670D01*
X84794914Y-72342670D02*
X84784914Y-75332670D01*
X82794914Y-72352670D02*
X82794914Y-75322670D01*
X95942766Y-73372670D02*
X97022766Y-73372670D01*
X95942766Y-74422670D02*
X97022766Y-74422670D01*
X96472766Y-73482670D02*
X95942766Y-74392670D01*
X96482766Y-73472670D02*
X97022766Y-74422670D01*
X95472766Y-72342670D02*
X97472766Y-72342670D01*
X96482766Y-72082670D02*
X96482766Y-73362670D01*
X96482766Y-75542670D02*
X96482766Y-74422670D01*
X95472766Y-75332670D02*
X97462766Y-75332670D01*
X97472766Y-72342670D02*
X97462766Y-75332670D01*
X95472766Y-72352670D02*
X95472766Y-75322670D01*
X108620618Y-73372670D02*
X109700618Y-73372670D01*
X108620618Y-74422670D02*
X109700618Y-74422670D01*
X109150618Y-73482670D02*
X108620618Y-74392670D01*
X109160618Y-73472670D02*
X109700618Y-74422670D01*
X108150618Y-72342670D02*
X110150618Y-72342670D01*
X109160618Y-72082670D02*
X109160618Y-73362670D01*
X109160618Y-75542670D02*
X109160618Y-74422670D01*
X108150618Y-75332670D02*
X110140618Y-75332670D01*
X110150618Y-72342670D02*
X110140618Y-75332670D01*
X108150618Y-72352670D02*
X108150618Y-75322670D01*
X121298470Y-73372670D02*
X122378470Y-73372670D01*
X121298470Y-74422670D02*
X122378470Y-74422670D01*
X121828470Y-73482670D02*
X121298470Y-74392670D01*
X121838470Y-73472670D02*
X122378470Y-74422670D01*
X120828470Y-72342670D02*
X122828470Y-72342670D01*
X121838470Y-72082670D02*
X121838470Y-73362670D01*
X121838470Y-75542670D02*
X121838470Y-74422670D01*
X120828470Y-75332670D02*
X122818470Y-75332670D01*
X122828470Y-72342670D02*
X122818470Y-75332670D01*
X120828470Y-72352670D02*
X120828470Y-75322670D01*
X133976322Y-73372670D02*
X135056322Y-73372670D01*
X133976322Y-74422670D02*
X135056322Y-74422670D01*
X134506322Y-73482670D02*
X133976322Y-74392670D01*
X134516322Y-73472670D02*
X135056322Y-74422670D01*
X133506322Y-72342670D02*
X135506322Y-72342670D01*
X134516322Y-72082670D02*
X134516322Y-73362670D01*
X134516322Y-75542670D02*
X134516322Y-74422670D01*
X133506322Y-75332670D02*
X135496322Y-75332670D01*
X135506322Y-72342670D02*
X135496322Y-75332670D01*
X133506322Y-72352670D02*
X133506322Y-75322670D01*
X146654174Y-73372670D02*
X147734174Y-73372670D01*
X146654174Y-74422670D02*
X147734174Y-74422670D01*
X147184174Y-73482670D02*
X146654174Y-74392670D01*
X147194174Y-73472670D02*
X147734174Y-74422670D01*
X146184174Y-72342670D02*
X148184174Y-72342670D01*
X147194174Y-72082670D02*
X147194174Y-73362670D01*
X147194174Y-75542670D02*
X147194174Y-74422670D01*
X146184174Y-75332670D02*
X148174174Y-75332670D01*
X148184174Y-72342670D02*
X148174174Y-75332670D01*
X146184174Y-72352670D02*
X146184174Y-75322670D01*
X159332026Y-73372670D02*
X160412026Y-73372670D01*
X159332026Y-74422670D02*
X160412026Y-74422670D01*
X159862026Y-73482670D02*
X159332026Y-74392670D01*
X159872026Y-73472670D02*
X160412026Y-74422670D01*
X158862026Y-72342670D02*
X160862026Y-72342670D01*
X159872026Y-72082670D02*
X159872026Y-73362670D01*
X159872026Y-75542670D02*
X159872026Y-74422670D01*
X158862026Y-75332670D02*
X160852026Y-75332670D01*
X160862026Y-72342670D02*
X160852026Y-75332670D01*
X158862026Y-72352670D02*
X158862026Y-75322670D01*
X172009878Y-73372670D02*
X173089878Y-73372670D01*
X172009878Y-74422670D02*
X173089878Y-74422670D01*
X172539878Y-73482670D02*
X172009878Y-74392670D01*
X172549878Y-73472670D02*
X173089878Y-74422670D01*
X171539878Y-72342670D02*
X173539878Y-72342670D01*
X172549878Y-72082670D02*
X172549878Y-73362670D01*
X172549878Y-75542670D02*
X172549878Y-74422670D01*
X171539878Y-75332670D02*
X173529878Y-75332670D01*
X173539878Y-72342670D02*
X173529878Y-75332670D01*
X171539878Y-72352670D02*
X171539878Y-75322670D01*
X184687730Y-73372670D02*
X185767730Y-73372670D01*
X184687730Y-74422670D02*
X185767730Y-74422670D01*
X185217730Y-73482670D02*
X184687730Y-74392670D01*
X185227730Y-73472670D02*
X185767730Y-74422670D01*
X184217730Y-72342670D02*
X186217730Y-72342670D01*
X185227730Y-72082670D02*
X185227730Y-73362670D01*
X185227730Y-75542670D02*
X185227730Y-74422670D01*
X184217730Y-75332670D02*
X186207730Y-75332670D01*
X186217730Y-72342670D02*
X186207730Y-75332670D01*
X184217730Y-72352670D02*
X184217730Y-75322670D01*
X197365582Y-73372670D02*
X198445582Y-73372670D01*
X197365582Y-74422670D02*
X198445582Y-74422670D01*
X197895582Y-73482670D02*
X197365582Y-74392670D01*
X197905582Y-73472670D02*
X198445582Y-74422670D01*
X196895582Y-72342670D02*
X198895582Y-72342670D01*
X197905582Y-72082670D02*
X197905582Y-73362670D01*
X197905582Y-75542670D02*
X197905582Y-74422670D01*
X196895582Y-75332670D02*
X198885582Y-75332670D01*
X198895582Y-72342670D02*
X198885582Y-75332670D01*
X196895582Y-72352670D02*
X196895582Y-75322670D01*
X222613922Y-73372670D02*
X223693922Y-73372670D01*
X222613922Y-74422670D02*
X223693922Y-74422670D01*
X223143922Y-73482670D02*
X222613922Y-74392670D01*
X223153922Y-73472670D02*
X223693922Y-74422670D01*
X222143922Y-72342670D02*
X224143922Y-72342670D01*
X223153922Y-72082670D02*
X223153922Y-73362670D01*
X223153922Y-75542670D02*
X223153922Y-74422670D01*
X222143922Y-75332670D02*
X224133922Y-75332670D01*
X224143922Y-72342670D02*
X224133922Y-75332670D01*
X222143922Y-72352670D02*
X222143922Y-75322670D01*
X257334481Y-71719141D02*
X258414481Y-71719141D01*
X257334481Y-72769141D02*
X258414481Y-72769141D01*
X257864481Y-71829141D02*
X257334481Y-72739141D01*
X257874481Y-71819141D02*
X258414481Y-72769141D01*
X256864481Y-70689141D02*
X258864481Y-70689141D01*
X257874481Y-70429141D02*
X257874481Y-71709141D01*
X257874481Y-73889141D02*
X257874481Y-72769141D01*
X256864481Y-73679141D02*
X258854481Y-73679141D01*
X258864481Y-70689141D02*
X258854481Y-73679141D01*
X256864481Y-70699141D02*
X256864481Y-73669141D01*
X86434377Y-75026199D02*
X87514377Y-75026199D01*
X86434377Y-76076199D02*
X87514377Y-76076199D01*
X86964377Y-75136199D02*
X86434377Y-76046199D01*
X86974377Y-75126199D02*
X87514377Y-76076199D01*
X85964377Y-73996199D02*
X87964377Y-73996199D01*
X86974377Y-73736199D02*
X86974377Y-75016199D01*
X86974377Y-77196199D02*
X86974377Y-76076199D01*
X85964377Y-76986199D02*
X87954377Y-76986199D01*
X87964377Y-73996199D02*
X87954377Y-76986199D01*
X85964377Y-74006199D02*
X85964377Y-76976199D01*
X99112229Y-75026199D02*
X100192229Y-75026199D01*
X99112229Y-76076199D02*
X100192229Y-76076199D01*
X99642229Y-75136199D02*
X99112229Y-76046199D01*
X99652229Y-75126199D02*
X100192229Y-76076199D01*
X98642229Y-73996199D02*
X100642229Y-73996199D01*
X99652229Y-73736199D02*
X99652229Y-75016199D01*
X99652229Y-77196199D02*
X99652229Y-76076199D01*
X98642229Y-76986199D02*
X100632229Y-76986199D01*
X100642229Y-73996199D02*
X100632229Y-76986199D01*
X98642229Y-74006199D02*
X98642229Y-76976199D01*
X111790081Y-75026199D02*
X112870081Y-75026199D01*
X111790081Y-76076199D02*
X112870081Y-76076199D01*
X112320081Y-75136199D02*
X111790081Y-76046199D01*
X112330081Y-75126199D02*
X112870081Y-76076199D01*
X111320081Y-73996199D02*
X113320081Y-73996199D01*
X112330081Y-73736199D02*
X112330081Y-75016199D01*
X112330081Y-77196199D02*
X112330081Y-76076199D01*
X111320081Y-76986199D02*
X113310081Y-76986199D01*
X113320081Y-73996199D02*
X113310081Y-76986199D01*
X111320081Y-74006199D02*
X111320081Y-76976199D01*
X124467933Y-75026199D02*
X125547933Y-75026199D01*
X124467933Y-76076199D02*
X125547933Y-76076199D01*
X124997933Y-75136199D02*
X124467933Y-76046199D01*
X125007933Y-75126199D02*
X125547933Y-76076199D01*
X123997933Y-73996199D02*
X125997933Y-73996199D01*
X125007933Y-73736199D02*
X125007933Y-75016199D01*
X125007933Y-77196199D02*
X125007933Y-76076199D01*
X123997933Y-76986199D02*
X125987933Y-76986199D01*
X125997933Y-73996199D02*
X125987933Y-76986199D01*
X123997933Y-74006199D02*
X123997933Y-76976199D01*
X137145785Y-75026199D02*
X138225785Y-75026199D01*
X137145785Y-76076199D02*
X138225785Y-76076199D01*
X137675785Y-75136199D02*
X137145785Y-76046199D01*
X137685785Y-75126199D02*
X138225785Y-76076199D01*
X136675785Y-73996199D02*
X138675785Y-73996199D01*
X137685785Y-73736199D02*
X137685785Y-75016199D01*
X137685785Y-77196199D02*
X137685785Y-76076199D01*
X136675785Y-76986199D02*
X138665785Y-76986199D01*
X138675785Y-73996199D02*
X138665785Y-76986199D01*
X136675785Y-74006199D02*
X136675785Y-76976199D01*
X149823637Y-75026199D02*
X150903637Y-75026199D01*
X149823637Y-76076199D02*
X150903637Y-76076199D01*
X150353637Y-75136199D02*
X149823637Y-76046199D01*
X150363637Y-75126199D02*
X150903637Y-76076199D01*
X149353637Y-73996199D02*
X151353637Y-73996199D01*
X150363637Y-73736199D02*
X150363637Y-75016199D01*
X150363637Y-77196199D02*
X150363637Y-76076199D01*
X149353637Y-76986199D02*
X151343637Y-76986199D01*
X151353637Y-73996199D02*
X151343637Y-76986199D01*
X149353637Y-74006199D02*
X149353637Y-76976199D01*
X162501489Y-75026199D02*
X163581489Y-75026199D01*
X162501489Y-76076199D02*
X163581489Y-76076199D01*
X163031489Y-75136199D02*
X162501489Y-76046199D01*
X163041489Y-75126199D02*
X163581489Y-76076199D01*
X162031489Y-73996199D02*
X164031489Y-73996199D01*
X163041489Y-73736199D02*
X163041489Y-75016199D01*
X163041489Y-77196199D02*
X163041489Y-76076199D01*
X162031489Y-76986199D02*
X164021489Y-76986199D01*
X164031489Y-73996199D02*
X164021489Y-76986199D01*
X162031489Y-74006199D02*
X162031489Y-76976199D01*
X175179341Y-75026199D02*
X176259341Y-75026199D01*
X175179341Y-76076199D02*
X176259341Y-76076199D01*
X175709341Y-75136199D02*
X175179341Y-76046199D01*
X175719341Y-75126199D02*
X176259341Y-76076199D01*
X174709341Y-73996199D02*
X176709341Y-73996199D01*
X175719341Y-73736199D02*
X175719341Y-75016199D01*
X175719341Y-77196199D02*
X175719341Y-76076199D01*
X174709341Y-76986199D02*
X176699341Y-76986199D01*
X176709341Y-73996199D02*
X176699341Y-76986199D01*
X174709341Y-74006199D02*
X174709341Y-76976199D01*
X187857193Y-75026199D02*
X188937193Y-75026199D01*
X187857193Y-76076199D02*
X188937193Y-76076199D01*
X188387193Y-75136199D02*
X187857193Y-76046199D01*
X188397193Y-75126199D02*
X188937193Y-76076199D01*
X187387193Y-73996199D02*
X189387193Y-73996199D01*
X188397193Y-73736199D02*
X188397193Y-75016199D01*
X188397193Y-77196199D02*
X188397193Y-76076199D01*
X187387193Y-76986199D02*
X189377193Y-76986199D01*
X189387193Y-73996199D02*
X189377193Y-76986199D01*
X187387193Y-74006199D02*
X187387193Y-76976199D01*
X200535045Y-75026199D02*
X201615045Y-75026199D01*
X200535045Y-76076199D02*
X201615045Y-76076199D01*
X201065045Y-75136199D02*
X200535045Y-76046199D01*
X201075045Y-75126199D02*
X201615045Y-76076199D01*
X200065045Y-73996199D02*
X202065045Y-73996199D01*
X201075045Y-73736199D02*
X201075045Y-75016199D01*
X201075045Y-77196199D02*
X201075045Y-76076199D01*
X200065045Y-76986199D02*
X202055045Y-76986199D01*
X202065045Y-73996199D02*
X202055045Y-76986199D01*
X200065045Y-74006199D02*
X200065045Y-76976199D01*
X210008442Y-73372670D02*
X211088442Y-73372670D01*
X210008442Y-74422670D02*
X211088442Y-74422670D01*
X210538442Y-73482670D02*
X210008442Y-74392670D01*
X210548442Y-73472670D02*
X211088442Y-74422670D01*
X209538442Y-72342670D02*
X211538442Y-72342670D01*
X210548442Y-72082670D02*
X210548442Y-73362670D01*
X210548442Y-75542670D02*
X210548442Y-74422670D01*
X209538442Y-75332670D02*
X211528442Y-75332670D01*
X211538442Y-72342670D02*
X211528442Y-75332670D01*
X209538442Y-72352670D02*
X209538442Y-75322670D01*
X225764695Y-75026199D02*
X226844695Y-75026199D01*
X225764695Y-76076199D02*
X226844695Y-76076199D01*
X226294695Y-75136199D02*
X225764695Y-76046199D01*
X226304695Y-75126199D02*
X226844695Y-76076199D01*
X225294695Y-73996199D02*
X227294695Y-73996199D01*
X226304695Y-73736199D02*
X226304695Y-75016199D01*
X226304695Y-77196199D02*
X226304695Y-76076199D01*
X225294695Y-76986199D02*
X227284695Y-76986199D01*
X227294695Y-73996199D02*
X227284695Y-76986199D01*
X225294695Y-74006199D02*
X225294695Y-76976199D01*
X254059606Y-70065612D02*
X255139606Y-70065612D01*
X254059606Y-71115612D02*
X255139606Y-71115612D01*
X254589606Y-70175612D02*
X254059606Y-71085612D01*
X254599606Y-70165612D02*
X255139606Y-71115612D01*
X253589606Y-69035612D02*
X255589606Y-69035612D01*
X254599606Y-68775612D02*
X254599606Y-70055612D01*
X254599606Y-72235612D02*
X254599606Y-71115612D01*
X253589606Y-72025612D02*
X255579606Y-72025612D01*
X255589606Y-69035612D02*
X255579606Y-72025612D01*
X253589606Y-69045612D02*
X253589606Y-72015612D01*
X247758058Y-73372670D02*
X248838058Y-73372670D01*
X247758058Y-74422670D02*
X248838058Y-74422670D01*
X248288058Y-73482670D02*
X247758058Y-74392670D01*
X248298058Y-73472670D02*
X248838058Y-74422670D01*
X247288058Y-72342670D02*
X249288058Y-72342670D01*
X248298058Y-72082670D02*
X248298058Y-73362670D01*
X248298058Y-75542670D02*
X248298058Y-74422670D01*
X247288058Y-75332670D02*
X249278058Y-75332670D01*
X249288058Y-72342670D02*
X249278058Y-75332670D01*
X247288058Y-72352670D02*
X247288058Y-75322670D01*
X64248136Y-70065612D02*
X65328136Y-70065612D01*
X64248136Y-71115612D02*
X65328136Y-71115612D01*
X64778136Y-70175612D02*
X64248136Y-71085612D01*
X64788136Y-70165612D02*
X65328136Y-71115612D01*
X63778136Y-69035612D02*
X65778136Y-69035612D01*
X64788136Y-68775612D02*
X64788136Y-70055612D01*
X64788136Y-72235612D02*
X64788136Y-71115612D01*
X63778136Y-72025612D02*
X65768136Y-72025612D01*
X65778136Y-69035612D02*
X65768136Y-72025612D01*
X63778136Y-69045612D02*
X63778136Y-72015612D01*
X244607284Y-71719141D02*
X245687284Y-71719141D01*
X244607284Y-72769141D02*
X245687284Y-72769141D01*
X245137284Y-71829141D02*
X244607284Y-72739141D01*
X245147284Y-71819141D02*
X245687284Y-72769141D01*
X244137284Y-70689141D02*
X246137284Y-70689141D01*
X245147284Y-70429141D02*
X245147284Y-71709141D01*
X245147284Y-73889141D02*
X245147284Y-72769141D01*
X244137284Y-73679141D02*
X246127284Y-73679141D01*
X246137284Y-70689141D02*
X246127284Y-73679141D01*
X244137284Y-70699141D02*
X244137284Y-73669141D01*
X241456511Y-70065612D02*
X242536511Y-70065612D01*
X241456511Y-71115612D02*
X242536511Y-71115612D01*
X241986511Y-70175612D02*
X241456511Y-71085612D01*
X241996511Y-70165612D02*
X242536511Y-71115612D01*
X240986511Y-69035612D02*
X242986511Y-69035612D01*
X241996511Y-68775612D02*
X241996511Y-70055612D01*
X241996511Y-72235612D02*
X241996511Y-71115612D01*
X240986511Y-72025612D02*
X242976511Y-72025612D01*
X242986511Y-69035612D02*
X242976511Y-72025612D01*
X240986511Y-69045612D02*
X240986511Y-72015612D01*
X238305738Y-75026199D02*
X239385738Y-75026199D01*
X238305738Y-76076199D02*
X239385738Y-76076199D01*
X238835738Y-75136199D02*
X238305738Y-76046199D01*
X238845738Y-75126199D02*
X239385738Y-76076199D01*
X237835738Y-73996199D02*
X239835738Y-73996199D01*
X238845738Y-73736199D02*
X238845738Y-75016199D01*
X238845738Y-77196199D02*
X238845738Y-76076199D01*
X237835738Y-76986199D02*
X239825738Y-76986199D01*
X239835738Y-73996199D02*
X239825738Y-76986199D01*
X237835738Y-74006199D02*
X237835738Y-76976199D01*
X213160409Y-75026199D02*
X214240409Y-75026199D01*
X213160409Y-76076199D02*
X214240409Y-76076199D01*
X213690409Y-75136199D02*
X213160409Y-76046199D01*
X213700409Y-75126199D02*
X214240409Y-76076199D01*
X212690409Y-73996199D02*
X214690409Y-73996199D01*
X213700409Y-73736199D02*
X213700409Y-75016199D01*
X213700409Y-77196199D02*
X213700409Y-76076199D01*
X212690409Y-76986199D02*
X214680409Y-76986199D01*
X214690409Y-73996199D02*
X214680409Y-76986199D01*
X212690409Y-74006199D02*
X212690409Y-76976199D01*
X232066241Y-71719141D02*
X233146241Y-71719141D01*
X232066241Y-72769141D02*
X233146241Y-72769141D01*
X232596241Y-71829141D02*
X232066241Y-72739141D01*
X232606241Y-71819141D02*
X233146241Y-72769141D01*
X231596241Y-70689141D02*
X233596241Y-70689141D01*
X232606241Y-70429141D02*
X232606241Y-71709141D01*
X232606241Y-73889141D02*
X232606241Y-72769141D01*
X231596241Y-73679141D02*
X233586241Y-73679141D01*
X233596241Y-70689141D02*
X233586241Y-73679141D01*
X231596241Y-70699141D02*
X231596241Y-73669141D01*
X228915468Y-70065612D02*
X229995468Y-70065612D01*
X228915468Y-71115612D02*
X229995468Y-71115612D01*
X229445468Y-70175612D02*
X228915468Y-71085612D01*
X229455468Y-70165612D02*
X229995468Y-71115612D01*
X228445468Y-69035612D02*
X230445468Y-69035612D01*
X229455468Y-68775612D02*
X229455468Y-70055612D01*
X229455468Y-72235612D02*
X229455468Y-71115612D01*
X228445468Y-72025612D02*
X230435468Y-72025612D01*
X230445468Y-69035612D02*
X230435468Y-72025612D01*
X228445468Y-69045612D02*
X228445468Y-72015612D01*
X250908832Y-75026199D02*
X251988832Y-75026199D01*
X250908832Y-76076199D02*
X251988832Y-76076199D01*
X251438832Y-75136199D02*
X250908832Y-76046199D01*
X251448832Y-75126199D02*
X251988832Y-76076199D01*
X250438832Y-73996199D02*
X252438832Y-73996199D01*
X251448832Y-73736199D02*
X251448832Y-75016199D01*
X251448832Y-77196199D02*
X251448832Y-76076199D01*
X250438832Y-76986199D02*
X252428832Y-76986199D01*
X252438832Y-73996199D02*
X252428832Y-76986199D01*
X250438832Y-74006199D02*
X250438832Y-76976199D01*
X235154965Y-73372670D02*
X236234965Y-73372670D01*
X235154965Y-74422670D02*
X236234965Y-74422670D01*
X235684965Y-73482670D02*
X235154965Y-74392670D01*
X235694965Y-73472670D02*
X236234965Y-74422670D01*
X234684965Y-72342670D02*
X236684965Y-72342670D01*
X235694965Y-72082670D02*
X235694965Y-73362670D01*
X235694965Y-75542670D02*
X235694965Y-74422670D01*
X234684965Y-75332670D02*
X236674965Y-75332670D01*
X236684965Y-72342670D02*
X236674965Y-75332670D01*
X234684965Y-72352670D02*
X234684965Y-75322670D01*
D13*
X290315600Y-60930320D02*
X290415600Y-60963653D01*
X290448933Y-60996986D01*
X290482266Y-61063653D01*
X290482266Y-61163653D01*
X290448933Y-61230320D01*
X290415600Y-61263653D01*
X290348933Y-61296986D01*
X290082266Y-61296986D01*
X290082266Y-60596986D01*
X290315600Y-60596986D01*
X290382266Y-60630320D01*
X290415600Y-60663653D01*
X290448933Y-60730320D01*
X290448933Y-60796986D01*
X290415600Y-60863653D01*
X290382266Y-60896986D01*
X290315600Y-60930320D01*
X290082266Y-60930320D01*
X290882266Y-61296986D02*
X290815600Y-61263653D01*
X290782266Y-61196986D01*
X290782266Y-60596986D01*
X291448933Y-60830320D02*
X291448933Y-61296986D01*
X291148933Y-60830320D02*
X291148933Y-61196986D01*
X291182266Y-61263653D01*
X291248933Y-61296986D01*
X291348933Y-61296986D01*
X291415600Y-61263653D01*
X291448933Y-61230320D01*
X292048933Y-61263653D02*
X291982266Y-61296986D01*
X291848933Y-61296986D01*
X291782266Y-61263653D01*
X291748933Y-61196986D01*
X291748933Y-60930320D01*
X291782266Y-60863653D01*
X291848933Y-60830320D01*
X291982266Y-60830320D01*
X292048933Y-60863653D01*
X292082266Y-60930320D01*
X292082266Y-60996986D01*
X291748933Y-61063653D01*
X292282266Y-60830320D02*
X292548933Y-60830320D01*
X292382266Y-60596986D02*
X292382266Y-61196986D01*
X292415600Y-61263653D01*
X292482266Y-61296986D01*
X292548933Y-61296986D01*
X292882266Y-61296986D02*
X292815600Y-61263653D01*
X292782266Y-61230320D01*
X292748933Y-61163653D01*
X292748933Y-60963653D01*
X292782266Y-60896986D01*
X292815600Y-60863653D01*
X292882266Y-60830320D01*
X292982266Y-60830320D01*
X293048933Y-60863653D01*
X293082266Y-60896986D01*
X293115600Y-60963653D01*
X293115600Y-61163653D01*
X293082266Y-61230320D01*
X293048933Y-61263653D01*
X292982266Y-61296986D01*
X292882266Y-61296986D01*
X293515600Y-61296986D02*
X293448933Y-61263653D01*
X293415600Y-61230320D01*
X293382266Y-61163653D01*
X293382266Y-60963653D01*
X293415600Y-60896986D01*
X293448933Y-60863653D01*
X293515600Y-60830320D01*
X293615600Y-60830320D01*
X293682266Y-60863653D01*
X293715600Y-60896986D01*
X293748933Y-60963653D01*
X293748933Y-61163653D01*
X293715600Y-61230320D01*
X293682266Y-61263653D01*
X293615600Y-61296986D01*
X293515600Y-61296986D01*
X293948933Y-60830320D02*
X294215600Y-60830320D01*
X294048933Y-60596986D02*
X294048933Y-61196986D01*
X294082266Y-61263653D01*
X294148933Y-61296986D01*
X294215600Y-61296986D01*
X294448933Y-61296986D02*
X294448933Y-60596986D01*
X294748933Y-61296986D02*
X294748933Y-60930320D01*
X294715600Y-60863653D01*
X294648933Y-60830320D01*
X294548933Y-60830320D01*
X294482266Y-60863653D01*
X294448933Y-60896986D01*
X284473346Y-61274126D02*
X284473346Y-60574126D01*
X284740013Y-60574126D01*
X284806680Y-60607460D01*
X284840013Y-60640793D01*
X284873346Y-60707460D01*
X284873346Y-60807460D01*
X284840013Y-60874126D01*
X284806680Y-60907460D01*
X284740013Y-60940793D01*
X284473346Y-60940793D01*
X285273346Y-61274126D02*
X285206680Y-61240793D01*
X285173346Y-61207460D01*
X285140013Y-61140793D01*
X285140013Y-60940793D01*
X285173346Y-60874126D01*
X285206680Y-60840793D01*
X285273346Y-60807460D01*
X285373346Y-60807460D01*
X285440013Y-60840793D01*
X285473346Y-60874126D01*
X285506680Y-60940793D01*
X285506680Y-61140793D01*
X285473346Y-61207460D01*
X285440013Y-61240793D01*
X285373346Y-61274126D01*
X285273346Y-61274126D01*
X285740013Y-60807460D02*
X285873346Y-61274126D01*
X286006680Y-60940793D01*
X286140013Y-61274126D01*
X286273346Y-60807460D01*
X286806680Y-61240793D02*
X286740013Y-61274126D01*
X286606680Y-61274126D01*
X286540013Y-61240793D01*
X286506680Y-61174126D01*
X286506680Y-60907460D01*
X286540013Y-60840793D01*
X286606680Y-60807460D01*
X286740013Y-60807460D01*
X286806680Y-60840793D01*
X286840013Y-60907460D01*
X286840013Y-60974126D01*
X286506680Y-61040793D01*
X287140013Y-61274126D02*
X287140013Y-60807460D01*
X287140013Y-60940793D02*
X287173346Y-60874126D01*
X287206680Y-60840793D01*
X287273346Y-60807460D01*
X287340013Y-60807460D01*
X37388493Y-99556693D02*
X37488493Y-99590026D01*
X37655160Y-99590026D01*
X37721826Y-99556693D01*
X37755160Y-99523360D01*
X37788493Y-99456693D01*
X37788493Y-99390026D01*
X37755160Y-99323360D01*
X37721826Y-99290026D01*
X37655160Y-99256693D01*
X37521826Y-99223360D01*
X37455160Y-99190026D01*
X37421826Y-99156693D01*
X37388493Y-99090026D01*
X37388493Y-99023360D01*
X37421826Y-98956693D01*
X37455160Y-98923360D01*
X37521826Y-98890026D01*
X37688493Y-98890026D01*
X37788493Y-98923360D01*
X38021826Y-98890026D02*
X38188493Y-99590026D01*
X38321826Y-99090026D01*
X38455160Y-99590026D01*
X38621826Y-98890026D01*
X38988493Y-99190026D02*
X38921826Y-99156693D01*
X38888493Y-99123360D01*
X38855160Y-99056693D01*
X38855160Y-99023360D01*
X38888493Y-98956693D01*
X38921826Y-98923360D01*
X38988493Y-98890026D01*
X39121826Y-98890026D01*
X39188493Y-98923360D01*
X39221826Y-98956693D01*
X39255160Y-99023360D01*
X39255160Y-99056693D01*
X39221826Y-99123360D01*
X39188493Y-99156693D01*
X39121826Y-99190026D01*
X38988493Y-99190026D01*
X38921826Y-99223360D01*
X38888493Y-99256693D01*
X38855160Y-99323360D01*
X38855160Y-99456693D01*
X38888493Y-99523360D01*
X38921826Y-99556693D01*
X38988493Y-99590026D01*
X39121826Y-99590026D01*
X39188493Y-99556693D01*
X39221826Y-99523360D01*
X39255160Y-99456693D01*
X39255160Y-99323360D01*
X39221826Y-99256693D01*
X39188493Y-99223360D01*
X39121826Y-99190026D01*
X39488493Y-98890026D02*
X39921826Y-98890026D01*
X39688493Y-99156693D01*
X39788493Y-99156693D01*
X39855160Y-99190026D01*
X39888493Y-99223360D01*
X39921826Y-99290026D01*
X39921826Y-99456693D01*
X39888493Y-99523360D01*
X39855160Y-99556693D01*
X39788493Y-99590026D01*
X39588493Y-99590026D01*
X39521826Y-99556693D01*
X39488493Y-99523360D01*
X34452880Y-97888866D02*
X34219546Y-97555533D01*
X34052880Y-97888866D02*
X34052880Y-97188866D01*
X34319546Y-97188866D01*
X34386213Y-97222200D01*
X34419546Y-97255533D01*
X34452880Y-97322200D01*
X34452880Y-97422200D01*
X34419546Y-97488866D01*
X34386213Y-97522200D01*
X34319546Y-97555533D01*
X34052880Y-97555533D01*
X34852880Y-97888866D02*
X34786213Y-97855533D01*
X34752880Y-97822200D01*
X34719546Y-97755533D01*
X34719546Y-97555533D01*
X34752880Y-97488866D01*
X34786213Y-97455533D01*
X34852880Y-97422200D01*
X34952880Y-97422200D01*
X35019546Y-97455533D01*
X35052880Y-97488866D01*
X35086213Y-97555533D01*
X35086213Y-97755533D01*
X35052880Y-97822200D01*
X35019546Y-97855533D01*
X34952880Y-97888866D01*
X34852880Y-97888866D01*
X35286213Y-97422200D02*
X35552880Y-97422200D01*
X35386213Y-97188866D02*
X35386213Y-97788866D01*
X35419546Y-97855533D01*
X35486213Y-97888866D01*
X35552880Y-97888866D01*
X36086213Y-97888866D02*
X36086213Y-97522200D01*
X36052880Y-97455533D01*
X35986213Y-97422200D01*
X35852880Y-97422200D01*
X35786213Y-97455533D01*
X36086213Y-97855533D02*
X36019546Y-97888866D01*
X35852880Y-97888866D01*
X35786213Y-97855533D01*
X35752880Y-97788866D01*
X35752880Y-97722200D01*
X35786213Y-97655533D01*
X35852880Y-97622200D01*
X36019546Y-97622200D01*
X36086213Y-97588866D01*
X36419546Y-97888866D02*
X36419546Y-97422200D01*
X36419546Y-97555533D02*
X36452880Y-97488866D01*
X36486213Y-97455533D01*
X36552880Y-97422200D01*
X36619546Y-97422200D01*
X36786213Y-97422200D02*
X36952880Y-97888866D01*
X37119546Y-97422200D02*
X36952880Y-97888866D01*
X36886213Y-98055533D01*
X36852880Y-98088866D01*
X36786213Y-98122200D01*
X37919546Y-97522200D02*
X38152880Y-97522200D01*
X38252880Y-97888866D02*
X37919546Y-97888866D01*
X37919546Y-97188866D01*
X38252880Y-97188866D01*
X38552880Y-97422200D02*
X38552880Y-97888866D01*
X38552880Y-97488866D02*
X38586213Y-97455533D01*
X38652880Y-97422200D01*
X38752880Y-97422200D01*
X38819546Y-97455533D01*
X38852880Y-97522200D01*
X38852880Y-97888866D01*
X39486213Y-97855533D02*
X39419546Y-97888866D01*
X39286213Y-97888866D01*
X39219546Y-97855533D01*
X39186213Y-97822200D01*
X39152880Y-97755533D01*
X39152880Y-97555533D01*
X39186213Y-97488866D01*
X39219546Y-97455533D01*
X39286213Y-97422200D01*
X39419546Y-97422200D01*
X39486213Y-97455533D01*
X39886213Y-97888866D02*
X39819546Y-97855533D01*
X39786213Y-97822200D01*
X39752880Y-97755533D01*
X39752880Y-97555533D01*
X39786213Y-97488866D01*
X39819546Y-97455533D01*
X39886213Y-97422200D01*
X39986213Y-97422200D01*
X40052880Y-97455533D01*
X40086213Y-97488866D01*
X40119546Y-97555533D01*
X40119546Y-97755533D01*
X40086213Y-97822200D01*
X40052880Y-97855533D01*
X39986213Y-97888866D01*
X39886213Y-97888866D01*
X40719546Y-97888866D02*
X40719546Y-97188866D01*
X40719546Y-97855533D02*
X40652880Y-97888866D01*
X40519546Y-97888866D01*
X40452880Y-97855533D01*
X40419546Y-97822200D01*
X40386213Y-97755533D01*
X40386213Y-97555533D01*
X40419546Y-97488866D01*
X40452880Y-97455533D01*
X40519546Y-97422200D01*
X40652880Y-97422200D01*
X40719546Y-97455533D01*
X41319546Y-97855533D02*
X41252880Y-97888866D01*
X41119546Y-97888866D01*
X41052880Y-97855533D01*
X41019546Y-97788866D01*
X41019546Y-97522200D01*
X41052880Y-97455533D01*
X41119546Y-97422200D01*
X41252880Y-97422200D01*
X41319546Y-97455533D01*
X41352880Y-97522200D01*
X41352880Y-97588866D01*
X41019546Y-97655533D01*
X41652880Y-97888866D02*
X41652880Y-97422200D01*
X41652880Y-97555533D02*
X41686213Y-97488866D01*
X41719546Y-97455533D01*
X41786213Y-97422200D01*
X41852880Y-97422200D01*
X57191864Y-109887248D02*
X56391864Y-109887248D01*
X56391864Y-109696772D01*
X56429960Y-109582486D01*
X56506150Y-109506296D01*
X56582340Y-109468200D01*
X56734721Y-109430105D01*
X56849007Y-109430105D01*
X57001388Y-109468200D01*
X57077579Y-109506296D01*
X57153769Y-109582486D01*
X57191864Y-109696772D01*
X57191864Y-109887248D01*
X56391864Y-109163439D02*
X56391864Y-108630105D01*
X57191864Y-108972962D01*
X56391864Y-108401534D02*
X56391864Y-107868200D01*
X57191864Y-108211058D01*
X271824604Y-69913760D02*
X271491271Y-69437570D01*
X271253176Y-69913760D02*
X271253176Y-68913760D01*
X271634128Y-68913760D01*
X271729366Y-68961380D01*
X271776985Y-69008999D01*
X271824604Y-69104237D01*
X271824604Y-69247094D01*
X271776985Y-69342332D01*
X271729366Y-69389951D01*
X271634128Y-69437570D01*
X271253176Y-69437570D01*
X272634128Y-69866141D02*
X272538890Y-69913760D01*
X272348414Y-69913760D01*
X272253176Y-69866141D01*
X272205557Y-69770903D01*
X272205557Y-69389951D01*
X272253176Y-69294713D01*
X272348414Y-69247094D01*
X272538890Y-69247094D01*
X272634128Y-69294713D01*
X272681747Y-69389951D01*
X272681747Y-69485189D01*
X272205557Y-69580427D01*
X273062700Y-69866141D02*
X273157938Y-69913760D01*
X273348414Y-69913760D01*
X273443652Y-69866141D01*
X273491271Y-69770903D01*
X273491271Y-69723284D01*
X273443652Y-69628046D01*
X273348414Y-69580427D01*
X273205557Y-69580427D01*
X273110319Y-69532808D01*
X273062700Y-69437570D01*
X273062700Y-69389951D01*
X273110319Y-69294713D01*
X273205557Y-69247094D01*
X273348414Y-69247094D01*
X273443652Y-69294713D01*
X274300795Y-69866141D02*
X274205557Y-69913760D01*
X274015080Y-69913760D01*
X273919842Y-69866141D01*
X273872223Y-69770903D01*
X273872223Y-69389951D01*
X273919842Y-69294713D01*
X274015080Y-69247094D01*
X274205557Y-69247094D01*
X274300795Y-69294713D01*
X274348414Y-69389951D01*
X274348414Y-69485189D01*
X273872223Y-69580427D01*
X274634128Y-69247094D02*
X275015080Y-69247094D01*
X274776985Y-68913760D02*
X274776985Y-69770903D01*
X274824604Y-69866141D01*
X274919842Y-69913760D01*
X275015080Y-69913760D01*
X275357880Y-74360066D02*
X274881690Y-74693400D01*
X275357880Y-74931495D02*
X274357880Y-74931495D01*
X274357880Y-74550542D01*
X274405500Y-74455304D01*
X274453119Y-74407685D01*
X274548357Y-74360066D01*
X274691214Y-74360066D01*
X274786452Y-74407685D01*
X274834071Y-74455304D01*
X274881690Y-74550542D01*
X274881690Y-74931495D01*
X274357880Y-74026733D02*
X274357880Y-73407685D01*
X274738833Y-73741019D01*
X274738833Y-73598161D01*
X274786452Y-73502923D01*
X274834071Y-73455304D01*
X274929309Y-73407685D01*
X275167404Y-73407685D01*
X275262642Y-73455304D01*
X275310261Y-73502923D01*
X275357880Y-73598161D01*
X275357880Y-73883876D01*
X275310261Y-73979114D01*
X275262642Y-74026733D01*
X268001360Y-74250846D02*
X267525170Y-74584180D01*
X268001360Y-74822275D02*
X267001360Y-74822275D01*
X267001360Y-74441322D01*
X267048980Y-74346084D01*
X267096599Y-74298465D01*
X267191837Y-74250846D01*
X267334694Y-74250846D01*
X267429932Y-74298465D01*
X267477551Y-74346084D01*
X267525170Y-74441322D01*
X267525170Y-74822275D01*
X267096599Y-73869894D02*
X267048980Y-73822275D01*
X267001360Y-73727037D01*
X267001360Y-73488941D01*
X267048980Y-73393703D01*
X267096599Y-73346084D01*
X267191837Y-73298465D01*
X267287075Y-73298465D01*
X267429932Y-73346084D01*
X268001360Y-73917513D01*
X268001360Y-73298465D01*
X271668500Y-74192426D02*
X271192310Y-74525760D01*
X271668500Y-74763855D02*
X270668500Y-74763855D01*
X270668500Y-74382902D01*
X270716120Y-74287664D01*
X270763739Y-74240045D01*
X270858977Y-74192426D01*
X271001834Y-74192426D01*
X271097072Y-74240045D01*
X271144691Y-74287664D01*
X271192310Y-74382902D01*
X271192310Y-74763855D01*
X271668500Y-73240045D02*
X271668500Y-73811474D01*
X271668500Y-73525760D02*
X270668500Y-73525760D01*
X270811358Y-73620998D01*
X270906596Y-73716236D01*
X270954215Y-73811474D01*
D14*
X322621123Y-73632422D02*
X323649219Y-73632422D01*
X323770171Y-73559851D01*
X323830647Y-73487280D01*
X323891123Y-73342137D01*
X323891123Y-73051851D01*
X323830647Y-72906708D01*
X323770171Y-72834137D01*
X323649219Y-72761565D01*
X322621123Y-72761565D01*
X323891123Y-71237565D02*
X323891123Y-72108422D01*
X323891123Y-71672994D02*
X322621123Y-71672994D01*
X322802552Y-71818137D01*
X322923504Y-71963280D01*
X322983980Y-72108422D01*
D13*
X315297886Y-78527160D02*
X315231220Y-78493826D01*
X315131220Y-78493826D01*
X315031220Y-78527160D01*
X314964553Y-78593826D01*
X314931220Y-78660493D01*
X314897886Y-78793826D01*
X314897886Y-78893826D01*
X314931220Y-79027160D01*
X314964553Y-79093826D01*
X315031220Y-79160493D01*
X315131220Y-79193826D01*
X315197886Y-79193826D01*
X315297886Y-79160493D01*
X315331220Y-79127160D01*
X315331220Y-78893826D01*
X315197886Y-78893826D01*
X315631220Y-79193826D02*
X315631220Y-78493826D01*
X316031220Y-79193826D01*
X316031220Y-78493826D01*
X316364553Y-79193826D02*
X316364553Y-78493826D01*
X316531220Y-78493826D01*
X316631220Y-78527160D01*
X316697886Y-78593826D01*
X316731220Y-78660493D01*
X316764553Y-78793826D01*
X316764553Y-78893826D01*
X316731220Y-79027160D01*
X316697886Y-79093826D01*
X316631220Y-79160493D01*
X316531220Y-79193826D01*
X316364553Y-79193826D01*
X315723286Y-66441526D02*
X315389953Y-66441526D01*
X315356620Y-66774860D01*
X315389953Y-66741526D01*
X315456620Y-66708193D01*
X315623286Y-66708193D01*
X315689953Y-66741526D01*
X315723286Y-66774860D01*
X315756620Y-66841526D01*
X315756620Y-67008193D01*
X315723286Y-67074860D01*
X315689953Y-67108193D01*
X315623286Y-67141526D01*
X315456620Y-67141526D01*
X315389953Y-67108193D01*
X315356620Y-67074860D01*
X315956620Y-66441526D02*
X316189953Y-67141526D01*
X316423286Y-66441526D01*
X312907886Y-79193826D02*
X312674553Y-78860493D01*
X312507886Y-79193826D02*
X312507886Y-78493826D01*
X312774553Y-78493826D01*
X312841220Y-78527160D01*
X312874553Y-78560493D01*
X312907886Y-78627160D01*
X312907886Y-78727160D01*
X312874553Y-78793826D01*
X312841220Y-78827160D01*
X312774553Y-78860493D01*
X312507886Y-78860493D01*
X313174553Y-79160493D02*
X313274553Y-79193826D01*
X313441220Y-79193826D01*
X313507886Y-79160493D01*
X313541220Y-79127160D01*
X313574553Y-79060493D01*
X313574553Y-78993826D01*
X313541220Y-78927160D01*
X313507886Y-78893826D01*
X313441220Y-78860493D01*
X313307886Y-78827160D01*
X313241220Y-78793826D01*
X313207886Y-78760493D01*
X313174553Y-78693826D01*
X313174553Y-78627160D01*
X313207886Y-78560493D01*
X313241220Y-78527160D01*
X313307886Y-78493826D01*
X313474553Y-78493826D01*
X313574553Y-78527160D01*
X313774553Y-78493826D02*
X314174553Y-78493826D01*
X313974553Y-79193826D02*
X313974553Y-78493826D01*
X310235666Y-66385960D02*
X310169000Y-66352626D01*
X310069000Y-66352626D01*
X309969000Y-66385960D01*
X309902333Y-66452626D01*
X309869000Y-66519293D01*
X309835666Y-66652626D01*
X309835666Y-66752626D01*
X309869000Y-66885960D01*
X309902333Y-66952626D01*
X309969000Y-67019293D01*
X310069000Y-67052626D01*
X310135666Y-67052626D01*
X310235666Y-67019293D01*
X310269000Y-66985960D01*
X310269000Y-66752626D01*
X310135666Y-66752626D01*
X310569000Y-67052626D02*
X310569000Y-66352626D01*
X310969000Y-67052626D01*
X310969000Y-66352626D01*
X311302333Y-67052626D02*
X311302333Y-66352626D01*
X311469000Y-66352626D01*
X311569000Y-66385960D01*
X311635666Y-66452626D01*
X311669000Y-66519293D01*
X311702333Y-66652626D01*
X311702333Y-66752626D01*
X311669000Y-66885960D01*
X311635666Y-66952626D01*
X311569000Y-67019293D01*
X311469000Y-67052626D01*
X311302333Y-67052626D01*
X307466613Y-66352626D02*
X307699946Y-67052626D01*
X307933280Y-66352626D01*
X308166613Y-67052626D02*
X308166613Y-66585960D01*
X308166613Y-66352626D02*
X308133280Y-66385960D01*
X308166613Y-66419293D01*
X308199946Y-66385960D01*
X308166613Y-66352626D01*
X308166613Y-66419293D01*
X308499946Y-66585960D02*
X308499946Y-67052626D01*
X308499946Y-66652626D02*
X308533280Y-66619293D01*
X308599946Y-66585960D01*
X308699946Y-66585960D01*
X308766613Y-66619293D01*
X308799946Y-66685960D01*
X308799946Y-67052626D01*
X313001866Y-67024686D02*
X312768533Y-66691353D01*
X312601866Y-67024686D02*
X312601866Y-66324686D01*
X312868533Y-66324686D01*
X312935200Y-66358020D01*
X312968533Y-66391353D01*
X313001866Y-66458020D01*
X313001866Y-66558020D01*
X312968533Y-66624686D01*
X312935200Y-66658020D01*
X312868533Y-66691353D01*
X312601866Y-66691353D01*
X313268533Y-66991353D02*
X313368533Y-67024686D01*
X313535200Y-67024686D01*
X313601866Y-66991353D01*
X313635200Y-66958020D01*
X313668533Y-66891353D01*
X313668533Y-66824686D01*
X313635200Y-66758020D01*
X313601866Y-66724686D01*
X313535200Y-66691353D01*
X313401866Y-66658020D01*
X313335200Y-66624686D01*
X313301866Y-66591353D01*
X313268533Y-66524686D01*
X313268533Y-66458020D01*
X313301866Y-66391353D01*
X313335200Y-66358020D01*
X313401866Y-66324686D01*
X313568533Y-66324686D01*
X313668533Y-66358020D01*
X313868533Y-66324686D02*
X314268533Y-66324686D01*
X314068533Y-67024686D02*
X314068533Y-66324686D01*
X340372173Y-66329766D02*
X340805506Y-66329766D01*
X340572173Y-66596433D01*
X340672173Y-66596433D01*
X340738840Y-66629766D01*
X340772173Y-66663100D01*
X340805506Y-66729766D01*
X340805506Y-66896433D01*
X340772173Y-66963100D01*
X340738840Y-66996433D01*
X340672173Y-67029766D01*
X340472173Y-67029766D01*
X340405506Y-66996433D01*
X340372173Y-66963100D01*
X341005506Y-66329766D02*
X341238840Y-67029766D01*
X341472173Y-66329766D01*
X341638840Y-66329766D02*
X342072173Y-66329766D01*
X341838840Y-66596433D01*
X341938840Y-66596433D01*
X342005506Y-66629766D01*
X342038840Y-66663100D01*
X342072173Y-66729766D01*
X342072173Y-66896433D01*
X342038840Y-66963100D01*
X342005506Y-66996433D01*
X341938840Y-67029766D01*
X341738840Y-67029766D01*
X341672173Y-66996433D01*
X341638840Y-66963100D01*
D11*
X176515032Y-173488914D02*
X177181698Y-173488914D01*
X176753127Y-174488914D01*
X177562651Y-173488914D02*
X177562651Y-174298438D01*
X177610270Y-174393676D01*
X177657889Y-174441295D01*
X177753127Y-174488914D01*
X177943603Y-174488914D01*
X178038841Y-174441295D01*
X178086460Y-174393676D01*
X178134079Y-174298438D01*
X178134079Y-173488914D01*
X183258390Y-173603834D02*
X183067914Y-173603834D01*
X182972676Y-173651454D01*
X182925057Y-173699073D01*
X182829819Y-173841930D01*
X182782200Y-174032406D01*
X182782200Y-174413358D01*
X182829819Y-174508596D01*
X182877438Y-174556215D01*
X182972676Y-174603834D01*
X183163152Y-174603834D01*
X183258390Y-174556215D01*
X183306009Y-174508596D01*
X183353628Y-174413358D01*
X183353628Y-174175263D01*
X183306009Y-174080025D01*
X183258390Y-174032406D01*
X183163152Y-173984787D01*
X182972676Y-173984787D01*
X182877438Y-174032406D01*
X182829819Y-174080025D01*
X182782200Y-174175263D01*
X183782200Y-174508596D02*
X183829819Y-174556215D01*
X183782200Y-174603834D01*
X183734580Y-174556215D01*
X183782200Y-174508596D01*
X183782200Y-174603834D01*
X184210771Y-173699073D02*
X184258390Y-173651454D01*
X184353628Y-173603834D01*
X184591723Y-173603834D01*
X184686961Y-173651454D01*
X184734580Y-173699073D01*
X184782200Y-173794311D01*
X184782200Y-173889549D01*
X184734580Y-174032406D01*
X184163152Y-174603834D01*
X184782200Y-174603834D01*
X185686961Y-173603834D02*
X185210771Y-173603834D01*
X185163152Y-174080025D01*
X185210771Y-174032406D01*
X185306009Y-173984787D01*
X185544104Y-173984787D01*
X185639342Y-174032406D01*
X185686961Y-174080025D01*
X185734580Y-174175263D01*
X185734580Y-174413358D01*
X185686961Y-174508596D01*
X185639342Y-174556215D01*
X185544104Y-174603834D01*
X185306009Y-174603834D01*
X185210771Y-174556215D01*
X185163152Y-174508596D01*
X186163152Y-173603834D02*
X186163152Y-174413358D01*
X186210771Y-174508596D01*
X186258390Y-174556215D01*
X186353628Y-174603834D01*
X186544104Y-174603834D01*
X186639342Y-174556215D01*
X186686961Y-174508596D01*
X186734580Y-174413358D01*
X186734580Y-173603834D01*
D13*
X53045645Y-145422880D02*
X52712312Y-144946690D01*
X52474217Y-145422880D02*
X52474217Y-144422880D01*
X52855169Y-144422880D01*
X52950407Y-144470500D01*
X52998026Y-144518119D01*
X53045645Y-144613357D01*
X53045645Y-144756214D01*
X52998026Y-144851452D01*
X52950407Y-144899071D01*
X52855169Y-144946690D01*
X52474217Y-144946690D01*
X53236121Y-145518119D02*
X53998026Y-145518119D01*
X54664693Y-145375261D02*
X54569455Y-145422880D01*
X54378979Y-145422880D01*
X54283740Y-145375261D01*
X54236121Y-145327642D01*
X54188502Y-145232404D01*
X54188502Y-144946690D01*
X54236121Y-144851452D01*
X54283740Y-144803833D01*
X54378979Y-144756214D01*
X54569455Y-144756214D01*
X54664693Y-144803833D01*
X55521836Y-145422880D02*
X55521836Y-144899071D01*
X55474217Y-144803833D01*
X55378979Y-144756214D01*
X55188502Y-144756214D01*
X55093264Y-144803833D01*
X55521836Y-145375261D02*
X55426598Y-145422880D01*
X55188502Y-145422880D01*
X55093264Y-145375261D01*
X55045645Y-145280023D01*
X55045645Y-145184785D01*
X55093264Y-145089547D01*
X55188502Y-145041928D01*
X55426598Y-145041928D01*
X55521836Y-144994309D01*
X55998026Y-144756214D02*
X55998026Y-145756214D01*
X55998026Y-144803833D02*
X56093264Y-144756214D01*
X56283740Y-144756214D01*
X56378979Y-144803833D01*
X56426598Y-144851452D01*
X56474217Y-144946690D01*
X56474217Y-145232404D01*
X56426598Y-145327642D01*
X56378979Y-145375261D01*
X56283740Y-145422880D01*
X56093264Y-145422880D01*
X55998026Y-145375261D01*
X56855169Y-145375261D02*
X56950407Y-145422880D01*
X57140883Y-145422880D01*
X57236121Y-145375261D01*
X57283740Y-145280023D01*
X57283740Y-145232404D01*
X57236121Y-145137166D01*
X57140883Y-145089547D01*
X56998026Y-145089547D01*
X56902788Y-145041928D01*
X56855169Y-144946690D01*
X56855169Y-144899071D01*
X56902788Y-144803833D01*
X56998026Y-144756214D01*
X57140883Y-144756214D01*
X57236121Y-144803833D01*
X58236121Y-145422880D02*
X57664693Y-145422880D01*
X57950407Y-145422880D02*
X57950407Y-144422880D01*
X57855169Y-144565738D01*
X57759931Y-144660976D01*
X57664693Y-144708595D01*
X39800224Y-76423388D02*
X39000224Y-76423388D01*
X39000224Y-76232912D01*
X39038320Y-76118626D01*
X39114510Y-76042436D01*
X39190700Y-76004340D01*
X39343081Y-75966245D01*
X39457367Y-75966245D01*
X39609748Y-76004340D01*
X39685939Y-76042436D01*
X39762129Y-76118626D01*
X39800224Y-76232912D01*
X39800224Y-76423388D01*
X39000224Y-75699579D02*
X39000224Y-75166245D01*
X39800224Y-75509102D01*
X39000224Y-74518626D02*
X39000224Y-74671007D01*
X39038320Y-74747198D01*
X39076415Y-74785293D01*
X39190700Y-74861483D01*
X39343081Y-74899579D01*
X39647843Y-74899579D01*
X39724034Y-74861483D01*
X39762129Y-74823388D01*
X39800224Y-74747198D01*
X39800224Y-74594817D01*
X39762129Y-74518626D01*
X39724034Y-74480531D01*
X39647843Y-74442436D01*
X39457367Y-74442436D01*
X39381177Y-74480531D01*
X39343081Y-74518626D01*
X39304986Y-74594817D01*
X39304986Y-74747198D01*
X39343081Y-74823388D01*
X39381177Y-74861483D01*
X39457367Y-74899579D01*
X49365864Y-81381468D02*
X48565864Y-81381468D01*
X48565864Y-81190992D01*
X48603960Y-81076706D01*
X48680150Y-81000516D01*
X48756340Y-80962420D01*
X48908721Y-80924325D01*
X49023007Y-80924325D01*
X49175388Y-80962420D01*
X49251579Y-81000516D01*
X49327769Y-81076706D01*
X49365864Y-81190992D01*
X49365864Y-81381468D01*
X48565864Y-80657659D02*
X48565864Y-80124325D01*
X49365864Y-80467182D01*
X48565864Y-79438611D02*
X48565864Y-79819563D01*
X48946817Y-79857659D01*
X48908721Y-79819563D01*
X48870626Y-79743373D01*
X48870626Y-79552897D01*
X48908721Y-79476706D01*
X48946817Y-79438611D01*
X49023007Y-79400516D01*
X49213483Y-79400516D01*
X49289674Y-79438611D01*
X49327769Y-79476706D01*
X49365864Y-79552897D01*
X49365864Y-79743373D01*
X49327769Y-79819563D01*
X49289674Y-79857659D01*
X43026024Y-78094708D02*
X42226024Y-78094708D01*
X42226024Y-77904232D01*
X42264120Y-77789946D01*
X42340310Y-77713756D01*
X42416500Y-77675660D01*
X42568881Y-77637565D01*
X42683167Y-77637565D01*
X42835548Y-77675660D01*
X42911739Y-77713756D01*
X42987929Y-77789946D01*
X43026024Y-77904232D01*
X43026024Y-78094708D01*
X42226024Y-77370899D02*
X42226024Y-76837565D01*
X43026024Y-77180422D01*
X42492691Y-76189946D02*
X43026024Y-76189946D01*
X42187929Y-76380422D02*
X42759358Y-76570899D01*
X42759358Y-76075660D01*
X46226424Y-79766028D02*
X45426424Y-79766028D01*
X45426424Y-79575552D01*
X45464520Y-79461266D01*
X45540710Y-79385076D01*
X45616900Y-79346980D01*
X45769281Y-79308885D01*
X45883567Y-79308885D01*
X46035948Y-79346980D01*
X46112139Y-79385076D01*
X46188329Y-79461266D01*
X46226424Y-79575552D01*
X46226424Y-79766028D01*
X45426424Y-79042219D02*
X45426424Y-78508885D01*
X46226424Y-78851742D01*
X45426424Y-78280314D02*
X45426424Y-77785076D01*
X45731186Y-78051742D01*
X45731186Y-77937457D01*
X45769281Y-77861266D01*
X45807377Y-77823171D01*
X45883567Y-77785076D01*
X46074043Y-77785076D01*
X46150234Y-77823171D01*
X46188329Y-77861266D01*
X46226424Y-77937457D01*
X46226424Y-78166028D01*
X46188329Y-78242219D01*
X46150234Y-78280314D01*
X97040654Y-156705828D02*
X96240654Y-156705828D01*
X96240654Y-156515352D01*
X96278750Y-156401066D01*
X96354940Y-156324876D01*
X96431130Y-156286780D01*
X96583511Y-156248685D01*
X96697797Y-156248685D01*
X96850178Y-156286780D01*
X96926369Y-156324876D01*
X97002559Y-156401066D01*
X97040654Y-156515352D01*
X97040654Y-156705828D01*
X96240654Y-155982019D02*
X96240654Y-155448685D01*
X97040654Y-155791542D01*
X97040654Y-154724876D02*
X97040654Y-155182019D01*
X97040654Y-154953447D02*
X96240654Y-154953447D01*
X96354940Y-155029638D01*
X96431130Y-155105828D01*
X96469226Y-155182019D01*
X52462188Y-76066088D02*
X51662188Y-76066088D01*
X51662188Y-75875612D01*
X51700284Y-75761326D01*
X51776474Y-75685135D01*
X51852664Y-75647040D01*
X52005045Y-75608945D01*
X52119331Y-75608945D01*
X52271712Y-75647040D01*
X52347903Y-75685135D01*
X52424093Y-75761326D01*
X52462188Y-75875612D01*
X52462188Y-76066088D01*
X52462188Y-74847040D02*
X52462188Y-75304183D01*
X52462188Y-75075612D02*
X51662188Y-75075612D01*
X51776474Y-75151802D01*
X51852664Y-75227992D01*
X51890760Y-75304183D01*
X61970577Y-81407627D02*
X61170577Y-81407627D01*
X61170577Y-81217151D01*
X61208673Y-81102865D01*
X61284863Y-81026675D01*
X61361053Y-80988579D01*
X61513434Y-80950484D01*
X61627720Y-80950484D01*
X61780101Y-80988579D01*
X61856292Y-81026675D01*
X61932482Y-81102865D01*
X61970577Y-81217151D01*
X61970577Y-81407627D01*
X61437244Y-80264770D02*
X61970577Y-80264770D01*
X61132482Y-80455246D02*
X61703911Y-80645722D01*
X61703911Y-80150484D01*
X61170577Y-79464770D02*
X61170577Y-79845722D01*
X61551530Y-79883818D01*
X61513434Y-79845722D01*
X61475339Y-79769532D01*
X61475339Y-79579056D01*
X61513434Y-79502865D01*
X61551530Y-79464770D01*
X61627720Y-79426675D01*
X61818196Y-79426675D01*
X61894387Y-79464770D01*
X61932482Y-79502865D01*
X61970577Y-79579056D01*
X61970577Y-79769532D01*
X61932482Y-79845722D01*
X61894387Y-79883818D01*
X74648429Y-81026675D02*
X73848429Y-81026675D01*
X73848429Y-80836199D01*
X73886525Y-80721913D01*
X73962715Y-80645722D01*
X74038905Y-80607627D01*
X74191286Y-80569532D01*
X74305572Y-80569532D01*
X74457953Y-80607627D01*
X74534144Y-80645722D01*
X74610334Y-80721913D01*
X74648429Y-80836199D01*
X74648429Y-81026675D01*
X73924620Y-80264770D02*
X73886525Y-80226675D01*
X73848429Y-80150484D01*
X73848429Y-79960008D01*
X73886525Y-79883818D01*
X73924620Y-79845722D01*
X74000810Y-79807627D01*
X74077001Y-79807627D01*
X74191286Y-79845722D01*
X74648429Y-80302865D01*
X74648429Y-79807627D01*
X77817892Y-76066088D02*
X77017892Y-76066088D01*
X77017892Y-75875612D01*
X77055988Y-75761326D01*
X77132178Y-75685135D01*
X77208368Y-75647040D01*
X77360749Y-75608945D01*
X77475035Y-75608945D01*
X77627416Y-75647040D01*
X77703607Y-75685135D01*
X77779797Y-75761326D01*
X77817892Y-75875612D01*
X77817892Y-76066088D01*
X77017892Y-75342278D02*
X77017892Y-74847040D01*
X77322654Y-75113707D01*
X77322654Y-74999421D01*
X77360749Y-74923231D01*
X77398845Y-74885135D01*
X77475035Y-74847040D01*
X77665511Y-74847040D01*
X77741702Y-74885135D01*
X77779797Y-74923231D01*
X77817892Y-74999421D01*
X77817892Y-75227992D01*
X77779797Y-75304183D01*
X77741702Y-75342278D01*
X90495744Y-76066088D02*
X89695744Y-76066088D01*
X89695744Y-75875612D01*
X89733840Y-75761326D01*
X89810030Y-75685135D01*
X89886220Y-75647040D01*
X90038601Y-75608945D01*
X90152887Y-75608945D01*
X90305268Y-75647040D01*
X90381459Y-75685135D01*
X90457649Y-75761326D01*
X90495744Y-75875612D01*
X90495744Y-76066088D01*
X89962411Y-74923231D02*
X90495744Y-74923231D01*
X89657649Y-75113707D02*
X90229078Y-75304183D01*
X90229078Y-74808945D01*
X103173596Y-76066088D02*
X102373596Y-76066088D01*
X102373596Y-75875612D01*
X102411692Y-75761326D01*
X102487882Y-75685135D01*
X102564072Y-75647040D01*
X102716453Y-75608945D01*
X102830739Y-75608945D01*
X102983120Y-75647040D01*
X103059311Y-75685135D01*
X103135501Y-75761326D01*
X103173596Y-75875612D01*
X103173596Y-76066088D01*
X102373596Y-74885135D02*
X102373596Y-75266088D01*
X102754549Y-75304183D01*
X102716453Y-75266088D01*
X102678358Y-75189897D01*
X102678358Y-74999421D01*
X102716453Y-74923231D01*
X102754549Y-74885135D01*
X102830739Y-74847040D01*
X103021215Y-74847040D01*
X103097406Y-74885135D01*
X103135501Y-74923231D01*
X103173596Y-74999421D01*
X103173596Y-75189897D01*
X103135501Y-75266088D01*
X103097406Y-75304183D01*
X115851448Y-76066088D02*
X115051448Y-76066088D01*
X115051448Y-75875612D01*
X115089544Y-75761326D01*
X115165734Y-75685135D01*
X115241924Y-75647040D01*
X115394305Y-75608945D01*
X115508591Y-75608945D01*
X115660972Y-75647040D01*
X115737163Y-75685135D01*
X115813353Y-75761326D01*
X115851448Y-75875612D01*
X115851448Y-76066088D01*
X115051448Y-74923231D02*
X115051448Y-75075612D01*
X115089544Y-75151802D01*
X115127639Y-75189897D01*
X115241924Y-75266088D01*
X115394305Y-75304183D01*
X115699067Y-75304183D01*
X115775258Y-75266088D01*
X115813353Y-75227992D01*
X115851448Y-75151802D01*
X115851448Y-74999421D01*
X115813353Y-74923231D01*
X115775258Y-74885135D01*
X115699067Y-74847040D01*
X115508591Y-74847040D01*
X115432401Y-74885135D01*
X115394305Y-74923231D01*
X115356210Y-74999421D01*
X115356210Y-75151802D01*
X115394305Y-75227992D01*
X115432401Y-75266088D01*
X115508591Y-75304183D01*
X128529300Y-76066088D02*
X127729300Y-76066088D01*
X127729300Y-75875612D01*
X127767396Y-75761326D01*
X127843586Y-75685135D01*
X127919776Y-75647040D01*
X128072157Y-75608945D01*
X128186443Y-75608945D01*
X128338824Y-75647040D01*
X128415015Y-75685135D01*
X128491205Y-75761326D01*
X128529300Y-75875612D01*
X128529300Y-76066088D01*
X127729300Y-75342278D02*
X127729300Y-74808945D01*
X128529300Y-75151802D01*
X141207152Y-76066088D02*
X140407152Y-76066088D01*
X140407152Y-75875612D01*
X140445248Y-75761326D01*
X140521438Y-75685135D01*
X140597628Y-75647040D01*
X140750009Y-75608945D01*
X140864295Y-75608945D01*
X141016676Y-75647040D01*
X141092867Y-75685135D01*
X141169057Y-75761326D01*
X141207152Y-75875612D01*
X141207152Y-76066088D01*
X140750009Y-75151802D02*
X140711914Y-75227992D01*
X140673819Y-75266088D01*
X140597628Y-75304183D01*
X140559533Y-75304183D01*
X140483343Y-75266088D01*
X140445248Y-75227992D01*
X140407152Y-75151802D01*
X140407152Y-74999421D01*
X140445248Y-74923231D01*
X140483343Y-74885135D01*
X140559533Y-74847040D01*
X140597628Y-74847040D01*
X140673819Y-74885135D01*
X140711914Y-74923231D01*
X140750009Y-74999421D01*
X140750009Y-75151802D01*
X140788105Y-75227992D01*
X140826200Y-75266088D01*
X140902390Y-75304183D01*
X141054771Y-75304183D01*
X141130962Y-75266088D01*
X141169057Y-75227992D01*
X141207152Y-75151802D01*
X141207152Y-74999421D01*
X141169057Y-74923231D01*
X141130962Y-74885135D01*
X141054771Y-74847040D01*
X140902390Y-74847040D01*
X140826200Y-74885135D01*
X140788105Y-74923231D01*
X140750009Y-74999421D01*
X153885004Y-76066088D02*
X153085004Y-76066088D01*
X153085004Y-75875612D01*
X153123100Y-75761326D01*
X153199290Y-75685135D01*
X153275480Y-75647040D01*
X153427861Y-75608945D01*
X153542147Y-75608945D01*
X153694528Y-75647040D01*
X153770719Y-75685135D01*
X153846909Y-75761326D01*
X153885004Y-75875612D01*
X153885004Y-76066088D01*
X153885004Y-75227992D02*
X153885004Y-75075612D01*
X153846909Y-74999421D01*
X153808814Y-74961326D01*
X153694528Y-74885135D01*
X153542147Y-74847040D01*
X153237385Y-74847040D01*
X153161195Y-74885135D01*
X153123100Y-74923231D01*
X153085004Y-74999421D01*
X153085004Y-75151802D01*
X153123100Y-75227992D01*
X153161195Y-75266088D01*
X153237385Y-75304183D01*
X153427861Y-75304183D01*
X153504052Y-75266088D01*
X153542147Y-75227992D01*
X153580242Y-75151802D01*
X153580242Y-74999421D01*
X153542147Y-74923231D01*
X153504052Y-74885135D01*
X153427861Y-74847040D01*
X166562856Y-76447040D02*
X165762856Y-76447040D01*
X165762856Y-76256564D01*
X165800952Y-76142278D01*
X165877142Y-76066088D01*
X165953332Y-76027992D01*
X166105713Y-75989897D01*
X166219999Y-75989897D01*
X166372380Y-76027992D01*
X166448571Y-76066088D01*
X166524761Y-76142278D01*
X166562856Y-76256564D01*
X166562856Y-76447040D01*
X166562856Y-75227992D02*
X166562856Y-75685135D01*
X166562856Y-75456564D02*
X165762856Y-75456564D01*
X165877142Y-75532754D01*
X165953332Y-75608945D01*
X165991428Y-75685135D01*
X165762856Y-74732754D02*
X165762856Y-74656564D01*
X165800952Y-74580373D01*
X165839047Y-74542278D01*
X165915237Y-74504183D01*
X166067618Y-74466088D01*
X166258094Y-74466088D01*
X166410475Y-74504183D01*
X166486666Y-74542278D01*
X166524761Y-74580373D01*
X166562856Y-74656564D01*
X166562856Y-74732754D01*
X166524761Y-74808945D01*
X166486666Y-74847040D01*
X166410475Y-74885135D01*
X166258094Y-74923231D01*
X166067618Y-74923231D01*
X165915237Y-74885135D01*
X165839047Y-74847040D01*
X165800952Y-74808945D01*
X165762856Y-74732754D01*
X179240708Y-76447040D02*
X178440708Y-76447040D01*
X178440708Y-76256564D01*
X178478804Y-76142278D01*
X178554994Y-76066088D01*
X178631184Y-76027992D01*
X178783565Y-75989897D01*
X178897851Y-75989897D01*
X179050232Y-76027992D01*
X179126423Y-76066088D01*
X179202613Y-76142278D01*
X179240708Y-76256564D01*
X179240708Y-76447040D01*
X179240708Y-75227992D02*
X179240708Y-75685135D01*
X179240708Y-75456564D02*
X178440708Y-75456564D01*
X178554994Y-75532754D01*
X178631184Y-75608945D01*
X178669280Y-75685135D01*
X179240708Y-74466088D02*
X179240708Y-74923231D01*
X179240708Y-74694659D02*
X178440708Y-74694659D01*
X178554994Y-74770850D01*
X178631184Y-74847040D01*
X178669280Y-74923231D01*
X191918560Y-76447040D02*
X191118560Y-76447040D01*
X191118560Y-76256564D01*
X191156656Y-76142278D01*
X191232846Y-76066088D01*
X191309036Y-76027992D01*
X191461417Y-75989897D01*
X191575703Y-75989897D01*
X191728084Y-76027992D01*
X191804275Y-76066088D01*
X191880465Y-76142278D01*
X191918560Y-76256564D01*
X191918560Y-76447040D01*
X191918560Y-75227992D02*
X191918560Y-75685135D01*
X191918560Y-75456564D02*
X191118560Y-75456564D01*
X191232846Y-75532754D01*
X191309036Y-75608945D01*
X191347132Y-75685135D01*
X191194751Y-74923231D02*
X191156656Y-74885135D01*
X191118560Y-74808945D01*
X191118560Y-74618469D01*
X191156656Y-74542278D01*
X191194751Y-74504183D01*
X191270941Y-74466088D01*
X191347132Y-74466088D01*
X191461417Y-74504183D01*
X191918560Y-74961326D01*
X191918560Y-74466088D01*
X204596412Y-76447040D02*
X203796412Y-76447040D01*
X203796412Y-76256564D01*
X203834508Y-76142278D01*
X203910698Y-76066088D01*
X203986888Y-76027992D01*
X204139269Y-75989897D01*
X204253555Y-75989897D01*
X204405936Y-76027992D01*
X204482127Y-76066088D01*
X204558317Y-76142278D01*
X204596412Y-76256564D01*
X204596412Y-76447040D01*
X204596412Y-75227992D02*
X204596412Y-75685135D01*
X204596412Y-75456564D02*
X203796412Y-75456564D01*
X203910698Y-75532754D01*
X203986888Y-75608945D01*
X204024984Y-75685135D01*
X203796412Y-74961326D02*
X203796412Y-74466088D01*
X204101174Y-74732754D01*
X204101174Y-74618469D01*
X204139269Y-74542278D01*
X204177365Y-74504183D01*
X204253555Y-74466088D01*
X204444031Y-74466088D01*
X204520222Y-74504183D01*
X204558317Y-74542278D01*
X204596412Y-74618469D01*
X204596412Y-74847040D01*
X204558317Y-74923231D01*
X204520222Y-74961326D01*
X217204280Y-76447040D02*
X216404280Y-76447040D01*
X216404280Y-76256564D01*
X216442376Y-76142278D01*
X216518566Y-76066088D01*
X216594756Y-76027992D01*
X216747137Y-75989897D01*
X216861423Y-75989897D01*
X217013804Y-76027992D01*
X217089995Y-76066088D01*
X217166185Y-76142278D01*
X217204280Y-76256564D01*
X217204280Y-76447040D01*
X217204280Y-75227992D02*
X217204280Y-75685135D01*
X217204280Y-75456564D02*
X216404280Y-75456564D01*
X216518566Y-75532754D01*
X216594756Y-75608945D01*
X216632852Y-75685135D01*
X216670947Y-74542278D02*
X217204280Y-74542278D01*
X216366185Y-74732754D02*
X216937614Y-74923231D01*
X216937614Y-74427992D01*
X264403833Y-81407627D02*
X263603833Y-81407627D01*
X263603833Y-81217151D01*
X263641929Y-81102865D01*
X263718119Y-81026675D01*
X263794309Y-80988579D01*
X263946690Y-80950484D01*
X264060976Y-80950484D01*
X264213357Y-80988579D01*
X264289548Y-81026675D01*
X264365738Y-81102865D01*
X264403833Y-81217151D01*
X264403833Y-81407627D01*
X264403833Y-80188579D02*
X264403833Y-80645722D01*
X264403833Y-80417151D02*
X263603833Y-80417151D01*
X263718119Y-80493341D01*
X263794309Y-80569532D01*
X263832405Y-80645722D01*
X263603833Y-79464770D02*
X263603833Y-79845722D01*
X263984786Y-79883818D01*
X263946690Y-79845722D01*
X263908595Y-79769532D01*
X263908595Y-79579056D01*
X263946690Y-79502865D01*
X263984786Y-79464770D01*
X264060976Y-79426675D01*
X264251452Y-79426675D01*
X264327643Y-79464770D01*
X264365738Y-79502865D01*
X264403833Y-79579056D01*
X264403833Y-79769532D01*
X264365738Y-79845722D01*
X264327643Y-79883818D01*
X55631651Y-78100569D02*
X54831651Y-78100569D01*
X54831651Y-77910093D01*
X54869747Y-77795807D01*
X54945937Y-77719617D01*
X55022127Y-77681521D01*
X55174508Y-77643426D01*
X55288794Y-77643426D01*
X55441175Y-77681521D01*
X55517366Y-77719617D01*
X55593556Y-77795807D01*
X55631651Y-77910093D01*
X55631651Y-78100569D01*
X55631651Y-76881521D02*
X55631651Y-77338664D01*
X55631651Y-77110093D02*
X54831651Y-77110093D01*
X54945937Y-77186283D01*
X55022127Y-77262474D01*
X55060223Y-77338664D01*
X54831651Y-76195807D02*
X54831651Y-76348188D01*
X54869747Y-76424379D01*
X54907842Y-76462474D01*
X55022127Y-76538664D01*
X55174508Y-76576760D01*
X55479270Y-76576760D01*
X55555461Y-76538664D01*
X55593556Y-76500569D01*
X55631651Y-76424379D01*
X55631651Y-76271998D01*
X55593556Y-76195807D01*
X55555461Y-76157712D01*
X55479270Y-76119617D01*
X55288794Y-76119617D01*
X55212604Y-76157712D01*
X55174508Y-76195807D01*
X55136413Y-76271998D01*
X55136413Y-76424379D01*
X55174508Y-76500569D01*
X55212604Y-76538664D01*
X55288794Y-76576760D01*
X71478966Y-79754098D02*
X70678966Y-79754098D01*
X70678966Y-79563622D01*
X70717062Y-79449336D01*
X70793252Y-79373146D01*
X70869442Y-79335050D01*
X71021823Y-79296955D01*
X71136109Y-79296955D01*
X71288490Y-79335050D01*
X71364681Y-79373146D01*
X71440871Y-79449336D01*
X71478966Y-79563622D01*
X71478966Y-79754098D01*
X71478966Y-78535050D02*
X71478966Y-78992193D01*
X71478966Y-78763622D02*
X70678966Y-78763622D01*
X70793252Y-78839812D01*
X70869442Y-78916003D01*
X70907538Y-78992193D01*
X70678966Y-78268384D02*
X70678966Y-77735050D01*
X71478966Y-78077908D01*
X80987355Y-78100569D02*
X80187355Y-78100569D01*
X80187355Y-77910093D01*
X80225451Y-77795807D01*
X80301641Y-77719617D01*
X80377831Y-77681521D01*
X80530212Y-77643426D01*
X80644498Y-77643426D01*
X80796879Y-77681521D01*
X80873070Y-77719617D01*
X80949260Y-77795807D01*
X80987355Y-77910093D01*
X80987355Y-78100569D01*
X80987355Y-76881521D02*
X80987355Y-77338664D01*
X80987355Y-77110093D02*
X80187355Y-77110093D01*
X80301641Y-77186283D01*
X80377831Y-77262474D01*
X80415927Y-77338664D01*
X80530212Y-76424379D02*
X80492117Y-76500569D01*
X80454022Y-76538664D01*
X80377831Y-76576760D01*
X80339736Y-76576760D01*
X80263546Y-76538664D01*
X80225451Y-76500569D01*
X80187355Y-76424379D01*
X80187355Y-76271998D01*
X80225451Y-76195807D01*
X80263546Y-76157712D01*
X80339736Y-76119617D01*
X80377831Y-76119617D01*
X80454022Y-76157712D01*
X80492117Y-76195807D01*
X80530212Y-76271998D01*
X80530212Y-76424379D01*
X80568308Y-76500569D01*
X80606403Y-76538664D01*
X80682593Y-76576760D01*
X80834974Y-76576760D01*
X80911165Y-76538664D01*
X80949260Y-76500569D01*
X80987355Y-76424379D01*
X80987355Y-76271998D01*
X80949260Y-76195807D01*
X80911165Y-76157712D01*
X80834974Y-76119617D01*
X80682593Y-76119617D01*
X80606403Y-76157712D01*
X80568308Y-76195807D01*
X80530212Y-76271998D01*
X93665207Y-78100569D02*
X92865207Y-78100569D01*
X92865207Y-77910093D01*
X92903303Y-77795807D01*
X92979493Y-77719617D01*
X93055683Y-77681521D01*
X93208064Y-77643426D01*
X93322350Y-77643426D01*
X93474731Y-77681521D01*
X93550922Y-77719617D01*
X93627112Y-77795807D01*
X93665207Y-77910093D01*
X93665207Y-78100569D01*
X93665207Y-76881521D02*
X93665207Y-77338664D01*
X93665207Y-77110093D02*
X92865207Y-77110093D01*
X92979493Y-77186283D01*
X93055683Y-77262474D01*
X93093779Y-77338664D01*
X93665207Y-76500569D02*
X93665207Y-76348188D01*
X93627112Y-76271998D01*
X93589017Y-76233902D01*
X93474731Y-76157712D01*
X93322350Y-76119617D01*
X93017588Y-76119617D01*
X92941398Y-76157712D01*
X92903303Y-76195807D01*
X92865207Y-76271998D01*
X92865207Y-76424379D01*
X92903303Y-76500569D01*
X92941398Y-76538664D01*
X93017588Y-76576760D01*
X93208064Y-76576760D01*
X93284255Y-76538664D01*
X93322350Y-76500569D01*
X93360445Y-76424379D01*
X93360445Y-76271998D01*
X93322350Y-76195807D01*
X93284255Y-76157712D01*
X93208064Y-76119617D01*
X106343059Y-78100569D02*
X105543059Y-78100569D01*
X105543059Y-77910093D01*
X105581155Y-77795807D01*
X105657345Y-77719617D01*
X105733535Y-77681521D01*
X105885916Y-77643426D01*
X106000202Y-77643426D01*
X106152583Y-77681521D01*
X106228774Y-77719617D01*
X106304964Y-77795807D01*
X106343059Y-77910093D01*
X106343059Y-78100569D01*
X105619250Y-77338664D02*
X105581155Y-77300569D01*
X105543059Y-77224379D01*
X105543059Y-77033902D01*
X105581155Y-76957712D01*
X105619250Y-76919617D01*
X105695440Y-76881521D01*
X105771631Y-76881521D01*
X105885916Y-76919617D01*
X106343059Y-77376760D01*
X106343059Y-76881521D01*
X105543059Y-76386283D02*
X105543059Y-76310093D01*
X105581155Y-76233902D01*
X105619250Y-76195807D01*
X105695440Y-76157712D01*
X105847821Y-76119617D01*
X106038297Y-76119617D01*
X106190678Y-76157712D01*
X106266869Y-76195807D01*
X106304964Y-76233902D01*
X106343059Y-76310093D01*
X106343059Y-76386283D01*
X106304964Y-76462474D01*
X106266869Y-76500569D01*
X106190678Y-76538664D01*
X106038297Y-76576760D01*
X105847821Y-76576760D01*
X105695440Y-76538664D01*
X105619250Y-76500569D01*
X105581155Y-76462474D01*
X105543059Y-76386283D01*
X119020911Y-78100569D02*
X118220911Y-78100569D01*
X118220911Y-77910093D01*
X118259007Y-77795807D01*
X118335197Y-77719617D01*
X118411387Y-77681521D01*
X118563768Y-77643426D01*
X118678054Y-77643426D01*
X118830435Y-77681521D01*
X118906626Y-77719617D01*
X118982816Y-77795807D01*
X119020911Y-77910093D01*
X119020911Y-78100569D01*
X118297102Y-77338664D02*
X118259007Y-77300569D01*
X118220911Y-77224379D01*
X118220911Y-77033902D01*
X118259007Y-76957712D01*
X118297102Y-76919617D01*
X118373292Y-76881521D01*
X118449483Y-76881521D01*
X118563768Y-76919617D01*
X119020911Y-77376760D01*
X119020911Y-76881521D01*
X119020911Y-76119617D02*
X119020911Y-76576760D01*
X119020911Y-76348188D02*
X118220911Y-76348188D01*
X118335197Y-76424379D01*
X118411387Y-76500569D01*
X118449483Y-76576760D01*
X131698763Y-78100569D02*
X130898763Y-78100569D01*
X130898763Y-77910093D01*
X130936859Y-77795807D01*
X131013049Y-77719617D01*
X131089239Y-77681521D01*
X131241620Y-77643426D01*
X131355906Y-77643426D01*
X131508287Y-77681521D01*
X131584478Y-77719617D01*
X131660668Y-77795807D01*
X131698763Y-77910093D01*
X131698763Y-78100569D01*
X130974954Y-77338664D02*
X130936859Y-77300569D01*
X130898763Y-77224379D01*
X130898763Y-77033902D01*
X130936859Y-76957712D01*
X130974954Y-76919617D01*
X131051144Y-76881521D01*
X131127335Y-76881521D01*
X131241620Y-76919617D01*
X131698763Y-77376760D01*
X131698763Y-76881521D01*
X130974954Y-76576760D02*
X130936859Y-76538664D01*
X130898763Y-76462474D01*
X130898763Y-76271998D01*
X130936859Y-76195807D01*
X130974954Y-76157712D01*
X131051144Y-76119617D01*
X131127335Y-76119617D01*
X131241620Y-76157712D01*
X131698763Y-76614855D01*
X131698763Y-76119617D01*
X144376615Y-78100569D02*
X143576615Y-78100569D01*
X143576615Y-77910093D01*
X143614711Y-77795807D01*
X143690901Y-77719617D01*
X143767091Y-77681521D01*
X143919472Y-77643426D01*
X144033758Y-77643426D01*
X144186139Y-77681521D01*
X144262330Y-77719617D01*
X144338520Y-77795807D01*
X144376615Y-77910093D01*
X144376615Y-78100569D01*
X143652806Y-77338664D02*
X143614711Y-77300569D01*
X143576615Y-77224379D01*
X143576615Y-77033902D01*
X143614711Y-76957712D01*
X143652806Y-76919617D01*
X143728996Y-76881521D01*
X143805187Y-76881521D01*
X143919472Y-76919617D01*
X144376615Y-77376760D01*
X144376615Y-76881521D01*
X143576615Y-76614855D02*
X143576615Y-76119617D01*
X143881377Y-76386283D01*
X143881377Y-76271998D01*
X143919472Y-76195807D01*
X143957568Y-76157712D01*
X144033758Y-76119617D01*
X144224234Y-76119617D01*
X144300425Y-76157712D01*
X144338520Y-76195807D01*
X144376615Y-76271998D01*
X144376615Y-76500569D01*
X144338520Y-76576760D01*
X144300425Y-76614855D01*
X157054467Y-78100569D02*
X156254467Y-78100569D01*
X156254467Y-77910093D01*
X156292563Y-77795807D01*
X156368753Y-77719617D01*
X156444943Y-77681521D01*
X156597324Y-77643426D01*
X156711610Y-77643426D01*
X156863991Y-77681521D01*
X156940182Y-77719617D01*
X157016372Y-77795807D01*
X157054467Y-77910093D01*
X157054467Y-78100569D01*
X156330658Y-77338664D02*
X156292563Y-77300569D01*
X156254467Y-77224379D01*
X156254467Y-77033902D01*
X156292563Y-76957712D01*
X156330658Y-76919617D01*
X156406848Y-76881521D01*
X156483039Y-76881521D01*
X156597324Y-76919617D01*
X157054467Y-77376760D01*
X157054467Y-76881521D01*
X156521134Y-76195807D02*
X157054467Y-76195807D01*
X156216372Y-76386283D02*
X156787801Y-76576760D01*
X156787801Y-76081521D01*
X169732319Y-78100569D02*
X168932319Y-78100569D01*
X168932319Y-77910093D01*
X168970415Y-77795807D01*
X169046605Y-77719617D01*
X169122795Y-77681521D01*
X169275176Y-77643426D01*
X169389462Y-77643426D01*
X169541843Y-77681521D01*
X169618034Y-77719617D01*
X169694224Y-77795807D01*
X169732319Y-77910093D01*
X169732319Y-78100569D01*
X169008510Y-77338664D02*
X168970415Y-77300569D01*
X168932319Y-77224379D01*
X168932319Y-77033902D01*
X168970415Y-76957712D01*
X169008510Y-76919617D01*
X169084700Y-76881521D01*
X169160891Y-76881521D01*
X169275176Y-76919617D01*
X169732319Y-77376760D01*
X169732319Y-76881521D01*
X168932319Y-76157712D02*
X168932319Y-76538664D01*
X169313272Y-76576760D01*
X169275176Y-76538664D01*
X169237081Y-76462474D01*
X169237081Y-76271998D01*
X169275176Y-76195807D01*
X169313272Y-76157712D01*
X169389462Y-76119617D01*
X169579938Y-76119617D01*
X169656129Y-76157712D01*
X169694224Y-76195807D01*
X169732319Y-76271998D01*
X169732319Y-76462474D01*
X169694224Y-76538664D01*
X169656129Y-76576760D01*
X182410171Y-78100569D02*
X181610171Y-78100569D01*
X181610171Y-77910093D01*
X181648267Y-77795807D01*
X181724457Y-77719617D01*
X181800647Y-77681521D01*
X181953028Y-77643426D01*
X182067314Y-77643426D01*
X182219695Y-77681521D01*
X182295886Y-77719617D01*
X182372076Y-77795807D01*
X182410171Y-77910093D01*
X182410171Y-78100569D01*
X181686362Y-77338664D02*
X181648267Y-77300569D01*
X181610171Y-77224379D01*
X181610171Y-77033902D01*
X181648267Y-76957712D01*
X181686362Y-76919617D01*
X181762552Y-76881521D01*
X181838743Y-76881521D01*
X181953028Y-76919617D01*
X182410171Y-77376760D01*
X182410171Y-76881521D01*
X181610171Y-76195807D02*
X181610171Y-76348188D01*
X181648267Y-76424379D01*
X181686362Y-76462474D01*
X181800647Y-76538664D01*
X181953028Y-76576760D01*
X182257790Y-76576760D01*
X182333981Y-76538664D01*
X182372076Y-76500569D01*
X182410171Y-76424379D01*
X182410171Y-76271998D01*
X182372076Y-76195807D01*
X182333981Y-76157712D01*
X182257790Y-76119617D01*
X182067314Y-76119617D01*
X181991124Y-76157712D01*
X181953028Y-76195807D01*
X181914933Y-76271998D01*
X181914933Y-76424379D01*
X181953028Y-76500569D01*
X181991124Y-76538664D01*
X182067314Y-76576760D01*
X195088023Y-78100569D02*
X194288023Y-78100569D01*
X194288023Y-77910093D01*
X194326119Y-77795807D01*
X194402309Y-77719617D01*
X194478499Y-77681521D01*
X194630880Y-77643426D01*
X194745166Y-77643426D01*
X194897547Y-77681521D01*
X194973738Y-77719617D01*
X195049928Y-77795807D01*
X195088023Y-77910093D01*
X195088023Y-78100569D01*
X194364214Y-77338664D02*
X194326119Y-77300569D01*
X194288023Y-77224379D01*
X194288023Y-77033902D01*
X194326119Y-76957712D01*
X194364214Y-76919617D01*
X194440404Y-76881521D01*
X194516595Y-76881521D01*
X194630880Y-76919617D01*
X195088023Y-77376760D01*
X195088023Y-76881521D01*
X194288023Y-76614855D02*
X194288023Y-76081521D01*
X195088023Y-76424379D01*
X207748379Y-78100569D02*
X206948379Y-78100569D01*
X206948379Y-77910093D01*
X206986475Y-77795807D01*
X207062665Y-77719617D01*
X207138855Y-77681521D01*
X207291236Y-77643426D01*
X207405522Y-77643426D01*
X207557903Y-77681521D01*
X207634094Y-77719617D01*
X207710284Y-77795807D01*
X207748379Y-77910093D01*
X207748379Y-78100569D01*
X207024570Y-77338664D02*
X206986475Y-77300569D01*
X206948379Y-77224379D01*
X206948379Y-77033902D01*
X206986475Y-76957712D01*
X207024570Y-76919617D01*
X207100760Y-76881521D01*
X207176951Y-76881521D01*
X207291236Y-76919617D01*
X207748379Y-77376760D01*
X207748379Y-76881521D01*
X207291236Y-76424379D02*
X207253141Y-76500569D01*
X207215046Y-76538664D01*
X207138855Y-76576760D01*
X207100760Y-76576760D01*
X207024570Y-76538664D01*
X206986475Y-76500569D01*
X206948379Y-76424379D01*
X206948379Y-76271998D01*
X206986475Y-76195807D01*
X207024570Y-76157712D01*
X207100760Y-76119617D01*
X207138855Y-76119617D01*
X207215046Y-76157712D01*
X207253141Y-76195807D01*
X207291236Y-76271998D01*
X207291236Y-76424379D01*
X207329332Y-76500569D01*
X207367427Y-76538664D01*
X207443617Y-76576760D01*
X207595998Y-76576760D01*
X207672189Y-76538664D01*
X207710284Y-76500569D01*
X207748379Y-76424379D01*
X207748379Y-76271998D01*
X207710284Y-76195807D01*
X207672189Y-76157712D01*
X207595998Y-76119617D01*
X207443617Y-76119617D01*
X207367427Y-76157712D01*
X207329332Y-76195807D01*
X207291236Y-76271998D01*
X220355053Y-78100569D02*
X219555053Y-78100569D01*
X219555053Y-77910093D01*
X219593149Y-77795807D01*
X219669339Y-77719617D01*
X219745529Y-77681521D01*
X219897910Y-77643426D01*
X220012196Y-77643426D01*
X220164577Y-77681521D01*
X220240768Y-77719617D01*
X220316958Y-77795807D01*
X220355053Y-77910093D01*
X220355053Y-78100569D01*
X219631244Y-77338664D02*
X219593149Y-77300569D01*
X219555053Y-77224379D01*
X219555053Y-77033902D01*
X219593149Y-76957712D01*
X219631244Y-76919617D01*
X219707434Y-76881521D01*
X219783625Y-76881521D01*
X219897910Y-76919617D01*
X220355053Y-77376760D01*
X220355053Y-76881521D01*
X220355053Y-76500569D02*
X220355053Y-76348188D01*
X220316958Y-76271998D01*
X220278863Y-76233902D01*
X220164577Y-76157712D01*
X220012196Y-76119617D01*
X219707434Y-76119617D01*
X219631244Y-76157712D01*
X219593149Y-76195807D01*
X219555053Y-76271998D01*
X219555053Y-76424379D01*
X219593149Y-76500569D01*
X219631244Y-76538664D01*
X219707434Y-76576760D01*
X219897910Y-76576760D01*
X219974101Y-76538664D01*
X220012196Y-76500569D01*
X220050291Y-76424379D01*
X220050291Y-76271998D01*
X220012196Y-76195807D01*
X219974101Y-76157712D01*
X219897910Y-76119617D01*
X261315109Y-79754098D02*
X260515109Y-79754098D01*
X260515109Y-79563622D01*
X260553205Y-79449336D01*
X260629395Y-79373146D01*
X260705585Y-79335050D01*
X260857966Y-79296955D01*
X260972252Y-79296955D01*
X261124633Y-79335050D01*
X261200824Y-79373146D01*
X261277014Y-79449336D01*
X261315109Y-79563622D01*
X261315109Y-79754098D01*
X260515109Y-79030289D02*
X260515109Y-78535050D01*
X260819871Y-78801717D01*
X260819871Y-78687431D01*
X260857966Y-78611241D01*
X260896062Y-78573146D01*
X260972252Y-78535050D01*
X261162728Y-78535050D01*
X261238919Y-78573146D01*
X261277014Y-78611241D01*
X261315109Y-78687431D01*
X261315109Y-78916003D01*
X261277014Y-78992193D01*
X261238919Y-79030289D01*
X260515109Y-78039812D02*
X260515109Y-77963622D01*
X260553205Y-77887431D01*
X260591300Y-77849336D01*
X260667490Y-77811241D01*
X260819871Y-77773146D01*
X261010347Y-77773146D01*
X261162728Y-77811241D01*
X261238919Y-77849336D01*
X261277014Y-77887431D01*
X261315109Y-77963622D01*
X261315109Y-78039812D01*
X261277014Y-78116003D01*
X261238919Y-78154098D01*
X261162728Y-78192193D01*
X261010347Y-78230289D01*
X260819871Y-78230289D01*
X260667490Y-78192193D01*
X260591300Y-78154098D01*
X260553205Y-78116003D01*
X260515109Y-78039812D01*
X58801114Y-79754098D02*
X58001114Y-79754098D01*
X58001114Y-79563622D01*
X58039210Y-79449336D01*
X58115400Y-79373146D01*
X58191590Y-79335050D01*
X58343971Y-79296955D01*
X58458257Y-79296955D01*
X58610638Y-79335050D01*
X58686829Y-79373146D01*
X58763019Y-79449336D01*
X58801114Y-79563622D01*
X58801114Y-79754098D01*
X58001114Y-79030289D02*
X58001114Y-78535050D01*
X58305876Y-78801717D01*
X58305876Y-78687431D01*
X58343971Y-78611241D01*
X58382067Y-78573146D01*
X58458257Y-78535050D01*
X58648733Y-78535050D01*
X58724924Y-78573146D01*
X58763019Y-78611241D01*
X58801114Y-78687431D01*
X58801114Y-78916003D01*
X58763019Y-78992193D01*
X58724924Y-79030289D01*
X58801114Y-77773146D02*
X58801114Y-78230289D01*
X58801114Y-78001717D02*
X58001114Y-78001717D01*
X58115400Y-78077908D01*
X58191590Y-78154098D01*
X58229686Y-78230289D01*
X68309503Y-78100569D02*
X67509503Y-78100569D01*
X67509503Y-77910093D01*
X67547599Y-77795807D01*
X67623789Y-77719617D01*
X67699979Y-77681521D01*
X67852360Y-77643426D01*
X67966646Y-77643426D01*
X68119027Y-77681521D01*
X68195218Y-77719617D01*
X68271408Y-77795807D01*
X68309503Y-77910093D01*
X68309503Y-78100569D01*
X67509503Y-77376760D02*
X67509503Y-76881521D01*
X67814265Y-77148188D01*
X67814265Y-77033902D01*
X67852360Y-76957712D01*
X67890456Y-76919617D01*
X67966646Y-76881521D01*
X68157122Y-76881521D01*
X68233313Y-76919617D01*
X68271408Y-76957712D01*
X68309503Y-77033902D01*
X68309503Y-77262474D01*
X68271408Y-77338664D01*
X68233313Y-77376760D01*
X67585694Y-76576760D02*
X67547599Y-76538664D01*
X67509503Y-76462474D01*
X67509503Y-76271998D01*
X67547599Y-76195807D01*
X67585694Y-76157712D01*
X67661884Y-76119617D01*
X67738075Y-76119617D01*
X67852360Y-76157712D01*
X68309503Y-76614855D01*
X68309503Y-76119617D01*
X84156818Y-79754098D02*
X83356818Y-79754098D01*
X83356818Y-79563622D01*
X83394914Y-79449336D01*
X83471104Y-79373146D01*
X83547294Y-79335050D01*
X83699675Y-79296955D01*
X83813961Y-79296955D01*
X83966342Y-79335050D01*
X84042533Y-79373146D01*
X84118723Y-79449336D01*
X84156818Y-79563622D01*
X84156818Y-79754098D01*
X83356818Y-79030289D02*
X83356818Y-78535050D01*
X83661580Y-78801717D01*
X83661580Y-78687431D01*
X83699675Y-78611241D01*
X83737771Y-78573146D01*
X83813961Y-78535050D01*
X84004437Y-78535050D01*
X84080628Y-78573146D01*
X84118723Y-78611241D01*
X84156818Y-78687431D01*
X84156818Y-78916003D01*
X84118723Y-78992193D01*
X84080628Y-79030289D01*
X83356818Y-78268384D02*
X83356818Y-77773146D01*
X83661580Y-78039812D01*
X83661580Y-77925527D01*
X83699675Y-77849336D01*
X83737771Y-77811241D01*
X83813961Y-77773146D01*
X84004437Y-77773146D01*
X84080628Y-77811241D01*
X84118723Y-77849336D01*
X84156818Y-77925527D01*
X84156818Y-78154098D01*
X84118723Y-78230289D01*
X84080628Y-78268384D01*
X96834670Y-79754098D02*
X96034670Y-79754098D01*
X96034670Y-79563622D01*
X96072766Y-79449336D01*
X96148956Y-79373146D01*
X96225146Y-79335050D01*
X96377527Y-79296955D01*
X96491813Y-79296955D01*
X96644194Y-79335050D01*
X96720385Y-79373146D01*
X96796575Y-79449336D01*
X96834670Y-79563622D01*
X96834670Y-79754098D01*
X96034670Y-79030289D02*
X96034670Y-78535050D01*
X96339432Y-78801717D01*
X96339432Y-78687431D01*
X96377527Y-78611241D01*
X96415623Y-78573146D01*
X96491813Y-78535050D01*
X96682289Y-78535050D01*
X96758480Y-78573146D01*
X96796575Y-78611241D01*
X96834670Y-78687431D01*
X96834670Y-78916003D01*
X96796575Y-78992193D01*
X96758480Y-79030289D01*
X96301337Y-77849336D02*
X96834670Y-77849336D01*
X95996575Y-78039812D02*
X96568004Y-78230289D01*
X96568004Y-77735050D01*
X109512522Y-79754098D02*
X108712522Y-79754098D01*
X108712522Y-79563622D01*
X108750618Y-79449336D01*
X108826808Y-79373146D01*
X108902998Y-79335050D01*
X109055379Y-79296955D01*
X109169665Y-79296955D01*
X109322046Y-79335050D01*
X109398237Y-79373146D01*
X109474427Y-79449336D01*
X109512522Y-79563622D01*
X109512522Y-79754098D01*
X108712522Y-79030289D02*
X108712522Y-78535050D01*
X109017284Y-78801717D01*
X109017284Y-78687431D01*
X109055379Y-78611241D01*
X109093475Y-78573146D01*
X109169665Y-78535050D01*
X109360141Y-78535050D01*
X109436332Y-78573146D01*
X109474427Y-78611241D01*
X109512522Y-78687431D01*
X109512522Y-78916003D01*
X109474427Y-78992193D01*
X109436332Y-79030289D01*
X108712522Y-77811241D02*
X108712522Y-78192193D01*
X109093475Y-78230289D01*
X109055379Y-78192193D01*
X109017284Y-78116003D01*
X109017284Y-77925527D01*
X109055379Y-77849336D01*
X109093475Y-77811241D01*
X109169665Y-77773146D01*
X109360141Y-77773146D01*
X109436332Y-77811241D01*
X109474427Y-77849336D01*
X109512522Y-77925527D01*
X109512522Y-78116003D01*
X109474427Y-78192193D01*
X109436332Y-78230289D01*
X122190374Y-79754098D02*
X121390374Y-79754098D01*
X121390374Y-79563622D01*
X121428470Y-79449336D01*
X121504660Y-79373146D01*
X121580850Y-79335050D01*
X121733231Y-79296955D01*
X121847517Y-79296955D01*
X121999898Y-79335050D01*
X122076089Y-79373146D01*
X122152279Y-79449336D01*
X122190374Y-79563622D01*
X122190374Y-79754098D01*
X121390374Y-79030289D02*
X121390374Y-78535050D01*
X121695136Y-78801717D01*
X121695136Y-78687431D01*
X121733231Y-78611241D01*
X121771327Y-78573146D01*
X121847517Y-78535050D01*
X122037993Y-78535050D01*
X122114184Y-78573146D01*
X122152279Y-78611241D01*
X122190374Y-78687431D01*
X122190374Y-78916003D01*
X122152279Y-78992193D01*
X122114184Y-79030289D01*
X121390374Y-77849336D02*
X121390374Y-78001717D01*
X121428470Y-78077908D01*
X121466565Y-78116003D01*
X121580850Y-78192193D01*
X121733231Y-78230289D01*
X122037993Y-78230289D01*
X122114184Y-78192193D01*
X122152279Y-78154098D01*
X122190374Y-78077908D01*
X122190374Y-77925527D01*
X122152279Y-77849336D01*
X122114184Y-77811241D01*
X122037993Y-77773146D01*
X121847517Y-77773146D01*
X121771327Y-77811241D01*
X121733231Y-77849336D01*
X121695136Y-77925527D01*
X121695136Y-78077908D01*
X121733231Y-78154098D01*
X121771327Y-78192193D01*
X121847517Y-78230289D01*
X134868226Y-79754098D02*
X134068226Y-79754098D01*
X134068226Y-79563622D01*
X134106322Y-79449336D01*
X134182512Y-79373146D01*
X134258702Y-79335050D01*
X134411083Y-79296955D01*
X134525369Y-79296955D01*
X134677750Y-79335050D01*
X134753941Y-79373146D01*
X134830131Y-79449336D01*
X134868226Y-79563622D01*
X134868226Y-79754098D01*
X134068226Y-79030289D02*
X134068226Y-78535050D01*
X134372988Y-78801717D01*
X134372988Y-78687431D01*
X134411083Y-78611241D01*
X134449179Y-78573146D01*
X134525369Y-78535050D01*
X134715845Y-78535050D01*
X134792036Y-78573146D01*
X134830131Y-78611241D01*
X134868226Y-78687431D01*
X134868226Y-78916003D01*
X134830131Y-78992193D01*
X134792036Y-79030289D01*
X134068226Y-78268384D02*
X134068226Y-77735050D01*
X134868226Y-78077908D01*
X147546078Y-79754098D02*
X146746078Y-79754098D01*
X146746078Y-79563622D01*
X146784174Y-79449336D01*
X146860364Y-79373146D01*
X146936554Y-79335050D01*
X147088935Y-79296955D01*
X147203221Y-79296955D01*
X147355602Y-79335050D01*
X147431793Y-79373146D01*
X147507983Y-79449336D01*
X147546078Y-79563622D01*
X147546078Y-79754098D01*
X146746078Y-79030289D02*
X146746078Y-78535050D01*
X147050840Y-78801717D01*
X147050840Y-78687431D01*
X147088935Y-78611241D01*
X147127031Y-78573146D01*
X147203221Y-78535050D01*
X147393697Y-78535050D01*
X147469888Y-78573146D01*
X147507983Y-78611241D01*
X147546078Y-78687431D01*
X147546078Y-78916003D01*
X147507983Y-78992193D01*
X147469888Y-79030289D01*
X147088935Y-78077908D02*
X147050840Y-78154098D01*
X147012745Y-78192193D01*
X146936554Y-78230289D01*
X146898459Y-78230289D01*
X146822269Y-78192193D01*
X146784174Y-78154098D01*
X146746078Y-78077908D01*
X146746078Y-77925527D01*
X146784174Y-77849336D01*
X146822269Y-77811241D01*
X146898459Y-77773146D01*
X146936554Y-77773146D01*
X147012745Y-77811241D01*
X147050840Y-77849336D01*
X147088935Y-77925527D01*
X147088935Y-78077908D01*
X147127031Y-78154098D01*
X147165126Y-78192193D01*
X147241316Y-78230289D01*
X147393697Y-78230289D01*
X147469888Y-78192193D01*
X147507983Y-78154098D01*
X147546078Y-78077908D01*
X147546078Y-77925527D01*
X147507983Y-77849336D01*
X147469888Y-77811241D01*
X147393697Y-77773146D01*
X147241316Y-77773146D01*
X147165126Y-77811241D01*
X147127031Y-77849336D01*
X147088935Y-77925527D01*
X160223930Y-79754098D02*
X159423930Y-79754098D01*
X159423930Y-79563622D01*
X159462026Y-79449336D01*
X159538216Y-79373146D01*
X159614406Y-79335050D01*
X159766787Y-79296955D01*
X159881073Y-79296955D01*
X160033454Y-79335050D01*
X160109645Y-79373146D01*
X160185835Y-79449336D01*
X160223930Y-79563622D01*
X160223930Y-79754098D01*
X159423930Y-79030289D02*
X159423930Y-78535050D01*
X159728692Y-78801717D01*
X159728692Y-78687431D01*
X159766787Y-78611241D01*
X159804883Y-78573146D01*
X159881073Y-78535050D01*
X160071549Y-78535050D01*
X160147740Y-78573146D01*
X160185835Y-78611241D01*
X160223930Y-78687431D01*
X160223930Y-78916003D01*
X160185835Y-78992193D01*
X160147740Y-79030289D01*
X160223930Y-78154098D02*
X160223930Y-78001717D01*
X160185835Y-77925527D01*
X160147740Y-77887431D01*
X160033454Y-77811241D01*
X159881073Y-77773146D01*
X159576311Y-77773146D01*
X159500121Y-77811241D01*
X159462026Y-77849336D01*
X159423930Y-77925527D01*
X159423930Y-78077908D01*
X159462026Y-78154098D01*
X159500121Y-78192193D01*
X159576311Y-78230289D01*
X159766787Y-78230289D01*
X159842978Y-78192193D01*
X159881073Y-78154098D01*
X159919168Y-78077908D01*
X159919168Y-77925527D01*
X159881073Y-77849336D01*
X159842978Y-77811241D01*
X159766787Y-77773146D01*
X172901782Y-79754098D02*
X172101782Y-79754098D01*
X172101782Y-79563622D01*
X172139878Y-79449336D01*
X172216068Y-79373146D01*
X172292258Y-79335050D01*
X172444639Y-79296955D01*
X172558925Y-79296955D01*
X172711306Y-79335050D01*
X172787497Y-79373146D01*
X172863687Y-79449336D01*
X172901782Y-79563622D01*
X172901782Y-79754098D01*
X172368449Y-78611241D02*
X172901782Y-78611241D01*
X172063687Y-78801717D02*
X172635116Y-78992193D01*
X172635116Y-78496955D01*
X172101782Y-78039812D02*
X172101782Y-77963622D01*
X172139878Y-77887431D01*
X172177973Y-77849336D01*
X172254163Y-77811241D01*
X172406544Y-77773146D01*
X172597020Y-77773146D01*
X172749401Y-77811241D01*
X172825592Y-77849336D01*
X172863687Y-77887431D01*
X172901782Y-77963622D01*
X172901782Y-78039812D01*
X172863687Y-78116003D01*
X172825592Y-78154098D01*
X172749401Y-78192193D01*
X172597020Y-78230289D01*
X172406544Y-78230289D01*
X172254163Y-78192193D01*
X172177973Y-78154098D01*
X172139878Y-78116003D01*
X172101782Y-78039812D01*
X185579634Y-79754098D02*
X184779634Y-79754098D01*
X184779634Y-79563622D01*
X184817730Y-79449336D01*
X184893920Y-79373146D01*
X184970110Y-79335050D01*
X185122491Y-79296955D01*
X185236777Y-79296955D01*
X185389158Y-79335050D01*
X185465349Y-79373146D01*
X185541539Y-79449336D01*
X185579634Y-79563622D01*
X185579634Y-79754098D01*
X185046301Y-78611241D02*
X185579634Y-78611241D01*
X184741539Y-78801717D02*
X185312968Y-78992193D01*
X185312968Y-78496955D01*
X185579634Y-77773146D02*
X185579634Y-78230289D01*
X185579634Y-78001717D02*
X184779634Y-78001717D01*
X184893920Y-78077908D01*
X184970110Y-78154098D01*
X185008206Y-78230289D01*
X198257486Y-79754098D02*
X197457486Y-79754098D01*
X197457486Y-79563622D01*
X197495582Y-79449336D01*
X197571772Y-79373146D01*
X197647962Y-79335050D01*
X197800343Y-79296955D01*
X197914629Y-79296955D01*
X198067010Y-79335050D01*
X198143201Y-79373146D01*
X198219391Y-79449336D01*
X198257486Y-79563622D01*
X198257486Y-79754098D01*
X197724153Y-78611241D02*
X198257486Y-78611241D01*
X197419391Y-78801717D02*
X197990820Y-78992193D01*
X197990820Y-78496955D01*
X197533677Y-78230289D02*
X197495582Y-78192193D01*
X197457486Y-78116003D01*
X197457486Y-77925527D01*
X197495582Y-77849336D01*
X197533677Y-77811241D01*
X197609867Y-77773146D01*
X197686058Y-77773146D01*
X197800343Y-77811241D01*
X198257486Y-78268384D01*
X198257486Y-77773146D01*
X223505826Y-79754098D02*
X222705826Y-79754098D01*
X222705826Y-79563622D01*
X222743922Y-79449336D01*
X222820112Y-79373146D01*
X222896302Y-79335050D01*
X223048683Y-79296955D01*
X223162969Y-79296955D01*
X223315350Y-79335050D01*
X223391541Y-79373146D01*
X223467731Y-79449336D01*
X223505826Y-79563622D01*
X223505826Y-79754098D01*
X222972493Y-78611241D02*
X223505826Y-78611241D01*
X222667731Y-78801717D02*
X223239160Y-78992193D01*
X223239160Y-78496955D01*
X222705826Y-78268384D02*
X222705826Y-77773146D01*
X223010588Y-78039812D01*
X223010588Y-77925527D01*
X223048683Y-77849336D01*
X223086779Y-77811241D01*
X223162969Y-77773146D01*
X223353445Y-77773146D01*
X223429636Y-77811241D01*
X223467731Y-77849336D01*
X223505826Y-77925527D01*
X223505826Y-78154098D01*
X223467731Y-78230289D01*
X223429636Y-78268384D01*
X258226385Y-78100569D02*
X257426385Y-78100569D01*
X257426385Y-77910093D01*
X257464481Y-77795807D01*
X257540671Y-77719617D01*
X257616861Y-77681521D01*
X257769242Y-77643426D01*
X257883528Y-77643426D01*
X258035909Y-77681521D01*
X258112100Y-77719617D01*
X258188290Y-77795807D01*
X258226385Y-77910093D01*
X258226385Y-78100569D01*
X257693052Y-76957712D02*
X258226385Y-76957712D01*
X257388290Y-77148188D02*
X257959719Y-77338664D01*
X257959719Y-76843426D01*
X257693052Y-76195807D02*
X258226385Y-76195807D01*
X257388290Y-76386283D02*
X257959719Y-76576760D01*
X257959719Y-76081521D01*
X87326281Y-81407627D02*
X86526281Y-81407627D01*
X86526281Y-81217151D01*
X86564377Y-81102865D01*
X86640567Y-81026675D01*
X86716757Y-80988579D01*
X86869138Y-80950484D01*
X86983424Y-80950484D01*
X87135805Y-80988579D01*
X87211996Y-81026675D01*
X87288186Y-81102865D01*
X87326281Y-81217151D01*
X87326281Y-81407627D01*
X86792948Y-80264770D02*
X87326281Y-80264770D01*
X86488186Y-80455246D02*
X87059615Y-80645722D01*
X87059615Y-80150484D01*
X86526281Y-79502865D02*
X86526281Y-79655246D01*
X86564377Y-79731437D01*
X86602472Y-79769532D01*
X86716757Y-79845722D01*
X86869138Y-79883818D01*
X87173900Y-79883818D01*
X87250091Y-79845722D01*
X87288186Y-79807627D01*
X87326281Y-79731437D01*
X87326281Y-79579056D01*
X87288186Y-79502865D01*
X87250091Y-79464770D01*
X87173900Y-79426675D01*
X86983424Y-79426675D01*
X86907234Y-79464770D01*
X86869138Y-79502865D01*
X86831043Y-79579056D01*
X86831043Y-79731437D01*
X86869138Y-79807627D01*
X86907234Y-79845722D01*
X86983424Y-79883818D01*
X100004133Y-81407627D02*
X99204133Y-81407627D01*
X99204133Y-81217151D01*
X99242229Y-81102865D01*
X99318419Y-81026675D01*
X99394609Y-80988579D01*
X99546990Y-80950484D01*
X99661276Y-80950484D01*
X99813657Y-80988579D01*
X99889848Y-81026675D01*
X99966038Y-81102865D01*
X100004133Y-81217151D01*
X100004133Y-81407627D01*
X99470800Y-80264770D02*
X100004133Y-80264770D01*
X99166038Y-80455246D02*
X99737467Y-80645722D01*
X99737467Y-80150484D01*
X99204133Y-79921913D02*
X99204133Y-79388579D01*
X100004133Y-79731437D01*
X112681985Y-81407627D02*
X111881985Y-81407627D01*
X111881985Y-81217151D01*
X111920081Y-81102865D01*
X111996271Y-81026675D01*
X112072461Y-80988579D01*
X112224842Y-80950484D01*
X112339128Y-80950484D01*
X112491509Y-80988579D01*
X112567700Y-81026675D01*
X112643890Y-81102865D01*
X112681985Y-81217151D01*
X112681985Y-81407627D01*
X112148652Y-80264770D02*
X112681985Y-80264770D01*
X111843890Y-80455246D02*
X112415319Y-80645722D01*
X112415319Y-80150484D01*
X112224842Y-79731437D02*
X112186747Y-79807627D01*
X112148652Y-79845722D01*
X112072461Y-79883818D01*
X112034366Y-79883818D01*
X111958176Y-79845722D01*
X111920081Y-79807627D01*
X111881985Y-79731437D01*
X111881985Y-79579056D01*
X111920081Y-79502865D01*
X111958176Y-79464770D01*
X112034366Y-79426675D01*
X112072461Y-79426675D01*
X112148652Y-79464770D01*
X112186747Y-79502865D01*
X112224842Y-79579056D01*
X112224842Y-79731437D01*
X112262938Y-79807627D01*
X112301033Y-79845722D01*
X112377223Y-79883818D01*
X112529604Y-79883818D01*
X112605795Y-79845722D01*
X112643890Y-79807627D01*
X112681985Y-79731437D01*
X112681985Y-79579056D01*
X112643890Y-79502865D01*
X112605795Y-79464770D01*
X112529604Y-79426675D01*
X112377223Y-79426675D01*
X112301033Y-79464770D01*
X112262938Y-79502865D01*
X112224842Y-79579056D01*
X125359837Y-81407627D02*
X124559837Y-81407627D01*
X124559837Y-81217151D01*
X124597933Y-81102865D01*
X124674123Y-81026675D01*
X124750313Y-80988579D01*
X124902694Y-80950484D01*
X125016980Y-80950484D01*
X125169361Y-80988579D01*
X125245552Y-81026675D01*
X125321742Y-81102865D01*
X125359837Y-81217151D01*
X125359837Y-81407627D01*
X124826504Y-80264770D02*
X125359837Y-80264770D01*
X124521742Y-80455246D02*
X125093171Y-80645722D01*
X125093171Y-80150484D01*
X125359837Y-79807627D02*
X125359837Y-79655246D01*
X125321742Y-79579056D01*
X125283647Y-79540960D01*
X125169361Y-79464770D01*
X125016980Y-79426675D01*
X124712218Y-79426675D01*
X124636028Y-79464770D01*
X124597933Y-79502865D01*
X124559837Y-79579056D01*
X124559837Y-79731437D01*
X124597933Y-79807627D01*
X124636028Y-79845722D01*
X124712218Y-79883818D01*
X124902694Y-79883818D01*
X124978885Y-79845722D01*
X125016980Y-79807627D01*
X125055075Y-79731437D01*
X125055075Y-79579056D01*
X125016980Y-79502865D01*
X124978885Y-79464770D01*
X124902694Y-79426675D01*
X138037689Y-81407627D02*
X137237689Y-81407627D01*
X137237689Y-81217151D01*
X137275785Y-81102865D01*
X137351975Y-81026675D01*
X137428165Y-80988579D01*
X137580546Y-80950484D01*
X137694832Y-80950484D01*
X137847213Y-80988579D01*
X137923404Y-81026675D01*
X137999594Y-81102865D01*
X138037689Y-81217151D01*
X138037689Y-81407627D01*
X137237689Y-80226675D02*
X137237689Y-80607627D01*
X137618642Y-80645722D01*
X137580546Y-80607627D01*
X137542451Y-80531437D01*
X137542451Y-80340960D01*
X137580546Y-80264770D01*
X137618642Y-80226675D01*
X137694832Y-80188579D01*
X137885308Y-80188579D01*
X137961499Y-80226675D01*
X137999594Y-80264770D01*
X138037689Y-80340960D01*
X138037689Y-80531437D01*
X137999594Y-80607627D01*
X137961499Y-80645722D01*
X137237689Y-79693341D02*
X137237689Y-79617151D01*
X137275785Y-79540960D01*
X137313880Y-79502865D01*
X137390070Y-79464770D01*
X137542451Y-79426675D01*
X137732927Y-79426675D01*
X137885308Y-79464770D01*
X137961499Y-79502865D01*
X137999594Y-79540960D01*
X138037689Y-79617151D01*
X138037689Y-79693341D01*
X137999594Y-79769532D01*
X137961499Y-79807627D01*
X137885308Y-79845722D01*
X137732927Y-79883818D01*
X137542451Y-79883818D01*
X137390070Y-79845722D01*
X137313880Y-79807627D01*
X137275785Y-79769532D01*
X137237689Y-79693341D01*
X150715541Y-81407627D02*
X149915541Y-81407627D01*
X149915541Y-81217151D01*
X149953637Y-81102865D01*
X150029827Y-81026675D01*
X150106017Y-80988579D01*
X150258398Y-80950484D01*
X150372684Y-80950484D01*
X150525065Y-80988579D01*
X150601256Y-81026675D01*
X150677446Y-81102865D01*
X150715541Y-81217151D01*
X150715541Y-81407627D01*
X149915541Y-80226675D02*
X149915541Y-80607627D01*
X150296494Y-80645722D01*
X150258398Y-80607627D01*
X150220303Y-80531437D01*
X150220303Y-80340960D01*
X150258398Y-80264770D01*
X150296494Y-80226675D01*
X150372684Y-80188579D01*
X150563160Y-80188579D01*
X150639351Y-80226675D01*
X150677446Y-80264770D01*
X150715541Y-80340960D01*
X150715541Y-80531437D01*
X150677446Y-80607627D01*
X150639351Y-80645722D01*
X150715541Y-79426675D02*
X150715541Y-79883818D01*
X150715541Y-79655246D02*
X149915541Y-79655246D01*
X150029827Y-79731437D01*
X150106017Y-79807627D01*
X150144113Y-79883818D01*
X163393393Y-81407627D02*
X162593393Y-81407627D01*
X162593393Y-81217151D01*
X162631489Y-81102865D01*
X162707679Y-81026675D01*
X162783869Y-80988579D01*
X162936250Y-80950484D01*
X163050536Y-80950484D01*
X163202917Y-80988579D01*
X163279108Y-81026675D01*
X163355298Y-81102865D01*
X163393393Y-81217151D01*
X163393393Y-81407627D01*
X162593393Y-80226675D02*
X162593393Y-80607627D01*
X162974346Y-80645722D01*
X162936250Y-80607627D01*
X162898155Y-80531437D01*
X162898155Y-80340960D01*
X162936250Y-80264770D01*
X162974346Y-80226675D01*
X163050536Y-80188579D01*
X163241012Y-80188579D01*
X163317203Y-80226675D01*
X163355298Y-80264770D01*
X163393393Y-80340960D01*
X163393393Y-80531437D01*
X163355298Y-80607627D01*
X163317203Y-80645722D01*
X162669584Y-79883818D02*
X162631489Y-79845722D01*
X162593393Y-79769532D01*
X162593393Y-79579056D01*
X162631489Y-79502865D01*
X162669584Y-79464770D01*
X162745774Y-79426675D01*
X162821965Y-79426675D01*
X162936250Y-79464770D01*
X163393393Y-79921913D01*
X163393393Y-79426675D01*
X176071245Y-81407627D02*
X175271245Y-81407627D01*
X175271245Y-81217151D01*
X175309341Y-81102865D01*
X175385531Y-81026675D01*
X175461721Y-80988579D01*
X175614102Y-80950484D01*
X175728388Y-80950484D01*
X175880769Y-80988579D01*
X175956960Y-81026675D01*
X176033150Y-81102865D01*
X176071245Y-81217151D01*
X176071245Y-81407627D01*
X175271245Y-80226675D02*
X175271245Y-80607627D01*
X175652198Y-80645722D01*
X175614102Y-80607627D01*
X175576007Y-80531437D01*
X175576007Y-80340960D01*
X175614102Y-80264770D01*
X175652198Y-80226675D01*
X175728388Y-80188579D01*
X175918864Y-80188579D01*
X175995055Y-80226675D01*
X176033150Y-80264770D01*
X176071245Y-80340960D01*
X176071245Y-80531437D01*
X176033150Y-80607627D01*
X175995055Y-80645722D01*
X175271245Y-79921913D02*
X175271245Y-79426675D01*
X175576007Y-79693341D01*
X175576007Y-79579056D01*
X175614102Y-79502865D01*
X175652198Y-79464770D01*
X175728388Y-79426675D01*
X175918864Y-79426675D01*
X175995055Y-79464770D01*
X176033150Y-79502865D01*
X176071245Y-79579056D01*
X176071245Y-79807627D01*
X176033150Y-79883818D01*
X175995055Y-79921913D01*
X188749097Y-81407627D02*
X187949097Y-81407627D01*
X187949097Y-81217151D01*
X187987193Y-81102865D01*
X188063383Y-81026675D01*
X188139573Y-80988579D01*
X188291954Y-80950484D01*
X188406240Y-80950484D01*
X188558621Y-80988579D01*
X188634812Y-81026675D01*
X188711002Y-81102865D01*
X188749097Y-81217151D01*
X188749097Y-81407627D01*
X187949097Y-80226675D02*
X187949097Y-80607627D01*
X188330050Y-80645722D01*
X188291954Y-80607627D01*
X188253859Y-80531437D01*
X188253859Y-80340960D01*
X188291954Y-80264770D01*
X188330050Y-80226675D01*
X188406240Y-80188579D01*
X188596716Y-80188579D01*
X188672907Y-80226675D01*
X188711002Y-80264770D01*
X188749097Y-80340960D01*
X188749097Y-80531437D01*
X188711002Y-80607627D01*
X188672907Y-80645722D01*
X188215764Y-79502865D02*
X188749097Y-79502865D01*
X187911002Y-79693341D02*
X188482431Y-79883818D01*
X188482431Y-79388579D01*
X201426949Y-81407627D02*
X200626949Y-81407627D01*
X200626949Y-81217151D01*
X200665045Y-81102865D01*
X200741235Y-81026675D01*
X200817425Y-80988579D01*
X200969806Y-80950484D01*
X201084092Y-80950484D01*
X201236473Y-80988579D01*
X201312664Y-81026675D01*
X201388854Y-81102865D01*
X201426949Y-81217151D01*
X201426949Y-81407627D01*
X200626949Y-80226675D02*
X200626949Y-80607627D01*
X201007902Y-80645722D01*
X200969806Y-80607627D01*
X200931711Y-80531437D01*
X200931711Y-80340960D01*
X200969806Y-80264770D01*
X201007902Y-80226675D01*
X201084092Y-80188579D01*
X201274568Y-80188579D01*
X201350759Y-80226675D01*
X201388854Y-80264770D01*
X201426949Y-80340960D01*
X201426949Y-80531437D01*
X201388854Y-80607627D01*
X201350759Y-80645722D01*
X200626949Y-79464770D02*
X200626949Y-79845722D01*
X201007902Y-79883818D01*
X200969806Y-79845722D01*
X200931711Y-79769532D01*
X200931711Y-79579056D01*
X200969806Y-79502865D01*
X201007902Y-79464770D01*
X201084092Y-79426675D01*
X201274568Y-79426675D01*
X201350759Y-79464770D01*
X201388854Y-79502865D01*
X201426949Y-79579056D01*
X201426949Y-79769532D01*
X201388854Y-79845722D01*
X201350759Y-79883818D01*
X210900346Y-79754098D02*
X210100346Y-79754098D01*
X210100346Y-79563622D01*
X210138442Y-79449336D01*
X210214632Y-79373146D01*
X210290822Y-79335050D01*
X210443203Y-79296955D01*
X210557489Y-79296955D01*
X210709870Y-79335050D01*
X210786061Y-79373146D01*
X210862251Y-79449336D01*
X210900346Y-79563622D01*
X210900346Y-79754098D01*
X210100346Y-78573146D02*
X210100346Y-78954098D01*
X210481299Y-78992193D01*
X210443203Y-78954098D01*
X210405108Y-78877908D01*
X210405108Y-78687431D01*
X210443203Y-78611241D01*
X210481299Y-78573146D01*
X210557489Y-78535050D01*
X210747965Y-78535050D01*
X210824156Y-78573146D01*
X210862251Y-78611241D01*
X210900346Y-78687431D01*
X210900346Y-78877908D01*
X210862251Y-78954098D01*
X210824156Y-78992193D01*
X210100346Y-77849336D02*
X210100346Y-78001717D01*
X210138442Y-78077908D01*
X210176537Y-78116003D01*
X210290822Y-78192193D01*
X210443203Y-78230289D01*
X210747965Y-78230289D01*
X210824156Y-78192193D01*
X210862251Y-78154098D01*
X210900346Y-78077908D01*
X210900346Y-77925527D01*
X210862251Y-77849336D01*
X210824156Y-77811241D01*
X210747965Y-77773146D01*
X210557489Y-77773146D01*
X210481299Y-77811241D01*
X210443203Y-77849336D01*
X210405108Y-77925527D01*
X210405108Y-78077908D01*
X210443203Y-78154098D01*
X210481299Y-78192193D01*
X210557489Y-78230289D01*
X226656599Y-81407627D02*
X225856599Y-81407627D01*
X225856599Y-81217151D01*
X225894695Y-81102865D01*
X225970885Y-81026675D01*
X226047075Y-80988579D01*
X226199456Y-80950484D01*
X226313742Y-80950484D01*
X226466123Y-80988579D01*
X226542314Y-81026675D01*
X226618504Y-81102865D01*
X226656599Y-81217151D01*
X226656599Y-81407627D01*
X225856599Y-80226675D02*
X225856599Y-80607627D01*
X226237552Y-80645722D01*
X226199456Y-80607627D01*
X226161361Y-80531437D01*
X226161361Y-80340960D01*
X226199456Y-80264770D01*
X226237552Y-80226675D01*
X226313742Y-80188579D01*
X226504218Y-80188579D01*
X226580409Y-80226675D01*
X226618504Y-80264770D01*
X226656599Y-80340960D01*
X226656599Y-80531437D01*
X226618504Y-80607627D01*
X226580409Y-80645722D01*
X225856599Y-79921913D02*
X225856599Y-79388579D01*
X226656599Y-79731437D01*
X254951510Y-76447040D02*
X254151510Y-76447040D01*
X254151510Y-76256564D01*
X254189606Y-76142278D01*
X254265796Y-76066088D01*
X254341986Y-76027992D01*
X254494367Y-75989897D01*
X254608653Y-75989897D01*
X254761034Y-76027992D01*
X254837225Y-76066088D01*
X254913415Y-76142278D01*
X254951510Y-76256564D01*
X254951510Y-76447040D01*
X254151510Y-75266088D02*
X254151510Y-75647040D01*
X254532463Y-75685135D01*
X254494367Y-75647040D01*
X254456272Y-75570850D01*
X254456272Y-75380373D01*
X254494367Y-75304183D01*
X254532463Y-75266088D01*
X254608653Y-75227992D01*
X254799129Y-75227992D01*
X254875320Y-75266088D01*
X254913415Y-75304183D01*
X254951510Y-75380373D01*
X254951510Y-75570850D01*
X254913415Y-75647040D01*
X254875320Y-75685135D01*
X254494367Y-74770850D02*
X254456272Y-74847040D01*
X254418177Y-74885135D01*
X254341986Y-74923231D01*
X254303891Y-74923231D01*
X254227701Y-74885135D01*
X254189606Y-74847040D01*
X254151510Y-74770850D01*
X254151510Y-74618469D01*
X254189606Y-74542278D01*
X254227701Y-74504183D01*
X254303891Y-74466088D01*
X254341986Y-74466088D01*
X254418177Y-74504183D01*
X254456272Y-74542278D01*
X254494367Y-74618469D01*
X254494367Y-74770850D01*
X254532463Y-74847040D01*
X254570558Y-74885135D01*
X254646748Y-74923231D01*
X254799129Y-74923231D01*
X254875320Y-74885135D01*
X254913415Y-74847040D01*
X254951510Y-74770850D01*
X254951510Y-74618469D01*
X254913415Y-74542278D01*
X254875320Y-74504183D01*
X254799129Y-74466088D01*
X254646748Y-74466088D01*
X254570558Y-74504183D01*
X254532463Y-74542278D01*
X254494367Y-74618469D01*
X248649962Y-79754098D02*
X247849962Y-79754098D01*
X247849962Y-79563622D01*
X247888058Y-79449336D01*
X247964248Y-79373146D01*
X248040438Y-79335050D01*
X248192819Y-79296955D01*
X248307105Y-79296955D01*
X248459486Y-79335050D01*
X248535677Y-79373146D01*
X248611867Y-79449336D01*
X248649962Y-79563622D01*
X248649962Y-79754098D01*
X247849962Y-78573146D02*
X247849962Y-78954098D01*
X248230915Y-78992193D01*
X248192819Y-78954098D01*
X248154724Y-78877908D01*
X248154724Y-78687431D01*
X248192819Y-78611241D01*
X248230915Y-78573146D01*
X248307105Y-78535050D01*
X248497581Y-78535050D01*
X248573772Y-78573146D01*
X248611867Y-78611241D01*
X248649962Y-78687431D01*
X248649962Y-78877908D01*
X248611867Y-78954098D01*
X248573772Y-78992193D01*
X248649962Y-78154098D02*
X248649962Y-78001717D01*
X248611867Y-77925527D01*
X248573772Y-77887431D01*
X248459486Y-77811241D01*
X248307105Y-77773146D01*
X248002343Y-77773146D01*
X247926153Y-77811241D01*
X247888058Y-77849336D01*
X247849962Y-77925527D01*
X247849962Y-78077908D01*
X247888058Y-78154098D01*
X247926153Y-78192193D01*
X248002343Y-78230289D01*
X248192819Y-78230289D01*
X248269010Y-78192193D01*
X248307105Y-78154098D01*
X248345200Y-78077908D01*
X248345200Y-77925527D01*
X248307105Y-77849336D01*
X248269010Y-77811241D01*
X248192819Y-77773146D01*
X65140040Y-76447040D02*
X64340040Y-76447040D01*
X64340040Y-76256564D01*
X64378136Y-76142278D01*
X64454326Y-76066088D01*
X64530516Y-76027992D01*
X64682897Y-75989897D01*
X64797183Y-75989897D01*
X64949564Y-76027992D01*
X65025755Y-76066088D01*
X65101945Y-76142278D01*
X65140040Y-76256564D01*
X65140040Y-76447040D01*
X64340040Y-75304183D02*
X64340040Y-75456564D01*
X64378136Y-75532754D01*
X64416231Y-75570850D01*
X64530516Y-75647040D01*
X64682897Y-75685135D01*
X64987659Y-75685135D01*
X65063850Y-75647040D01*
X65101945Y-75608945D01*
X65140040Y-75532754D01*
X65140040Y-75380373D01*
X65101945Y-75304183D01*
X65063850Y-75266088D01*
X64987659Y-75227992D01*
X64797183Y-75227992D01*
X64720993Y-75266088D01*
X64682897Y-75304183D01*
X64644802Y-75380373D01*
X64644802Y-75532754D01*
X64682897Y-75608945D01*
X64720993Y-75647040D01*
X64797183Y-75685135D01*
X64340040Y-74732754D02*
X64340040Y-74656564D01*
X64378136Y-74580373D01*
X64416231Y-74542278D01*
X64492421Y-74504183D01*
X64644802Y-74466088D01*
X64835278Y-74466088D01*
X64987659Y-74504183D01*
X65063850Y-74542278D01*
X65101945Y-74580373D01*
X65140040Y-74656564D01*
X65140040Y-74732754D01*
X65101945Y-74808945D01*
X65063850Y-74847040D01*
X64987659Y-74885135D01*
X64835278Y-74923231D01*
X64644802Y-74923231D01*
X64492421Y-74885135D01*
X64416231Y-74847040D01*
X64378136Y-74808945D01*
X64340040Y-74732754D01*
X245499188Y-78100569D02*
X244699188Y-78100569D01*
X244699188Y-77910093D01*
X244737284Y-77795807D01*
X244813474Y-77719617D01*
X244889664Y-77681521D01*
X245042045Y-77643426D01*
X245156331Y-77643426D01*
X245308712Y-77681521D01*
X245384903Y-77719617D01*
X245461093Y-77795807D01*
X245499188Y-77910093D01*
X245499188Y-78100569D01*
X244699188Y-76957712D02*
X244699188Y-77110093D01*
X244737284Y-77186283D01*
X244775379Y-77224379D01*
X244889664Y-77300569D01*
X245042045Y-77338664D01*
X245346807Y-77338664D01*
X245422998Y-77300569D01*
X245461093Y-77262474D01*
X245499188Y-77186283D01*
X245499188Y-77033902D01*
X245461093Y-76957712D01*
X245422998Y-76919617D01*
X245346807Y-76881521D01*
X245156331Y-76881521D01*
X245080141Y-76919617D01*
X245042045Y-76957712D01*
X245003950Y-77033902D01*
X245003950Y-77186283D01*
X245042045Y-77262474D01*
X245080141Y-77300569D01*
X245156331Y-77338664D01*
X245499188Y-76119617D02*
X245499188Y-76576760D01*
X245499188Y-76348188D02*
X244699188Y-76348188D01*
X244813474Y-76424379D01*
X244889664Y-76500569D01*
X244927760Y-76576760D01*
X242348415Y-76447040D02*
X241548415Y-76447040D01*
X241548415Y-76256564D01*
X241586511Y-76142278D01*
X241662701Y-76066088D01*
X241738891Y-76027992D01*
X241891272Y-75989897D01*
X242005558Y-75989897D01*
X242157939Y-76027992D01*
X242234130Y-76066088D01*
X242310320Y-76142278D01*
X242348415Y-76256564D01*
X242348415Y-76447040D01*
X241548415Y-75304183D02*
X241548415Y-75456564D01*
X241586511Y-75532754D01*
X241624606Y-75570850D01*
X241738891Y-75647040D01*
X241891272Y-75685135D01*
X242196034Y-75685135D01*
X242272225Y-75647040D01*
X242310320Y-75608945D01*
X242348415Y-75532754D01*
X242348415Y-75380373D01*
X242310320Y-75304183D01*
X242272225Y-75266088D01*
X242196034Y-75227992D01*
X242005558Y-75227992D01*
X241929368Y-75266088D01*
X241891272Y-75304183D01*
X241853177Y-75380373D01*
X241853177Y-75532754D01*
X241891272Y-75608945D01*
X241929368Y-75647040D01*
X242005558Y-75685135D01*
X241624606Y-74923231D02*
X241586511Y-74885135D01*
X241548415Y-74808945D01*
X241548415Y-74618469D01*
X241586511Y-74542278D01*
X241624606Y-74504183D01*
X241700796Y-74466088D01*
X241776987Y-74466088D01*
X241891272Y-74504183D01*
X242348415Y-74961326D01*
X242348415Y-74466088D01*
X239197642Y-81407627D02*
X238397642Y-81407627D01*
X238397642Y-81217151D01*
X238435738Y-81102865D01*
X238511928Y-81026675D01*
X238588118Y-80988579D01*
X238740499Y-80950484D01*
X238854785Y-80950484D01*
X239007166Y-80988579D01*
X239083357Y-81026675D01*
X239159547Y-81102865D01*
X239197642Y-81217151D01*
X239197642Y-81407627D01*
X238397642Y-80264770D02*
X238397642Y-80417151D01*
X238435738Y-80493341D01*
X238473833Y-80531437D01*
X238588118Y-80607627D01*
X238740499Y-80645722D01*
X239045261Y-80645722D01*
X239121452Y-80607627D01*
X239159547Y-80569532D01*
X239197642Y-80493341D01*
X239197642Y-80340960D01*
X239159547Y-80264770D01*
X239121452Y-80226675D01*
X239045261Y-80188579D01*
X238854785Y-80188579D01*
X238778595Y-80226675D01*
X238740499Y-80264770D01*
X238702404Y-80340960D01*
X238702404Y-80493341D01*
X238740499Y-80569532D01*
X238778595Y-80607627D01*
X238854785Y-80645722D01*
X238397642Y-79921913D02*
X238397642Y-79426675D01*
X238702404Y-79693341D01*
X238702404Y-79579056D01*
X238740499Y-79502865D01*
X238778595Y-79464770D01*
X238854785Y-79426675D01*
X239045261Y-79426675D01*
X239121452Y-79464770D01*
X239159547Y-79502865D01*
X239197642Y-79579056D01*
X239197642Y-79807627D01*
X239159547Y-79883818D01*
X239121452Y-79921913D01*
X214052313Y-81407627D02*
X213252313Y-81407627D01*
X213252313Y-81217151D01*
X213290409Y-81102865D01*
X213366599Y-81026675D01*
X213442789Y-80988579D01*
X213595170Y-80950484D01*
X213709456Y-80950484D01*
X213861837Y-80988579D01*
X213938028Y-81026675D01*
X214014218Y-81102865D01*
X214052313Y-81217151D01*
X214052313Y-81407627D01*
X213252313Y-80264770D02*
X213252313Y-80417151D01*
X213290409Y-80493341D01*
X213328504Y-80531437D01*
X213442789Y-80607627D01*
X213595170Y-80645722D01*
X213899932Y-80645722D01*
X213976123Y-80607627D01*
X214014218Y-80569532D01*
X214052313Y-80493341D01*
X214052313Y-80340960D01*
X214014218Y-80264770D01*
X213976123Y-80226675D01*
X213899932Y-80188579D01*
X213709456Y-80188579D01*
X213633266Y-80226675D01*
X213595170Y-80264770D01*
X213557075Y-80340960D01*
X213557075Y-80493341D01*
X213595170Y-80569532D01*
X213633266Y-80607627D01*
X213709456Y-80645722D01*
X213518980Y-79502865D02*
X214052313Y-79502865D01*
X213214218Y-79693341D02*
X213785647Y-79883818D01*
X213785647Y-79388579D01*
X232958145Y-78100569D02*
X232158145Y-78100569D01*
X232158145Y-77910093D01*
X232196241Y-77795807D01*
X232272431Y-77719617D01*
X232348621Y-77681521D01*
X232501002Y-77643426D01*
X232615288Y-77643426D01*
X232767669Y-77681521D01*
X232843860Y-77719617D01*
X232920050Y-77795807D01*
X232958145Y-77910093D01*
X232958145Y-78100569D01*
X232158145Y-76957712D02*
X232158145Y-77110093D01*
X232196241Y-77186283D01*
X232234336Y-77224379D01*
X232348621Y-77300569D01*
X232501002Y-77338664D01*
X232805764Y-77338664D01*
X232881955Y-77300569D01*
X232920050Y-77262474D01*
X232958145Y-77186283D01*
X232958145Y-77033902D01*
X232920050Y-76957712D01*
X232881955Y-76919617D01*
X232805764Y-76881521D01*
X232615288Y-76881521D01*
X232539098Y-76919617D01*
X232501002Y-76957712D01*
X232462907Y-77033902D01*
X232462907Y-77186283D01*
X232501002Y-77262474D01*
X232539098Y-77300569D01*
X232615288Y-77338664D01*
X232158145Y-76157712D02*
X232158145Y-76538664D01*
X232539098Y-76576760D01*
X232501002Y-76538664D01*
X232462907Y-76462474D01*
X232462907Y-76271998D01*
X232501002Y-76195807D01*
X232539098Y-76157712D01*
X232615288Y-76119617D01*
X232805764Y-76119617D01*
X232881955Y-76157712D01*
X232920050Y-76195807D01*
X232958145Y-76271998D01*
X232958145Y-76462474D01*
X232920050Y-76538664D01*
X232881955Y-76576760D01*
X229807372Y-76447040D02*
X229007372Y-76447040D01*
X229007372Y-76256564D01*
X229045468Y-76142278D01*
X229121658Y-76066088D01*
X229197848Y-76027992D01*
X229350229Y-75989897D01*
X229464515Y-75989897D01*
X229616896Y-76027992D01*
X229693087Y-76066088D01*
X229769277Y-76142278D01*
X229807372Y-76256564D01*
X229807372Y-76447040D01*
X229007372Y-75304183D02*
X229007372Y-75456564D01*
X229045468Y-75532754D01*
X229083563Y-75570850D01*
X229197848Y-75647040D01*
X229350229Y-75685135D01*
X229654991Y-75685135D01*
X229731182Y-75647040D01*
X229769277Y-75608945D01*
X229807372Y-75532754D01*
X229807372Y-75380373D01*
X229769277Y-75304183D01*
X229731182Y-75266088D01*
X229654991Y-75227992D01*
X229464515Y-75227992D01*
X229388325Y-75266088D01*
X229350229Y-75304183D01*
X229312134Y-75380373D01*
X229312134Y-75532754D01*
X229350229Y-75608945D01*
X229388325Y-75647040D01*
X229464515Y-75685135D01*
X229007372Y-74542278D02*
X229007372Y-74694659D01*
X229045468Y-74770850D01*
X229083563Y-74808945D01*
X229197848Y-74885135D01*
X229350229Y-74923231D01*
X229654991Y-74923231D01*
X229731182Y-74885135D01*
X229769277Y-74847040D01*
X229807372Y-74770850D01*
X229807372Y-74618469D01*
X229769277Y-74542278D01*
X229731182Y-74504183D01*
X229654991Y-74466088D01*
X229464515Y-74466088D01*
X229388325Y-74504183D01*
X229350229Y-74542278D01*
X229312134Y-74618469D01*
X229312134Y-74770850D01*
X229350229Y-74847040D01*
X229388325Y-74885135D01*
X229464515Y-74923231D01*
X251800736Y-81407627D02*
X251000736Y-81407627D01*
X251000736Y-81217151D01*
X251038832Y-81102865D01*
X251115022Y-81026675D01*
X251191212Y-80988579D01*
X251343593Y-80950484D01*
X251457879Y-80950484D01*
X251610260Y-80988579D01*
X251686451Y-81026675D01*
X251762641Y-81102865D01*
X251800736Y-81217151D01*
X251800736Y-81407627D01*
X251000736Y-80264770D02*
X251000736Y-80417151D01*
X251038832Y-80493341D01*
X251076927Y-80531437D01*
X251191212Y-80607627D01*
X251343593Y-80645722D01*
X251648355Y-80645722D01*
X251724546Y-80607627D01*
X251762641Y-80569532D01*
X251800736Y-80493341D01*
X251800736Y-80340960D01*
X251762641Y-80264770D01*
X251724546Y-80226675D01*
X251648355Y-80188579D01*
X251457879Y-80188579D01*
X251381689Y-80226675D01*
X251343593Y-80264770D01*
X251305498Y-80340960D01*
X251305498Y-80493341D01*
X251343593Y-80569532D01*
X251381689Y-80607627D01*
X251457879Y-80645722D01*
X251000736Y-79921913D02*
X251000736Y-79388579D01*
X251800736Y-79731437D01*
X236046869Y-79754098D02*
X235246869Y-79754098D01*
X235246869Y-79563622D01*
X235284965Y-79449336D01*
X235361155Y-79373146D01*
X235437345Y-79335050D01*
X235589726Y-79296955D01*
X235704012Y-79296955D01*
X235856393Y-79335050D01*
X235932584Y-79373146D01*
X236008774Y-79449336D01*
X236046869Y-79563622D01*
X236046869Y-79754098D01*
X235246869Y-78611241D02*
X235246869Y-78763622D01*
X235284965Y-78839812D01*
X235323060Y-78877908D01*
X235437345Y-78954098D01*
X235589726Y-78992193D01*
X235894488Y-78992193D01*
X235970679Y-78954098D01*
X236008774Y-78916003D01*
X236046869Y-78839812D01*
X236046869Y-78687431D01*
X236008774Y-78611241D01*
X235970679Y-78573146D01*
X235894488Y-78535050D01*
X235704012Y-78535050D01*
X235627822Y-78573146D01*
X235589726Y-78611241D01*
X235551631Y-78687431D01*
X235551631Y-78839812D01*
X235589726Y-78916003D01*
X235627822Y-78954098D01*
X235704012Y-78992193D01*
X235589726Y-78077908D02*
X235551631Y-78154098D01*
X235513536Y-78192193D01*
X235437345Y-78230289D01*
X235399250Y-78230289D01*
X235323060Y-78192193D01*
X235284965Y-78154098D01*
X235246869Y-78077908D01*
X235246869Y-77925527D01*
X235284965Y-77849336D01*
X235323060Y-77811241D01*
X235399250Y-77773146D01*
X235437345Y-77773146D01*
X235513536Y-77811241D01*
X235551631Y-77849336D01*
X235589726Y-77925527D01*
X235589726Y-78077908D01*
X235627822Y-78154098D01*
X235665917Y-78192193D01*
X235742107Y-78230289D01*
X235894488Y-78230289D01*
X235970679Y-78192193D01*
X236008774Y-78154098D01*
X236046869Y-78077908D01*
X236046869Y-77925527D01*
X236008774Y-77849336D01*
X235970679Y-77811241D01*
X235894488Y-77773146D01*
X235742107Y-77773146D01*
X235665917Y-77811241D01*
X235627822Y-77849336D01*
X235589726Y-77925527D01*
M02*
