M48
; DRILL file {KiCad (5.1.8)-1} date 04/27/21 09:48:39
; FORMAT={-:-/ absolute / metric / decimal}
; #@! TF.CreationDate,2021-04-27T09:48:39+02:00
; #@! TF.GenerationSoftware,Kicad,Pcbnew,(5.1.8)-1
; #@! TF.FileFunction,Plated,1,2,PTH
FMAT,2
METRIC
T1C0.400
T2C0.700
T3C0.800
T4C0.900
T5C1.000
T6C1.100
T7C1.500
T8C2.100
T9C2.200
%
G90
G05
T1
X38.026Y-92.258
X52.504Y-124.597
X54.46Y-163.053
X64.506Y-80.82
X64.808Y-70.086
X66.949Y-72.979
X70.587Y-128.854
X70.815Y-88.036
X78.029Y-128.88
X85.11Y-124.803
X104.896Y-124.176
X105.961Y-173.342
X119.461Y-80.853
X123.647Y-123.287
X127.274Y-177.836
X132.09Y-81.016
X141.707Y-122.941
X144.64Y-80.813
X151.836Y-178.204
X157.15Y-80.853
X161.011Y-123.632
X170.104Y-80.813
X180.312Y-122.735
X182.009Y-80.531
X190.724Y-76.368
X197.874Y-80.757
X198.097Y-122.39
X209.987Y-80.386
X212.438Y-178.123
X217.47Y-122.253
X217.653Y-78.842
X224.782Y-68.486
X225.626Y-66.716
X231.506Y-79.5
X233.85Y-67.531
X237.117Y-122.253
X238.013Y-69.124
X244.003Y-79.5
X244.513Y-66.373
X246.388Y-67.329
X249.954Y-173.206
X254.609Y-121.534
X261.277Y-74.425
X269.26Y-74.486
X273.291Y-74.226
X275.169Y-121.971
X276.604Y-172.996
X276.995Y-73.98
X283.428Y-173.083
X289.71Y-173.223
X294.678Y-121.77
X313.408Y-68.868
X314.256Y-121.425
X314.378Y-70.82
X314.599Y-68.036
X315.77Y-88.603
X317.228Y-70.503
X317.286Y-147.659
X318.818Y-81.196
X324.805Y-92.994
X326.39Y-117.831
X333.332Y-169.514
X341.252Y-92.484
T2
X269.352Y-71.564
X269.352Y-76.644
X276.844Y-71.562
X276.844Y-76.642
X55.316Y-137.685
X55.316Y-142.765
X273.102Y-71.564
X273.102Y-76.644
T3
X49.004Y-72.91
X49.004Y-77.99
X248.288Y-71.283
X248.288Y-76.363
X241.987Y-67.976
X241.987Y-73.056
X216.842Y-67.976
X216.842Y-73.056
X105.981Y-69.629
X105.981Y-74.709
X175.709Y-72.936
X175.709Y-78.016
X226.295Y-72.936
X226.295Y-78.016
X207.386Y-69.629
X207.386Y-74.709
X257.864Y-69.629
X257.864Y-74.709
X210.538Y-71.283
X210.538Y-76.363
X102.812Y-67.976
X102.812Y-73.056
X166.201Y-67.976
X166.201Y-73.056
X150.354Y-72.936
X150.354Y-78.016
X163.031Y-72.936
X163.031Y-78.016
X83.795Y-71.283
X83.795Y-76.363
X124.998Y-72.936
X124.998Y-78.016
X201.065Y-72.936
X201.065Y-78.016
X96.679Y-148.234
X96.679Y-153.314
X229.445Y-67.976
X229.445Y-73.056
X71.117Y-71.283
X71.117Y-76.363
X185.218Y-71.283
X185.218Y-76.363
X128.167Y-67.976
X128.167Y-73.056
X61.609Y-72.936
X61.609Y-78.016
X67.948Y-69.629
X67.948Y-74.709
X137.676Y-72.936
X137.676Y-78.016
X131.337Y-69.629
X131.337Y-74.709
X159.862Y-71.283
X159.862Y-76.363
X99.642Y-72.936
X99.642Y-78.016
X335.392Y-70.077
X335.392Y-72.077
X335.392Y-74.077
X42.664Y-69.623
X42.664Y-74.703
X235.685Y-71.283
X235.685Y-76.363
X178.879Y-67.976
X178.879Y-73.056
X77.456Y-67.976
X77.456Y-73.056
X64.778Y-67.976
X64.778Y-73.056
X264.042Y-72.936
X264.042Y-78.016
X169.37Y-69.629
X169.37Y-74.709
X153.523Y-67.976
X153.523Y-73.056
X144.015Y-69.629
X144.015Y-74.709
X172.54Y-71.283
X172.54Y-76.363
X58.439Y-71.283
X58.439Y-76.363
X112.32Y-72.936
X112.32Y-78.016
X45.865Y-71.295
X45.865Y-76.375
X115.49Y-67.976
X115.49Y-73.056
X74.287Y-72.936
X74.287Y-78.016
X238.836Y-72.936
X238.836Y-78.016
X191.557Y-67.976
X191.557Y-73.056
X188.387Y-72.936
X188.387Y-78.016
X93.303Y-69.629
X93.303Y-74.709
X254.59Y-67.976
X254.59Y-73.056
X147.184Y-71.283
X147.184Y-76.363
X260.953Y-71.283
X260.953Y-76.363
X194.726Y-69.629
X194.726Y-74.709
X39.438Y-67.952
X39.438Y-73.032
X56.83Y-111.336
X56.83Y-116.416
X251.439Y-72.936
X251.439Y-78.016
X245.137Y-69.629
X245.137Y-74.709
X140.845Y-67.976
X140.845Y-73.056
X213.69Y-72.936
X213.69Y-78.016
X90.134Y-67.976
X90.134Y-73.056
X223.144Y-71.283
X223.144Y-76.363
X80.625Y-69.629
X80.625Y-74.709
X52.1Y-67.976
X52.1Y-73.056
X197.896Y-71.283
X197.896Y-76.363
X134.506Y-71.283
X134.506Y-76.363
X219.993Y-69.629
X219.993Y-74.709
X86.964Y-72.936
X86.964Y-78.016
X232.596Y-69.629
X232.596Y-74.709
X55.27Y-69.629
X55.27Y-74.709
X118.659Y-69.629
X118.659Y-74.709
X182.048Y-69.629
X182.048Y-74.709
X204.235Y-67.976
X204.235Y-73.056
X109.151Y-71.283
X109.151Y-76.363
X96.473Y-71.283
X96.473Y-76.363
X156.693Y-69.629
X156.693Y-74.709
X121.828Y-71.283
X121.828Y-76.363
T4
X69.042Y-137.505
X71.582Y-137.505
X291.107Y-63.736
X293.647Y-63.736
X284.567Y-63.736
X287.107Y-63.736
X64.196Y-137.498
X66.736Y-137.498
T5
X327.172Y-75.852
X329.712Y-75.852
X35.783Y-86.802
X35.783Y-101.302
X38.283Y-101.302
X40.783Y-86.802
X40.783Y-101.302
T6
X269.814Y-62.988
X269.814Y-67.488
X276.314Y-62.988
X276.314Y-67.488
X302.986Y-63.403
X302.986Y-78.643
X305.526Y-63.403
X305.526Y-78.643
X308.066Y-63.403
X308.066Y-78.643
X310.606Y-63.403
X310.606Y-78.643
X313.146Y-63.403
X313.146Y-78.643
X315.686Y-63.403
X315.686Y-78.643
X318.226Y-63.403
X318.226Y-78.643
X320.766Y-63.403
X320.766Y-78.643
X323.306Y-63.403
X323.306Y-78.643
X325.846Y-63.403
X325.846Y-78.643
X328.386Y-63.403
X328.386Y-78.643
X330.926Y-63.403
X330.926Y-78.643
X333.466Y-63.403
X333.466Y-78.643
X336.006Y-63.403
X336.006Y-78.643
X338.546Y-63.403
X338.546Y-78.643
X341.086Y-63.403
X341.086Y-78.643
X343.626Y-63.403
X343.626Y-78.643
T7
X59.531Y-92.234
X65.881Y-89.694
X345.281Y-149.384
X351.631Y-146.844
X273.844Y-149.384
X280.194Y-146.844
X188.118Y-130.334
X194.468Y-127.794
X245.268Y-130.334
X251.618Y-127.794
X88.106Y-111.284
X94.456Y-108.744
X240.506Y-111.284
X246.856Y-108.744
X34.54Y-149.36
X40.89Y-146.82
X107.156Y-111.284
X113.506Y-108.744
X269.116Y-168.434
X275.466Y-165.894
X71.437Y-149.384
X77.787Y-146.844
X109.537Y-168.424
X115.887Y-165.884
X197.644Y-149.384
X203.994Y-146.844
X307.181Y-168.434
X313.531Y-165.894
X345.281Y-130.334
X351.631Y-127.794
X207.168Y-130.334
X213.518Y-127.794
X250.031Y-92.234
X256.381Y-89.694
X145.256Y-111.284
X151.606Y-108.744
X135.731Y-92.234
X142.081Y-89.694
X316.706Y-92.234
X323.056Y-89.694
X61.912Y-149.384
X68.263Y-146.844
X61.912Y-130.324
X68.263Y-127.784
X288.131Y-92.234
X294.481Y-89.694
X326.231Y-149.384
X332.581Y-146.844
X180.975Y-168.434
X187.325Y-165.894
X283.368Y-130.334
X289.718Y-127.794
X259.556Y-111.284
X265.906Y-108.744
X230.981Y-92.234
X237.331Y-89.694
X269.081Y-92.234
X275.431Y-89.694
X302.419Y-130.334
X308.769Y-127.794
X34.54Y-130.315
X40.89Y-127.775
X92.893Y-168.43
X99.243Y-165.89
X321.468Y-111.284
X327.818Y-108.744
X159.544Y-149.384
X165.894Y-146.844
X235.744Y-149.384
X242.094Y-146.844
X345.281Y-111.284
X351.631Y-108.744
X169.068Y-130.334
X175.418Y-127.794
X130.969Y-130.334
X137.319Y-127.794
X173.831Y-92.234
X180.181Y-89.694
X202.406Y-111.284
X208.756Y-108.744
X250.061Y-168.424
X256.411Y-165.884
X345.281Y-92.234
X351.631Y-89.694
X64.294Y-111.284
X70.644Y-108.744
X314.325Y-130.334
X320.675Y-127.794
X173.858Y-168.442
X180.208Y-165.902
X178.594Y-149.384
X184.944Y-146.844
X254.794Y-149.384
X261.144Y-146.844
X278.606Y-111.284
X284.956Y-108.744
X264.318Y-130.334
X270.668Y-127.794
X192.881Y-92.234
X199.231Y-89.694
X150.018Y-130.334
X156.368Y-127.794
X154.781Y-92.234
X161.131Y-89.694
X221.456Y-111.284
X227.806Y-108.744
X323.85Y-120.809
X330.2Y-118.269
X300.037Y-149.384
X306.387Y-146.844
X254.834Y-168.434
X261.184Y-165.894
X85.725Y-168.434
X92.075Y-165.894
X140.494Y-149.384
X146.844Y-146.844
X216.694Y-149.384
X223.044Y-146.844
X121.444Y-149.384
X127.794Y-146.844
X226.218Y-130.334
X232.568Y-127.794
X116.681Y-92.234
X123.031Y-89.694
X92.869Y-130.334
X99.219Y-127.794
X78.581Y-92.234
X84.931Y-89.694
X183.356Y-111.284
X189.706Y-108.744
X34.54Y-168.4
X40.89Y-165.86
X61.912Y-168.424
X68.262Y-165.884
X126.206Y-111.284
X132.556Y-108.744
X66.675Y-130.324
X73.025Y-127.784
X288.172Y-168.424
X294.522Y-165.884
X326.231Y-168.434
X332.581Y-165.894
X345.281Y-168.434
X351.631Y-165.894
X102.394Y-149.384
X108.744Y-146.844
X111.919Y-130.334
X118.269Y-127.794
X97.631Y-92.234
X103.981Y-89.694
X297.656Y-111.284
X304.006Y-108.744
X211.931Y-92.234
X218.281Y-89.694
X164.306Y-111.284
X170.656Y-108.744
X34.54Y-111.26
X40.89Y-108.72
X83.344Y-149.384
X89.694Y-146.844
X283.39Y-168.434
X289.74Y-165.894
X64.294Y-168.424
X70.644Y-165.884
T9
X138.219Y-104.467
X354.845Y-80.56
X32.593Y-63.563
X200.365Y-167.197
X301.635Y-101.549
X32.593Y-80.563
X96.741Y-160.309
X38.075Y-161.42
X354.845Y-63.56
X193.845Y-63.56
X193.845Y-79.56
X195.006Y-104.353
X317.779Y-158.5
T8
G00X32.583Y-92.652
M15
G01X32.583Y-94.952
M16
G05
G00X43.983Y-92.652
M15
G01X43.983Y-94.952
M16
G05
T0
M30
