M48
; DRILL file {KiCad (5.1.8)-1} date 04/24/21 10:37:16
; FORMAT={-:-/ absolute / inch / decimal}
; #@! TF.CreationDate,2021-04-24T10:37:16+02:00
; #@! TF.GenerationSoftware,Kicad,Pcbnew,(5.1.8)-1
; #@! TF.FileFunction,Plated,1,2,PTH
FMAT,2
INCH
T1C0.0157
T2C0.0276
T3C0.0315
T4C0.0354
T5C0.0394
T6C0.0433
T7C0.0470
T8C0.0591
T9C0.0866
T10C0.0910
%
G90
G05
T1
X2.0671Y-4.9054
X2.5396Y-3.1819
X2.6358Y-2.8732
X2.779Y-5.073
X2.788Y-3.466
X3.072Y-5.074
X3.3508Y-4.9135
X4.1298Y-4.8888
X4.7032Y-3.1832
X4.868Y-4.8538
X5.0108Y-7.0014
X5.2004Y-3.1896
X5.579Y-4.8402
X5.6945Y-3.1816
X5.9778Y-7.0159
X6.187Y-3.1832
X6.339Y-4.8674
X6.697Y-3.1816
X7.0989Y-4.8321
X7.1657Y-3.1705
X7.5088Y-3.0066
X7.7903Y-3.1794
X7.7991Y-4.8185
X8.2672Y-3.1648
X8.3637Y-7.0127
X8.5618Y-4.8131
X8.569Y-3.104
X8.8497Y-2.6963
X8.8829Y-2.6266
X9.1144Y-3.1299
X9.2067Y-2.6587
X9.3353Y-4.8131
X9.3706Y-2.7214
X9.6064Y-3.1299
X9.6265Y-2.6131
X9.7003Y-2.6508
X9.8407Y-6.8191
X10.024Y-4.7848
X10.2865Y-2.9301
X10.5857Y-2.5938
X10.6008Y-2.9325
X10.6746Y-3.0539
X10.7266Y-2.5241
X10.7595Y-2.9223
X10.8334Y-4.802
X10.8899Y-6.8109
X10.901Y-2.9214
X11.1586Y-6.8143
X11.4059Y-6.8198
X11.6015Y-4.7941
X12.3389Y-2.7114
X12.3723Y-4.7805
X12.3858Y-2.6786
X12.4319Y-3.4883
X12.4893Y-2.7757
X12.4916Y-5.8133
X12.5519Y-3.1967
X12.7876Y-3.6612
X12.85Y-4.639
X13.1233Y-6.6738
X13.4351Y-3.6411
T2
X10.8994Y-2.8174
X10.8994Y-3.0174
X2.1778Y-5.4207
X2.1778Y-5.6207
X10.7517Y-2.8174
X10.7517Y-3.0174
X10.6041Y-2.8174
X10.6041Y-3.0174
T3
X8.0407Y-2.6762
X8.0407Y-2.8762
X5.1707Y-2.7413
X5.1707Y-2.9413
X5.9194Y-2.8715
X5.9194Y-3.0715
X7.292Y-2.8064
X7.292Y-3.0064
X8.9092Y-2.8715
X8.9092Y-3.0715
X5.7947Y-2.8064
X5.7947Y-3.0064
X7.4168Y-2.8715
X7.4168Y-3.0715
X4.5468Y-2.6762
X4.5468Y-2.8762
X4.6716Y-2.7413
X4.6716Y-2.9413
X3.1742Y-2.7413
X3.1742Y-2.9413
X1.9293Y-2.8705
X1.9293Y-3.0705
X9.8992Y-2.8715
X9.8992Y-3.0715
X9.1573Y-2.7413
X9.1573Y-2.9413
X5.2955Y-2.8064
X5.2955Y-3.0064
X5.4203Y-2.8715
X5.4203Y-3.0715
X8.413Y-2.8715
X8.413Y-3.0715
X4.9212Y-2.8715
X4.9212Y-3.0715
X2.5503Y-2.6762
X2.5503Y-2.8762
X13.2044Y-2.7589
X13.2044Y-2.8377
X13.2044Y-2.9164
X6.4186Y-2.8715
X6.4186Y-3.0715
X5.5451Y-2.6762
X5.5451Y-2.8762
X7.0425Y-2.6762
X7.0425Y-2.8762
X6.0442Y-2.6762
X6.0442Y-2.8762
X3.8062Y-5.836
X3.8062Y-6.036
X9.527Y-2.6762
X9.527Y-2.8762
X10.1521Y-2.7413
X10.1521Y-2.9413
X9.403Y-2.8715
X9.403Y-3.0715
X4.4221Y-2.8715
X4.4221Y-3.0715
X8.7852Y-2.8064
X8.7852Y-3.0064
X7.9159Y-2.8715
X7.9159Y-3.0715
X6.9177Y-2.8715
X6.9177Y-3.0715
X3.9229Y-2.8715
X3.9229Y-3.0715
X2.9247Y-2.8715
X2.9247Y-3.0715
X2.4255Y-2.8715
X2.4255Y-3.0715
X2.7999Y-2.8064
X2.7999Y-3.0064
X5.046Y-2.6762
X5.046Y-2.8762
X10.3954Y-2.8715
X10.3954Y-3.0715
X9.2789Y-2.8064
X9.2789Y-3.0064
X2.3008Y-2.8064
X2.3008Y-3.0064
X9.0333Y-2.6762
X9.0333Y-2.8762
X6.6681Y-2.7413
X6.6681Y-2.9413
X2.6751Y-2.7413
X2.6751Y-2.9413
X4.2973Y-2.8064
X4.2973Y-3.0064
X3.7981Y-2.8064
X3.7981Y-3.0064
X2.0512Y-2.6762
X2.0512Y-2.8762
X6.169Y-2.7413
X6.169Y-2.9413
X3.6734Y-2.7413
X3.6734Y-2.9413
X7.5416Y-2.6762
X7.5416Y-2.8762
X8.6611Y-2.7413
X8.6611Y-2.9413
X8.1648Y-2.7413
X8.1648Y-2.9413
X10.2737Y-2.8064
X10.2737Y-3.0064
X3.299Y-2.8064
X3.299Y-3.0064
X7.1673Y-2.7413
X7.1673Y-2.9413
X4.0477Y-2.6762
X4.0477Y-2.8762
X4.1725Y-2.7413
X4.1725Y-2.9413
X8.5371Y-2.6762
X8.5371Y-2.8762
X6.5433Y-2.6762
X6.5433Y-2.8762
X1.5527Y-2.6753
X1.5527Y-2.8753
X1.6797Y-2.7411
X1.6797Y-2.9411
X10.0232Y-2.6762
X10.0232Y-2.8762
X3.4238Y-2.8715
X3.4238Y-3.0715
X7.6664Y-2.7413
X7.6664Y-2.9413
X6.2938Y-2.8064
X6.2938Y-3.0064
X9.7751Y-2.8064
X9.7751Y-3.0064
X3.0494Y-2.6762
X3.0494Y-2.8762
X2.176Y-2.7413
X2.176Y-2.9413
X5.6699Y-2.7413
X5.6699Y-2.9413
X1.8057Y-2.8069
X1.8057Y-3.0069
X8.2889Y-2.8064
X8.2889Y-3.0064
X7.7912Y-2.8064
X7.7912Y-3.0064
X6.7929Y-2.8064
X6.7929Y-3.0064
X9.6511Y-2.7413
X9.6511Y-2.9413
X4.7964Y-2.8064
X4.7964Y-3.0064
X3.5486Y-2.6762
X3.5486Y-2.8762
T4
X10.314Y-2.5166
X10.414Y-2.5166
X2.6339Y-5.4154
X2.7339Y-5.4154
X10.0565Y-2.5166
X10.1565Y-2.5166
T5
X12.8808Y-2.9863
X12.9808Y-2.9863
T6
X10.6226Y-2.4798
X10.6226Y-2.657
X10.8785Y-2.4798
X10.8785Y-2.657
X11.9286Y-2.4962
X11.9286Y-3.0962
X12.0286Y-2.4962
X12.0286Y-3.0962
X12.1286Y-2.4962
X12.1286Y-3.0962
X12.2286Y-2.4962
X12.2286Y-3.0962
X12.3286Y-2.4962
X12.3286Y-3.0962
X12.4286Y-2.4962
X12.4286Y-3.0962
X12.5286Y-2.4962
X12.5286Y-3.0962
X12.6286Y-2.4962
X12.6286Y-3.0962
X12.7286Y-2.4962
X12.7286Y-3.0962
X12.8286Y-2.4962
X12.8286Y-3.0962
X12.9286Y-2.4962
X12.9286Y-3.0962
X13.0286Y-2.4962
X13.0286Y-3.0962
X13.1286Y-2.4962
X13.1286Y-3.0962
X13.2286Y-2.4962
X13.2286Y-3.0962
X13.3286Y-2.4962
X13.3286Y-3.0962
X13.4286Y-2.4962
X13.4286Y-3.0962
X13.5286Y-2.4962
X13.5286Y-3.0962
T7
X1.4173Y-3.9961
X1.5157Y-3.9961
X1.6142Y-3.9961
T8
X10.5951Y-6.6312
X10.8451Y-6.5312
X12.8438Y-5.8812
X13.0938Y-5.7812
X2.8125Y-5.8812
X3.0625Y-5.7812
X5.3438Y-3.6313
X5.5938Y-3.5312
X12.8438Y-6.6312
X13.0938Y-6.5312
X2.5312Y-4.3812
X2.7812Y-4.2812
X12.375Y-5.1312
X12.625Y-5.0312
X9.4688Y-4.3812
X9.7188Y-4.2812
X7.5938Y-3.6313
X7.8438Y-3.5312
X5.1562Y-5.1312
X5.4062Y-5.0312
X4.7812Y-5.8812
X5.0312Y-5.7812
X12.75Y-4.7562
X13.0Y-4.6562
X8.1562Y-5.1312
X8.4062Y-5.0312
X13.5938Y-3.6313
X13.8438Y-3.5312
X12.4688Y-3.6313
X12.7188Y-3.5312
X7.125Y-6.6312
X7.375Y-6.5312
X3.0938Y-3.6313
X3.3438Y-3.5312
X9.2813Y-5.8812
X9.5313Y-5.7812
X2.625Y-5.1309
X2.875Y-5.0309
X5.7188Y-4.3812
X5.9688Y-4.2812
X4.5938Y-3.6313
X4.8438Y-3.5312
X10.2188Y-4.3812
X10.4688Y-4.2812
X6.0938Y-3.6313
X6.3438Y-3.5312
X7.0313Y-5.8812
X7.2813Y-5.7812
X3.6562Y-5.1312
X3.9062Y-5.0312
X13.5938Y-4.3812
X13.8438Y-4.2812
X8.5313Y-5.8812
X8.7813Y-5.7812
X1.3598Y-6.6299
X1.6098Y-6.5299
X10.0313Y-5.8812
X10.2813Y-5.7812
X4.9688Y-4.3812
X5.2188Y-4.2812
X3.375Y-6.6312
X3.625Y-6.5312
X11.7188Y-4.3812
X11.9688Y-4.2812
X2.4375Y-5.1309
X2.6875Y-5.0309
X3.4688Y-4.3812
X3.7188Y-4.2812
X7.9688Y-4.3812
X8.2188Y-4.2812
X6.2813Y-5.8812
X6.5313Y-5.7812
X6.6562Y-5.1312
X6.9062Y-5.0312
X9.6562Y-5.1312
X9.9062Y-5.0312
X11.9062Y-5.1312
X12.1562Y-5.0312
X10.7813Y-5.8812
X11.0313Y-5.7812
X1.3598Y-5.8803
X1.6098Y-5.7803
X4.3125Y-6.6309
X4.5625Y-6.5309
X2.4375Y-6.6309
X2.6875Y-6.5309
X10.9688Y-4.3812
X11.2188Y-4.2812
X8.7188Y-4.3812
X8.9688Y-4.2812
X7.2188Y-4.3812
X7.4688Y-4.2812
X5.5312Y-5.8812
X5.7812Y-5.7812
X4.0312Y-5.8812
X4.2812Y-5.7812
X11.1571Y-6.6312
X11.4071Y-6.5312
X8.9062Y-5.1312
X9.1562Y-5.0312
X2.4375Y-5.8812
X2.6875Y-5.7812
X13.5938Y-6.6312
X13.8438Y-6.5312
X11.3453Y-6.6309
X11.5953Y-6.5309
X11.3438Y-3.6313
X11.5938Y-3.5312
X3.6572Y-6.6311
X3.9072Y-6.5311
X6.4688Y-4.3812
X6.7188Y-4.2812
X10.5938Y-3.6313
X10.8438Y-3.5312
X9.8438Y-3.6313
X10.0938Y-3.5312
X7.4062Y-5.1312
X7.6562Y-5.0312
X1.3598Y-4.3803
X1.6098Y-4.2803
X13.5938Y-5.1312
X13.8438Y-5.0312
X3.2812Y-5.8812
X3.5312Y-5.7812
X12.0938Y-6.6312
X12.3438Y-6.5312
X13.5938Y-5.8812
X13.8438Y-5.7812
X11.8125Y-5.8812
X12.0625Y-5.7812
X2.5312Y-6.6309
X2.7812Y-6.5309
X8.3438Y-3.6313
X8.5938Y-3.5312
X9.0938Y-3.6313
X9.3438Y-3.5312
X4.4062Y-5.1312
X4.6562Y-5.0312
X6.8448Y-6.6316
X7.0948Y-6.5316
X11.1562Y-5.1312
X11.4062Y-5.0312
X1.3598Y-5.1305
X1.6098Y-5.0305
X3.8438Y-3.6313
X4.0938Y-3.5312
X7.7813Y-5.8812
X8.0313Y-5.7812
X12.6562Y-4.3812
X12.9062Y-4.2812
X2.3438Y-3.6313
X2.5938Y-3.5312
X6.8438Y-3.6313
X7.0938Y-3.5312
X4.2188Y-4.3812
X4.4688Y-4.2812
X5.9062Y-5.1312
X6.1562Y-5.0312
X10.0328Y-6.6312
X10.2828Y-6.5312
X10.4062Y-5.1312
X10.6562Y-5.0312
X9.8449Y-6.6309
X10.0949Y-6.5309
T9
X5.4417Y-4.1129
X7.6774Y-4.1084
X7.6317Y-2.5024
X1.2832Y-3.1718
X7.6317Y-3.1323
X1.2832Y-2.5025
X12.511Y-6.2402
X13.9703Y-2.5024
X13.9703Y-3.1717
X11.8754Y-3.998
X7.8884Y-6.5826
X3.8087Y-6.3114
T10
X1.2953Y-3.7008
X1.7362Y-3.7008
T0
M30
