G04 #@! TF.GenerationSoftware,KiCad,Pcbnew,(5.1.8)-1*
G04 #@! TF.CreationDate,2021-04-24T10:28:59+02:00*
G04 #@! TF.ProjectId,crispy-keyboard,63726973-7079-42d6-9b65-79626f617264,rev?*
G04 #@! TF.SameCoordinates,Original*
G04 #@! TF.FileFunction,Legend,Bot*
G04 #@! TF.FilePolarity,Positive*
%FSLAX46Y46*%
G04 Gerber Fmt 4.6, Leading zero omitted, Abs format (unit mm)*
G04 Created by KiCad (PCBNEW (5.1.8)-1) date 2021-04-24 10:28:59*
%MOMM*%
%LPD*%
G01*
G04 APERTURE LIST*
%ADD10C,0.300000*%
%ADD11C,0.120000*%
%ADD12C,0.152400*%
%ADD13C,0.150000*%
G04 APERTURE END LIST*
D10*
X194216568Y-170641271D02*
X194216568Y-171712700D01*
X194145140Y-171926985D01*
X194002282Y-172069842D01*
X193787997Y-172141271D01*
X193645140Y-172141271D01*
X195645140Y-172141271D02*
X194930854Y-172141271D01*
X194930854Y-170641271D01*
X197002282Y-171998414D02*
X196930854Y-172069842D01*
X196716568Y-172141271D01*
X196573711Y-172141271D01*
X196359425Y-172069842D01*
X196216568Y-171926985D01*
X196145140Y-171784128D01*
X196073711Y-171498414D01*
X196073711Y-171284128D01*
X196145140Y-170998414D01*
X196216568Y-170855557D01*
X196359425Y-170712700D01*
X196573711Y-170641271D01*
X196716568Y-170641271D01*
X196930854Y-170712700D01*
X197002282Y-170784128D01*
X198073711Y-170641271D02*
X198073711Y-171712700D01*
X198002282Y-171926985D01*
X197859425Y-172069842D01*
X197645140Y-172141271D01*
X197502282Y-172141271D01*
X199502282Y-172141271D02*
X198787997Y-172141271D01*
X198787997Y-170641271D01*
X200859425Y-171998414D02*
X200787997Y-172069842D01*
X200573711Y-172141271D01*
X200430854Y-172141271D01*
X200216568Y-172069842D01*
X200073711Y-171926985D01*
X200002282Y-171784128D01*
X199930854Y-171498414D01*
X199930854Y-171284128D01*
X200002282Y-170998414D01*
X200073711Y-170855557D01*
X200216568Y-170712700D01*
X200430854Y-170641271D01*
X200573711Y-170641271D01*
X200787997Y-170712700D01*
X200859425Y-170784128D01*
X201930854Y-170641271D02*
X201930854Y-171712700D01*
X201859425Y-171926985D01*
X201716568Y-172069842D01*
X201502282Y-172141271D01*
X201359425Y-172141271D01*
X203359425Y-172141271D02*
X202645140Y-172141271D01*
X202645140Y-170641271D01*
X204716568Y-171998414D02*
X204645140Y-172069842D01*
X204430854Y-172141271D01*
X204287997Y-172141271D01*
X204073711Y-172069842D01*
X203930854Y-171926985D01*
X203859425Y-171784128D01*
X203787997Y-171498414D01*
X203787997Y-171284128D01*
X203859425Y-170998414D01*
X203930854Y-170855557D01*
X204073711Y-170712700D01*
X204287997Y-170641271D01*
X204430854Y-170641271D01*
X204645140Y-170712700D01*
X204716568Y-170784128D01*
X205787997Y-170641271D02*
X205787997Y-171712700D01*
X205716568Y-171926985D01*
X205573711Y-172069842D01*
X205359425Y-172141271D01*
X205216568Y-172141271D01*
X207216568Y-172141271D02*
X206502282Y-172141271D01*
X206502282Y-170641271D01*
X208573711Y-171998414D02*
X208502282Y-172069842D01*
X208287997Y-172141271D01*
X208145140Y-172141271D01*
X207930854Y-172069842D01*
X207787997Y-171926985D01*
X207716568Y-171784128D01*
X207645140Y-171498414D01*
X207645140Y-171284128D01*
X207716568Y-170998414D01*
X207787997Y-170855557D01*
X207930854Y-170712700D01*
X208145140Y-170641271D01*
X208287997Y-170641271D01*
X208502282Y-170712700D01*
X208573711Y-170784128D01*
D11*
X331042320Y-77182020D02*
X331042320Y-75852020D01*
X329712320Y-77182020D02*
X331042320Y-77182020D01*
X328442320Y-77182020D02*
X328442320Y-74522020D01*
X328442320Y-74522020D02*
X325842320Y-74522020D01*
X328442320Y-77182020D02*
X325842320Y-77182020D01*
X325842320Y-77182020D02*
X325842320Y-74522020D01*
X334391760Y-75076560D02*
X335391760Y-75076560D01*
X334391760Y-74076560D02*
X334391760Y-75076560D01*
X336273874Y-69766560D02*
X336831760Y-69766560D01*
X336273874Y-70386560D02*
X336831760Y-70386560D01*
X342651760Y-69766560D02*
X338451760Y-69766560D01*
X342651760Y-70386560D02*
X342651760Y-69766560D01*
X338451760Y-70386560D02*
X342651760Y-70386560D01*
X336831760Y-71076560D02*
X338451760Y-71076560D01*
X336273874Y-71766560D02*
X336831760Y-71766560D01*
X336273874Y-72386560D02*
X336831760Y-72386560D01*
X342651760Y-71766560D02*
X338451760Y-71766560D01*
X342651760Y-72386560D02*
X342651760Y-71766560D01*
X338451760Y-72386560D02*
X342651760Y-72386560D01*
X336831760Y-73076560D02*
X338451760Y-73076560D01*
X336326760Y-73766560D02*
X336831760Y-73766560D01*
X336326760Y-74386560D02*
X336831760Y-74386560D01*
X338451760Y-73846560D02*
X342651760Y-73846560D01*
X338451760Y-73966560D02*
X342651760Y-73966560D01*
X338451760Y-74086560D02*
X342651760Y-74086560D01*
X338451760Y-74206560D02*
X342651760Y-74206560D01*
X338451760Y-74326560D02*
X342651760Y-74326560D01*
X342651760Y-73766560D02*
X338451760Y-73766560D01*
X342651760Y-74386560D02*
X342651760Y-73766560D01*
X338451760Y-74386560D02*
X342651760Y-74386560D01*
X338451760Y-75136560D02*
X336831760Y-75136560D01*
X338451760Y-69016560D02*
X338451760Y-75136560D01*
X336831760Y-69016560D02*
X338451760Y-69016560D01*
X336831760Y-75136560D02*
X336831760Y-69016560D01*
D12*
X30778400Y-101500000D02*
G75*
G03*
X30778400Y-101500000I-381000J0D01*
G01*
D13*
X332589939Y-76185353D02*
X331875653Y-76185353D01*
X331732796Y-76232972D01*
X331637558Y-76328210D01*
X331589939Y-76471067D01*
X331589939Y-76566305D01*
X332494700Y-75756781D02*
X332542320Y-75709162D01*
X332589939Y-75613924D01*
X332589939Y-75375829D01*
X332542320Y-75280591D01*
X332494700Y-75232972D01*
X332399462Y-75185353D01*
X332304224Y-75185353D01*
X332161367Y-75232972D01*
X331589939Y-75804400D01*
X331589939Y-75185353D01*
X338825093Y-75528940D02*
X338825093Y-76243226D01*
X338872712Y-76386083D01*
X338967950Y-76481321D01*
X339110807Y-76528940D01*
X339206045Y-76528940D01*
X337825093Y-76528940D02*
X338396521Y-76528940D01*
X338110807Y-76528940D02*
X338110807Y-75528940D01*
X338206045Y-75671798D01*
X338301283Y-75767036D01*
X338396521Y-75814655D01*
X308813586Y-64673686D02*
X308580253Y-65373686D01*
X308346920Y-64673686D01*
X308113586Y-65373686D02*
X308113586Y-64907020D01*
X308113586Y-64673686D02*
X308146920Y-64707020D01*
X308113586Y-64740353D01*
X308080253Y-64707020D01*
X308113586Y-64673686D01*
X308113586Y-64740353D01*
X307780253Y-64907020D02*
X307780253Y-65373686D01*
X307780253Y-64973686D02*
X307746920Y-64940353D01*
X307680253Y-64907020D01*
X307580253Y-64907020D01*
X307513586Y-64940353D01*
X307480253Y-65007020D01*
X307480253Y-65373686D01*
X311157553Y-64618120D02*
X311224220Y-64584786D01*
X311324220Y-64584786D01*
X311424220Y-64618120D01*
X311490886Y-64684786D01*
X311524220Y-64751453D01*
X311557553Y-64884786D01*
X311557553Y-64984786D01*
X311524220Y-65118120D01*
X311490886Y-65184786D01*
X311424220Y-65251453D01*
X311324220Y-65284786D01*
X311257553Y-65284786D01*
X311157553Y-65251453D01*
X311124220Y-65218120D01*
X311124220Y-64984786D01*
X311257553Y-64984786D01*
X310824220Y-65284786D02*
X310824220Y-64584786D01*
X310424220Y-65284786D01*
X310424220Y-64584786D01*
X310090886Y-65284786D02*
X310090886Y-64584786D01*
X309924220Y-64584786D01*
X309824220Y-64618120D01*
X309757553Y-64684786D01*
X309724220Y-64751453D01*
X309690886Y-64884786D01*
X309690886Y-64984786D01*
X309724220Y-65118120D01*
X309757553Y-65184786D01*
X309824220Y-65251453D01*
X309924220Y-65284786D01*
X310090886Y-65284786D01*
X313529773Y-77425986D02*
X313763106Y-77092653D01*
X313929773Y-77425986D02*
X313929773Y-76725986D01*
X313663106Y-76725986D01*
X313596440Y-76759320D01*
X313563106Y-76792653D01*
X313529773Y-76859320D01*
X313529773Y-76959320D01*
X313563106Y-77025986D01*
X313596440Y-77059320D01*
X313663106Y-77092653D01*
X313929773Y-77092653D01*
X313263106Y-77392653D02*
X313163106Y-77425986D01*
X312996440Y-77425986D01*
X312929773Y-77392653D01*
X312896440Y-77359320D01*
X312863106Y-77292653D01*
X312863106Y-77225986D01*
X312896440Y-77159320D01*
X312929773Y-77125986D01*
X312996440Y-77092653D01*
X313129773Y-77059320D01*
X313196440Y-77025986D01*
X313229773Y-76992653D01*
X313263106Y-76925986D01*
X313263106Y-76859320D01*
X313229773Y-76792653D01*
X313196440Y-76759320D01*
X313129773Y-76725986D01*
X312963106Y-76725986D01*
X312863106Y-76759320D01*
X312663106Y-76725986D02*
X312263106Y-76725986D01*
X312463106Y-77425986D02*
X312463106Y-76725986D01*
X315827393Y-64559386D02*
X316160726Y-64559386D01*
X316194060Y-64892720D01*
X316160726Y-64859386D01*
X316094060Y-64826053D01*
X315927393Y-64826053D01*
X315860726Y-64859386D01*
X315827393Y-64892720D01*
X315794060Y-64959386D01*
X315794060Y-65126053D01*
X315827393Y-65192720D01*
X315860726Y-65226053D01*
X315927393Y-65259386D01*
X316094060Y-65259386D01*
X316160726Y-65226053D01*
X316194060Y-65192720D01*
X315594060Y-64559386D02*
X315360726Y-65259386D01*
X315127393Y-64559386D01*
X316219773Y-76759320D02*
X316286440Y-76725986D01*
X316386440Y-76725986D01*
X316486440Y-76759320D01*
X316553106Y-76825986D01*
X316586440Y-76892653D01*
X316619773Y-77025986D01*
X316619773Y-77125986D01*
X316586440Y-77259320D01*
X316553106Y-77325986D01*
X316486440Y-77392653D01*
X316386440Y-77425986D01*
X316319773Y-77425986D01*
X316219773Y-77392653D01*
X316186440Y-77359320D01*
X316186440Y-77125986D01*
X316319773Y-77125986D01*
X315886440Y-77425986D02*
X315886440Y-76725986D01*
X315486440Y-77425986D01*
X315486440Y-76725986D01*
X315153106Y-77425986D02*
X315153106Y-76725986D01*
X314986440Y-76725986D01*
X314886440Y-76759320D01*
X314819773Y-76825986D01*
X314786440Y-76892653D01*
X314753106Y-77025986D01*
X314753106Y-77125986D01*
X314786440Y-77259320D01*
X314819773Y-77325986D01*
X314886440Y-77392653D01*
X314986440Y-77425986D01*
X315153106Y-77425986D01*
X312818986Y-64562553D02*
X312585653Y-64895886D01*
X312418986Y-64562553D02*
X312418986Y-65262553D01*
X312685653Y-65262553D01*
X312752320Y-65229220D01*
X312785653Y-65195886D01*
X312818986Y-65129220D01*
X312818986Y-65029220D01*
X312785653Y-64962553D01*
X312752320Y-64929220D01*
X312685653Y-64895886D01*
X312418986Y-64895886D01*
X313085653Y-64595886D02*
X313185653Y-64562553D01*
X313352320Y-64562553D01*
X313418986Y-64595886D01*
X313452320Y-64629220D01*
X313485653Y-64695886D01*
X313485653Y-64762553D01*
X313452320Y-64829220D01*
X313418986Y-64862553D01*
X313352320Y-64895886D01*
X313218986Y-64929220D01*
X313152320Y-64962553D01*
X313118986Y-64995886D01*
X313085653Y-65062553D01*
X313085653Y-65129220D01*
X313118986Y-65195886D01*
X313152320Y-65229220D01*
X313218986Y-65262553D01*
X313385653Y-65262553D01*
X313485653Y-65229220D01*
X313685653Y-65262553D02*
X314085653Y-65262553D01*
X313885653Y-64562553D02*
X313885653Y-65262553D01*
X341960726Y-64561926D02*
X341527393Y-64561926D01*
X341760726Y-64828593D01*
X341660726Y-64828593D01*
X341594060Y-64861926D01*
X341560726Y-64895260D01*
X341527393Y-64961926D01*
X341527393Y-65128593D01*
X341560726Y-65195260D01*
X341594060Y-65228593D01*
X341660726Y-65261926D01*
X341860726Y-65261926D01*
X341927393Y-65228593D01*
X341960726Y-65195260D01*
X341327393Y-64561926D02*
X341094060Y-65261926D01*
X340860726Y-64561926D01*
X340694060Y-64561926D02*
X340260726Y-64561926D01*
X340494060Y-64828593D01*
X340394060Y-64828593D01*
X340327393Y-64861926D01*
X340294060Y-64895260D01*
X340260726Y-64961926D01*
X340260726Y-65128593D01*
X340294060Y-65195260D01*
X340327393Y-65228593D01*
X340394060Y-65261926D01*
X340594060Y-65261926D01*
X340660726Y-65228593D01*
X340694060Y-65195260D01*
M02*
